<?xml version="1.0" encoding="utf-8" standalone="no"?>
<!DOCTYPE svg PUBLIC "-//W3C//DTD SVG 1.1//EN"
  "http://www.w3.org/Graphics/SVG/1.1/DTD/svg11.dtd">
<svg xmlns:xlink="http://www.w3.org/1999/xlink" width="864pt" height="360pt" viewBox="0 0 864 360" xmlns="http://www.w3.org/2000/svg" version="1.1">
 <metadata>
  <rdf:RDF xmlns:dc="http://purl.org/dc/elements/1.1/" xmlns:cc="http://creativecommons.org/ns#" xmlns:rdf="http://www.w3.org/1999/02/22-rdf-syntax-ns#">
   <cc:Work>
    <dc:type rdf:resource="http://purl.org/dc/dcmitype/StillImage"/>
    <dc:date>2024-11-13T20:06:18.149958</dc:date>
    <dc:format>image/svg+xml</dc:format>
    <dc:creator>
     <cc:Agent>
      <dc:title>Matplotlib v3.9.2, https://matplotlib.org/</dc:title>
     </cc:Agent>
    </dc:creator>
   </cc:Work>
  </rdf:RDF>
 </metadata>
 <defs>
  <style type="text/css">*{stroke-linejoin: round; stroke-linecap: butt}</style>
 </defs>
 <g id="figure_1">
  <g id="patch_1">
   <path d="M 0 360 
L 864 360 
L 864 0 
L 0 0 
L 0 360 
z
" style="fill: none; opacity: 0"/>
  </g>
  <g id="axes_1">
   <g id="patch_2">
    <path d="M 108 320.4 
L 777.6 320.4 
L 777.6 43.2 
L 108 43.2 
L 108 320.4 
z
" style="fill: none; opacity: 0"/>
   </g>
   <g id="matplotlib.axis_1">
    <g id="xtick_1">
     <g id="line2d_1">
      <path d="M 158.088983 320.4 
L 158.088983 43.2 
" clip-path="url(#p3fd18b11e5)" style="fill: none; stroke-dasharray: 5.12,1.28,0.8,1.28; stroke-dashoffset: 0; stroke: #b0b0b0; stroke-width: 0.8"/>
     </g>
     <g id="line2d_2">
      <defs>
       <path id="md0dbb7a3a5" d="M 0 0 
L 0 3.5 
" style="stroke: #a9a9a9; stroke-width: 0.8"/>
      </defs>
      <g>
       <use xlink:href="#md0dbb7a3a5" x="158.088983" y="320.4" style="fill: #a9a9a9; stroke: #a9a9a9; stroke-width: 0.8"/>
      </g>
     </g>
     <g id="text_1">
      <!-- 2021-09 -->
      <g style="fill: #a9a9a9" transform="translate(137.197576 334.998438) scale(0.1 -0.1)">
       <defs>
        <path id="DejaVuSans-32" d="M 1228 531 
L 3431 531 
L 3431 0 
L 469 0 
L 469 531 
Q 828 903 1448 1529 
Q 2069 2156 2228 2338 
Q 2531 2678 2651 2914 
Q 2772 3150 2772 3378 
Q 2772 3750 2511 3984 
Q 2250 4219 1831 4219 
Q 1534 4219 1204 4116 
Q 875 4013 500 3803 
L 500 4441 
Q 881 4594 1212 4672 
Q 1544 4750 1819 4750 
Q 2544 4750 2975 4387 
Q 3406 4025 3406 3419 
Q 3406 3131 3298 2873 
Q 3191 2616 2906 2266 
Q 2828 2175 2409 1742 
Q 1991 1309 1228 531 
z
" transform="scale(0.015625)"/>
        <path id="DejaVuSans-30" d="M 2034 4250 
Q 1547 4250 1301 3770 
Q 1056 3291 1056 2328 
Q 1056 1369 1301 889 
Q 1547 409 2034 409 
Q 2525 409 2770 889 
Q 3016 1369 3016 2328 
Q 3016 3291 2770 3770 
Q 2525 4250 2034 4250 
z
M 2034 4750 
Q 2819 4750 3233 4129 
Q 3647 3509 3647 2328 
Q 3647 1150 3233 529 
Q 2819 -91 2034 -91 
Q 1250 -91 836 529 
Q 422 1150 422 2328 
Q 422 3509 836 4129 
Q 1250 4750 2034 4750 
z
" transform="scale(0.015625)"/>
        <path id="DejaVuSans-31" d="M 794 531 
L 1825 531 
L 1825 4091 
L 703 3866 
L 703 4441 
L 1819 4666 
L 2450 4666 
L 2450 531 
L 3481 531 
L 3481 0 
L 794 0 
L 794 531 
z
" transform="scale(0.015625)"/>
        <path id="DejaVuSans-2d" d="M 313 2009 
L 1997 2009 
L 1997 1497 
L 313 1497 
L 313 2009 
z
" transform="scale(0.015625)"/>
        <path id="DejaVuSans-39" d="M 703 97 
L 703 672 
Q 941 559 1184 500 
Q 1428 441 1663 441 
Q 2288 441 2617 861 
Q 2947 1281 2994 2138 
Q 2813 1869 2534 1725 
Q 2256 1581 1919 1581 
Q 1219 1581 811 2004 
Q 403 2428 403 3163 
Q 403 3881 828 4315 
Q 1253 4750 1959 4750 
Q 2769 4750 3195 4129 
Q 3622 3509 3622 2328 
Q 3622 1225 3098 567 
Q 2575 -91 1691 -91 
Q 1453 -91 1209 -44 
Q 966 3 703 97 
z
M 1959 2075 
Q 2384 2075 2632 2365 
Q 2881 2656 2881 3163 
Q 2881 3666 2632 3958 
Q 2384 4250 1959 4250 
Q 1534 4250 1286 3958 
Q 1038 3666 1038 3163 
Q 1038 2656 1286 2365 
Q 1534 2075 1959 2075 
z
" transform="scale(0.015625)"/>
       </defs>
       <use xlink:href="#DejaVuSans-32"/>
       <use xlink:href="#DejaVuSans-30" x="63.623047"/>
       <use xlink:href="#DejaVuSans-32" x="127.246094"/>
       <use xlink:href="#DejaVuSans-31" x="190.869141"/>
       <use xlink:href="#DejaVuSans-2d" x="254.492188"/>
       <use xlink:href="#DejaVuSans-30" x="290.576172"/>
       <use xlink:href="#DejaVuSans-39" x="354.199219"/>
      </g>
     </g>
    </g>
    <g id="xtick_2">
     <g id="line2d_3">
      <path d="M 219.566406 320.4 
L 219.566406 43.2 
" clip-path="url(#p3fd18b11e5)" style="fill: none; stroke-dasharray: 5.12,1.28,0.8,1.28; stroke-dashoffset: 0; stroke: #b0b0b0; stroke-width: 0.8"/>
     </g>
     <g id="line2d_4">
      <g>
       <use xlink:href="#md0dbb7a3a5" x="219.566406" y="320.4" style="fill: #a9a9a9; stroke: #a9a9a9; stroke-width: 0.8"/>
      </g>
     </g>
     <g id="text_2">
      <!-- 2022-01 -->
      <g style="fill: #a9a9a9" transform="translate(198.675 334.998438) scale(0.1 -0.1)">
       <use xlink:href="#DejaVuSans-32"/>
       <use xlink:href="#DejaVuSans-30" x="63.623047"/>
       <use xlink:href="#DejaVuSans-32" x="127.246094"/>
       <use xlink:href="#DejaVuSans-32" x="190.869141"/>
       <use xlink:href="#DejaVuSans-2d" x="254.492188"/>
       <use xlink:href="#DejaVuSans-30" x="290.576172"/>
       <use xlink:href="#DejaVuSans-31" x="354.199219"/>
      </g>
     </g>
    </g>
    <g id="xtick_3">
     <g id="line2d_5">
      <path d="M 280.036002 320.4 
L 280.036002 43.2 
" clip-path="url(#p3fd18b11e5)" style="fill: none; stroke-dasharray: 5.12,1.28,0.8,1.28; stroke-dashoffset: 0; stroke: #b0b0b0; stroke-width: 0.8"/>
     </g>
     <g id="line2d_6">
      <g>
       <use xlink:href="#md0dbb7a3a5" x="280.036002" y="320.4" style="fill: #a9a9a9; stroke: #a9a9a9; stroke-width: 0.8"/>
      </g>
     </g>
     <g id="text_3">
      <!-- 2022-05 -->
      <g style="fill: #a9a9a9" transform="translate(259.144596 334.998438) scale(0.1 -0.1)">
       <defs>
        <path id="DejaVuSans-35" d="M 691 4666 
L 3169 4666 
L 3169 4134 
L 1269 4134 
L 1269 2991 
Q 1406 3038 1543 3061 
Q 1681 3084 1819 3084 
Q 2600 3084 3056 2656 
Q 3513 2228 3513 1497 
Q 3513 744 3044 326 
Q 2575 -91 1722 -91 
Q 1428 -91 1123 -41 
Q 819 9 494 109 
L 494 744 
Q 775 591 1075 516 
Q 1375 441 1709 441 
Q 2250 441 2565 725 
Q 2881 1009 2881 1497 
Q 2881 1984 2565 2268 
Q 2250 2553 1709 2553 
Q 1456 2553 1204 2497 
Q 953 2441 691 2322 
L 691 4666 
z
" transform="scale(0.015625)"/>
       </defs>
       <use xlink:href="#DejaVuSans-32"/>
       <use xlink:href="#DejaVuSans-30" x="63.623047"/>
       <use xlink:href="#DejaVuSans-32" x="127.246094"/>
       <use xlink:href="#DejaVuSans-32" x="190.869141"/>
       <use xlink:href="#DejaVuSans-2d" x="254.492188"/>
       <use xlink:href="#DejaVuSans-30" x="290.576172"/>
       <use xlink:href="#DejaVuSans-35" x="354.199219"/>
      </g>
     </g>
    </g>
    <g id="xtick_4">
     <g id="line2d_7">
      <path d="M 342.017339 320.4 
L 342.017339 43.2 
" clip-path="url(#p3fd18b11e5)" style="fill: none; stroke-dasharray: 5.12,1.28,0.8,1.28; stroke-dashoffset: 0; stroke: #b0b0b0; stroke-width: 0.8"/>
     </g>
     <g id="line2d_8">
      <g>
       <use xlink:href="#md0dbb7a3a5" x="342.017339" y="320.4" style="fill: #a9a9a9; stroke: #a9a9a9; stroke-width: 0.8"/>
      </g>
     </g>
     <g id="text_4">
      <!-- 2022-09 -->
      <g style="fill: #a9a9a9" transform="translate(321.125933 334.998438) scale(0.1 -0.1)">
       <use xlink:href="#DejaVuSans-32"/>
       <use xlink:href="#DejaVuSans-30" x="63.623047"/>
       <use xlink:href="#DejaVuSans-32" x="127.246094"/>
       <use xlink:href="#DejaVuSans-32" x="190.869141"/>
       <use xlink:href="#DejaVuSans-2d" x="254.492188"/>
       <use xlink:href="#DejaVuSans-30" x="290.576172"/>
       <use xlink:href="#DejaVuSans-39" x="354.199219"/>
      </g>
     </g>
    </g>
    <g id="xtick_5">
     <g id="line2d_9">
      <path d="M 403.494762 320.4 
L 403.494762 43.2 
" clip-path="url(#p3fd18b11e5)" style="fill: none; stroke-dasharray: 5.12,1.28,0.8,1.28; stroke-dashoffset: 0; stroke: #b0b0b0; stroke-width: 0.8"/>
     </g>
     <g id="line2d_10">
      <g>
       <use xlink:href="#md0dbb7a3a5" x="403.494762" y="320.4" style="fill: #a9a9a9; stroke: #a9a9a9; stroke-width: 0.8"/>
      </g>
     </g>
     <g id="text_5">
      <!-- 2023-01 -->
      <g style="fill: #a9a9a9" transform="translate(382.603356 334.998438) scale(0.1 -0.1)">
       <defs>
        <path id="DejaVuSans-33" d="M 2597 2516 
Q 3050 2419 3304 2112 
Q 3559 1806 3559 1356 
Q 3559 666 3084 287 
Q 2609 -91 1734 -91 
Q 1441 -91 1130 -33 
Q 819 25 488 141 
L 488 750 
Q 750 597 1062 519 
Q 1375 441 1716 441 
Q 2309 441 2620 675 
Q 2931 909 2931 1356 
Q 2931 1769 2642 2001 
Q 2353 2234 1838 2234 
L 1294 2234 
L 1294 2753 
L 1863 2753 
Q 2328 2753 2575 2939 
Q 2822 3125 2822 3475 
Q 2822 3834 2567 4026 
Q 2313 4219 1838 4219 
Q 1578 4219 1281 4162 
Q 984 4106 628 3988 
L 628 4550 
Q 988 4650 1302 4700 
Q 1616 4750 1894 4750 
Q 2613 4750 3031 4423 
Q 3450 4097 3450 3541 
Q 3450 3153 3228 2886 
Q 3006 2619 2597 2516 
z
" transform="scale(0.015625)"/>
       </defs>
       <use xlink:href="#DejaVuSans-32"/>
       <use xlink:href="#DejaVuSans-30" x="63.623047"/>
       <use xlink:href="#DejaVuSans-32" x="127.246094"/>
       <use xlink:href="#DejaVuSans-33" x="190.869141"/>
       <use xlink:href="#DejaVuSans-2d" x="254.492188"/>
       <use xlink:href="#DejaVuSans-30" x="290.576172"/>
       <use xlink:href="#DejaVuSans-31" x="354.199219"/>
      </g>
     </g>
    </g>
    <g id="xtick_6">
     <g id="line2d_11">
      <path d="M 463.964359 320.4 
L 463.964359 43.2 
" clip-path="url(#p3fd18b11e5)" style="fill: none; stroke-dasharray: 5.12,1.28,0.8,1.28; stroke-dashoffset: 0; stroke: #b0b0b0; stroke-width: 0.8"/>
     </g>
     <g id="line2d_12">
      <g>
       <use xlink:href="#md0dbb7a3a5" x="463.964359" y="320.4" style="fill: #a9a9a9; stroke: #a9a9a9; stroke-width: 0.8"/>
      </g>
     </g>
     <g id="text_6">
      <!-- 2023-05 -->
      <g style="fill: #a9a9a9" transform="translate(443.072953 334.998438) scale(0.1 -0.1)">
       <use xlink:href="#DejaVuSans-32"/>
       <use xlink:href="#DejaVuSans-30" x="63.623047"/>
       <use xlink:href="#DejaVuSans-32" x="127.246094"/>
       <use xlink:href="#DejaVuSans-33" x="190.869141"/>
       <use xlink:href="#DejaVuSans-2d" x="254.492188"/>
       <use xlink:href="#DejaVuSans-30" x="290.576172"/>
       <use xlink:href="#DejaVuSans-35" x="354.199219"/>
      </g>
     </g>
    </g>
    <g id="xtick_7">
     <g id="line2d_13">
      <path d="M 525.945695 320.4 
L 525.945695 43.2 
" clip-path="url(#p3fd18b11e5)" style="fill: none; stroke-dasharray: 5.12,1.28,0.8,1.28; stroke-dashoffset: 0; stroke: #b0b0b0; stroke-width: 0.8"/>
     </g>
     <g id="line2d_14">
      <g>
       <use xlink:href="#md0dbb7a3a5" x="525.945695" y="320.4" style="fill: #a9a9a9; stroke: #a9a9a9; stroke-width: 0.8"/>
      </g>
     </g>
     <g id="text_7">
      <!-- 2023-09 -->
      <g style="fill: #a9a9a9" transform="translate(505.054289 334.998438) scale(0.1 -0.1)">
       <use xlink:href="#DejaVuSans-32"/>
       <use xlink:href="#DejaVuSans-30" x="63.623047"/>
       <use xlink:href="#DejaVuSans-32" x="127.246094"/>
       <use xlink:href="#DejaVuSans-33" x="190.869141"/>
       <use xlink:href="#DejaVuSans-2d" x="254.492188"/>
       <use xlink:href="#DejaVuSans-30" x="290.576172"/>
       <use xlink:href="#DejaVuSans-39" x="354.199219"/>
      </g>
     </g>
    </g>
    <g id="xtick_8">
     <g id="line2d_15">
      <path d="M 587.423119 320.4 
L 587.423119 43.2 
" clip-path="url(#p3fd18b11e5)" style="fill: none; stroke-dasharray: 5.12,1.28,0.8,1.28; stroke-dashoffset: 0; stroke: #b0b0b0; stroke-width: 0.8"/>
     </g>
     <g id="line2d_16">
      <g>
       <use xlink:href="#md0dbb7a3a5" x="587.423119" y="320.4" style="fill: #a9a9a9; stroke: #a9a9a9; stroke-width: 0.8"/>
      </g>
     </g>
     <g id="text_8">
      <!-- 2024-01 -->
      <g style="fill: #a9a9a9" transform="translate(566.531712 334.998438) scale(0.1 -0.1)">
       <defs>
        <path id="DejaVuSans-34" d="M 2419 4116 
L 825 1625 
L 2419 1625 
L 2419 4116 
z
M 2253 4666 
L 3047 4666 
L 3047 1625 
L 3713 1625 
L 3713 1100 
L 3047 1100 
L 3047 0 
L 2419 0 
L 2419 1100 
L 313 1100 
L 313 1709 
L 2253 4666 
z
" transform="scale(0.015625)"/>
       </defs>
       <use xlink:href="#DejaVuSans-32"/>
       <use xlink:href="#DejaVuSans-30" x="63.623047"/>
       <use xlink:href="#DejaVuSans-32" x="127.246094"/>
       <use xlink:href="#DejaVuSans-34" x="190.869141"/>
       <use xlink:href="#DejaVuSans-2d" x="254.492188"/>
       <use xlink:href="#DejaVuSans-30" x="290.576172"/>
       <use xlink:href="#DejaVuSans-31" x="354.199219"/>
      </g>
     </g>
    </g>
    <g id="xtick_9">
     <g id="line2d_17">
      <path d="M 648.396629 320.4 
L 648.396629 43.2 
" clip-path="url(#p3fd18b11e5)" style="fill: none; stroke-dasharray: 5.12,1.28,0.8,1.28; stroke-dashoffset: 0; stroke: #b0b0b0; stroke-width: 0.8"/>
     </g>
     <g id="line2d_18">
      <g>
       <use xlink:href="#md0dbb7a3a5" x="648.396629" y="320.4" style="fill: #a9a9a9; stroke: #a9a9a9; stroke-width: 0.8"/>
      </g>
     </g>
     <g id="text_9">
      <!-- 2024-05 -->
      <g style="fill: #a9a9a9" transform="translate(627.505222 334.998438) scale(0.1 -0.1)">
       <use xlink:href="#DejaVuSans-32"/>
       <use xlink:href="#DejaVuSans-30" x="63.623047"/>
       <use xlink:href="#DejaVuSans-32" x="127.246094"/>
       <use xlink:href="#DejaVuSans-34" x="190.869141"/>
       <use xlink:href="#DejaVuSans-2d" x="254.492188"/>
       <use xlink:href="#DejaVuSans-30" x="290.576172"/>
       <use xlink:href="#DejaVuSans-35" x="354.199219"/>
      </g>
     </g>
    </g>
    <g id="xtick_10">
     <g id="line2d_19">
      <path d="M 710.377965 320.4 
L 710.377965 43.2 
" clip-path="url(#p3fd18b11e5)" style="fill: none; stroke-dasharray: 5.12,1.28,0.8,1.28; stroke-dashoffset: 0; stroke: #b0b0b0; stroke-width: 0.8"/>
     </g>
     <g id="line2d_20">
      <g>
       <use xlink:href="#md0dbb7a3a5" x="710.377965" y="320.4" style="fill: #a9a9a9; stroke: #a9a9a9; stroke-width: 0.8"/>
      </g>
     </g>
     <g id="text_10">
      <!-- 2024-09 -->
      <g style="fill: #a9a9a9" transform="translate(689.486559 334.998438) scale(0.1 -0.1)">
       <use xlink:href="#DejaVuSans-32"/>
       <use xlink:href="#DejaVuSans-30" x="63.623047"/>
       <use xlink:href="#DejaVuSans-32" x="127.246094"/>
       <use xlink:href="#DejaVuSans-34" x="190.869141"/>
       <use xlink:href="#DejaVuSans-2d" x="254.492188"/>
       <use xlink:href="#DejaVuSans-30" x="290.576172"/>
       <use xlink:href="#DejaVuSans-39" x="354.199219"/>
      </g>
     </g>
    </g>
    <g id="xtick_11">
     <g id="line2d_21">
      <path d="M 771.855388 320.4 
L 771.855388 43.2 
" clip-path="url(#p3fd18b11e5)" style="fill: none; stroke-dasharray: 5.12,1.28,0.8,1.28; stroke-dashoffset: 0; stroke: #b0b0b0; stroke-width: 0.8"/>
     </g>
     <g id="line2d_22">
      <g>
       <use xlink:href="#md0dbb7a3a5" x="771.855388" y="320.4" style="fill: #a9a9a9; stroke: #a9a9a9; stroke-width: 0.8"/>
      </g>
     </g>
     <g id="text_11">
      <!-- 2025-01 -->
      <g style="fill: #a9a9a9" transform="translate(750.963982 334.998438) scale(0.1 -0.1)">
       <use xlink:href="#DejaVuSans-32"/>
       <use xlink:href="#DejaVuSans-30" x="63.623047"/>
       <use xlink:href="#DejaVuSans-32" x="127.246094"/>
       <use xlink:href="#DejaVuSans-35" x="190.869141"/>
       <use xlink:href="#DejaVuSans-2d" x="254.492188"/>
       <use xlink:href="#DejaVuSans-30" x="290.576172"/>
       <use xlink:href="#DejaVuSans-31" x="354.199219"/>
      </g>
     </g>
    </g>
   </g>
   <g id="matplotlib.axis_2">
    <g id="ytick_1">
     <g id="line2d_23">
      <path d="M 108 307.836233 
L 777.6 307.836233 
" clip-path="url(#p3fd18b11e5)" style="fill: none; stroke-dasharray: 5.12,1.28,0.8,1.28; stroke-dashoffset: 0; stroke: #b0b0b0; stroke-width: 0.8"/>
     </g>
     <g id="line2d_24">
      <defs>
       <path id="mfdd452770e" d="M 0 0 
L -3.5 0 
" style="stroke: #a9a9a9; stroke-width: 0.8"/>
      </defs>
      <g>
       <use xlink:href="#mfdd452770e" x="108" y="307.836233" style="fill: #a9a9a9; stroke: #a9a9a9; stroke-width: 0.8"/>
      </g>
     </g>
     <g id="text_12">
      <!-- 0 -->
      <g style="fill: #a9a9a9" transform="translate(94.6375 311.635452) scale(0.1 -0.1)">
       <use xlink:href="#DejaVuSans-30"/>
      </g>
     </g>
    </g>
    <g id="ytick_2">
     <g id="line2d_25">
      <path d="M 108 278.849892 
L 777.6 278.849892 
" clip-path="url(#p3fd18b11e5)" style="fill: none; stroke-dasharray: 5.12,1.28,0.8,1.28; stroke-dashoffset: 0; stroke: #b0b0b0; stroke-width: 0.8"/>
     </g>
     <g id="line2d_26">
      <g>
       <use xlink:href="#mfdd452770e" x="108" y="278.849892" style="fill: #a9a9a9; stroke: #a9a9a9; stroke-width: 0.8"/>
      </g>
     </g>
     <g id="text_13">
      <!-- 800 -->
      <g style="fill: #a9a9a9" transform="translate(81.9125 282.649111) scale(0.1 -0.1)">
       <defs>
        <path id="DejaVuSans-38" d="M 2034 2216 
Q 1584 2216 1326 1975 
Q 1069 1734 1069 1313 
Q 1069 891 1326 650 
Q 1584 409 2034 409 
Q 2484 409 2743 651 
Q 3003 894 3003 1313 
Q 3003 1734 2745 1975 
Q 2488 2216 2034 2216 
z
M 1403 2484 
Q 997 2584 770 2862 
Q 544 3141 544 3541 
Q 544 4100 942 4425 
Q 1341 4750 2034 4750 
Q 2731 4750 3128 4425 
Q 3525 4100 3525 3541 
Q 3525 3141 3298 2862 
Q 3072 2584 2669 2484 
Q 3125 2378 3379 2068 
Q 3634 1759 3634 1313 
Q 3634 634 3220 271 
Q 2806 -91 2034 -91 
Q 1263 -91 848 271 
Q 434 634 434 1313 
Q 434 1759 690 2068 
Q 947 2378 1403 2484 
z
M 1172 3481 
Q 1172 3119 1398 2916 
Q 1625 2713 2034 2713 
Q 2441 2713 2670 2916 
Q 2900 3119 2900 3481 
Q 2900 3844 2670 4047 
Q 2441 4250 2034 4250 
Q 1625 4250 1398 4047 
Q 1172 3844 1172 3481 
z
" transform="scale(0.015625)"/>
       </defs>
       <use xlink:href="#DejaVuSans-38"/>
       <use xlink:href="#DejaVuSans-30" x="63.623047"/>
       <use xlink:href="#DejaVuSans-30" x="127.246094"/>
      </g>
     </g>
    </g>
    <g id="ytick_3">
     <g id="line2d_27">
      <path d="M 108 249.863551 
L 777.6 249.863551 
" clip-path="url(#p3fd18b11e5)" style="fill: none; stroke-dasharray: 5.12,1.28,0.8,1.28; stroke-dashoffset: 0; stroke: #b0b0b0; stroke-width: 0.8"/>
     </g>
     <g id="line2d_28">
      <g>
       <use xlink:href="#mfdd452770e" x="108" y="249.863551" style="fill: #a9a9a9; stroke: #a9a9a9; stroke-width: 0.8"/>
      </g>
     </g>
     <g id="text_14">
      <!-- 1600 -->
      <g style="fill: #a9a9a9" transform="translate(75.55 253.66277) scale(0.1 -0.1)">
       <defs>
        <path id="DejaVuSans-36" d="M 2113 2584 
Q 1688 2584 1439 2293 
Q 1191 2003 1191 1497 
Q 1191 994 1439 701 
Q 1688 409 2113 409 
Q 2538 409 2786 701 
Q 3034 994 3034 1497 
Q 3034 2003 2786 2293 
Q 2538 2584 2113 2584 
z
M 3366 4563 
L 3366 3988 
Q 3128 4100 2886 4159 
Q 2644 4219 2406 4219 
Q 1781 4219 1451 3797 
Q 1122 3375 1075 2522 
Q 1259 2794 1537 2939 
Q 1816 3084 2150 3084 
Q 2853 3084 3261 2657 
Q 3669 2231 3669 1497 
Q 3669 778 3244 343 
Q 2819 -91 2113 -91 
Q 1303 -91 875 529 
Q 447 1150 447 2328 
Q 447 3434 972 4092 
Q 1497 4750 2381 4750 
Q 2619 4750 2861 4703 
Q 3103 4656 3366 4563 
z
" transform="scale(0.015625)"/>
       </defs>
       <use xlink:href="#DejaVuSans-31"/>
       <use xlink:href="#DejaVuSans-36" x="63.623047"/>
       <use xlink:href="#DejaVuSans-30" x="127.246094"/>
       <use xlink:href="#DejaVuSans-30" x="190.869141"/>
      </g>
     </g>
    </g>
    <g id="ytick_4">
     <g id="line2d_29">
      <path d="M 108 220.877211 
L 777.6 220.877211 
" clip-path="url(#p3fd18b11e5)" style="fill: none; stroke-dasharray: 5.12,1.28,0.8,1.28; stroke-dashoffset: 0; stroke: #b0b0b0; stroke-width: 0.8"/>
     </g>
     <g id="line2d_30">
      <g>
       <use xlink:href="#mfdd452770e" x="108" y="220.877211" style="fill: #a9a9a9; stroke: #a9a9a9; stroke-width: 0.8"/>
      </g>
     </g>
     <g id="text_15">
      <!-- 2400 -->
      <g style="fill: #a9a9a9" transform="translate(75.55 224.676429) scale(0.1 -0.1)">
       <use xlink:href="#DejaVuSans-32"/>
       <use xlink:href="#DejaVuSans-34" x="63.623047"/>
       <use xlink:href="#DejaVuSans-30" x="127.246094"/>
       <use xlink:href="#DejaVuSans-30" x="190.869141"/>
      </g>
     </g>
    </g>
    <g id="ytick_5">
     <g id="line2d_31">
      <path d="M 108 191.89087 
L 777.6 191.89087 
" clip-path="url(#p3fd18b11e5)" style="fill: none; stroke-dasharray: 5.12,1.28,0.8,1.28; stroke-dashoffset: 0; stroke: #b0b0b0; stroke-width: 0.8"/>
     </g>
     <g id="line2d_32">
      <g>
       <use xlink:href="#mfdd452770e" x="108" y="191.89087" style="fill: #a9a9a9; stroke: #a9a9a9; stroke-width: 0.8"/>
      </g>
     </g>
     <g id="text_16">
      <!-- 3200 -->
      <g style="fill: #a9a9a9" transform="translate(75.55 195.690089) scale(0.1 -0.1)">
       <use xlink:href="#DejaVuSans-33"/>
       <use xlink:href="#DejaVuSans-32" x="63.623047"/>
       <use xlink:href="#DejaVuSans-30" x="127.246094"/>
       <use xlink:href="#DejaVuSans-30" x="190.869141"/>
      </g>
     </g>
    </g>
    <g id="ytick_6">
     <g id="line2d_33">
      <path d="M 108 162.904529 
L 777.6 162.904529 
" clip-path="url(#p3fd18b11e5)" style="fill: none; stroke-dasharray: 5.12,1.28,0.8,1.28; stroke-dashoffset: 0; stroke: #b0b0b0; stroke-width: 0.8"/>
     </g>
     <g id="line2d_34">
      <g>
       <use xlink:href="#mfdd452770e" x="108" y="162.904529" style="fill: #a9a9a9; stroke: #a9a9a9; stroke-width: 0.8"/>
      </g>
     </g>
     <g id="text_17">
      <!-- 4000 -->
      <g style="fill: #a9a9a9" transform="translate(75.55 166.703748) scale(0.1 -0.1)">
       <use xlink:href="#DejaVuSans-34"/>
       <use xlink:href="#DejaVuSans-30" x="63.623047"/>
       <use xlink:href="#DejaVuSans-30" x="127.246094"/>
       <use xlink:href="#DejaVuSans-30" x="190.869141"/>
      </g>
     </g>
    </g>
    <g id="ytick_7">
     <g id="line2d_35">
      <path d="M 108 133.918188 
L 777.6 133.918188 
" clip-path="url(#p3fd18b11e5)" style="fill: none; stroke-dasharray: 5.12,1.28,0.8,1.28; stroke-dashoffset: 0; stroke: #b0b0b0; stroke-width: 0.8"/>
     </g>
     <g id="line2d_36">
      <g>
       <use xlink:href="#mfdd452770e" x="108" y="133.918188" style="fill: #a9a9a9; stroke: #a9a9a9; stroke-width: 0.8"/>
      </g>
     </g>
     <g id="text_18">
      <!-- 4800 -->
      <g style="fill: #a9a9a9" transform="translate(75.55 137.717407) scale(0.1 -0.1)">
       <use xlink:href="#DejaVuSans-34"/>
       <use xlink:href="#DejaVuSans-38" x="63.623047"/>
       <use xlink:href="#DejaVuSans-30" x="127.246094"/>
       <use xlink:href="#DejaVuSans-30" x="190.869141"/>
      </g>
     </g>
    </g>
    <g id="ytick_8">
     <g id="line2d_37">
      <path d="M 108 104.931848 
L 777.6 104.931848 
" clip-path="url(#p3fd18b11e5)" style="fill: none; stroke-dasharray: 5.12,1.28,0.8,1.28; stroke-dashoffset: 0; stroke: #b0b0b0; stroke-width: 0.8"/>
     </g>
     <g id="line2d_38">
      <g>
       <use xlink:href="#mfdd452770e" x="108" y="104.931848" style="fill: #a9a9a9; stroke: #a9a9a9; stroke-width: 0.8"/>
      </g>
     </g>
     <g id="text_19">
      <!-- 5600 -->
      <g style="fill: #a9a9a9" transform="translate(75.55 108.731066) scale(0.1 -0.1)">
       <use xlink:href="#DejaVuSans-35"/>
       <use xlink:href="#DejaVuSans-36" x="63.623047"/>
       <use xlink:href="#DejaVuSans-30" x="127.246094"/>
       <use xlink:href="#DejaVuSans-30" x="190.869141"/>
      </g>
     </g>
    </g>
    <g id="ytick_9">
     <g id="line2d_39">
      <path d="M 108 75.945507 
L 777.6 75.945507 
" clip-path="url(#p3fd18b11e5)" style="fill: none; stroke-dasharray: 5.12,1.28,0.8,1.28; stroke-dashoffset: 0; stroke: #b0b0b0; stroke-width: 0.8"/>
     </g>
     <g id="line2d_40">
      <g>
       <use xlink:href="#mfdd452770e" x="108" y="75.945507" style="fill: #a9a9a9; stroke: #a9a9a9; stroke-width: 0.8"/>
      </g>
     </g>
     <g id="text_20">
      <!-- 6400 -->
      <g style="fill: #a9a9a9" transform="translate(75.55 79.744726) scale(0.1 -0.1)">
       <use xlink:href="#DejaVuSans-36"/>
       <use xlink:href="#DejaVuSans-34" x="63.623047"/>
       <use xlink:href="#DejaVuSans-30" x="127.246094"/>
       <use xlink:href="#DejaVuSans-30" x="190.869141"/>
      </g>
     </g>
    </g>
    <g id="ytick_10">
     <g id="line2d_41">
      <path d="M 108 46.959166 
L 777.6 46.959166 
" clip-path="url(#p3fd18b11e5)" style="fill: none; stroke-dasharray: 5.12,1.28,0.8,1.28; stroke-dashoffset: 0; stroke: #b0b0b0; stroke-width: 0.8"/>
     </g>
     <g id="line2d_42">
      <g>
       <use xlink:href="#mfdd452770e" x="108" y="46.959166" style="fill: #a9a9a9; stroke: #a9a9a9; stroke-width: 0.8"/>
      </g>
     </g>
     <g id="text_21">
      <!-- 7200 -->
      <g style="fill: #a9a9a9" transform="translate(75.55 50.758385) scale(0.1 -0.1)">
       <defs>
        <path id="DejaVuSans-37" d="M 525 4666 
L 3525 4666 
L 3525 4397 
L 1831 0 
L 1172 0 
L 2766 4134 
L 525 4134 
L 525 4666 
z
" transform="scale(0.015625)"/>
       </defs>
       <use xlink:href="#DejaVuSans-37"/>
       <use xlink:href="#DejaVuSans-32" x="63.623047"/>
       <use xlink:href="#DejaVuSans-30" x="127.246094"/>
       <use xlink:href="#DejaVuSans-30" x="190.869141"/>
      </g>
     </g>
    </g>
   </g>
   <g id="line2d_43">
    <path d="M 138.436364 307.727534 
L 141.459843 307.473904 
L 141.963757 307.256506 
L 143.97941 307.002876 
L 145.995063 306.604313 
L 147.00289 306.459382 
L 149.522456 306.241984 
L 150.530283 305.843422 
L 151.034196 305.191229 
L 151.53811 304.8289 
L 152.042023 303.705679 
L 152.545936 303.633214 
L 153.049849 303.234651 
L 154.057676 302.72739 
L 156.073329 301.133142 
L 158.088983 300.154853 
L 159.600722 299.466427 
L 160.104636 298.669303 
L 161.112462 297.944644 
L 161.616376 297.727247 
L 166.655509 297.002588 
L 167.159422 296.785191 
L 170.686815 296.495327 
L 172.702468 296.024299 
L 176.733775 295.480805 
L 177.237688 295.227175 
L 177.741601 295.154709 
L 178.749428 294.828613 
L 182.276821 294.248886 
L 183.284648 293.959022 
L 187.819868 293.198131 
L 188.827694 292.980733 
L 189.835521 292.9445 
L 191.851174 292.473472 
L 192.355087 291.785047 
L 193.866827 291.20532 
L 195.378567 290.806758 
L 195.88248 290.553127 
L 196.890307 290.371963 
L 198.90596 289.792236 
L 199.913787 289.71977 
L 200.921613 289.466139 
L 202.937267 288.958879 
L 203.44118 288.922646 
L 204.449007 288.451618 
L 204.95292 288.379152 
L 205.456833 288.125521 
L 210.99988 287.219698 
L 213.015533 286.639971 
L 213.519446 286.313875 
L 216.039013 285.480518 
L 217.046839 284.792092 
L 218.558579 284.502229 
L 231.660325 280.842703 
L 232.164238 280.842703 
L 232.668152 280.625306 
L 233.675978 280.516607 
L 234.179892 280.335442 
L 236.195545 280.226743 
L 237.203371 280.045579 
L 238.211198 279.538318 
L 239.722938 278.994824 
L 240.226851 278.668728 
L 241.234678 278.233932 
L 241.738591 277.980302 
L 242.746418 277.654206 
L 243.250331 277.473041 
L 244.258158 276.857081 
L 244.762071 276.313587 
L 245.769898 274.791804 
L 246.273811 274.646873 
L 246.777724 274.646873 
L 248.289464 273.777283 
L 248.793377 273.523652 
L 249.297291 273.414953 
L 249.801204 272.943925 
L 250.809031 272.545363 
L 251.816857 272.074335 
L 254.336424 268.885838 
L 257.359904 267.291589 
L 258.36773 266.494464 
L 258.871644 266.168368 
L 259.375557 265.407477 
L 259.87947 264.284256 
L 260.383384 263.523364 
L 260.887297 263.124802 
L 261.39121 262.907405 
L 264.918603 259.936305 
L 265.92643 258.740618 
L 266.934256 258.01596 
L 268.445996 257.001438 
L 268.94991 256.566643 
L 269.957736 256.240546 
L 271.469476 255.370956 
L 272.981216 254.392667 
L 274.996869 252.617254 
L 276.004696 252.218692 
L 277.012523 251.530266 
L 277.516436 251.240403 
L 278.020349 251.167937 
L 279.532089 250.334579 
L 280.036002 249.791086 
L 282.555569 248.450467 
L 283.059482 248.269303 
L 284.571222 247.254781 
L 292.129922 244.609777 
L 293.137748 243.703954 
L 294.145575 243.232926 
L 295.153402 242.689432 
L 295.657315 242.399569 
L 296.665141 242.109705 
L 297.169055 241.783609 
L 297.672968 241.638677 
L 299.184708 240.660388 
L 301.704275 240.080661 
L 303.216014 239.211071 
L 304.727754 238.884975 
L 305.231668 238.740043 
L 306.743408 237.616822 
L 308.759061 237.073329 
L 309.262974 236.674766 
L 312.286454 235.660244 
L 313.294281 235.47908 
L 314.302107 235.080518 
L 317.8295 233.812365 
L 318.837327 233.667434 
L 320.349067 233.160173 
L 322.868633 231.964486 
L 324.884287 230.877498 
L 328.915593 229.247017 
L 329.419506 229.174551 
L 330.427333 228.558591 
L 330.931246 228.486125 
L 332.946899 227.652768 
L 334.962553 227.362904 
L 335.970379 226.855643 
L 336.474293 226.420848 
L 336.978206 225.515025 
L 338.993859 224.971531 
L 340.505599 224.21064 
L 341.009512 224.101941 
L 345.040819 222.181596 
L 346.552559 221.891733 
L 347.560385 221.384472 
L 348.064299 221.167074 
L 348.568212 221.094608 
L 350.583865 220.188785 
L 352.095605 219.246729 
L 353.607345 218.956866 
L 356.126911 218.340906 
L 356.630825 217.942344 
L 358.142565 217.39885 
L 360.158218 216.601725 
L 360.662131 216.239396 
L 361.166045 216.058231 
L 362.173871 215.514738 
L 364.693438 214.68138 
L 366.205178 213.485694 
L 366.709091 213.376995 
L 367.716918 212.579871 
L 368.220831 212.507405 
L 368.724744 211.71028 
L 369.228657 211.492883 
L 369.732571 211.094321 
L 370.236484 211.021855 
L 371.244311 210.405895 
L 372.252137 210.079799 
L 372.756051 209.717469 
L 373.259964 209.536305 
L 374.771704 208.48555 
L 376.787357 207.434795 
L 377.29127 207.362329 
L 378.80301 206.601438 
L 379.306924 205.768081 
L 380.31475 205.043422 
L 380.818663 204.934723 
L 381.82649 204.318763 
L 382.330403 204.210065 
L 383.33823 203.702804 
L 385.353883 202.724515 
L 385.857797 202.362185 
L 386.865623 201.383896 
L 387.87345 200.767937 
L 388.377363 200.44184 
L 388.881276 199.898347 
L 390.89693 198.521495 
L 391.400843 197.941769 
L 391.904756 197.543206 
L 392.912583 197.180877 
L 393.920409 196.492451 
L 395.432149 195.73156 
L 395.936063 195.659094 
L 397.447803 194.86197 
L 398.455629 194.24601 
L 403.494762 192.434364 
L 403.998675 192.035802 
L 406.014329 191.27491 
L 406.518242 191.129978 
L 407.022155 190.731416 
L 409.541722 189.354565 
L 410.549548 187.361754 
L 411.557375 186.202301 
L 412.565202 185.586341 
L 414.076942 184.970381 
L 414.580855 184.897915 
L 415.084768 184.608052 
L 417.604335 183.810927 
L 418.108248 183.59353 
L 419.116075 182.905104 
L 420.627815 182.252912 
L 421.635641 181.709418 
L 422.139554 181.347088 
L 422.643468 181.129691 
L 423.147381 180.767362 
L 423.651294 180.223868 
L 424.659121 179.680374 
L 427.178688 178.339756 
L 430.202167 176.854206 
L 431.209994 176.528109 
L 432.721734 176.057081 
L 434.737387 175.151258 
L 435.745214 174.752696 
L 436.249127 174.354134 
L 438.26478 173.665708 
L 439.272607 172.94105 
L 440.280433 172.506254 
L 441.28826 171.70913 
L 442.296087 171.346801 
L 442.8 170.912006 
L 443.303913 170.83954 
L 444.31174 170.078648 
L 445.319567 169.571387 
L 445.82348 169.35399 
L 446.327393 168.846729 
L 449.854786 167.469878 
L 450.862613 167.035083 
L 452.374353 166.564055 
L 453.382179 166.419123 
L 453.886093 166.201725 
L 454.390006 166.12926 
L 455.397833 165.694464 
L 455.901746 165.658231 
L 457.917399 164.89734 
L 459.429139 163.846585 
L 459.933052 163.665421 
L 460.940879 163.121927 
L 461.444792 162.976995 
L 464.468272 161.31028 
L 464.972185 161.201582 
L 466.483925 160.331991 
L 467.995665 159.82473 
L 469.003492 159.498634 
L 471.019145 158.846441 
L 472.026972 158.520345 
L 474.042625 158.121783 
L 474.546538 157.904385 
L 475.050452 157.831919 
L 476.058278 157.397124 
L 476.562191 157.324659 
L 477.066105 157.071028 
L 478.073931 156.889863 
L 479.585671 156.34637 
L 480.593498 156.237671 
L 482.105238 155.911574 
L 484.624804 155.476779 
L 497.72655 151.708555 
L 498.230464 151.201294 
L 499.23829 150.802732 
L 502.26177 149.715744 
L 502.765683 149.389648 
L 503.269597 149.280949 
L 503.77351 148.991086 
L 505.28525 148.55629 
L 506.293076 148.30266 
L 506.79699 147.976564 
L 507.300903 147.867865 
L 507.804816 147.43307 
L 509.316556 147.143206 
L 510.324383 146.672178 
L 510.828296 146.092451 
L 512.843949 145.621423 
L 516.371343 144.896765 
L 516.875256 144.896765 
L 517.379169 144.679367 
L 519.394822 144.317038 
L 519.898736 144.099641 
L 521.914389 143.737311 
L 522.922216 143.302516 
L 523.930042 143.121352 
L 526.449609 142.505392 
L 528.465262 141.889432 
L 528.969175 141.780733 
L 529.473089 141.527103 
L 530.480915 141.273472 
L 530.984828 140.983609 
L 532.496568 140.476348 
L 533.000482 140.150252 
L 534.008308 139.860388 
L 535.016135 139.534292 
L 536.023961 139.13573 
L 537.535701 138.483537 
L 539.551355 138.229907 
L 543.582661 136.816822 
L 544.086574 136.454493 
L 544.590488 136.345794 
L 545.094401 136.092164 
L 545.598314 136.055931 
L 551.141361 134.135586 
L 553.660927 133.483393 
L 554.668754 133.012365 
L 556.180494 132.686269 
L 556.684407 132.287707 
L 557.18832 132.034076 
L 557.692234 131.418116 
L 558.196147 131.055787 
L 559.203974 130.765924 
L 559.707887 130.367362 
L 562.731367 129.244141 
L 563.23528 128.918045 
L 564.243107 128.628181 
L 564.74702 128.302085 
L 567.266586 127.50496 
L 568.778326 126.63537 
L 569.28224 126.526671 
L 571.801806 125.186053 
L 573.313546 124.533861 
L 573.817459 124.171531 
L 574.825286 123.845435 
L 575.833113 123.265708 
L 576.337026 123.084543 
L 576.840939 122.722214 
L 583.391812 120.43954 
L 583.895725 120.330841 
L 584.399639 120.004745 
L 586.415292 119.606183 
L 587.423119 119.20762 
L 587.927032 118.917757 
L 588.430945 118.772825 
L 590.446598 117.72207 
L 590.950512 117.649605 
L 592.462252 116.816247 
L 593.973992 116.308986 
L 597.501385 114.859669 
L 598.005298 114.714738 
L 598.509211 114.388641 
L 599.517038 114.279942 
L 600.020951 113.953846 
L 601.028778 113.772682 
L 602.036604 113.301653 
L 602.540518 113.084256 
L 603.044431 113.01179 
L 605.563998 112.033501 
L 607.075738 111.634939 
L 608.083564 111.381308 
L 609.595304 110.946513 
L 610.603131 110.547951 
L 612.618784 109.460963 
L 613.62661 109.062401 
L 614.130524 108.736305 
L 615.13835 108.518907 
L 615.642264 108.229044 
L 616.146177 108.120345 
L 617.657917 107.286988 
L 618.665744 106.888426 
L 620.681397 106.127534 
L 623.200963 105.294177 
L 624.20879 104.786916 
L 626.728356 103.953559 
L 628.240096 103.410065 
L 628.74401 103.265133 
L 629.751836 102.721639 
L 631.767489 101.815816 
L 636.806623 99.895471 
L 637.310536 99.569375 
L 639.326189 98.880949 
L 639.830102 98.880949 
L 640.837929 98.446154 
L 641.845756 97.540331 
L 642.349669 97.105536 
L 643.861409 96.380877 
L 644.365322 96.272178 
L 644.869235 96.018548 
L 645.373149 95.946082 
L 645.877062 95.583753 
L 646.380975 95.475054 
L 647.388802 94.859094 
L 648.900542 94.098203 
L 649.908368 93.699641 
L 650.412282 93.44601 
L 651.924022 93.119914 
L 654.443588 92.286556 
L 655.451415 91.96046 
L 656.963155 91.199569 
L 657.970981 90.728541 
L 658.978808 90.47491 
L 660.490548 89.786485 
L 665.025768 88.11977 
L 666.537508 87.213947 
L 667.041421 87.105248 
L 668.049247 86.597987 
L 669.057074 86.235658 
L 669.560987 85.800863 
L 670.568814 85.402301 
L 672.080554 84.786341 
L 672.584467 84.387779 
L 673.08838 84.351546 
L 674.096207 84.061682 
L 675.104034 83.735586 
L 675.607947 83.481955 
L 676.11186 83.40949 
L 677.6236 82.865996 
L 679.13534 82.322502 
L 680.143167 81.92394 
L 680.64708 81.525377 
L 682.15882 81.126815 
L 682.662733 80.836952 
L 683.67056 80.583321 
L 685.1823 79.749964 
L 685.686213 79.713731 
L 687.197953 79.242703 
L 688.20578 79.170237 
L 689.213606 78.771675 
L 692.237086 77.902085 
L 693.244913 77.865852 
L 696.268393 76.887563 
L 696.772306 76.815097 
L 698.284046 76.017973 
L 698.787959 75.583178 
L 700.299699 74.713587 
L 701.307526 74.097628 
L 703.323179 73.517901 
L 703.827092 73.228037 
L 704.331005 73.119339 
L 704.834919 72.720776 
L 707.858399 71.488857 
L 709.874052 70.945363 
L 710.881878 70.510568 
L 711.385792 70.256937 
L 712.393618 69.930841 
L 712.897532 69.604745 
L 713.905358 69.42358 
L 716.424925 68.264127 
L 716.928838 67.974263 
L 718.440578 67.611934 
L 719.952318 66.633645 
L 720.456231 66.561179 
L 722.975798 65.58289 
L 724.487538 65.220561 
L 724.991451 65.148095 
L 725.495364 64.930697 
L 725.999278 64.894464 
L 727.007104 64.568368 
L 727.511017 64.532135 
L 729.022757 63.952408 
L 731.038411 63.372682 
L 732.046237 62.61179 
L 734.06189 61.524802 
L 735.57363 61.017541 
L 738.59711 59.64069 
L 739.604937 59.097196 
L 740.10885 58.843566 
L 740.612763 58.372538 
L 743.13233 57.611646 
L 744.140157 57.031919 
L 746.15581 56.307261 
L 746.659723 55.836233 
L 747.163636 55.8 
L 747.163636 55.8 
" clip-path="url(#p3fd18b11e5)" style="fill: none; stroke: #1f77b4; stroke-width: 1.5; stroke-linecap: square"/>
   </g>
   <g id="line2d_44">
    <path d="M 138.940277 307.8 
L 143.475497 307.691301 
L 147.506803 307.510137 
L 149.522456 307.510137 
L 150.02637 307.365205 
L 152.545936 307.256506 
L 155.569416 306.93041 
L 158.592896 306.821711 
L 159.600722 306.713012 
L 163.128116 306.568081 
L 166.655509 306.459382 
L 169.175075 306.386916 
L 175.725948 306.278217 
L 178.245515 306.205751 
L 181.772908 306.097052 
L 184.292474 306.024587 
L 189.835521 305.915888 
L 191.851174 305.734723 
L 193.866827 305.69849 
L 196.890307 305.589792 
L 198.90596 305.553559 
L 201.425527 305.481093 
L 203.44118 305.299928 
L 207.9764 305.191229 
L 208.984226 305.118763 
L 210.99988 305.010065 
L 214.023359 304.901366 
L 216.039013 304.792667 
L 225.109452 304.249173 
L 228.636845 304.140474 
L 230.148585 303.995543 
L 232.668152 303.886844 
L 237.707285 303.633214 
L 242.746418 303.560748 
L 244.762071 303.34335 
L 246.777724 303.234651 
L 252.320771 302.72739 
L 255.848164 302.328828 
L 257.359904 302.256362 
L 261.895123 301.712868 
L 264.41469 301.640403 
L 265.92643 301.495471 
L 267.43817 301.386772 
L 281.547742 300.336017 
L 282.555569 300.154853 
L 285.579049 300.046154 
L 293.641662 299.575126 
L 297.169055 299.466427 
L 299.184708 299.249029 
L 301.704275 299.140331 
L 304.727754 299.031632 
L 307.247321 298.922933 
L 309.262974 298.8867 
L 311.782541 298.814234 
L 312.790367 298.669303 
L 319.845154 298.560604 
L 320.85298 298.451905 
L 326.89994 298.343206 
L 331.43516 298.125809 
L 334.962553 298.01711 
L 336.978206 297.799712 
L 340.505599 297.691014 
L 341.513426 297.509849 
L 344.032992 297.437383 
L 349.072125 297.364917 
L 351.591692 297.111287 
L 354.615172 297.002588 
L 356.630825 296.821423 
L 361.669958 296.567793 
L 366.709091 296.459094 
L 371.244311 296.241697 
L 372.756051 296.205464 
L 373.763877 296.060532 
L 376.283444 295.951833 
L 377.29127 295.879367 
L 378.299097 295.806902 
L 379.306924 295.734436 
L 383.842143 295.66197 
L 385.353883 295.553271 
L 398.959542 294.683681 
L 401.479109 294.574982 
L 403.998675 294.502516 
L 411.053462 294.393817 
L 412.061288 294.248886 
L 419.116075 294.140187 
L 424.155208 293.886556 
L 425.163034 293.850324 
L 426.170861 293.741625 
L 428.690427 293.632926 
L 431.209994 293.56046 
L 433.729561 293.451761 
L 436.249127 293.379295 
L 440.784347 293.270597 
L 443.807827 293.161898 
L 450.862613 293.053199 
L 456.405659 292.763336 
L 458.421312 292.69087 
L 459.933052 292.582171 
L 466.987839 292.473472 
L 470.011318 292.364774 
L 479.081758 292.256075 
L 481.097411 292.219842 
L 487.144371 292.147376 
L 488.152197 292.07491 
L 495.206984 291.966211 
L 497.222637 291.929978 
L 510.324383 291.82128 
L 511.836123 291.676348 
L 534.512222 291.567649 
L 537.031788 291.495183 
L 550.133534 291.386485 
L 551.141361 291.314019 
L 553.660927 291.241553 
L 555.172667 291.096621 
L 558.196147 290.987922 
L 561.72354 290.842991 
L 566.25876 290.734292 
L 568.778326 290.661826 
L 572.305719 290.553127 
L 576.337026 290.371963 
L 578.856592 290.263264 
L 580.872246 290.227031 
L 585.407465 290.118332 
L 587.423119 290.082099 
L 593.973992 289.9734 
L 595.989645 289.937168 
L 598.509211 289.828469 
L 601.532691 289.71977 
L 605.060084 289.647304 
L 606.067911 289.574838 
L 618.16183 289.466139 
L 624.712703 289.10381 
L 627.23227 289.031344 
L 628.240096 288.922646 
L 629.247923 288.85018 
L 633.279229 288.741481 
L 636.302709 288.632782 
L 641.341842 288.524083 
L 643.861409 288.270453 
L 648.900542 288.161754 
L 649.908368 288.053055 
L 654.947502 287.944357 
L 657.467068 287.871891 
L 663.010114 287.835658 
L 664.017941 287.726959 
L 669.560987 287.61826 
L 670.568814 287.545794 
L 681.654907 287.437096 
L 684.678387 287.328397 
L 692.237086 287.219698 
L 694.252739 287.183465 
L 698.787959 287.110999 
L 699.795786 287.002301 
L 705.842745 286.893602 
L 708.866225 286.784903 
L 717.936665 286.676204 
L 719.448405 286.567505 
L 720.960144 286.458807 
L 722.471884 286.350108 
L 730.030584 286.241409 
L 733.557977 286.096477 
L 746.659723 285.987779 
L 747.163636 285.951546 
L 747.163636 285.951546 
" clip-path="url(#p3fd18b11e5)" style="fill: none; stroke: #ff7f0e; stroke-width: 1.5; stroke-linecap: square"/>
   </g>
   <g id="patch_3">
    <path d="M 108 320.4 
L 108 43.2 
" style="fill: none; stroke: #a9a9a9; stroke-width: 0.8; stroke-linejoin: miter; stroke-linecap: square"/>
   </g>
   <g id="patch_4">
    <path d="M 777.6 320.4 
L 777.6 43.2 
" style="fill: none"/>
   </g>
   <g id="patch_5">
    <path d="M 108 320.4 
L 777.6 320.4 
" style="fill: none; stroke: #a9a9a9; stroke-width: 0.8; stroke-linejoin: miter; stroke-linecap: square"/>
   </g>
   <g id="patch_6">
    <path d="M 108 43.2 
L 777.6 43.2 
" style="fill: none"/>
   </g>
   <g id="text_22">
    <!-- get_subscribe history -->
    <g style="fill: #a9a9a9" transform="translate(378.6075 37.2) scale(0.12 -0.12)">
     <defs>
      <path id="DejaVuSans-67" d="M 2906 1791 
Q 2906 2416 2648 2759 
Q 2391 3103 1925 3103 
Q 1463 3103 1205 2759 
Q 947 2416 947 1791 
Q 947 1169 1205 825 
Q 1463 481 1925 481 
Q 2391 481 2648 825 
Q 2906 1169 2906 1791 
z
M 3481 434 
Q 3481 -459 3084 -895 
Q 2688 -1331 1869 -1331 
Q 1566 -1331 1297 -1286 
Q 1028 -1241 775 -1147 
L 775 -588 
Q 1028 -725 1275 -790 
Q 1522 -856 1778 -856 
Q 2344 -856 2625 -561 
Q 2906 -266 2906 331 
L 2906 616 
Q 2728 306 2450 153 
Q 2172 0 1784 0 
Q 1141 0 747 490 
Q 353 981 353 1791 
Q 353 2603 747 3093 
Q 1141 3584 1784 3584 
Q 2172 3584 2450 3431 
Q 2728 3278 2906 2969 
L 2906 3500 
L 3481 3500 
L 3481 434 
z
" transform="scale(0.015625)"/>
      <path id="DejaVuSans-65" d="M 3597 1894 
L 3597 1613 
L 953 1613 
Q 991 1019 1311 708 
Q 1631 397 2203 397 
Q 2534 397 2845 478 
Q 3156 559 3463 722 
L 3463 178 
Q 3153 47 2828 -22 
Q 2503 -91 2169 -91 
Q 1331 -91 842 396 
Q 353 884 353 1716 
Q 353 2575 817 3079 
Q 1281 3584 2069 3584 
Q 2775 3584 3186 3129 
Q 3597 2675 3597 1894 
z
M 3022 2063 
Q 3016 2534 2758 2815 
Q 2500 3097 2075 3097 
Q 1594 3097 1305 2825 
Q 1016 2553 972 2059 
L 3022 2063 
z
" transform="scale(0.015625)"/>
      <path id="DejaVuSans-74" d="M 1172 4494 
L 1172 3500 
L 2356 3500 
L 2356 3053 
L 1172 3053 
L 1172 1153 
Q 1172 725 1289 603 
Q 1406 481 1766 481 
L 2356 481 
L 2356 0 
L 1766 0 
Q 1100 0 847 248 
Q 594 497 594 1153 
L 594 3053 
L 172 3053 
L 172 3500 
L 594 3500 
L 594 4494 
L 1172 4494 
z
" transform="scale(0.015625)"/>
      <path id="DejaVuSans-5f" d="M 3263 -1063 
L 3263 -1509 
L -63 -1509 
L -63 -1063 
L 3263 -1063 
z
" transform="scale(0.015625)"/>
      <path id="DejaVuSans-73" d="M 2834 3397 
L 2834 2853 
Q 2591 2978 2328 3040 
Q 2066 3103 1784 3103 
Q 1356 3103 1142 2972 
Q 928 2841 928 2578 
Q 928 2378 1081 2264 
Q 1234 2150 1697 2047 
L 1894 2003 
Q 2506 1872 2764 1633 
Q 3022 1394 3022 966 
Q 3022 478 2636 193 
Q 2250 -91 1575 -91 
Q 1294 -91 989 -36 
Q 684 19 347 128 
L 347 722 
Q 666 556 975 473 
Q 1284 391 1588 391 
Q 1994 391 2212 530 
Q 2431 669 2431 922 
Q 2431 1156 2273 1281 
Q 2116 1406 1581 1522 
L 1381 1569 
Q 847 1681 609 1914 
Q 372 2147 372 2553 
Q 372 3047 722 3315 
Q 1072 3584 1716 3584 
Q 2034 3584 2315 3537 
Q 2597 3491 2834 3397 
z
" transform="scale(0.015625)"/>
      <path id="DejaVuSans-75" d="M 544 1381 
L 544 3500 
L 1119 3500 
L 1119 1403 
Q 1119 906 1312 657 
Q 1506 409 1894 409 
Q 2359 409 2629 706 
Q 2900 1003 2900 1516 
L 2900 3500 
L 3475 3500 
L 3475 0 
L 2900 0 
L 2900 538 
Q 2691 219 2414 64 
Q 2138 -91 1772 -91 
Q 1169 -91 856 284 
Q 544 659 544 1381 
z
M 1991 3584 
L 1991 3584 
z
" transform="scale(0.015625)"/>
      <path id="DejaVuSans-62" d="M 3116 1747 
Q 3116 2381 2855 2742 
Q 2594 3103 2138 3103 
Q 1681 3103 1420 2742 
Q 1159 2381 1159 1747 
Q 1159 1113 1420 752 
Q 1681 391 2138 391 
Q 2594 391 2855 752 
Q 3116 1113 3116 1747 
z
M 1159 2969 
Q 1341 3281 1617 3432 
Q 1894 3584 2278 3584 
Q 2916 3584 3314 3078 
Q 3713 2572 3713 1747 
Q 3713 922 3314 415 
Q 2916 -91 2278 -91 
Q 1894 -91 1617 61 
Q 1341 213 1159 525 
L 1159 0 
L 581 0 
L 581 4863 
L 1159 4863 
L 1159 2969 
z
" transform="scale(0.015625)"/>
      <path id="DejaVuSans-63" d="M 3122 3366 
L 3122 2828 
Q 2878 2963 2633 3030 
Q 2388 3097 2138 3097 
Q 1578 3097 1268 2742 
Q 959 2388 959 1747 
Q 959 1106 1268 751 
Q 1578 397 2138 397 
Q 2388 397 2633 464 
Q 2878 531 3122 666 
L 3122 134 
Q 2881 22 2623 -34 
Q 2366 -91 2075 -91 
Q 1284 -91 818 406 
Q 353 903 353 1747 
Q 353 2603 823 3093 
Q 1294 3584 2113 3584 
Q 2378 3584 2631 3529 
Q 2884 3475 3122 3366 
z
" transform="scale(0.015625)"/>
      <path id="DejaVuSans-72" d="M 2631 2963 
Q 2534 3019 2420 3045 
Q 2306 3072 2169 3072 
Q 1681 3072 1420 2755 
Q 1159 2438 1159 1844 
L 1159 0 
L 581 0 
L 581 3500 
L 1159 3500 
L 1159 2956 
Q 1341 3275 1631 3429 
Q 1922 3584 2338 3584 
Q 2397 3584 2469 3576 
Q 2541 3569 2628 3553 
L 2631 2963 
z
" transform="scale(0.015625)"/>
      <path id="DejaVuSans-69" d="M 603 3500 
L 1178 3500 
L 1178 0 
L 603 0 
L 603 3500 
z
M 603 4863 
L 1178 4863 
L 1178 4134 
L 603 4134 
L 603 4863 
z
" transform="scale(0.015625)"/>
      <path id="DejaVuSans-20" transform="scale(0.015625)"/>
      <path id="DejaVuSans-68" d="M 3513 2113 
L 3513 0 
L 2938 0 
L 2938 2094 
Q 2938 2591 2744 2837 
Q 2550 3084 2163 3084 
Q 1697 3084 1428 2787 
Q 1159 2491 1159 1978 
L 1159 0 
L 581 0 
L 581 4863 
L 1159 4863 
L 1159 2956 
Q 1366 3272 1645 3428 
Q 1925 3584 2291 3584 
Q 2894 3584 3203 3211 
Q 3513 2838 3513 2113 
z
" transform="scale(0.015625)"/>
      <path id="DejaVuSans-6f" d="M 1959 3097 
Q 1497 3097 1228 2736 
Q 959 2375 959 1747 
Q 959 1119 1226 758 
Q 1494 397 1959 397 
Q 2419 397 2687 759 
Q 2956 1122 2956 1747 
Q 2956 2369 2687 2733 
Q 2419 3097 1959 3097 
z
M 1959 3584 
Q 2709 3584 3137 3096 
Q 3566 2609 3566 1747 
Q 3566 888 3137 398 
Q 2709 -91 1959 -91 
Q 1206 -91 779 398 
Q 353 888 353 1747 
Q 353 2609 779 3096 
Q 1206 3584 1959 3584 
z
" transform="scale(0.015625)"/>
      <path id="DejaVuSans-79" d="M 2059 -325 
Q 1816 -950 1584 -1140 
Q 1353 -1331 966 -1331 
L 506 -1331 
L 506 -850 
L 844 -850 
Q 1081 -850 1212 -737 
Q 1344 -625 1503 -206 
L 1606 56 
L 191 3500 
L 800 3500 
L 1894 763 
L 2988 3500 
L 3597 3500 
L 2059 -325 
z
" transform="scale(0.015625)"/>
     </defs>
     <use xlink:href="#DejaVuSans-67"/>
     <use xlink:href="#DejaVuSans-65" x="63.476562"/>
     <use xlink:href="#DejaVuSans-74" x="125"/>
     <use xlink:href="#DejaVuSans-5f" x="164.208984"/>
     <use xlink:href="#DejaVuSans-73" x="214.208984"/>
     <use xlink:href="#DejaVuSans-75" x="266.308594"/>
     <use xlink:href="#DejaVuSans-62" x="329.6875"/>
     <use xlink:href="#DejaVuSans-73" x="393.164062"/>
     <use xlink:href="#DejaVuSans-63" x="445.263672"/>
     <use xlink:href="#DejaVuSans-72" x="500.244141"/>
     <use xlink:href="#DejaVuSans-69" x="541.357422"/>
     <use xlink:href="#DejaVuSans-62" x="569.140625"/>
     <use xlink:href="#DejaVuSans-65" x="632.617188"/>
     <use xlink:href="#DejaVuSans-20" x="694.140625"/>
     <use xlink:href="#DejaVuSans-68" x="725.927734"/>
     <use xlink:href="#DejaVuSans-69" x="789.306641"/>
     <use xlink:href="#DejaVuSans-73" x="817.089844"/>
     <use xlink:href="#DejaVuSans-74" x="869.189453"/>
     <use xlink:href="#DejaVuSans-6f" x="908.398438"/>
     <use xlink:href="#DejaVuSans-72" x="969.580078"/>
     <use xlink:href="#DejaVuSans-79" x="1010.693359"/>
    </g>
   </g>
   <g id="legend_1">
    <g id="line2d_45">
     <path d="M 815.08 328.498438 
L 825.08 328.498438 
L 835.08 328.498438 
" style="fill: none; stroke: #1f77b4; stroke-width: 1.5; stroke-linecap: square"/>
    </g>
    <g id="text_23">
     <!-- star -->
     <g style="fill: #a9a9a9" transform="translate(843.08 331.998438) scale(0.1 -0.1)">
      <defs>
       <path id="DejaVuSans-61" d="M 2194 1759 
Q 1497 1759 1228 1600 
Q 959 1441 959 1056 
Q 959 750 1161 570 
Q 1363 391 1709 391 
Q 2188 391 2477 730 
Q 2766 1069 2766 1631 
L 2766 1759 
L 2194 1759 
z
M 3341 1997 
L 3341 0 
L 2766 0 
L 2766 531 
Q 2569 213 2275 61 
Q 1981 -91 1556 -91 
Q 1019 -91 701 211 
Q 384 513 384 1019 
Q 384 1609 779 1909 
Q 1175 2209 1959 2209 
L 2766 2209 
L 2766 2266 
Q 2766 2663 2505 2880 
Q 2244 3097 1772 3097 
Q 1472 3097 1187 3025 
Q 903 2953 641 2809 
L 641 3341 
Q 956 3463 1253 3523 
Q 1550 3584 1831 3584 
Q 2591 3584 2966 3190 
Q 3341 2797 3341 1997 
z
" transform="scale(0.015625)"/>
      </defs>
      <use xlink:href="#DejaVuSans-73"/>
      <use xlink:href="#DejaVuSans-74" x="52.099609"/>
      <use xlink:href="#DejaVuSans-61" x="91.308594"/>
      <use xlink:href="#DejaVuSans-72" x="152.587891"/>
     </g>
    </g>
    <g id="line2d_46">
     <path d="M 815.08 343.176562 
L 825.08 343.176562 
L 835.08 343.176562 
" style="fill: none; stroke: #ff7f0e; stroke-width: 1.5; stroke-linecap: square"/>
    </g>
    <g id="text_24">
     <!-- fork -->
     <g style="fill: #a9a9a9" transform="translate(843.08 346.676562) scale(0.1 -0.1)">
      <defs>
       <path id="DejaVuSans-66" d="M 2375 4863 
L 2375 4384 
L 1825 4384 
Q 1516 4384 1395 4259 
Q 1275 4134 1275 3809 
L 1275 3500 
L 2222 3500 
L 2222 3053 
L 1275 3053 
L 1275 0 
L 697 0 
L 697 3053 
L 147 3053 
L 147 3500 
L 697 3500 
L 697 3744 
Q 697 4328 969 4595 
Q 1241 4863 1831 4863 
L 2375 4863 
z
" transform="scale(0.015625)"/>
       <path id="DejaVuSans-6b" d="M 581 4863 
L 1159 4863 
L 1159 1991 
L 2875 3500 
L 3609 3500 
L 1753 1863 
L 3688 0 
L 2938 0 
L 1159 1709 
L 1159 0 
L 581 0 
L 581 4863 
z
" transform="scale(0.015625)"/>
      </defs>
      <use xlink:href="#DejaVuSans-66"/>
      <use xlink:href="#DejaVuSans-6f" x="35.205078"/>
      <use xlink:href="#DejaVuSans-72" x="96.386719"/>
      <use xlink:href="#DejaVuSans-6b" x="137.5"/>
     </g>
    </g>
   </g>
  </g>
 </g>
 <defs>
  <clipPath id="p3fd18b11e5">
   <rect x="108" y="43.2" width="669.6" height="277.2"/>
  </clipPath>
 </defs>
</svg>
