<?xml version="1.0" encoding="utf-8" standalone="no"?>
<!DOCTYPE svg PUBLIC "-//W3C//DTD SVG 1.1//EN"
  "http://www.w3.org/Graphics/SVG/1.1/DTD/svg11.dtd">
<svg xmlns:xlink="http://www.w3.org/1999/xlink" width="864pt" height="360pt" viewBox="0 0 864 360" xmlns="http://www.w3.org/2000/svg" version="1.1">
 <metadata>
  <rdf:RDF xmlns:dc="http://purl.org/dc/elements/1.1/" xmlns:cc="http://creativecommons.org/ns#" xmlns:rdf="http://www.w3.org/1999/02/22-rdf-syntax-ns#">
   <cc:Work>
    <dc:type rdf:resource="http://purl.org/dc/dcmitype/StillImage"/>
    <dc:date>2024-11-11T08:14:22.147221</dc:date>
    <dc:format>image/svg+xml</dc:format>
    <dc:creator>
     <cc:Agent>
      <dc:title>Matplotlib v3.9.2, https://matplotlib.org/</dc:title>
     </cc:Agent>
    </dc:creator>
   </cc:Work>
  </rdf:RDF>
 </metadata>
 <defs>
  <style type="text/css">*{stroke-linejoin: round; stroke-linecap: butt}</style>
 </defs>
 <g id="figure_1">
  <g id="patch_1">
   <path d="M 0 360 
L 864 360 
L 864 0 
L 0 0 
L 0 360 
z
" style="fill: none; opacity: 0"/>
  </g>
  <g id="axes_1">
   <g id="patch_2">
    <path d="M 108 320.4 
L 777.6 320.4 
L 777.6 43.2 
L 108 43.2 
L 108 320.4 
z
" style="fill: none; opacity: 0"/>
   </g>
   <g id="matplotlib.axis_1">
    <g id="xtick_1">
     <g id="line2d_1">
      <path d="M 158.121574 320.4 
L 158.121574 43.2 
" clip-path="url(#pc9712ecf0d)" style="fill: none; stroke-dasharray: 5.12,1.28,0.8,1.28; stroke-dashoffset: 0; stroke: #b0b0b0; stroke-width: 0.8"/>
     </g>
     <g id="line2d_2">
      <defs>
       <path id="mdd3d3de757" d="M 0 0 
L 0 3.5 
" style="stroke: #a9a9a9; stroke-width: 0.8"/>
      </defs>
      <g>
       <use xlink:href="#mdd3d3de757" x="158.121574" y="320.4" style="fill: #a9a9a9; stroke: #a9a9a9; stroke-width: 0.8"/>
      </g>
     </g>
     <g id="text_1">
      <!-- 2021-09 -->
      <g style="fill: #a9a9a9" transform="translate(137.230168 334.998438) scale(0.1 -0.1)">
       <defs>
        <path id="DejaVuSans-32" d="M 1228 531 
L 3431 531 
L 3431 0 
L 469 0 
L 469 531 
Q 828 903 1448 1529 
Q 2069 2156 2228 2338 
Q 2531 2678 2651 2914 
Q 2772 3150 2772 3378 
Q 2772 3750 2511 3984 
Q 2250 4219 1831 4219 
Q 1534 4219 1204 4116 
Q 875 4013 500 3803 
L 500 4441 
Q 881 4594 1212 4672 
Q 1544 4750 1819 4750 
Q 2544 4750 2975 4387 
Q 3406 4025 3406 3419 
Q 3406 3131 3298 2873 
Q 3191 2616 2906 2266 
Q 2828 2175 2409 1742 
Q 1991 1309 1228 531 
z
" transform="scale(0.015625)"/>
        <path id="DejaVuSans-30" d="M 2034 4250 
Q 1547 4250 1301 3770 
Q 1056 3291 1056 2328 
Q 1056 1369 1301 889 
Q 1547 409 2034 409 
Q 2525 409 2770 889 
Q 3016 1369 3016 2328 
Q 3016 3291 2770 3770 
Q 2525 4250 2034 4250 
z
M 2034 4750 
Q 2819 4750 3233 4129 
Q 3647 3509 3647 2328 
Q 3647 1150 3233 529 
Q 2819 -91 2034 -91 
Q 1250 -91 836 529 
Q 422 1150 422 2328 
Q 422 3509 836 4129 
Q 1250 4750 2034 4750 
z
" transform="scale(0.015625)"/>
        <path id="DejaVuSans-31" d="M 794 531 
L 1825 531 
L 1825 4091 
L 703 3866 
L 703 4441 
L 1819 4666 
L 2450 4666 
L 2450 531 
L 3481 531 
L 3481 0 
L 794 0 
L 794 531 
z
" transform="scale(0.015625)"/>
        <path id="DejaVuSans-2d" d="M 313 2009 
L 1997 2009 
L 1997 1497 
L 313 1497 
L 313 2009 
z
" transform="scale(0.015625)"/>
        <path id="DejaVuSans-39" d="M 703 97 
L 703 672 
Q 941 559 1184 500 
Q 1428 441 1663 441 
Q 2288 441 2617 861 
Q 2947 1281 2994 2138 
Q 2813 1869 2534 1725 
Q 2256 1581 1919 1581 
Q 1219 1581 811 2004 
Q 403 2428 403 3163 
Q 403 3881 828 4315 
Q 1253 4750 1959 4750 
Q 2769 4750 3195 4129 
Q 3622 3509 3622 2328 
Q 3622 1225 3098 567 
Q 2575 -91 1691 -91 
Q 1453 -91 1209 -44 
Q 966 3 703 97 
z
M 1959 2075 
Q 2384 2075 2632 2365 
Q 2881 2656 2881 3163 
Q 2881 3666 2632 3958 
Q 2384 4250 1959 4250 
Q 1534 4250 1286 3958 
Q 1038 3666 1038 3163 
Q 1038 2656 1286 2365 
Q 1534 2075 1959 2075 
z
" transform="scale(0.015625)"/>
       </defs>
       <use xlink:href="#DejaVuSans-32"/>
       <use xlink:href="#DejaVuSans-30" x="63.623047"/>
       <use xlink:href="#DejaVuSans-32" x="127.246094"/>
       <use xlink:href="#DejaVuSans-31" x="190.869141"/>
       <use xlink:href="#DejaVuSans-2d" x="254.492188"/>
       <use xlink:href="#DejaVuSans-30" x="290.576172"/>
       <use xlink:href="#DejaVuSans-39" x="354.199219"/>
      </g>
     </g>
    </g>
    <g id="xtick_2">
     <g id="line2d_3">
      <path d="M 219.70095 320.4 
L 219.70095 43.2 
" clip-path="url(#pc9712ecf0d)" style="fill: none; stroke-dasharray: 5.12,1.28,0.8,1.28; stroke-dashoffset: 0; stroke: #b0b0b0; stroke-width: 0.8"/>
     </g>
     <g id="line2d_4">
      <g>
       <use xlink:href="#mdd3d3de757" x="219.70095" y="320.4" style="fill: #a9a9a9; stroke: #a9a9a9; stroke-width: 0.8"/>
      </g>
     </g>
     <g id="text_2">
      <!-- 2022-01 -->
      <g style="fill: #a9a9a9" transform="translate(198.809544 334.998438) scale(0.1 -0.1)">
       <use xlink:href="#DejaVuSans-32"/>
       <use xlink:href="#DejaVuSans-30" x="63.623047"/>
       <use xlink:href="#DejaVuSans-32" x="127.246094"/>
       <use xlink:href="#DejaVuSans-32" x="190.869141"/>
       <use xlink:href="#DejaVuSans-2d" x="254.492188"/>
       <use xlink:href="#DejaVuSans-30" x="290.576172"/>
       <use xlink:href="#DejaVuSans-31" x="354.199219"/>
      </g>
     </g>
    </g>
    <g id="xtick_3">
     <g id="line2d_5">
      <path d="M 280.270828 320.4 
L 280.270828 43.2 
" clip-path="url(#pc9712ecf0d)" style="fill: none; stroke-dasharray: 5.12,1.28,0.8,1.28; stroke-dashoffset: 0; stroke: #b0b0b0; stroke-width: 0.8"/>
     </g>
     <g id="line2d_6">
      <g>
       <use xlink:href="#mdd3d3de757" x="280.270828" y="320.4" style="fill: #a9a9a9; stroke: #a9a9a9; stroke-width: 0.8"/>
      </g>
     </g>
     <g id="text_3">
      <!-- 2022-05 -->
      <g style="fill: #a9a9a9" transform="translate(259.379421 334.998438) scale(0.1 -0.1)">
       <defs>
        <path id="DejaVuSans-35" d="M 691 4666 
L 3169 4666 
L 3169 4134 
L 1269 4134 
L 1269 2991 
Q 1406 3038 1543 3061 
Q 1681 3084 1819 3084 
Q 2600 3084 3056 2656 
Q 3513 2228 3513 1497 
Q 3513 744 3044 326 
Q 2575 -91 1722 -91 
Q 1428 -91 1123 -41 
Q 819 9 494 109 
L 494 744 
Q 775 591 1075 516 
Q 1375 441 1709 441 
Q 2250 441 2565 725 
Q 2881 1009 2881 1497 
Q 2881 1984 2565 2268 
Q 2250 2553 1709 2553 
Q 1456 2553 1204 2497 
Q 953 2441 691 2322 
L 691 4666 
z
" transform="scale(0.015625)"/>
       </defs>
       <use xlink:href="#DejaVuSans-32"/>
       <use xlink:href="#DejaVuSans-30" x="63.623047"/>
       <use xlink:href="#DejaVuSans-32" x="127.246094"/>
       <use xlink:href="#DejaVuSans-32" x="190.869141"/>
       <use xlink:href="#DejaVuSans-2d" x="254.492188"/>
       <use xlink:href="#DejaVuSans-30" x="290.576172"/>
       <use xlink:href="#DejaVuSans-35" x="354.199219"/>
      </g>
     </g>
    </g>
    <g id="xtick_4">
     <g id="line2d_7">
      <path d="M 342.354953 320.4 
L 342.354953 43.2 
" clip-path="url(#pc9712ecf0d)" style="fill: none; stroke-dasharray: 5.12,1.28,0.8,1.28; stroke-dashoffset: 0; stroke: #b0b0b0; stroke-width: 0.8"/>
     </g>
     <g id="line2d_8">
      <g>
       <use xlink:href="#mdd3d3de757" x="342.354953" y="320.4" style="fill: #a9a9a9; stroke: #a9a9a9; stroke-width: 0.8"/>
      </g>
     </g>
     <g id="text_4">
      <!-- 2022-09 -->
      <g style="fill: #a9a9a9" transform="translate(321.463546 334.998438) scale(0.1 -0.1)">
       <use xlink:href="#DejaVuSans-32"/>
       <use xlink:href="#DejaVuSans-30" x="63.623047"/>
       <use xlink:href="#DejaVuSans-32" x="127.246094"/>
       <use xlink:href="#DejaVuSans-32" x="190.869141"/>
       <use xlink:href="#DejaVuSans-2d" x="254.492188"/>
       <use xlink:href="#DejaVuSans-30" x="290.576172"/>
       <use xlink:href="#DejaVuSans-39" x="354.199219"/>
      </g>
     </g>
    </g>
    <g id="xtick_5">
     <g id="line2d_9">
      <path d="M 403.934328 320.4 
L 403.934328 43.2 
" clip-path="url(#pc9712ecf0d)" style="fill: none; stroke-dasharray: 5.12,1.28,0.8,1.28; stroke-dashoffset: 0; stroke: #b0b0b0; stroke-width: 0.8"/>
     </g>
     <g id="line2d_10">
      <g>
       <use xlink:href="#mdd3d3de757" x="403.934328" y="320.4" style="fill: #a9a9a9; stroke: #a9a9a9; stroke-width: 0.8"/>
      </g>
     </g>
     <g id="text_5">
      <!-- 2023-01 -->
      <g style="fill: #a9a9a9" transform="translate(383.042922 334.998438) scale(0.1 -0.1)">
       <defs>
        <path id="DejaVuSans-33" d="M 2597 2516 
Q 3050 2419 3304 2112 
Q 3559 1806 3559 1356 
Q 3559 666 3084 287 
Q 2609 -91 1734 -91 
Q 1441 -91 1130 -33 
Q 819 25 488 141 
L 488 750 
Q 750 597 1062 519 
Q 1375 441 1716 441 
Q 2309 441 2620 675 
Q 2931 909 2931 1356 
Q 2931 1769 2642 2001 
Q 2353 2234 1838 2234 
L 1294 2234 
L 1294 2753 
L 1863 2753 
Q 2328 2753 2575 2939 
Q 2822 3125 2822 3475 
Q 2822 3834 2567 4026 
Q 2313 4219 1838 4219 
Q 1578 4219 1281 4162 
Q 984 4106 628 3988 
L 628 4550 
Q 988 4650 1302 4700 
Q 1616 4750 1894 4750 
Q 2613 4750 3031 4423 
Q 3450 4097 3450 3541 
Q 3450 3153 3228 2886 
Q 3006 2619 2597 2516 
z
" transform="scale(0.015625)"/>
       </defs>
       <use xlink:href="#DejaVuSans-32"/>
       <use xlink:href="#DejaVuSans-30" x="63.623047"/>
       <use xlink:href="#DejaVuSans-32" x="127.246094"/>
       <use xlink:href="#DejaVuSans-33" x="190.869141"/>
       <use xlink:href="#DejaVuSans-2d" x="254.492188"/>
       <use xlink:href="#DejaVuSans-30" x="290.576172"/>
       <use xlink:href="#DejaVuSans-31" x="354.199219"/>
      </g>
     </g>
    </g>
    <g id="xtick_6">
     <g id="line2d_11">
      <path d="M 464.504206 320.4 
L 464.504206 43.2 
" clip-path="url(#pc9712ecf0d)" style="fill: none; stroke-dasharray: 5.12,1.28,0.8,1.28; stroke-dashoffset: 0; stroke: #b0b0b0; stroke-width: 0.8"/>
     </g>
     <g id="line2d_12">
      <g>
       <use xlink:href="#mdd3d3de757" x="464.504206" y="320.4" style="fill: #a9a9a9; stroke: #a9a9a9; stroke-width: 0.8"/>
      </g>
     </g>
     <g id="text_6">
      <!-- 2023-05 -->
      <g style="fill: #a9a9a9" transform="translate(443.6128 334.998438) scale(0.1 -0.1)">
       <use xlink:href="#DejaVuSans-32"/>
       <use xlink:href="#DejaVuSans-30" x="63.623047"/>
       <use xlink:href="#DejaVuSans-32" x="127.246094"/>
       <use xlink:href="#DejaVuSans-33" x="190.869141"/>
       <use xlink:href="#DejaVuSans-2d" x="254.492188"/>
       <use xlink:href="#DejaVuSans-30" x="290.576172"/>
       <use xlink:href="#DejaVuSans-35" x="354.199219"/>
      </g>
     </g>
    </g>
    <g id="xtick_7">
     <g id="line2d_13">
      <path d="M 526.588331 320.4 
L 526.588331 43.2 
" clip-path="url(#pc9712ecf0d)" style="fill: none; stroke-dasharray: 5.12,1.28,0.8,1.28; stroke-dashoffset: 0; stroke: #b0b0b0; stroke-width: 0.8"/>
     </g>
     <g id="line2d_14">
      <g>
       <use xlink:href="#mdd3d3de757" x="526.588331" y="320.4" style="fill: #a9a9a9; stroke: #a9a9a9; stroke-width: 0.8"/>
      </g>
     </g>
     <g id="text_7">
      <!-- 2023-09 -->
      <g style="fill: #a9a9a9" transform="translate(505.696925 334.998438) scale(0.1 -0.1)">
       <use xlink:href="#DejaVuSans-32"/>
       <use xlink:href="#DejaVuSans-30" x="63.623047"/>
       <use xlink:href="#DejaVuSans-32" x="127.246094"/>
       <use xlink:href="#DejaVuSans-33" x="190.869141"/>
       <use xlink:href="#DejaVuSans-2d" x="254.492188"/>
       <use xlink:href="#DejaVuSans-30" x="290.576172"/>
       <use xlink:href="#DejaVuSans-39" x="354.199219"/>
      </g>
     </g>
    </g>
    <g id="xtick_8">
     <g id="line2d_15">
      <path d="M 588.167707 320.4 
L 588.167707 43.2 
" clip-path="url(#pc9712ecf0d)" style="fill: none; stroke-dasharray: 5.12,1.28,0.8,1.28; stroke-dashoffset: 0; stroke: #b0b0b0; stroke-width: 0.8"/>
     </g>
     <g id="line2d_16">
      <g>
       <use xlink:href="#mdd3d3de757" x="588.167707" y="320.4" style="fill: #a9a9a9; stroke: #a9a9a9; stroke-width: 0.8"/>
      </g>
     </g>
     <g id="text_8">
      <!-- 2024-01 -->
      <g style="fill: #a9a9a9" transform="translate(567.276301 334.998438) scale(0.1 -0.1)">
       <defs>
        <path id="DejaVuSans-34" d="M 2419 4116 
L 825 1625 
L 2419 1625 
L 2419 4116 
z
M 2253 4666 
L 3047 4666 
L 3047 1625 
L 3713 1625 
L 3713 1100 
L 3047 1100 
L 3047 0 
L 2419 0 
L 2419 1100 
L 313 1100 
L 313 1709 
L 2253 4666 
z
" transform="scale(0.015625)"/>
       </defs>
       <use xlink:href="#DejaVuSans-32"/>
       <use xlink:href="#DejaVuSans-30" x="63.623047"/>
       <use xlink:href="#DejaVuSans-32" x="127.246094"/>
       <use xlink:href="#DejaVuSans-34" x="190.869141"/>
       <use xlink:href="#DejaVuSans-2d" x="254.492188"/>
       <use xlink:href="#DejaVuSans-30" x="290.576172"/>
       <use xlink:href="#DejaVuSans-31" x="354.199219"/>
      </g>
     </g>
    </g>
    <g id="xtick_9">
     <g id="line2d_17">
      <path d="M 649.242334 320.4 
L 649.242334 43.2 
" clip-path="url(#pc9712ecf0d)" style="fill: none; stroke-dasharray: 5.12,1.28,0.8,1.28; stroke-dashoffset: 0; stroke: #b0b0b0; stroke-width: 0.8"/>
     </g>
     <g id="line2d_18">
      <g>
       <use xlink:href="#mdd3d3de757" x="649.242334" y="320.4" style="fill: #a9a9a9; stroke: #a9a9a9; stroke-width: 0.8"/>
      </g>
     </g>
     <g id="text_9">
      <!-- 2024-05 -->
      <g style="fill: #a9a9a9" transform="translate(628.350928 334.998438) scale(0.1 -0.1)">
       <use xlink:href="#DejaVuSans-32"/>
       <use xlink:href="#DejaVuSans-30" x="63.623047"/>
       <use xlink:href="#DejaVuSans-32" x="127.246094"/>
       <use xlink:href="#DejaVuSans-34" x="190.869141"/>
       <use xlink:href="#DejaVuSans-2d" x="254.492188"/>
       <use xlink:href="#DejaVuSans-30" x="290.576172"/>
       <use xlink:href="#DejaVuSans-35" x="354.199219"/>
      </g>
     </g>
    </g>
    <g id="xtick_10">
     <g id="line2d_19">
      <path d="M 711.326459 320.4 
L 711.326459 43.2 
" clip-path="url(#pc9712ecf0d)" style="fill: none; stroke-dasharray: 5.12,1.28,0.8,1.28; stroke-dashoffset: 0; stroke: #b0b0b0; stroke-width: 0.8"/>
     </g>
     <g id="line2d_20">
      <g>
       <use xlink:href="#mdd3d3de757" x="711.326459" y="320.4" style="fill: #a9a9a9; stroke: #a9a9a9; stroke-width: 0.8"/>
      </g>
     </g>
     <g id="text_10">
      <!-- 2024-09 -->
      <g style="fill: #a9a9a9" transform="translate(690.435052 334.998438) scale(0.1 -0.1)">
       <use xlink:href="#DejaVuSans-32"/>
       <use xlink:href="#DejaVuSans-30" x="63.623047"/>
       <use xlink:href="#DejaVuSans-32" x="127.246094"/>
       <use xlink:href="#DejaVuSans-34" x="190.869141"/>
       <use xlink:href="#DejaVuSans-2d" x="254.492188"/>
       <use xlink:href="#DejaVuSans-30" x="290.576172"/>
       <use xlink:href="#DejaVuSans-39" x="354.199219"/>
      </g>
     </g>
    </g>
    <g id="xtick_11">
     <g id="line2d_21">
      <path d="M 772.905834 320.4 
L 772.905834 43.2 
" clip-path="url(#pc9712ecf0d)" style="fill: none; stroke-dasharray: 5.12,1.28,0.8,1.28; stroke-dashoffset: 0; stroke: #b0b0b0; stroke-width: 0.8"/>
     </g>
     <g id="line2d_22">
      <g>
       <use xlink:href="#mdd3d3de757" x="772.905834" y="320.4" style="fill: #a9a9a9; stroke: #a9a9a9; stroke-width: 0.8"/>
      </g>
     </g>
     <g id="text_11">
      <!-- 2025-01 -->
      <g style="fill: #a9a9a9" transform="translate(752.014428 334.998438) scale(0.1 -0.1)">
       <use xlink:href="#DejaVuSans-32"/>
       <use xlink:href="#DejaVuSans-30" x="63.623047"/>
       <use xlink:href="#DejaVuSans-32" x="127.246094"/>
       <use xlink:href="#DejaVuSans-35" x="190.869141"/>
       <use xlink:href="#DejaVuSans-2d" x="254.492188"/>
       <use xlink:href="#DejaVuSans-30" x="290.576172"/>
       <use xlink:href="#DejaVuSans-31" x="354.199219"/>
      </g>
     </g>
    </g>
   </g>
   <g id="matplotlib.axis_2">
    <g id="ytick_1">
     <g id="line2d_23">
      <path d="M 108 307.836337 
L 777.6 307.836337 
" clip-path="url(#pc9712ecf0d)" style="fill: none; stroke-dasharray: 5.12,1.28,0.8,1.28; stroke-dashoffset: 0; stroke: #b0b0b0; stroke-width: 0.8"/>
     </g>
     <g id="line2d_24">
      <defs>
       <path id="ma0cbf063da" d="M 0 0 
L -3.5 0 
" style="stroke: #a9a9a9; stroke-width: 0.8"/>
      </defs>
      <g>
       <use xlink:href="#ma0cbf063da" x="108" y="307.836337" style="fill: #a9a9a9; stroke: #a9a9a9; stroke-width: 0.8"/>
      </g>
     </g>
     <g id="text_12">
      <!-- 0 -->
      <g style="fill: #a9a9a9" transform="translate(94.6375 311.635556) scale(0.1 -0.1)">
       <use xlink:href="#DejaVuSans-30"/>
      </g>
     </g>
    </g>
    <g id="ytick_2">
     <g id="line2d_25">
      <path d="M 108 278.766402 
L 777.6 278.766402 
" clip-path="url(#pc9712ecf0d)" style="fill: none; stroke-dasharray: 5.12,1.28,0.8,1.28; stroke-dashoffset: 0; stroke: #b0b0b0; stroke-width: 0.8"/>
     </g>
     <g id="line2d_26">
      <g>
       <use xlink:href="#ma0cbf063da" x="108" y="278.766402" style="fill: #a9a9a9; stroke: #a9a9a9; stroke-width: 0.8"/>
      </g>
     </g>
     <g id="text_13">
      <!-- 800 -->
      <g style="fill: #a9a9a9" transform="translate(81.9125 282.565621) scale(0.1 -0.1)">
       <defs>
        <path id="DejaVuSans-38" d="M 2034 2216 
Q 1584 2216 1326 1975 
Q 1069 1734 1069 1313 
Q 1069 891 1326 650 
Q 1584 409 2034 409 
Q 2484 409 2743 651 
Q 3003 894 3003 1313 
Q 3003 1734 2745 1975 
Q 2488 2216 2034 2216 
z
M 1403 2484 
Q 997 2584 770 2862 
Q 544 3141 544 3541 
Q 544 4100 942 4425 
Q 1341 4750 2034 4750 
Q 2731 4750 3128 4425 
Q 3525 4100 3525 3541 
Q 3525 3141 3298 2862 
Q 3072 2584 2669 2484 
Q 3125 2378 3379 2068 
Q 3634 1759 3634 1313 
Q 3634 634 3220 271 
Q 2806 -91 2034 -91 
Q 1263 -91 848 271 
Q 434 634 434 1313 
Q 434 1759 690 2068 
Q 947 2378 1403 2484 
z
M 1172 3481 
Q 1172 3119 1398 2916 
Q 1625 2713 2034 2713 
Q 2441 2713 2670 2916 
Q 2900 3119 2900 3481 
Q 2900 3844 2670 4047 
Q 2441 4250 2034 4250 
Q 1625 4250 1398 4047 
Q 1172 3844 1172 3481 
z
" transform="scale(0.015625)"/>
       </defs>
       <use xlink:href="#DejaVuSans-38"/>
       <use xlink:href="#DejaVuSans-30" x="63.623047"/>
       <use xlink:href="#DejaVuSans-30" x="127.246094"/>
      </g>
     </g>
    </g>
    <g id="ytick_3">
     <g id="line2d_27">
      <path d="M 108 249.696467 
L 777.6 249.696467 
" clip-path="url(#pc9712ecf0d)" style="fill: none; stroke-dasharray: 5.12,1.28,0.8,1.28; stroke-dashoffset: 0; stroke: #b0b0b0; stroke-width: 0.8"/>
     </g>
     <g id="line2d_28">
      <g>
       <use xlink:href="#ma0cbf063da" x="108" y="249.696467" style="fill: #a9a9a9; stroke: #a9a9a9; stroke-width: 0.8"/>
      </g>
     </g>
     <g id="text_14">
      <!-- 1600 -->
      <g style="fill: #a9a9a9" transform="translate(75.55 253.495686) scale(0.1 -0.1)">
       <defs>
        <path id="DejaVuSans-36" d="M 2113 2584 
Q 1688 2584 1439 2293 
Q 1191 2003 1191 1497 
Q 1191 994 1439 701 
Q 1688 409 2113 409 
Q 2538 409 2786 701 
Q 3034 994 3034 1497 
Q 3034 2003 2786 2293 
Q 2538 2584 2113 2584 
z
M 3366 4563 
L 3366 3988 
Q 3128 4100 2886 4159 
Q 2644 4219 2406 4219 
Q 1781 4219 1451 3797 
Q 1122 3375 1075 2522 
Q 1259 2794 1537 2939 
Q 1816 3084 2150 3084 
Q 2853 3084 3261 2657 
Q 3669 2231 3669 1497 
Q 3669 778 3244 343 
Q 2819 -91 2113 -91 
Q 1303 -91 875 529 
Q 447 1150 447 2328 
Q 447 3434 972 4092 
Q 1497 4750 2381 4750 
Q 2619 4750 2861 4703 
Q 3103 4656 3366 4563 
z
" transform="scale(0.015625)"/>
       </defs>
       <use xlink:href="#DejaVuSans-31"/>
       <use xlink:href="#DejaVuSans-36" x="63.623047"/>
       <use xlink:href="#DejaVuSans-30" x="127.246094"/>
       <use xlink:href="#DejaVuSans-30" x="190.869141"/>
      </g>
     </g>
    </g>
    <g id="ytick_4">
     <g id="line2d_29">
      <path d="M 108 220.626532 
L 777.6 220.626532 
" clip-path="url(#pc9712ecf0d)" style="fill: none; stroke-dasharray: 5.12,1.28,0.8,1.28; stroke-dashoffset: 0; stroke: #b0b0b0; stroke-width: 0.8"/>
     </g>
     <g id="line2d_30">
      <g>
       <use xlink:href="#ma0cbf063da" x="108" y="220.626532" style="fill: #a9a9a9; stroke: #a9a9a9; stroke-width: 0.8"/>
      </g>
     </g>
     <g id="text_15">
      <!-- 2400 -->
      <g style="fill: #a9a9a9" transform="translate(75.55 224.425751) scale(0.1 -0.1)">
       <use xlink:href="#DejaVuSans-32"/>
       <use xlink:href="#DejaVuSans-34" x="63.623047"/>
       <use xlink:href="#DejaVuSans-30" x="127.246094"/>
       <use xlink:href="#DejaVuSans-30" x="190.869141"/>
      </g>
     </g>
    </g>
    <g id="ytick_5">
     <g id="line2d_31">
      <path d="M 108 191.556597 
L 777.6 191.556597 
" clip-path="url(#pc9712ecf0d)" style="fill: none; stroke-dasharray: 5.12,1.28,0.8,1.28; stroke-dashoffset: 0; stroke: #b0b0b0; stroke-width: 0.8"/>
     </g>
     <g id="line2d_32">
      <g>
       <use xlink:href="#ma0cbf063da" x="108" y="191.556597" style="fill: #a9a9a9; stroke: #a9a9a9; stroke-width: 0.8"/>
      </g>
     </g>
     <g id="text_16">
      <!-- 3200 -->
      <g style="fill: #a9a9a9" transform="translate(75.55 195.355816) scale(0.1 -0.1)">
       <use xlink:href="#DejaVuSans-33"/>
       <use xlink:href="#DejaVuSans-32" x="63.623047"/>
       <use xlink:href="#DejaVuSans-30" x="127.246094"/>
       <use xlink:href="#DejaVuSans-30" x="190.869141"/>
      </g>
     </g>
    </g>
    <g id="ytick_6">
     <g id="line2d_33">
      <path d="M 108 162.486662 
L 777.6 162.486662 
" clip-path="url(#pc9712ecf0d)" style="fill: none; stroke-dasharray: 5.12,1.28,0.8,1.28; stroke-dashoffset: 0; stroke: #b0b0b0; stroke-width: 0.8"/>
     </g>
     <g id="line2d_34">
      <g>
       <use xlink:href="#ma0cbf063da" x="108" y="162.486662" style="fill: #a9a9a9; stroke: #a9a9a9; stroke-width: 0.8"/>
      </g>
     </g>
     <g id="text_17">
      <!-- 4000 -->
      <g style="fill: #a9a9a9" transform="translate(75.55 166.285881) scale(0.1 -0.1)">
       <use xlink:href="#DejaVuSans-34"/>
       <use xlink:href="#DejaVuSans-30" x="63.623047"/>
       <use xlink:href="#DejaVuSans-30" x="127.246094"/>
       <use xlink:href="#DejaVuSans-30" x="190.869141"/>
      </g>
     </g>
    </g>
    <g id="ytick_7">
     <g id="line2d_35">
      <path d="M 108 133.416727 
L 777.6 133.416727 
" clip-path="url(#pc9712ecf0d)" style="fill: none; stroke-dasharray: 5.12,1.28,0.8,1.28; stroke-dashoffset: 0; stroke: #b0b0b0; stroke-width: 0.8"/>
     </g>
     <g id="line2d_36">
      <g>
       <use xlink:href="#ma0cbf063da" x="108" y="133.416727" style="fill: #a9a9a9; stroke: #a9a9a9; stroke-width: 0.8"/>
      </g>
     </g>
     <g id="text_18">
      <!-- 4800 -->
      <g style="fill: #a9a9a9" transform="translate(75.55 137.215945) scale(0.1 -0.1)">
       <use xlink:href="#DejaVuSans-34"/>
       <use xlink:href="#DejaVuSans-38" x="63.623047"/>
       <use xlink:href="#DejaVuSans-30" x="127.246094"/>
       <use xlink:href="#DejaVuSans-30" x="190.869141"/>
      </g>
     </g>
    </g>
    <g id="ytick_8">
     <g id="line2d_37">
      <path d="M 108 104.346792 
L 777.6 104.346792 
" clip-path="url(#pc9712ecf0d)" style="fill: none; stroke-dasharray: 5.12,1.28,0.8,1.28; stroke-dashoffset: 0; stroke: #b0b0b0; stroke-width: 0.8"/>
     </g>
     <g id="line2d_38">
      <g>
       <use xlink:href="#ma0cbf063da" x="108" y="104.346792" style="fill: #a9a9a9; stroke: #a9a9a9; stroke-width: 0.8"/>
      </g>
     </g>
     <g id="text_19">
      <!-- 5600 -->
      <g style="fill: #a9a9a9" transform="translate(75.55 108.14601) scale(0.1 -0.1)">
       <use xlink:href="#DejaVuSans-35"/>
       <use xlink:href="#DejaVuSans-36" x="63.623047"/>
       <use xlink:href="#DejaVuSans-30" x="127.246094"/>
       <use xlink:href="#DejaVuSans-30" x="190.869141"/>
      </g>
     </g>
    </g>
    <g id="ytick_9">
     <g id="line2d_39">
      <path d="M 108 75.276857 
L 777.6 75.276857 
" clip-path="url(#pc9712ecf0d)" style="fill: none; stroke-dasharray: 5.12,1.28,0.8,1.28; stroke-dashoffset: 0; stroke: #b0b0b0; stroke-width: 0.8"/>
     </g>
     <g id="line2d_40">
      <g>
       <use xlink:href="#ma0cbf063da" x="108" y="75.276857" style="fill: #a9a9a9; stroke: #a9a9a9; stroke-width: 0.8"/>
      </g>
     </g>
     <g id="text_20">
      <!-- 6400 -->
      <g style="fill: #a9a9a9" transform="translate(75.55 79.076075) scale(0.1 -0.1)">
       <use xlink:href="#DejaVuSans-36"/>
       <use xlink:href="#DejaVuSans-34" x="63.623047"/>
       <use xlink:href="#DejaVuSans-30" x="127.246094"/>
       <use xlink:href="#DejaVuSans-30" x="190.869141"/>
      </g>
     </g>
    </g>
    <g id="ytick_10">
     <g id="line2d_41">
      <path d="M 108 46.206921 
L 777.6 46.206921 
" clip-path="url(#pc9712ecf0d)" style="fill: none; stroke-dasharray: 5.12,1.28,0.8,1.28; stroke-dashoffset: 0; stroke: #b0b0b0; stroke-width: 0.8"/>
     </g>
     <g id="line2d_42">
      <g>
       <use xlink:href="#ma0cbf063da" x="108" y="46.206921" style="fill: #a9a9a9; stroke: #a9a9a9; stroke-width: 0.8"/>
      </g>
     </g>
     <g id="text_21">
      <!-- 7200 -->
      <g style="fill: #a9a9a9" transform="translate(75.55 50.00614) scale(0.1 -0.1)">
       <defs>
        <path id="DejaVuSans-37" d="M 525 4666 
L 3525 4666 
L 3525 4397 
L 1831 0 
L 1172 0 
L 2766 4134 
L 525 4134 
L 525 4666 
z
" transform="scale(0.015625)"/>
       </defs>
       <use xlink:href="#DejaVuSans-37"/>
       <use xlink:href="#DejaVuSans-32" x="63.623047"/>
       <use xlink:href="#DejaVuSans-30" x="127.246094"/>
       <use xlink:href="#DejaVuSans-30" x="190.869141"/>
      </g>
     </g>
    </g>
   </g>
   <g id="line2d_43">
    <path d="M 138.436364 307.727325 
L 141.464858 307.472963 
L 141.969607 307.254939 
L 143.988602 307.000577 
L 146.007598 306.600865 
L 147.017096 306.455516 
L 149.540841 306.237491 
L 150.550339 305.837779 
L 151.055088 305.183706 
L 151.559837 304.820332 
L 152.064586 303.693872 
L 152.569335 303.621197 
L 153.074084 303.221485 
L 154.083582 302.712761 
L 156.102578 301.113915 
L 158.121574 300.132805 
L 159.635821 299.442394 
L 160.14057 298.64297 
L 161.150068 297.916222 
L 161.654817 297.698198 
L 166.702307 296.971449 
L 167.207056 296.753425 
L 170.740299 296.462725 
L 172.759294 295.990339 
L 176.797286 295.445278 
L 177.302035 295.190916 
L 177.806784 295.118241 
L 178.816282 294.791204 
L 182.349525 294.209805 
L 183.359023 293.919106 
L 187.901764 293.15602 
L 188.911262 292.937996 
L 189.92076 292.901658 
L 191.939756 292.429272 
L 192.444505 291.738861 
L 193.958752 291.157462 
L 195.472999 290.757751 
L 195.977748 290.503389 
L 196.987246 290.321702 
L 199.006242 289.740303 
L 200.015739 289.667628 
L 201.025237 289.413266 
L 203.044233 288.904542 
L 203.548982 288.868205 
L 204.55848 288.395818 
L 205.063229 288.323143 
L 205.567978 288.068782 
L 211.120217 287.160346 
L 213.139213 286.578947 
L 213.643962 286.251911 
L 216.167707 285.41615 
L 217.177205 284.725739 
L 218.691452 284.43504 
L 231.814925 280.76496 
L 232.319674 280.76496 
L 232.824423 280.546936 
L 233.833921 280.437924 
L 234.33867 280.256236 
L 236.357666 280.147224 
L 237.367164 279.965537 
L 238.376662 279.456813 
L 239.890909 278.911752 
L 240.395658 278.584715 
L 241.405156 278.148666 
L 241.909905 277.894304 
L 242.919403 277.567267 
L 243.424152 277.38558 
L 244.43365 276.767844 
L 244.938399 276.222783 
L 245.947897 274.696611 
L 246.452646 274.551262 
L 246.957395 274.551262 
L 248.471642 273.679164 
L 248.976391 273.424802 
L 249.48114 273.315789 
L 249.985889 272.843403 
L 250.995387 272.443691 
L 252.004885 271.971305 
L 254.52863 268.773612 
L 257.557123 267.174766 
L 258.566621 266.375342 
L 259.07137 266.048306 
L 259.576119 265.28522 
L 260.080868 264.15876 
L 260.585617 263.395674 
L 261.090366 262.995963 
L 261.595115 262.777938 
L 265.128358 259.79827 
L 266.137856 258.599135 
L 267.147354 257.872386 
L 268.661601 256.854939 
L 269.16635 256.41889 
L 270.175848 256.091853 
L 271.690095 255.219755 
L 273.204342 254.238645 
L 275.223338 252.458111 
L 276.232836 252.058399 
L 277.242334 251.367988 
L 277.747083 251.077289 
L 278.251832 251.004614 
L 279.766079 250.168854 
L 280.270828 249.623792 
L 282.794573 248.279308 
L 283.299322 248.097621 
L 284.813569 247.080173 
L 292.384803 244.427541 
L 293.394301 243.519106 
L 294.403799 243.04672 
L 295.413297 242.501658 
L 295.918046 242.210959 
L 296.927544 241.92026 
L 297.432293 241.593223 
L 297.937042 241.447873 
L 299.451289 240.466763 
L 301.975034 239.885364 
L 303.489281 239.013266 
L 305.003528 238.686229 
L 305.508277 238.54088 
L 307.022524 237.41442 
L 309.04152 236.869358 
L 309.546269 236.469647 
L 312.574763 235.452199 
L 313.584261 235.270512 
L 314.593758 234.8708 
L 318.127001 233.598991 
L 319.136499 233.453641 
L 320.650746 232.944917 
L 323.174491 231.745782 
L 325.193487 230.65566 
L 329.231479 229.020476 
L 329.736228 228.947801 
L 330.745726 228.330065 
L 331.250475 228.25739 
L 333.269471 227.421629 
L 335.288467 227.13093 
L 336.297965 226.622206 
L 336.802714 226.186157 
L 337.307463 225.277722 
L 339.326459 224.73266 
L 340.840706 223.969575 
L 341.345455 223.860562 
L 345.383446 221.934679 
L 346.897693 221.64398 
L 347.907191 221.135256 
L 348.41194 220.917231 
L 348.916689 220.844557 
L 350.935685 219.936121 
L 352.449932 218.991348 
L 353.964179 218.700649 
L 356.487924 218.082913 
L 356.992673 217.683201 
L 358.50692 217.13814 
L 360.525916 216.338717 
L 361.030665 215.975342 
L 361.535414 215.793655 
L 362.544912 215.248594 
L 365.068657 214.412833 
L 366.582904 213.213699 
L 367.087653 213.104686 
L 368.097151 212.305263 
L 368.6019 212.232588 
L 369.106649 211.433165 
L 369.611398 211.215141 
L 370.116147 210.815429 
L 370.620896 210.742754 
L 371.630393 210.125018 
L 372.639891 209.797981 
L 373.14464 209.434607 
L 373.649389 209.25292 
L 375.163636 208.199135 
L 377.182632 207.14535 
L 377.687381 207.072675 
L 379.201628 206.309589 
L 379.706377 205.473828 
L 380.715875 204.74708 
L 381.220624 204.638068 
L 382.230122 204.020332 
L 382.734871 203.911319 
L 383.744369 203.402596 
L 385.763365 202.421485 
L 386.268114 202.058111 
L 387.277612 201.077001 
L 388.28711 200.459265 
L 388.791859 200.132228 
L 389.296608 199.587167 
L 391.315604 198.206345 
L 391.820353 197.624946 
L 392.325102 197.225234 
L 393.3346 196.86186 
L 394.344098 196.171449 
L 395.858345 195.408363 
L 396.363094 195.335689 
L 397.877341 194.536265 
L 398.886839 193.918529 
L 403.934328 192.101658 
L 404.439077 191.701947 
L 406.458073 190.938861 
L 406.962822 190.793511 
L 407.467571 190.3938 
L 409.991316 189.012978 
L 411.000814 187.01442 
L 412.010312 185.851622 
L 413.01981 185.233886 
L 414.534057 184.61615 
L 415.038806 184.543475 
L 415.543555 184.252776 
L 418.0673 183.453353 
L 418.572049 183.235328 
L 419.581547 182.544917 
L 421.095794 181.890844 
L 422.105292 181.345782 
L 422.610041 180.982408 
L 423.11479 180.764384 
L 423.619539 180.401009 
L 424.124288 179.855948 
L 425.133786 179.310887 
L 427.657531 177.966402 
L 430.686024 176.476568 
L 431.695522 176.149531 
L 433.209769 175.677145 
L 435.228765 174.768709 
L 436.238263 174.368998 
L 436.743012 173.969286 
L 438.762008 173.278875 
L 439.771506 172.552127 
L 440.781004 172.116078 
L 441.790502 171.316655 
L 442.8 170.95328 
L 443.304749 170.517231 
L 443.809498 170.444557 
L 444.818996 169.681471 
L 445.828494 169.172747 
L 446.333243 168.954722 
L 446.837992 168.445999 
L 450.371235 167.065177 
L 451.380733 166.629128 
L 452.89498 166.156741 
L 453.904478 166.011391 
L 454.409227 165.793367 
L 454.913976 165.720692 
L 455.923474 165.284643 
L 456.428223 165.248306 
L 458.447218 164.48522 
L 459.961465 163.431435 
L 460.466214 163.249748 
L 461.475712 162.704686 
L 461.980461 162.559337 
L 465.008955 160.887815 
L 465.513704 160.778803 
L 467.027951 159.906705 
L 468.542198 159.397981 
L 469.551696 159.070944 
L 471.570692 158.416871 
L 472.58019 158.089834 
L 474.599186 157.690123 
L 475.103935 157.472098 
L 475.608684 157.399423 
L 476.618182 156.963374 
L 477.122931 156.890699 
L 477.62768 156.636337 
L 478.637178 156.45465 
L 480.151425 155.909589 
L 481.160923 155.800577 
L 482.67517 155.47354 
L 485.198915 155.037491 
L 498.322388 151.258399 
L 498.827137 150.749676 
L 499.836635 150.349964 
L 502.865129 149.259841 
L 503.369878 148.932805 
L 503.874627 148.823792 
L 504.379376 148.533093 
L 505.893623 148.097044 
L 506.903121 147.842682 
L 507.40787 147.515645 
L 507.912619 147.406633 
L 508.417368 146.970584 
L 509.931615 146.679885 
L 510.941113 146.207498 
L 511.445862 145.626099 
L 513.464858 145.153713 
L 516.9981 144.426965 
L 517.502849 144.426965 
L 518.007598 144.20894 
L 520.026594 143.845566 
L 520.531343 143.627541 
L 522.550339 143.264167 
L 523.559837 142.828118 
L 524.569335 142.646431 
L 527.09308 142.028695 
L 529.112076 141.410959 
L 529.616825 141.301947 
L 530.121574 141.047585 
L 531.131072 140.793223 
L 531.635821 140.502523 
L 533.150068 139.9938 
L 533.654817 139.666763 
L 534.664315 139.376063 
L 535.673813 139.049027 
L 536.683311 138.649315 
L 538.197558 137.995242 
L 540.216554 137.74088 
L 544.254545 136.32372 
L 544.759294 135.960346 
L 545.264043 135.851334 
L 545.768792 135.596972 
L 546.273541 135.560634 
L 551.82578 133.634751 
L 554.349525 132.980678 
L 555.359023 132.508291 
L 556.87327 132.181255 
L 557.378019 131.781543 
L 557.882768 131.527181 
L 558.387517 130.909445 
L 558.892266 130.546071 
L 559.901764 130.255371 
L 560.406513 129.85566 
L 563.435007 128.7292 
L 563.939756 128.402163 
L 564.949254 128.111464 
L 565.454003 127.784427 
L 567.977748 126.985004 
L 569.491995 126.112906 
L 569.996744 126.003893 
L 572.520488 124.659409 
L 574.034735 124.005335 
L 574.539484 123.641961 
L 575.548982 123.314924 
L 576.55848 122.733526 
L 577.063229 122.551839 
L 577.567978 122.188464 
L 584.129715 119.899207 
L 584.634464 119.790195 
L 585.139213 119.463158 
L 587.158209 119.063446 
L 588.167707 118.663735 
L 588.672456 118.373035 
L 589.177205 118.227686 
L 591.196201 117.173901 
L 591.70095 117.101226 
L 593.215197 116.265465 
L 594.729444 115.756741 
L 598.262687 114.303244 
L 598.767436 114.157895 
L 599.272185 113.830858 
L 600.281682 113.721846 
L 600.786431 113.394809 
L 601.795929 113.213122 
L 602.805427 112.740735 
L 603.310176 112.522711 
L 603.814925 112.450036 
L 606.33867 111.468926 
L 607.852917 111.069214 
L 608.862415 110.814852 
L 610.376662 110.378803 
L 611.38616 109.979092 
L 613.405156 108.888969 
L 614.414654 108.489257 
L 614.919403 108.162221 
L 615.928901 107.944196 
L 616.43365 107.653497 
L 616.938399 107.544484 
L 618.452646 106.708724 
L 619.462144 106.309012 
L 621.48114 105.545926 
L 624.004885 104.710166 
L 625.014383 104.201442 
L 627.538128 103.365681 
L 629.052374 102.82062 
L 629.557123 102.67527 
L 630.566621 102.130209 
L 632.585617 101.221774 
L 637.633107 99.29589 
L 638.137856 98.968854 
L 640.156852 98.278443 
L 640.661601 98.278443 
L 641.671099 97.842394 
L 642.680597 96.933958 
L 643.185346 96.497909 
L 644.699593 95.771161 
L 645.204342 95.662149 
L 645.709091 95.407787 
L 646.21384 95.335112 
L 646.718589 94.971738 
L 647.223338 94.862725 
L 648.232836 94.244989 
L 649.747083 93.481903 
L 650.756581 93.082192 
L 651.26133 92.82783 
L 652.775577 92.500793 
L 655.299322 91.665032 
L 656.30882 91.337996 
L 657.823066 90.57491 
L 658.832564 90.102523 
L 659.842062 89.848161 
L 661.356309 89.157751 
L 665.89905 87.486229 
L 667.413297 86.577794 
L 667.918046 86.468782 
L 668.927544 85.960058 
L 669.937042 85.596683 
L 670.441791 85.160634 
L 671.451289 84.760923 
L 672.965536 84.143187 
L 673.470285 83.743475 
L 673.975034 83.707138 
L 674.984532 83.416438 
L 675.99403 83.089402 
L 676.498779 82.83504 
L 677.003528 82.762365 
L 678.517775 82.217304 
L 680.032022 81.672242 
L 681.04152 81.272531 
L 681.546269 80.872819 
L 683.060516 80.473107 
L 683.565265 80.182408 
L 684.574763 79.928046 
L 686.089009 79.092286 
L 686.593758 79.055948 
L 688.108005 78.583562 
L 689.117503 78.510887 
L 690.127001 78.111175 
L 693.155495 77.239077 
L 694.164993 77.20274 
L 697.193487 76.221629 
L 697.698236 76.148955 
L 699.212483 75.349531 
L 699.717232 74.913482 
L 701.231479 74.041384 
L 702.240977 73.423648 
L 704.259973 72.842249 
L 704.764722 72.55155 
L 705.269471 72.442538 
L 705.77422 72.042826 
L 708.802714 70.807354 
L 710.82171 70.262293 
L 711.831208 69.826244 
L 712.335957 69.571882 
L 713.345455 69.244845 
L 713.850204 68.917808 
L 714.859701 68.736121 
L 717.383446 67.573324 
L 717.888195 67.282624 
L 719.402442 66.882913 
L 720.916689 65.901802 
L 721.421438 65.829128 
L 723.945183 64.848017 
L 725.45943 64.484643 
L 725.964179 64.411968 
L 726.468928 64.193944 
L 726.973677 64.157606 
L 727.983175 63.83057 
L 728.487924 63.794232 
L 730.002171 63.212833 
L 732.021167 62.631435 
L 733.030665 61.868349 
L 735.049661 60.778226 
L 736.563908 60.269503 
L 739.592402 58.888681 
L 740.6019 58.343619 
L 741.106649 58.089257 
L 741.611398 57.616871 
L 744.135142 56.853785 
L 745.14464 56.272386 
L 746.658887 55.8 
L 747.163636 55.8 
L 747.163636 55.8 
" clip-path="url(#pc9712ecf0d)" style="fill: none; stroke: #1f77b4; stroke-width: 1.5; stroke-linecap: square"/>
   </g>
   <g id="line2d_44">
    <path d="M 138.941113 307.8 
L 143.483853 307.690988 
L 147.521845 307.509301 
L 149.540841 307.509301 
L 150.04559 307.363951 
L 152.569335 307.254939 
L 155.597829 306.927902 
L 158.626323 306.81889 
L 159.635821 306.709877 
L 163.169064 306.564528 
L 166.702307 306.455516 
L 169.226052 306.382841 
L 175.787788 306.273828 
L 178.311533 306.201154 
L 181.844776 306.092141 
L 184.368521 306.019466 
L 189.92076 305.910454 
L 191.939756 305.728767 
L 193.958752 305.69243 
L 196.987246 305.583417 
L 199.006242 305.54708 
L 201.529986 305.474405 
L 203.548982 305.292718 
L 208.091723 305.183706 
L 209.101221 305.111031 
L 211.120217 305.002019 
L 214.148711 304.893006 
L 216.167707 304.783994 
L 225.253189 304.238933 
L 228.786431 304.129921 
L 230.300678 303.984571 
L 232.824423 303.875559 
L 237.871913 303.621197 
L 242.919403 303.548522 
L 244.938399 303.330497 
L 246.957395 303.221485 
L 252.509634 302.712761 
L 256.042877 302.31305 
L 257.557123 302.240375 
L 262.099864 301.695314 
L 264.623609 301.622639 
L 266.137856 301.477289 
L 267.652103 301.368277 
L 272.699593 300.89589 
L 274.21384 300.750541 
L 277.242334 300.641528 
L 281.785075 300.278154 
L 282.794573 300.096467 
L 285.823066 299.987455 
L 293.89905 299.515068 
L 297.432293 299.406056 
L 299.451289 299.188032 
L 301.975034 299.079019 
L 305.003528 298.970007 
L 307.527273 298.860995 
L 309.546269 298.824658 
L 312.070014 298.751983 
L 313.079512 298.606633 
L 320.145997 298.497621 
L 321.155495 298.388609 
L 327.212483 298.279596 
L 331.755224 298.061572 
L 335.288467 297.952559 
L 337.307463 297.734535 
L 340.840706 297.625523 
L 341.850204 297.443836 
L 344.373948 297.371161 
L 349.421438 297.298486 
L 351.945183 297.044124 
L 354.973677 296.935112 
L 356.992673 296.753425 
L 362.040163 296.499063 
L 367.087653 296.39005 
L 371.630393 296.172026 
L 373.14464 296.135689 
L 374.154138 295.990339 
L 376.677883 295.881327 
L 377.687381 295.808652 
L 378.696879 295.735977 
L 379.706377 295.663302 
L 384.249118 295.590627 
L 385.763365 295.481615 
L 399.391588 294.609517 
L 401.915332 294.500505 
L 404.439077 294.42783 
L 411.505563 294.318818 
L 412.515061 294.173468 
L 419.581547 294.064456 
L 424.629037 293.810094 
L 425.638535 293.773756 
L 426.648033 293.664744 
L 429.171777 293.555732 
L 431.695522 293.483057 
L 434.219267 293.374045 
L 436.743012 293.30137 
L 441.285753 293.192358 
L 444.314247 293.083345 
L 451.380733 292.974333 
L 456.932972 292.683634 
L 458.951967 292.610959 
L 460.466214 292.501947 
L 467.5327 292.392934 
L 470.561194 292.283922 
L 479.646676 292.17491 
L 481.665672 292.138572 
L 487.722659 292.065898 
L 488.732157 291.993223 
L 495.798643 291.884211 
L 497.817639 291.847873 
L 510.941113 291.738861 
L 512.45536 291.593511 
L 535.169064 291.484499 
L 537.692809 291.411824 
L 550.816282 291.302812 
L 551.82578 291.230137 
L 554.349525 291.157462 
L 555.863772 291.012112 
L 558.892266 290.9031 
L 562.425509 290.757751 
L 566.96825 290.648738 
L 569.491995 290.576063 
L 573.025237 290.467051 
L 577.063229 290.285364 
L 579.586974 290.176352 
L 581.60597 290.140014 
L 586.148711 290.031002 
L 588.167707 289.994665 
L 594.729444 289.885652 
L 596.74844 289.849315 
L 599.272185 289.740303 
L 602.300678 289.631291 
L 605.833921 289.558616 
L 606.843419 289.485941 
L 618.957395 289.376929 
L 625.519132 289.013554 
L 628.042877 288.94088 
L 629.052374 288.831867 
L 630.061872 288.759193 
L 634.099864 288.65018 
L 637.128358 288.541168 
L 642.175848 288.432156 
L 644.699593 288.177794 
L 649.747083 288.068782 
L 650.756581 287.959769 
L 655.804071 287.850757 
L 658.327815 287.778082 
L 663.880054 287.741745 
L 664.889552 287.632733 
L 670.441791 287.52372 
L 671.451289 287.451045 
L 682.555767 287.342033 
L 685.584261 287.233021 
L 693.155495 287.124009 
L 695.174491 287.087671 
L 699.717232 287.014996 
L 700.72673 286.905984 
L 706.783718 286.796972 
L 709.812212 286.68796 
L 718.897693 286.578947 
L 720.41194 286.469935 
L 721.926187 286.360923 
L 723.440434 286.251911 
L 731.011669 286.142898 
L 734.544912 285.997549 
L 745.649389 285.888536 
L 747.163636 285.852199 
L 747.163636 285.852199 
" clip-path="url(#pc9712ecf0d)" style="fill: none; stroke: #ff7f0e; stroke-width: 1.5; stroke-linecap: square"/>
   </g>
   <g id="patch_3">
    <path d="M 108 320.4 
L 108 43.2 
" style="fill: none; stroke: #a9a9a9; stroke-width: 0.8; stroke-linejoin: miter; stroke-linecap: square"/>
   </g>
   <g id="patch_4">
    <path d="M 777.6 320.4 
L 777.6 43.2 
" style="fill: none"/>
   </g>
   <g id="patch_5">
    <path d="M 108 320.4 
L 777.6 320.4 
" style="fill: none; stroke: #a9a9a9; stroke-width: 0.8; stroke-linejoin: miter; stroke-linecap: square"/>
   </g>
   <g id="patch_6">
    <path d="M 108 43.2 
L 777.6 43.2 
" style="fill: none"/>
   </g>
   <g id="text_22">
    <!-- get_subscribe history -->
    <g style="fill: #a9a9a9" transform="translate(378.6075 37.2) scale(0.12 -0.12)">
     <defs>
      <path id="DejaVuSans-67" d="M 2906 1791 
Q 2906 2416 2648 2759 
Q 2391 3103 1925 3103 
Q 1463 3103 1205 2759 
Q 947 2416 947 1791 
Q 947 1169 1205 825 
Q 1463 481 1925 481 
Q 2391 481 2648 825 
Q 2906 1169 2906 1791 
z
M 3481 434 
Q 3481 -459 3084 -895 
Q 2688 -1331 1869 -1331 
Q 1566 -1331 1297 -1286 
Q 1028 -1241 775 -1147 
L 775 -588 
Q 1028 -725 1275 -790 
Q 1522 -856 1778 -856 
Q 2344 -856 2625 -561 
Q 2906 -266 2906 331 
L 2906 616 
Q 2728 306 2450 153 
Q 2172 0 1784 0 
Q 1141 0 747 490 
Q 353 981 353 1791 
Q 353 2603 747 3093 
Q 1141 3584 1784 3584 
Q 2172 3584 2450 3431 
Q 2728 3278 2906 2969 
L 2906 3500 
L 3481 3500 
L 3481 434 
z
" transform="scale(0.015625)"/>
      <path id="DejaVuSans-65" d="M 3597 1894 
L 3597 1613 
L 953 1613 
Q 991 1019 1311 708 
Q 1631 397 2203 397 
Q 2534 397 2845 478 
Q 3156 559 3463 722 
L 3463 178 
Q 3153 47 2828 -22 
Q 2503 -91 2169 -91 
Q 1331 -91 842 396 
Q 353 884 353 1716 
Q 353 2575 817 3079 
Q 1281 3584 2069 3584 
Q 2775 3584 3186 3129 
Q 3597 2675 3597 1894 
z
M 3022 2063 
Q 3016 2534 2758 2815 
Q 2500 3097 2075 3097 
Q 1594 3097 1305 2825 
Q 1016 2553 972 2059 
L 3022 2063 
z
" transform="scale(0.015625)"/>
      <path id="DejaVuSans-74" d="M 1172 4494 
L 1172 3500 
L 2356 3500 
L 2356 3053 
L 1172 3053 
L 1172 1153 
Q 1172 725 1289 603 
Q 1406 481 1766 481 
L 2356 481 
L 2356 0 
L 1766 0 
Q 1100 0 847 248 
Q 594 497 594 1153 
L 594 3053 
L 172 3053 
L 172 3500 
L 594 3500 
L 594 4494 
L 1172 4494 
z
" transform="scale(0.015625)"/>
      <path id="DejaVuSans-5f" d="M 3263 -1063 
L 3263 -1509 
L -63 -1509 
L -63 -1063 
L 3263 -1063 
z
" transform="scale(0.015625)"/>
      <path id="DejaVuSans-73" d="M 2834 3397 
L 2834 2853 
Q 2591 2978 2328 3040 
Q 2066 3103 1784 3103 
Q 1356 3103 1142 2972 
Q 928 2841 928 2578 
Q 928 2378 1081 2264 
Q 1234 2150 1697 2047 
L 1894 2003 
Q 2506 1872 2764 1633 
Q 3022 1394 3022 966 
Q 3022 478 2636 193 
Q 2250 -91 1575 -91 
Q 1294 -91 989 -36 
Q 684 19 347 128 
L 347 722 
Q 666 556 975 473 
Q 1284 391 1588 391 
Q 1994 391 2212 530 
Q 2431 669 2431 922 
Q 2431 1156 2273 1281 
Q 2116 1406 1581 1522 
L 1381 1569 
Q 847 1681 609 1914 
Q 372 2147 372 2553 
Q 372 3047 722 3315 
Q 1072 3584 1716 3584 
Q 2034 3584 2315 3537 
Q 2597 3491 2834 3397 
z
" transform="scale(0.015625)"/>
      <path id="DejaVuSans-75" d="M 544 1381 
L 544 3500 
L 1119 3500 
L 1119 1403 
Q 1119 906 1312 657 
Q 1506 409 1894 409 
Q 2359 409 2629 706 
Q 2900 1003 2900 1516 
L 2900 3500 
L 3475 3500 
L 3475 0 
L 2900 0 
L 2900 538 
Q 2691 219 2414 64 
Q 2138 -91 1772 -91 
Q 1169 -91 856 284 
Q 544 659 544 1381 
z
M 1991 3584 
L 1991 3584 
z
" transform="scale(0.015625)"/>
      <path id="DejaVuSans-62" d="M 3116 1747 
Q 3116 2381 2855 2742 
Q 2594 3103 2138 3103 
Q 1681 3103 1420 2742 
Q 1159 2381 1159 1747 
Q 1159 1113 1420 752 
Q 1681 391 2138 391 
Q 2594 391 2855 752 
Q 3116 1113 3116 1747 
z
M 1159 2969 
Q 1341 3281 1617 3432 
Q 1894 3584 2278 3584 
Q 2916 3584 3314 3078 
Q 3713 2572 3713 1747 
Q 3713 922 3314 415 
Q 2916 -91 2278 -91 
Q 1894 -91 1617 61 
Q 1341 213 1159 525 
L 1159 0 
L 581 0 
L 581 4863 
L 1159 4863 
L 1159 2969 
z
" transform="scale(0.015625)"/>
      <path id="DejaVuSans-63" d="M 3122 3366 
L 3122 2828 
Q 2878 2963 2633 3030 
Q 2388 3097 2138 3097 
Q 1578 3097 1268 2742 
Q 959 2388 959 1747 
Q 959 1106 1268 751 
Q 1578 397 2138 397 
Q 2388 397 2633 464 
Q 2878 531 3122 666 
L 3122 134 
Q 2881 22 2623 -34 
Q 2366 -91 2075 -91 
Q 1284 -91 818 406 
Q 353 903 353 1747 
Q 353 2603 823 3093 
Q 1294 3584 2113 3584 
Q 2378 3584 2631 3529 
Q 2884 3475 3122 3366 
z
" transform="scale(0.015625)"/>
      <path id="DejaVuSans-72" d="M 2631 2963 
Q 2534 3019 2420 3045 
Q 2306 3072 2169 3072 
Q 1681 3072 1420 2755 
Q 1159 2438 1159 1844 
L 1159 0 
L 581 0 
L 581 3500 
L 1159 3500 
L 1159 2956 
Q 1341 3275 1631 3429 
Q 1922 3584 2338 3584 
Q 2397 3584 2469 3576 
Q 2541 3569 2628 3553 
L 2631 2963 
z
" transform="scale(0.015625)"/>
      <path id="DejaVuSans-69" d="M 603 3500 
L 1178 3500 
L 1178 0 
L 603 0 
L 603 3500 
z
M 603 4863 
L 1178 4863 
L 1178 4134 
L 603 4134 
L 603 4863 
z
" transform="scale(0.015625)"/>
      <path id="DejaVuSans-20" transform="scale(0.015625)"/>
      <path id="DejaVuSans-68" d="M 3513 2113 
L 3513 0 
L 2938 0 
L 2938 2094 
Q 2938 2591 2744 2837 
Q 2550 3084 2163 3084 
Q 1697 3084 1428 2787 
Q 1159 2491 1159 1978 
L 1159 0 
L 581 0 
L 581 4863 
L 1159 4863 
L 1159 2956 
Q 1366 3272 1645 3428 
Q 1925 3584 2291 3584 
Q 2894 3584 3203 3211 
Q 3513 2838 3513 2113 
z
" transform="scale(0.015625)"/>
      <path id="DejaVuSans-6f" d="M 1959 3097 
Q 1497 3097 1228 2736 
Q 959 2375 959 1747 
Q 959 1119 1226 758 
Q 1494 397 1959 397 
Q 2419 397 2687 759 
Q 2956 1122 2956 1747 
Q 2956 2369 2687 2733 
Q 2419 3097 1959 3097 
z
M 1959 3584 
Q 2709 3584 3137 3096 
Q 3566 2609 3566 1747 
Q 3566 888 3137 398 
Q 2709 -91 1959 -91 
Q 1206 -91 779 398 
Q 353 888 353 1747 
Q 353 2609 779 3096 
Q 1206 3584 1959 3584 
z
" transform="scale(0.015625)"/>
      <path id="DejaVuSans-79" d="M 2059 -325 
Q 1816 -950 1584 -1140 
Q 1353 -1331 966 -1331 
L 506 -1331 
L 506 -850 
L 844 -850 
Q 1081 -850 1212 -737 
Q 1344 -625 1503 -206 
L 1606 56 
L 191 3500 
L 800 3500 
L 1894 763 
L 2988 3500 
L 3597 3500 
L 2059 -325 
z
" transform="scale(0.015625)"/>
     </defs>
     <use xlink:href="#DejaVuSans-67"/>
     <use xlink:href="#DejaVuSans-65" x="63.476562"/>
     <use xlink:href="#DejaVuSans-74" x="125"/>
     <use xlink:href="#DejaVuSans-5f" x="164.208984"/>
     <use xlink:href="#DejaVuSans-73" x="214.208984"/>
     <use xlink:href="#DejaVuSans-75" x="266.308594"/>
     <use xlink:href="#DejaVuSans-62" x="329.6875"/>
     <use xlink:href="#DejaVuSans-73" x="393.164062"/>
     <use xlink:href="#DejaVuSans-63" x="445.263672"/>
     <use xlink:href="#DejaVuSans-72" x="500.244141"/>
     <use xlink:href="#DejaVuSans-69" x="541.357422"/>
     <use xlink:href="#DejaVuSans-62" x="569.140625"/>
     <use xlink:href="#DejaVuSans-65" x="632.617188"/>
     <use xlink:href="#DejaVuSans-20" x="694.140625"/>
     <use xlink:href="#DejaVuSans-68" x="725.927734"/>
     <use xlink:href="#DejaVuSans-69" x="789.306641"/>
     <use xlink:href="#DejaVuSans-73" x="817.089844"/>
     <use xlink:href="#DejaVuSans-74" x="869.189453"/>
     <use xlink:href="#DejaVuSans-6f" x="908.398438"/>
     <use xlink:href="#DejaVuSans-72" x="969.580078"/>
     <use xlink:href="#DejaVuSans-79" x="1010.693359"/>
    </g>
   </g>
   <g id="legend_1">
    <g id="line2d_45">
     <path d="M 815.08 328.498438 
L 825.08 328.498438 
L 835.08 328.498438 
" style="fill: none; stroke: #1f77b4; stroke-width: 1.5; stroke-linecap: square"/>
    </g>
    <g id="text_23">
     <!-- star -->
     <g style="fill: #a9a9a9" transform="translate(843.08 331.998438) scale(0.1 -0.1)">
      <defs>
       <path id="DejaVuSans-61" d="M 2194 1759 
Q 1497 1759 1228 1600 
Q 959 1441 959 1056 
Q 959 750 1161 570 
Q 1363 391 1709 391 
Q 2188 391 2477 730 
Q 2766 1069 2766 1631 
L 2766 1759 
L 2194 1759 
z
M 3341 1997 
L 3341 0 
L 2766 0 
L 2766 531 
Q 2569 213 2275 61 
Q 1981 -91 1556 -91 
Q 1019 -91 701 211 
Q 384 513 384 1019 
Q 384 1609 779 1909 
Q 1175 2209 1959 2209 
L 2766 2209 
L 2766 2266 
Q 2766 2663 2505 2880 
Q 2244 3097 1772 3097 
Q 1472 3097 1187 3025 
Q 903 2953 641 2809 
L 641 3341 
Q 956 3463 1253 3523 
Q 1550 3584 1831 3584 
Q 2591 3584 2966 3190 
Q 3341 2797 3341 1997 
z
" transform="scale(0.015625)"/>
      </defs>
      <use xlink:href="#DejaVuSans-73"/>
      <use xlink:href="#DejaVuSans-74" x="52.099609"/>
      <use xlink:href="#DejaVuSans-61" x="91.308594"/>
      <use xlink:href="#DejaVuSans-72" x="152.587891"/>
     </g>
    </g>
    <g id="line2d_46">
     <path d="M 815.08 343.176562 
L 825.08 343.176562 
L 835.08 343.176562 
" style="fill: none; stroke: #ff7f0e; stroke-width: 1.5; stroke-linecap: square"/>
    </g>
    <g id="text_24">
     <!-- fork -->
     <g style="fill: #a9a9a9" transform="translate(843.08 346.676562) scale(0.1 -0.1)">
      <defs>
       <path id="DejaVuSans-66" d="M 2375 4863 
L 2375 4384 
L 1825 4384 
Q 1516 4384 1395 4259 
Q 1275 4134 1275 3809 
L 1275 3500 
L 2222 3500 
L 2222 3053 
L 1275 3053 
L 1275 0 
L 697 0 
L 697 3053 
L 147 3053 
L 147 3500 
L 697 3500 
L 697 3744 
Q 697 4328 969 4595 
Q 1241 4863 1831 4863 
L 2375 4863 
z
" transform="scale(0.015625)"/>
       <path id="DejaVuSans-6b" d="M 581 4863 
L 1159 4863 
L 1159 1991 
L 2875 3500 
L 3609 3500 
L 1753 1863 
L 3688 0 
L 2938 0 
L 1159 1709 
L 1159 0 
L 581 0 
L 581 4863 
z
" transform="scale(0.015625)"/>
      </defs>
      <use xlink:href="#DejaVuSans-66"/>
      <use xlink:href="#DejaVuSans-6f" x="35.205078"/>
      <use xlink:href="#DejaVuSans-72" x="96.386719"/>
      <use xlink:href="#DejaVuSans-6b" x="137.5"/>
     </g>
    </g>
   </g>
  </g>
 </g>
 <defs>
  <clipPath id="pc9712ecf0d">
   <rect x="108" y="43.2" width="669.6" height="277.2"/>
  </clipPath>
 </defs>
</svg>
