<?xml version="1.0" encoding="utf-8" standalone="no"?>
<!DOCTYPE svg PUBLIC "-//W3C//DTD SVG 1.1//EN"
  "http://www.w3.org/Graphics/SVG/1.1/DTD/svg11.dtd">
<svg xmlns:xlink="http://www.w3.org/1999/xlink" width="864pt" height="360pt" viewBox="0 0 864 360" xmlns="http://www.w3.org/2000/svg" version="1.1">
 <metadata>
  <rdf:RDF xmlns:dc="http://purl.org/dc/elements/1.1/" xmlns:cc="http://creativecommons.org/ns#" xmlns:rdf="http://www.w3.org/1999/02/22-rdf-syntax-ns#">
   <cc:Work>
    <dc:type rdf:resource="http://purl.org/dc/dcmitype/StillImage"/>
    <dc:date>2024-11-12T20:05:52.790739</dc:date>
    <dc:format>image/svg+xml</dc:format>
    <dc:creator>
     <cc:Agent>
      <dc:title>Matplotlib v3.9.2, https://matplotlib.org/</dc:title>
     </cc:Agent>
    </dc:creator>
   </cc:Work>
  </rdf:RDF>
 </metadata>
 <defs>
  <style type="text/css">*{stroke-linejoin: round; stroke-linecap: butt}</style>
 </defs>
 <g id="figure_1">
  <g id="patch_1">
   <path d="M 0 360 
L 864 360 
L 864 0 
L 0 0 
L 0 360 
z
" style="fill: none; opacity: 0"/>
  </g>
  <g id="axes_1">
   <g id="patch_2">
    <path d="M 108 320.4 
L 777.6 320.4 
L 777.6 43.2 
L 108 43.2 
L 108 320.4 
z
" style="fill: none; opacity: 0"/>
   </g>
   <g id="matplotlib.axis_1">
    <g id="xtick_1">
     <g id="line2d_1">
      <path d="M 158.105265 320.4 
L 158.105265 43.2 
" clip-path="url(#pa8373b58ce)" style="fill: none; stroke-dasharray: 5.12,1.28,0.8,1.28; stroke-dashoffset: 0; stroke: #b0b0b0; stroke-width: 0.8"/>
     </g>
     <g id="line2d_2">
      <defs>
       <path id="m7b21bab6e9" d="M 0 0 
L 0 3.5 
" style="stroke: #a9a9a9; stroke-width: 0.8"/>
      </defs>
      <g>
       <use xlink:href="#m7b21bab6e9" x="158.105265" y="320.4" style="fill: #a9a9a9; stroke: #a9a9a9; stroke-width: 0.8"/>
      </g>
     </g>
     <g id="text_1">
      <!-- 2021-09 -->
      <g style="fill: #a9a9a9" transform="translate(137.213858 334.998438) scale(0.1 -0.1)">
       <defs>
        <path id="DejaVuSans-32" d="M 1228 531 
L 3431 531 
L 3431 0 
L 469 0 
L 469 531 
Q 828 903 1448 1529 
Q 2069 2156 2228 2338 
Q 2531 2678 2651 2914 
Q 2772 3150 2772 3378 
Q 2772 3750 2511 3984 
Q 2250 4219 1831 4219 
Q 1534 4219 1204 4116 
Q 875 4013 500 3803 
L 500 4441 
Q 881 4594 1212 4672 
Q 1544 4750 1819 4750 
Q 2544 4750 2975 4387 
Q 3406 4025 3406 3419 
Q 3406 3131 3298 2873 
Q 3191 2616 2906 2266 
Q 2828 2175 2409 1742 
Q 1991 1309 1228 531 
z
" transform="scale(0.015625)"/>
        <path id="DejaVuSans-30" d="M 2034 4250 
Q 1547 4250 1301 3770 
Q 1056 3291 1056 2328 
Q 1056 1369 1301 889 
Q 1547 409 2034 409 
Q 2525 409 2770 889 
Q 3016 1369 3016 2328 
Q 3016 3291 2770 3770 
Q 2525 4250 2034 4250 
z
M 2034 4750 
Q 2819 4750 3233 4129 
Q 3647 3509 3647 2328 
Q 3647 1150 3233 529 
Q 2819 -91 2034 -91 
Q 1250 -91 836 529 
Q 422 1150 422 2328 
Q 422 3509 836 4129 
Q 1250 4750 2034 4750 
z
" transform="scale(0.015625)"/>
        <path id="DejaVuSans-31" d="M 794 531 
L 1825 531 
L 1825 4091 
L 703 3866 
L 703 4441 
L 1819 4666 
L 2450 4666 
L 2450 531 
L 3481 531 
L 3481 0 
L 794 0 
L 794 531 
z
" transform="scale(0.015625)"/>
        <path id="DejaVuSans-2d" d="M 313 2009 
L 1997 2009 
L 1997 1497 
L 313 1497 
L 313 2009 
z
" transform="scale(0.015625)"/>
        <path id="DejaVuSans-39" d="M 703 97 
L 703 672 
Q 941 559 1184 500 
Q 1428 441 1663 441 
Q 2288 441 2617 861 
Q 2947 1281 2994 2138 
Q 2813 1869 2534 1725 
Q 2256 1581 1919 1581 
Q 1219 1581 811 2004 
Q 403 2428 403 3163 
Q 403 3881 828 4315 
Q 1253 4750 1959 4750 
Q 2769 4750 3195 4129 
Q 3622 3509 3622 2328 
Q 3622 1225 3098 567 
Q 2575 -91 1691 -91 
Q 1453 -91 1209 -44 
Q 966 3 703 97 
z
M 1959 2075 
Q 2384 2075 2632 2365 
Q 2881 2656 2881 3163 
Q 2881 3666 2632 3958 
Q 2384 4250 1959 4250 
Q 1534 4250 1286 3958 
Q 1038 3666 1038 3163 
Q 1038 2656 1286 2365 
Q 1534 2075 1959 2075 
z
" transform="scale(0.015625)"/>
       </defs>
       <use xlink:href="#DejaVuSans-32"/>
       <use xlink:href="#DejaVuSans-30" x="63.623047"/>
       <use xlink:href="#DejaVuSans-32" x="127.246094"/>
       <use xlink:href="#DejaVuSans-31" x="190.869141"/>
       <use xlink:href="#DejaVuSans-2d" x="254.492188"/>
       <use xlink:href="#DejaVuSans-30" x="290.576172"/>
       <use xlink:href="#DejaVuSans-39" x="354.199219"/>
      </g>
     </g>
    </g>
    <g id="xtick_2">
     <g id="line2d_3">
      <path d="M 219.633622 320.4 
L 219.633622 43.2 
" clip-path="url(#pa8373b58ce)" style="fill: none; stroke-dasharray: 5.12,1.28,0.8,1.28; stroke-dashoffset: 0; stroke: #b0b0b0; stroke-width: 0.8"/>
     </g>
     <g id="line2d_4">
      <g>
       <use xlink:href="#m7b21bab6e9" x="219.633622" y="320.4" style="fill: #a9a9a9; stroke: #a9a9a9; stroke-width: 0.8"/>
      </g>
     </g>
     <g id="text_2">
      <!-- 2022-01 -->
      <g style="fill: #a9a9a9" transform="translate(198.742216 334.998438) scale(0.1 -0.1)">
       <use xlink:href="#DejaVuSans-32"/>
       <use xlink:href="#DejaVuSans-30" x="63.623047"/>
       <use xlink:href="#DejaVuSans-32" x="127.246094"/>
       <use xlink:href="#DejaVuSans-32" x="190.869141"/>
       <use xlink:href="#DejaVuSans-2d" x="254.492188"/>
       <use xlink:href="#DejaVuSans-30" x="290.576172"/>
       <use xlink:href="#DejaVuSans-31" x="354.199219"/>
      </g>
     </g>
    </g>
    <g id="xtick_3">
     <g id="line2d_5">
      <path d="M 280.153318 320.4 
L 280.153318 43.2 
" clip-path="url(#pa8373b58ce)" style="fill: none; stroke-dasharray: 5.12,1.28,0.8,1.28; stroke-dashoffset: 0; stroke: #b0b0b0; stroke-width: 0.8"/>
     </g>
     <g id="line2d_6">
      <g>
       <use xlink:href="#m7b21bab6e9" x="280.153318" y="320.4" style="fill: #a9a9a9; stroke: #a9a9a9; stroke-width: 0.8"/>
      </g>
     </g>
     <g id="text_3">
      <!-- 2022-05 -->
      <g style="fill: #a9a9a9" transform="translate(259.261912 334.998438) scale(0.1 -0.1)">
       <defs>
        <path id="DejaVuSans-35" d="M 691 4666 
L 3169 4666 
L 3169 4134 
L 1269 4134 
L 1269 2991 
Q 1406 3038 1543 3061 
Q 1681 3084 1819 3084 
Q 2600 3084 3056 2656 
Q 3513 2228 3513 1497 
Q 3513 744 3044 326 
Q 2575 -91 1722 -91 
Q 1428 -91 1123 -41 
Q 819 9 494 109 
L 494 744 
Q 775 591 1075 516 
Q 1375 441 1709 441 
Q 2250 441 2565 725 
Q 2881 1009 2881 1497 
Q 2881 1984 2565 2268 
Q 2250 2553 1709 2553 
Q 1456 2553 1204 2497 
Q 953 2441 691 2322 
L 691 4666 
z
" transform="scale(0.015625)"/>
       </defs>
       <use xlink:href="#DejaVuSans-32"/>
       <use xlink:href="#DejaVuSans-30" x="63.623047"/>
       <use xlink:href="#DejaVuSans-32" x="127.246094"/>
       <use xlink:href="#DejaVuSans-32" x="190.869141"/>
       <use xlink:href="#DejaVuSans-2d" x="254.492188"/>
       <use xlink:href="#DejaVuSans-30" x="290.576172"/>
       <use xlink:href="#DejaVuSans-35" x="354.199219"/>
      </g>
     </g>
    </g>
    <g id="xtick_4">
     <g id="line2d_7">
      <path d="M 342.186006 320.4 
L 342.186006 43.2 
" clip-path="url(#pa8373b58ce)" style="fill: none; stroke-dasharray: 5.12,1.28,0.8,1.28; stroke-dashoffset: 0; stroke: #b0b0b0; stroke-width: 0.8"/>
     </g>
     <g id="line2d_8">
      <g>
       <use xlink:href="#m7b21bab6e9" x="342.186006" y="320.4" style="fill: #a9a9a9; stroke: #a9a9a9; stroke-width: 0.8"/>
      </g>
     </g>
     <g id="text_4">
      <!-- 2022-09 -->
      <g style="fill: #a9a9a9" transform="translate(321.2946 334.998438) scale(0.1 -0.1)">
       <use xlink:href="#DejaVuSans-32"/>
       <use xlink:href="#DejaVuSans-30" x="63.623047"/>
       <use xlink:href="#DejaVuSans-32" x="127.246094"/>
       <use xlink:href="#DejaVuSans-32" x="190.869141"/>
       <use xlink:href="#DejaVuSans-2d" x="254.492188"/>
       <use xlink:href="#DejaVuSans-30" x="290.576172"/>
       <use xlink:href="#DejaVuSans-39" x="354.199219"/>
      </g>
     </g>
    </g>
    <g id="xtick_5">
     <g id="line2d_9">
      <path d="M 403.714363 320.4 
L 403.714363 43.2 
" clip-path="url(#pa8373b58ce)" style="fill: none; stroke-dasharray: 5.12,1.28,0.8,1.28; stroke-dashoffset: 0; stroke: #b0b0b0; stroke-width: 0.8"/>
     </g>
     <g id="line2d_10">
      <g>
       <use xlink:href="#m7b21bab6e9" x="403.714363" y="320.4" style="fill: #a9a9a9; stroke: #a9a9a9; stroke-width: 0.8"/>
      </g>
     </g>
     <g id="text_5">
      <!-- 2023-01 -->
      <g style="fill: #a9a9a9" transform="translate(382.822957 334.998438) scale(0.1 -0.1)">
       <defs>
        <path id="DejaVuSans-33" d="M 2597 2516 
Q 3050 2419 3304 2112 
Q 3559 1806 3559 1356 
Q 3559 666 3084 287 
Q 2609 -91 1734 -91 
Q 1441 -91 1130 -33 
Q 819 25 488 141 
L 488 750 
Q 750 597 1062 519 
Q 1375 441 1716 441 
Q 2309 441 2620 675 
Q 2931 909 2931 1356 
Q 2931 1769 2642 2001 
Q 2353 2234 1838 2234 
L 1294 2234 
L 1294 2753 
L 1863 2753 
Q 2328 2753 2575 2939 
Q 2822 3125 2822 3475 
Q 2822 3834 2567 4026 
Q 2313 4219 1838 4219 
Q 1578 4219 1281 4162 
Q 984 4106 628 3988 
L 628 4550 
Q 988 4650 1302 4700 
Q 1616 4750 1894 4750 
Q 2613 4750 3031 4423 
Q 3450 4097 3450 3541 
Q 3450 3153 3228 2886 
Q 3006 2619 2597 2516 
z
" transform="scale(0.015625)"/>
       </defs>
       <use xlink:href="#DejaVuSans-32"/>
       <use xlink:href="#DejaVuSans-30" x="63.623047"/>
       <use xlink:href="#DejaVuSans-32" x="127.246094"/>
       <use xlink:href="#DejaVuSans-33" x="190.869141"/>
       <use xlink:href="#DejaVuSans-2d" x="254.492188"/>
       <use xlink:href="#DejaVuSans-30" x="290.576172"/>
       <use xlink:href="#DejaVuSans-31" x="354.199219"/>
      </g>
     </g>
    </g>
    <g id="xtick_6">
     <g id="line2d_11">
      <path d="M 464.234059 320.4 
L 464.234059 43.2 
" clip-path="url(#pa8373b58ce)" style="fill: none; stroke-dasharray: 5.12,1.28,0.8,1.28; stroke-dashoffset: 0; stroke: #b0b0b0; stroke-width: 0.8"/>
     </g>
     <g id="line2d_12">
      <g>
       <use xlink:href="#m7b21bab6e9" x="464.234059" y="320.4" style="fill: #a9a9a9; stroke: #a9a9a9; stroke-width: 0.8"/>
      </g>
     </g>
     <g id="text_6">
      <!-- 2023-05 -->
      <g style="fill: #a9a9a9" transform="translate(443.342653 334.998438) scale(0.1 -0.1)">
       <use xlink:href="#DejaVuSans-32"/>
       <use xlink:href="#DejaVuSans-30" x="63.623047"/>
       <use xlink:href="#DejaVuSans-32" x="127.246094"/>
       <use xlink:href="#DejaVuSans-33" x="190.869141"/>
       <use xlink:href="#DejaVuSans-2d" x="254.492188"/>
       <use xlink:href="#DejaVuSans-30" x="290.576172"/>
       <use xlink:href="#DejaVuSans-35" x="354.199219"/>
      </g>
     </g>
    </g>
    <g id="xtick_7">
     <g id="line2d_13">
      <path d="M 526.266747 320.4 
L 526.266747 43.2 
" clip-path="url(#pa8373b58ce)" style="fill: none; stroke-dasharray: 5.12,1.28,0.8,1.28; stroke-dashoffset: 0; stroke: #b0b0b0; stroke-width: 0.8"/>
     </g>
     <g id="line2d_14">
      <g>
       <use xlink:href="#m7b21bab6e9" x="526.266747" y="320.4" style="fill: #a9a9a9; stroke: #a9a9a9; stroke-width: 0.8"/>
      </g>
     </g>
     <g id="text_7">
      <!-- 2023-09 -->
      <g style="fill: #a9a9a9" transform="translate(505.375341 334.998438) scale(0.1 -0.1)">
       <use xlink:href="#DejaVuSans-32"/>
       <use xlink:href="#DejaVuSans-30" x="63.623047"/>
       <use xlink:href="#DejaVuSans-32" x="127.246094"/>
       <use xlink:href="#DejaVuSans-33" x="190.869141"/>
       <use xlink:href="#DejaVuSans-2d" x="254.492188"/>
       <use xlink:href="#DejaVuSans-30" x="290.576172"/>
       <use xlink:href="#DejaVuSans-39" x="354.199219"/>
      </g>
     </g>
    </g>
    <g id="xtick_8">
     <g id="line2d_15">
      <path d="M 587.795104 320.4 
L 587.795104 43.2 
" clip-path="url(#pa8373b58ce)" style="fill: none; stroke-dasharray: 5.12,1.28,0.8,1.28; stroke-dashoffset: 0; stroke: #b0b0b0; stroke-width: 0.8"/>
     </g>
     <g id="line2d_16">
      <g>
       <use xlink:href="#m7b21bab6e9" x="587.795104" y="320.4" style="fill: #a9a9a9; stroke: #a9a9a9; stroke-width: 0.8"/>
      </g>
     </g>
     <g id="text_8">
      <!-- 2024-01 -->
      <g style="fill: #a9a9a9" transform="translate(566.903698 334.998438) scale(0.1 -0.1)">
       <defs>
        <path id="DejaVuSans-34" d="M 2419 4116 
L 825 1625 
L 2419 1625 
L 2419 4116 
z
M 2253 4666 
L 3047 4666 
L 3047 1625 
L 3713 1625 
L 3713 1100 
L 3047 1100 
L 3047 0 
L 2419 0 
L 2419 1100 
L 313 1100 
L 313 1709 
L 2253 4666 
z
" transform="scale(0.015625)"/>
       </defs>
       <use xlink:href="#DejaVuSans-32"/>
       <use xlink:href="#DejaVuSans-30" x="63.623047"/>
       <use xlink:href="#DejaVuSans-32" x="127.246094"/>
       <use xlink:href="#DejaVuSans-34" x="190.869141"/>
       <use xlink:href="#DejaVuSans-2d" x="254.492188"/>
       <use xlink:href="#DejaVuSans-30" x="290.576172"/>
       <use xlink:href="#DejaVuSans-31" x="354.199219"/>
      </g>
     </g>
    </g>
    <g id="xtick_9">
     <g id="line2d_17">
      <path d="M 648.819131 320.4 
L 648.819131 43.2 
" clip-path="url(#pa8373b58ce)" style="fill: none; stroke-dasharray: 5.12,1.28,0.8,1.28; stroke-dashoffset: 0; stroke: #b0b0b0; stroke-width: 0.8"/>
     </g>
     <g id="line2d_18">
      <g>
       <use xlink:href="#m7b21bab6e9" x="648.819131" y="320.4" style="fill: #a9a9a9; stroke: #a9a9a9; stroke-width: 0.8"/>
      </g>
     </g>
     <g id="text_9">
      <!-- 2024-05 -->
      <g style="fill: #a9a9a9" transform="translate(627.927725 334.998438) scale(0.1 -0.1)">
       <use xlink:href="#DejaVuSans-32"/>
       <use xlink:href="#DejaVuSans-30" x="63.623047"/>
       <use xlink:href="#DejaVuSans-32" x="127.246094"/>
       <use xlink:href="#DejaVuSans-34" x="190.869141"/>
       <use xlink:href="#DejaVuSans-2d" x="254.492188"/>
       <use xlink:href="#DejaVuSans-30" x="290.576172"/>
       <use xlink:href="#DejaVuSans-35" x="354.199219"/>
      </g>
     </g>
    </g>
    <g id="xtick_10">
     <g id="line2d_19">
      <path d="M 710.851819 320.4 
L 710.851819 43.2 
" clip-path="url(#pa8373b58ce)" style="fill: none; stroke-dasharray: 5.12,1.28,0.8,1.28; stroke-dashoffset: 0; stroke: #b0b0b0; stroke-width: 0.8"/>
     </g>
     <g id="line2d_20">
      <g>
       <use xlink:href="#m7b21bab6e9" x="710.851819" y="320.4" style="fill: #a9a9a9; stroke: #a9a9a9; stroke-width: 0.8"/>
      </g>
     </g>
     <g id="text_10">
      <!-- 2024-09 -->
      <g style="fill: #a9a9a9" transform="translate(689.960413 334.998438) scale(0.1 -0.1)">
       <use xlink:href="#DejaVuSans-32"/>
       <use xlink:href="#DejaVuSans-30" x="63.623047"/>
       <use xlink:href="#DejaVuSans-32" x="127.246094"/>
       <use xlink:href="#DejaVuSans-34" x="190.869141"/>
       <use xlink:href="#DejaVuSans-2d" x="254.492188"/>
       <use xlink:href="#DejaVuSans-30" x="290.576172"/>
       <use xlink:href="#DejaVuSans-39" x="354.199219"/>
      </g>
     </g>
    </g>
    <g id="xtick_11">
     <g id="line2d_21">
      <path d="M 772.380176 320.4 
L 772.380176 43.2 
" clip-path="url(#pa8373b58ce)" style="fill: none; stroke-dasharray: 5.12,1.28,0.8,1.28; stroke-dashoffset: 0; stroke: #b0b0b0; stroke-width: 0.8"/>
     </g>
     <g id="line2d_22">
      <g>
       <use xlink:href="#m7b21bab6e9" x="772.380176" y="320.4" style="fill: #a9a9a9; stroke: #a9a9a9; stroke-width: 0.8"/>
      </g>
     </g>
     <g id="text_11">
      <!-- 2025-01 -->
      <g style="fill: #a9a9a9" transform="translate(751.48877 334.998438) scale(0.1 -0.1)">
       <use xlink:href="#DejaVuSans-32"/>
       <use xlink:href="#DejaVuSans-30" x="63.623047"/>
       <use xlink:href="#DejaVuSans-32" x="127.246094"/>
       <use xlink:href="#DejaVuSans-35" x="190.869141"/>
       <use xlink:href="#DejaVuSans-2d" x="254.492188"/>
       <use xlink:href="#DejaVuSans-30" x="290.576172"/>
       <use xlink:href="#DejaVuSans-31" x="354.199219"/>
      </g>
     </g>
    </g>
   </g>
   <g id="matplotlib.axis_2">
    <g id="ytick_1">
     <g id="line2d_23">
      <path d="M 108 307.836259 
L 777.6 307.836259 
" clip-path="url(#pa8373b58ce)" style="fill: none; stroke-dasharray: 5.12,1.28,0.8,1.28; stroke-dashoffset: 0; stroke: #b0b0b0; stroke-width: 0.8"/>
     </g>
     <g id="line2d_24">
      <defs>
       <path id="m5f0d0b9ffe" d="M 0 0 
L -3.5 0 
" style="stroke: #a9a9a9; stroke-width: 0.8"/>
      </defs>
      <g>
       <use xlink:href="#m5f0d0b9ffe" x="108" y="307.836259" style="fill: #a9a9a9; stroke: #a9a9a9; stroke-width: 0.8"/>
      </g>
     </g>
     <g id="text_12">
      <!-- 0 -->
      <g style="fill: #a9a9a9" transform="translate(94.6375 311.635478) scale(0.1 -0.1)">
       <use xlink:href="#DejaVuSans-30"/>
      </g>
     </g>
    </g>
    <g id="ytick_2">
     <g id="line2d_25">
      <path d="M 108 278.829065 
L 777.6 278.829065 
" clip-path="url(#pa8373b58ce)" style="fill: none; stroke-dasharray: 5.12,1.28,0.8,1.28; stroke-dashoffset: 0; stroke: #b0b0b0; stroke-width: 0.8"/>
     </g>
     <g id="line2d_26">
      <g>
       <use xlink:href="#m5f0d0b9ffe" x="108" y="278.829065" style="fill: #a9a9a9; stroke: #a9a9a9; stroke-width: 0.8"/>
      </g>
     </g>
     <g id="text_13">
      <!-- 800 -->
      <g style="fill: #a9a9a9" transform="translate(81.9125 282.628283) scale(0.1 -0.1)">
       <defs>
        <path id="DejaVuSans-38" d="M 2034 2216 
Q 1584 2216 1326 1975 
Q 1069 1734 1069 1313 
Q 1069 891 1326 650 
Q 1584 409 2034 409 
Q 2484 409 2743 651 
Q 3003 894 3003 1313 
Q 3003 1734 2745 1975 
Q 2488 2216 2034 2216 
z
M 1403 2484 
Q 997 2584 770 2862 
Q 544 3141 544 3541 
Q 544 4100 942 4425 
Q 1341 4750 2034 4750 
Q 2731 4750 3128 4425 
Q 3525 4100 3525 3541 
Q 3525 3141 3298 2862 
Q 3072 2584 2669 2484 
Q 3125 2378 3379 2068 
Q 3634 1759 3634 1313 
Q 3634 634 3220 271 
Q 2806 -91 2034 -91 
Q 1263 -91 848 271 
Q 434 634 434 1313 
Q 434 1759 690 2068 
Q 947 2378 1403 2484 
z
M 1172 3481 
Q 1172 3119 1398 2916 
Q 1625 2713 2034 2713 
Q 2441 2713 2670 2916 
Q 2900 3119 2900 3481 
Q 2900 3844 2670 4047 
Q 2441 4250 2034 4250 
Q 1625 4250 1398 4047 
Q 1172 3844 1172 3481 
z
" transform="scale(0.015625)"/>
       </defs>
       <use xlink:href="#DejaVuSans-38"/>
       <use xlink:href="#DejaVuSans-30" x="63.623047"/>
       <use xlink:href="#DejaVuSans-30" x="127.246094"/>
      </g>
     </g>
    </g>
    <g id="ytick_3">
     <g id="line2d_27">
      <path d="M 108 249.821871 
L 777.6 249.821871 
" clip-path="url(#pa8373b58ce)" style="fill: none; stroke-dasharray: 5.12,1.28,0.8,1.28; stroke-dashoffset: 0; stroke: #b0b0b0; stroke-width: 0.8"/>
     </g>
     <g id="line2d_28">
      <g>
       <use xlink:href="#m5f0d0b9ffe" x="108" y="249.821871" style="fill: #a9a9a9; stroke: #a9a9a9; stroke-width: 0.8"/>
      </g>
     </g>
     <g id="text_14">
      <!-- 1600 -->
      <g style="fill: #a9a9a9" transform="translate(75.55 253.621089) scale(0.1 -0.1)">
       <defs>
        <path id="DejaVuSans-36" d="M 2113 2584 
Q 1688 2584 1439 2293 
Q 1191 2003 1191 1497 
Q 1191 994 1439 701 
Q 1688 409 2113 409 
Q 2538 409 2786 701 
Q 3034 994 3034 1497 
Q 3034 2003 2786 2293 
Q 2538 2584 2113 2584 
z
M 3366 4563 
L 3366 3988 
Q 3128 4100 2886 4159 
Q 2644 4219 2406 4219 
Q 1781 4219 1451 3797 
Q 1122 3375 1075 2522 
Q 1259 2794 1537 2939 
Q 1816 3084 2150 3084 
Q 2853 3084 3261 2657 
Q 3669 2231 3669 1497 
Q 3669 778 3244 343 
Q 2819 -91 2113 -91 
Q 1303 -91 875 529 
Q 447 1150 447 2328 
Q 447 3434 972 4092 
Q 1497 4750 2381 4750 
Q 2619 4750 2861 4703 
Q 3103 4656 3366 4563 
z
" transform="scale(0.015625)"/>
       </defs>
       <use xlink:href="#DejaVuSans-31"/>
       <use xlink:href="#DejaVuSans-36" x="63.623047"/>
       <use xlink:href="#DejaVuSans-30" x="127.246094"/>
       <use xlink:href="#DejaVuSans-30" x="190.869141"/>
      </g>
     </g>
    </g>
    <g id="ytick_4">
     <g id="line2d_29">
      <path d="M 108 220.814676 
L 777.6 220.814676 
" clip-path="url(#pa8373b58ce)" style="fill: none; stroke-dasharray: 5.12,1.28,0.8,1.28; stroke-dashoffset: 0; stroke: #b0b0b0; stroke-width: 0.8"/>
     </g>
     <g id="line2d_30">
      <g>
       <use xlink:href="#m5f0d0b9ffe" x="108" y="220.814676" style="fill: #a9a9a9; stroke: #a9a9a9; stroke-width: 0.8"/>
      </g>
     </g>
     <g id="text_15">
      <!-- 2400 -->
      <g style="fill: #a9a9a9" transform="translate(75.55 224.613895) scale(0.1 -0.1)">
       <use xlink:href="#DejaVuSans-32"/>
       <use xlink:href="#DejaVuSans-34" x="63.623047"/>
       <use xlink:href="#DejaVuSans-30" x="127.246094"/>
       <use xlink:href="#DejaVuSans-30" x="190.869141"/>
      </g>
     </g>
    </g>
    <g id="ytick_5">
     <g id="line2d_31">
      <path d="M 108 191.807482 
L 777.6 191.807482 
" clip-path="url(#pa8373b58ce)" style="fill: none; stroke-dasharray: 5.12,1.28,0.8,1.28; stroke-dashoffset: 0; stroke: #b0b0b0; stroke-width: 0.8"/>
     </g>
     <g id="line2d_32">
      <g>
       <use xlink:href="#m5f0d0b9ffe" x="108" y="191.807482" style="fill: #a9a9a9; stroke: #a9a9a9; stroke-width: 0.8"/>
      </g>
     </g>
     <g id="text_16">
      <!-- 3200 -->
      <g style="fill: #a9a9a9" transform="translate(75.55 195.606701) scale(0.1 -0.1)">
       <use xlink:href="#DejaVuSans-33"/>
       <use xlink:href="#DejaVuSans-32" x="63.623047"/>
       <use xlink:href="#DejaVuSans-30" x="127.246094"/>
       <use xlink:href="#DejaVuSans-30" x="190.869141"/>
      </g>
     </g>
    </g>
    <g id="ytick_6">
     <g id="line2d_33">
      <path d="M 108 162.800288 
L 777.6 162.800288 
" clip-path="url(#pa8373b58ce)" style="fill: none; stroke-dasharray: 5.12,1.28,0.8,1.28; stroke-dashoffset: 0; stroke: #b0b0b0; stroke-width: 0.8"/>
     </g>
     <g id="line2d_34">
      <g>
       <use xlink:href="#m5f0d0b9ffe" x="108" y="162.800288" style="fill: #a9a9a9; stroke: #a9a9a9; stroke-width: 0.8"/>
      </g>
     </g>
     <g id="text_17">
      <!-- 4000 -->
      <g style="fill: #a9a9a9" transform="translate(75.55 166.599507) scale(0.1 -0.1)">
       <use xlink:href="#DejaVuSans-34"/>
       <use xlink:href="#DejaVuSans-30" x="63.623047"/>
       <use xlink:href="#DejaVuSans-30" x="127.246094"/>
       <use xlink:href="#DejaVuSans-30" x="190.869141"/>
      </g>
     </g>
    </g>
    <g id="ytick_7">
     <g id="line2d_35">
      <path d="M 108 133.793094 
L 777.6 133.793094 
" clip-path="url(#pa8373b58ce)" style="fill: none; stroke-dasharray: 5.12,1.28,0.8,1.28; stroke-dashoffset: 0; stroke: #b0b0b0; stroke-width: 0.8"/>
     </g>
     <g id="line2d_36">
      <g>
       <use xlink:href="#m5f0d0b9ffe" x="108" y="133.793094" style="fill: #a9a9a9; stroke: #a9a9a9; stroke-width: 0.8"/>
      </g>
     </g>
     <g id="text_18">
      <!-- 4800 -->
      <g style="fill: #a9a9a9" transform="translate(75.55 137.592312) scale(0.1 -0.1)">
       <use xlink:href="#DejaVuSans-34"/>
       <use xlink:href="#DejaVuSans-38" x="63.623047"/>
       <use xlink:href="#DejaVuSans-30" x="127.246094"/>
       <use xlink:href="#DejaVuSans-30" x="190.869141"/>
      </g>
     </g>
    </g>
    <g id="ytick_8">
     <g id="line2d_37">
      <path d="M 108 104.785899 
L 777.6 104.785899 
" clip-path="url(#pa8373b58ce)" style="fill: none; stroke-dasharray: 5.12,1.28,0.8,1.28; stroke-dashoffset: 0; stroke: #b0b0b0; stroke-width: 0.8"/>
     </g>
     <g id="line2d_38">
      <g>
       <use xlink:href="#m5f0d0b9ffe" x="108" y="104.785899" style="fill: #a9a9a9; stroke: #a9a9a9; stroke-width: 0.8"/>
      </g>
     </g>
     <g id="text_19">
      <!-- 5600 -->
      <g style="fill: #a9a9a9" transform="translate(75.55 108.585118) scale(0.1 -0.1)">
       <use xlink:href="#DejaVuSans-35"/>
       <use xlink:href="#DejaVuSans-36" x="63.623047"/>
       <use xlink:href="#DejaVuSans-30" x="127.246094"/>
       <use xlink:href="#DejaVuSans-30" x="190.869141"/>
      </g>
     </g>
    </g>
    <g id="ytick_9">
     <g id="line2d_39">
      <path d="M 108 75.778705 
L 777.6 75.778705 
" clip-path="url(#pa8373b58ce)" style="fill: none; stroke-dasharray: 5.12,1.28,0.8,1.28; stroke-dashoffset: 0; stroke: #b0b0b0; stroke-width: 0.8"/>
     </g>
     <g id="line2d_40">
      <g>
       <use xlink:href="#m5f0d0b9ffe" x="108" y="75.778705" style="fill: #a9a9a9; stroke: #a9a9a9; stroke-width: 0.8"/>
      </g>
     </g>
     <g id="text_20">
      <!-- 6400 -->
      <g style="fill: #a9a9a9" transform="translate(75.55 79.577924) scale(0.1 -0.1)">
       <use xlink:href="#DejaVuSans-36"/>
       <use xlink:href="#DejaVuSans-34" x="63.623047"/>
       <use xlink:href="#DejaVuSans-30" x="127.246094"/>
       <use xlink:href="#DejaVuSans-30" x="190.869141"/>
      </g>
     </g>
    </g>
    <g id="ytick_10">
     <g id="line2d_41">
      <path d="M 108 46.771511 
L 777.6 46.771511 
" clip-path="url(#pa8373b58ce)" style="fill: none; stroke-dasharray: 5.12,1.28,0.8,1.28; stroke-dashoffset: 0; stroke: #b0b0b0; stroke-width: 0.8"/>
     </g>
     <g id="line2d_42">
      <g>
       <use xlink:href="#m5f0d0b9ffe" x="108" y="46.771511" style="fill: #a9a9a9; stroke: #a9a9a9; stroke-width: 0.8"/>
      </g>
     </g>
     <g id="text_21">
      <!-- 7200 -->
      <g style="fill: #a9a9a9" transform="translate(75.55 50.57073) scale(0.1 -0.1)">
       <defs>
        <path id="DejaVuSans-37" d="M 525 4666 
L 3525 4666 
L 3525 4397 
L 1831 0 
L 1172 0 
L 2766 4134 
L 525 4134 
L 525 4666 
z
" transform="scale(0.015625)"/>
       </defs>
       <use xlink:href="#DejaVuSans-37"/>
       <use xlink:href="#DejaVuSans-32" x="63.623047"/>
       <use xlink:href="#DejaVuSans-30" x="127.246094"/>
       <use xlink:href="#DejaVuSans-30" x="190.869141"/>
      </g>
     </g>
    </g>
   </g>
   <g id="line2d_43">
    <path d="M 138.436364 307.727482 
L 141.462348 307.473669 
L 141.966679 307.256115 
L 143.984002 307.002302 
L 146.001326 306.603453 
L 147.009987 306.458417 
L 149.531641 306.240863 
L 150.540303 305.842014 
L 151.044634 305.189353 
L 151.548964 304.826763 
L 152.053295 303.702734 
L 152.557626 303.630216 
L 153.061957 303.231367 
L 154.070618 302.723741 
L 156.087942 301.128345 
L 158.105265 300.149353 
L 159.618257 299.460432 
L 160.122588 298.662734 
L 161.13125 297.937554 
L 161.63558 297.72 
L 166.678888 296.99482 
L 167.183219 296.777266 
L 170.713535 296.487194 
L 172.730858 296.015827 
L 176.765504 295.471942 
L 177.269835 295.218129 
L 177.774166 295.145612 
L 178.782827 294.819281 
L 182.313143 294.239137 
L 183.321805 293.949065 
L 187.860782 293.187626 
L 188.869443 292.970072 
L 189.878105 292.933813 
L 191.895428 292.462446 
L 192.399759 291.773525 
L 193.912751 291.193381 
L 195.425744 290.794532 
L 195.930075 290.540719 
L 196.938736 290.359424 
L 198.956059 289.779281 
L 199.964721 289.706763 
L 200.973383 289.45295 
L 202.990706 288.945324 
L 203.495037 288.909065 
L 204.503698 288.437698 
L 205.008029 288.36518 
L 205.51236 288.111367 
L 211.059998 287.204892 
L 213.077322 286.624748 
L 213.581652 286.298417 
L 216.103306 285.46446 
L 217.111968 284.77554 
L 218.62496 284.485468 
L 231.737561 280.823309 
L 232.241892 280.823309 
L 232.746223 280.605755 
L 233.754884 280.496978 
L 234.259215 280.315683 
L 236.276538 280.206906 
L 237.2852 280.025612 
L 238.293862 279.517986 
L 239.806854 278.974101 
L 240.311185 278.64777 
L 241.319846 278.212662 
L 241.824177 277.958849 
L 242.832839 277.632518 
L 243.33717 277.451223 
L 244.345831 276.83482 
L 244.850162 276.290935 
L 245.858824 274.768058 
L 246.363154 274.623022 
L 246.867485 274.623022 
L 248.380478 273.752806 
L 248.884808 273.498993 
L 249.389139 273.390216 
L 249.89347 272.918849 
L 250.902132 272.52 
L 251.910793 272.048633 
L 254.432447 268.857842 
L 257.458432 267.262446 
L 258.467093 266.464748 
L 258.971424 266.138417 
L 259.475755 265.376978 
L 259.980086 264.25295 
L 260.484417 263.491511 
L 260.988747 263.092662 
L 261.493078 262.875108 
L 265.023394 259.901871 
L 266.032055 258.705324 
L 267.040717 257.980144 
L 268.553709 256.964892 
L 269.05804 256.529784 
L 270.066702 256.203453 
L 271.579694 255.333237 
L 273.092687 254.354245 
L 275.11001 252.577554 
L 276.118671 252.178705 
L 277.127333 251.489784 
L 277.631664 251.199712 
L 278.135995 251.127194 
L 279.648987 250.293237 
L 280.153318 249.749353 
L 282.674972 248.40777 
L 283.179303 248.226475 
L 284.692295 247.211223 
L 292.257257 244.564317 
L 293.265919 243.657842 
L 294.27458 243.186475 
L 295.283242 242.64259 
L 295.787572 242.352518 
L 296.796234 242.062446 
L 297.300565 241.736115 
L 297.804896 241.591079 
L 299.317888 240.612086 
L 301.839542 240.031942 
L 303.352534 239.161727 
L 304.865527 238.835396 
L 305.369858 238.69036 
L 306.88285 237.566331 
L 308.900173 237.022446 
L 309.404504 236.623597 
L 312.430489 235.608345 
L 313.43915 235.42705 
L 314.447812 235.028201 
L 317.978128 233.759137 
L 318.986789 233.614101 
L 320.499782 233.106475 
L 323.021436 231.909928 
L 325.038759 230.822158 
L 329.073405 229.190504 
L 329.577736 229.117986 
L 330.586398 228.501583 
L 331.090728 228.429065 
L 333.108052 227.595108 
L 335.125375 227.305036 
L 336.134036 226.79741 
L 336.638367 226.362302 
L 337.142698 225.455827 
L 339.160021 224.911942 
L 340.673013 224.150504 
L 341.177344 224.041727 
L 345.211991 222.12 
L 346.724983 221.829928 
L 347.733645 221.322302 
L 348.237975 221.104748 
L 348.742306 221.03223 
L 350.759629 220.125755 
L 352.272622 219.183022 
L 353.785614 218.89295 
L 356.307268 218.276547 
L 356.811599 217.877698 
L 358.324591 217.333813 
L 360.341915 216.536115 
L 360.846245 216.173525 
L 361.350576 215.99223 
L 362.359238 215.448345 
L 364.880892 214.614388 
L 366.393884 213.417842 
L 366.898215 213.309065 
L 367.906877 212.511367 
L 368.411207 212.438849 
L 368.915538 211.641151 
L 369.419869 211.423597 
L 369.9242 211.024748 
L 370.428531 210.95223 
L 371.437192 210.335827 
L 372.445854 210.009496 
L 372.950185 209.646906 
L 373.454515 209.465612 
L 374.967508 208.414101 
L 376.984831 207.36259 
L 377.489162 207.290072 
L 379.002154 206.528633 
L 379.506485 205.694676 
L 380.515146 204.969496 
L 381.019477 204.860719 
L 382.028139 204.244317 
L 382.53247 204.13554 
L 383.541131 203.627914 
L 385.558454 202.648921 
L 386.062785 202.286331 
L 387.071447 201.307338 
L 388.080108 200.690935 
L 388.584439 200.364604 
L 389.08877 199.820719 
L 391.106093 198.442878 
L 391.610424 197.862734 
L 392.114755 197.463885 
L 393.123416 197.101295 
L 394.132078 196.412374 
L 395.64507 195.650935 
L 396.149401 195.578417 
L 397.662394 194.780719 
L 398.671055 194.164317 
L 403.714363 192.351367 
L 404.218694 191.952518 
L 406.236017 191.191079 
L 406.740348 191.046043 
L 407.244679 190.647194 
L 409.766333 189.269353 
L 410.774994 187.275108 
L 411.783656 186.11482 
L 412.792318 185.498417 
L 414.30531 184.882014 
L 414.809641 184.809496 
L 415.313972 184.519424 
L 417.835626 183.721727 
L 418.339956 183.504173 
L 419.348618 182.815252 
L 420.86161 182.16259 
L 421.870272 181.618705 
L 422.374603 181.256115 
L 422.878933 181.038561 
L 423.383264 180.675971 
L 423.887595 180.132086 
L 424.896257 179.588201 
L 427.417911 178.246619 
L 430.443895 176.76 
L 431.452557 176.433669 
L 432.965549 175.962302 
L 434.982873 175.055827 
L 435.991534 174.656978 
L 436.495865 174.258129 
L 438.513188 173.569209 
L 439.52185 172.844029 
L 440.530511 172.408921 
L 441.539173 171.611223 
L 442.547835 171.248633 
L 443.052165 170.813525 
L 443.556496 170.741007 
L 444.565158 169.979568 
L 445.573819 169.471942 
L 446.07815 169.254388 
L 446.582481 168.746763 
L 450.112797 167.368921 
L 451.121458 166.933813 
L 452.634451 166.462446 
L 453.643112 166.31741 
L 454.147443 166.099856 
L 454.651774 166.027338 
L 455.660435 165.59223 
L 456.164766 165.555971 
L 458.182089 164.794532 
L 459.695082 163.743022 
L 460.199413 163.561727 
L 461.208074 163.017842 
L 461.712405 162.872806 
L 464.73839 161.204892 
L 465.24272 161.096115 
L 466.755713 160.225899 
L 468.268705 159.718273 
L 469.277367 159.391942 
L 471.29469 158.739281 
L 472.303352 158.41295 
L 474.320675 158.014101 
L 474.825006 157.796547 
L 475.329336 157.724029 
L 476.337998 157.288921 
L 476.842329 157.216403 
L 477.34666 156.96259 
L 478.355321 156.781295 
L 479.868314 156.23741 
L 480.876975 156.128633 
L 482.389968 155.802302 
L 484.911622 155.367194 
L 498.024222 151.596259 
L 498.528553 151.088633 
L 499.537215 150.689784 
L 502.5632 149.602014 
L 503.06753 149.275683 
L 503.571861 149.166906 
L 504.076192 148.876835 
L 505.589184 148.441727 
L 506.597846 148.187914 
L 507.102177 147.861583 
L 507.606507 147.752806 
L 508.110838 147.317698 
L 509.623831 147.027626 
L 510.632492 146.556259 
L 511.136823 145.976115 
L 513.154146 145.504748 
L 516.684462 144.779568 
L 517.188793 144.779568 
L 517.693123 144.562014 
L 519.710447 144.199424 
L 520.214777 143.981871 
L 522.232101 143.619281 
L 523.240762 143.184173 
L 524.249424 143.002878 
L 526.771078 142.386475 
L 528.788401 141.770072 
L 529.292732 141.661295 
L 529.797063 141.407482 
L 530.805724 141.153669 
L 531.310055 140.863597 
L 532.823047 140.355971 
L 533.327378 140.02964 
L 534.33604 139.739568 
L 535.344701 139.413237 
L 536.353363 139.014388 
L 537.866355 138.361727 
L 539.883679 138.107914 
L 543.918325 136.693813 
L 544.422656 136.331223 
L 544.926987 136.222446 
L 545.431317 135.968633 
L 545.935648 135.932374 
L 551.483287 134.010647 
L 554.004941 133.357986 
L 555.013602 132.886619 
L 556.526595 132.560288 
L 557.030926 132.161439 
L 557.535256 131.907626 
L 558.039587 131.291223 
L 558.543918 130.928633 
L 559.55258 130.638561 
L 560.05691 130.239712 
L 563.082895 129.115683 
L 563.587226 128.789353 
L 564.595888 128.499281 
L 565.100218 128.17295 
L 567.621872 127.375252 
L 569.134865 126.505036 
L 569.639196 126.396259 
L 572.16085 125.054676 
L 573.673842 124.402014 
L 574.178173 124.039424 
L 575.186834 123.713094 
L 576.195496 123.13295 
L 576.699827 122.951655 
L 577.204158 122.589065 
L 583.760458 120.304748 
L 584.264789 120.195971 
L 584.76912 119.86964 
L 586.786443 119.470791 
L 587.795104 119.071942 
L 588.299435 118.781871 
L 588.803766 118.636835 
L 590.821089 117.585324 
L 591.32542 117.512806 
L 592.838412 116.678849 
L 594.351405 116.171223 
L 597.88172 114.720863 
L 598.386051 114.575827 
L 598.890382 114.249496 
L 599.899043 114.140719 
L 600.403374 113.814388 
L 601.412036 113.633094 
L 602.420697 113.161727 
L 602.925028 112.944173 
L 603.429359 112.871655 
L 605.951013 111.892662 
L 607.464005 111.493813 
L 608.472667 111.24 
L 609.985659 110.804892 
L 610.994321 110.406043 
L 613.011644 109.318273 
L 614.020306 108.919424 
L 614.524637 108.593094 
L 615.533298 108.37554 
L 616.037629 108.085468 
L 616.54196 107.976691 
L 618.054952 107.142734 
L 619.063614 106.743885 
L 621.080937 105.982446 
L 623.602591 105.148489 
L 624.611253 104.640863 
L 627.132907 103.806906 
L 628.645899 103.263022 
L 629.15023 103.117986 
L 630.158891 102.574101 
L 632.176215 101.667626 
L 637.219522 99.745899 
L 637.723853 99.419568 
L 639.741176 98.730647 
L 640.245507 98.730647 
L 641.254169 98.29554 
L 642.26283 97.389065 
L 642.767161 96.953957 
L 644.280154 96.228777 
L 644.784484 96.12 
L 645.288815 95.866187 
L 645.793146 95.793669 
L 646.297477 95.431079 
L 646.801808 95.322302 
L 647.810469 94.705899 
L 649.323462 93.94446 
L 650.332123 93.545612 
L 650.836454 93.291799 
L 652.349446 92.965468 
L 654.8711 92.131511 
L 655.879762 91.80518 
L 657.392754 91.043741 
L 658.401416 90.572374 
L 659.410078 90.318561 
L 660.92307 89.62964 
L 665.462047 87.961727 
L 666.97504 87.055252 
L 667.47937 86.946475 
L 668.488032 86.438849 
L 669.496694 86.076259 
L 670.001024 85.641151 
L 671.009686 85.242302 
L 672.522678 84.625899 
L 673.027009 84.22705 
L 673.53134 84.190791 
L 674.540002 83.900719 
L 675.548663 83.574388 
L 676.052994 83.320576 
L 676.557325 83.248058 
L 678.070317 82.704173 
L 679.583309 82.160288 
L 680.591971 81.761439 
L 681.096302 81.36259 
L 682.609294 80.963741 
L 683.113625 80.673669 
L 684.122287 80.419856 
L 685.635279 79.585899 
L 686.13961 79.54964 
L 687.652602 79.078273 
L 688.661264 79.005755 
L 689.669925 78.606906 
L 692.69591 77.736691 
L 693.704572 77.700432 
L 696.730557 76.721439 
L 697.234887 76.648921 
L 698.74788 75.851223 
L 699.252211 75.416115 
L 700.765203 74.545899 
L 701.773865 73.929496 
L 703.791188 73.349353 
L 704.295519 73.059281 
L 704.799849 72.950504 
L 705.30418 72.551655 
L 708.330165 71.318849 
L 710.347488 70.774964 
L 711.35615 70.339856 
L 711.860481 70.086043 
L 712.869142 69.759712 
L 713.373473 69.433381 
L 714.382135 69.252086 
L 716.903789 68.091799 
L 717.408119 67.801727 
L 718.921112 67.439137 
L 720.434104 66.460144 
L 720.938435 66.387626 
L 723.460089 65.408633 
L 724.973081 65.046043 
L 725.477412 64.973525 
L 725.981743 64.755971 
L 726.486074 64.719712 
L 727.494735 64.393381 
L 727.999066 64.357122 
L 729.512058 63.776978 
L 731.529382 63.196835 
L 732.538043 62.435396 
L 734.555366 61.347626 
L 736.068359 60.84 
L 739.094344 59.462158 
L 740.103005 58.918273 
L 740.607336 58.66446 
L 741.111667 58.193094 
L 743.633321 57.431655 
L 744.641982 56.851511 
L 746.659306 56.126331 
L 747.163636 55.8 
L 747.163636 55.8 
" clip-path="url(#pa8373b58ce)" style="fill: none; stroke: #1f77b4; stroke-width: 1.5; stroke-linecap: square"/>
   </g>
   <g id="line2d_44">
    <path d="M 138.940694 307.8 
L 143.479672 307.691223 
L 147.514318 307.509928 
L 149.531641 307.509928 
L 150.035972 307.364892 
L 152.557626 307.256115 
L 155.583611 306.929784 
L 158.609596 306.821007 
L 159.618257 306.71223 
L 163.148573 306.567194 
L 166.678888 306.458417 
L 169.200542 306.385899 
L 175.756843 306.277122 
L 178.278497 306.204604 
L 181.808812 306.095827 
L 184.330466 306.023309 
L 189.878105 305.914532 
L 191.895428 305.733237 
L 193.912751 305.696978 
L 196.938736 305.588201 
L 198.956059 305.551942 
L 201.477713 305.479424 
L 203.495037 305.298129 
L 208.034014 305.189353 
L 209.042675 305.116835 
L 211.059998 305.008058 
L 214.085983 304.899281 
L 216.103306 304.790504 
L 225.181261 304.246619 
L 228.711576 304.137842 
L 230.224569 303.992806 
L 232.746223 303.884029 
L 237.789531 303.630216 
L 242.832839 303.557698 
L 244.850162 303.340144 
L 246.867485 303.231367 
L 252.415124 302.723741 
L 255.945439 302.324892 
L 257.458432 302.252374 
L 261.997409 301.708489 
L 264.519063 301.635971 
L 266.032055 301.490935 
L 267.545048 301.382158 
L 281.66631 300.330647 
L 282.674972 300.149353 
L 285.700957 300.040576 
L 293.770249 299.569209 
L 297.300565 299.460432 
L 299.317888 299.242878 
L 301.839542 299.134101 
L 304.865527 299.025324 
L 307.387181 298.916547 
L 309.404504 298.880288 
L 311.926158 298.80777 
L 312.93482 298.662734 
L 319.995451 298.553957 
L 321.004112 298.44518 
L 327.056082 298.336403 
L 331.595059 298.118849 
L 335.125375 298.010072 
L 337.142698 297.792518 
L 340.673013 297.683741 
L 341.681675 297.502446 
L 344.203329 297.429928 
L 349.246637 297.35741 
L 351.768291 297.103597 
L 354.794276 296.99482 
L 356.811599 296.813525 
L 361.854907 296.559712 
L 366.898215 296.450935 
L 371.437192 296.233381 
L 372.950185 296.197122 
L 373.958846 296.052086 
L 376.4805 295.943309 
L 377.489162 295.870791 
L 378.497823 295.798273 
L 379.506485 295.725755 
L 384.045462 295.653237 
L 385.558454 295.54446 
L 399.175386 294.674245 
L 401.69704 294.565468 
L 404.218694 294.49295 
L 411.279325 294.384173 
L 412.287987 294.239137 
L 419.348618 294.13036 
L 424.391926 293.876547 
L 425.400587 293.840288 
L 426.409249 293.731511 
L 428.930903 293.622734 
L 431.452557 293.550216 
L 433.974211 293.441439 
L 436.495865 293.368921 
L 441.034842 293.260144 
L 444.060827 293.151367 
L 451.121458 293.04259 
L 456.669097 292.752518 
L 458.68642 292.68 
L 460.199413 292.571223 
L 467.260044 292.462446 
L 470.286028 292.353669 
L 479.363983 292.244892 
L 481.381306 292.208633 
L 487.433276 292.136115 
L 488.441937 292.063597 
L 495.502568 291.95482 
L 497.519892 291.918561 
L 510.632492 291.809784 
L 512.145485 291.664748 
L 534.840371 291.555971 
L 537.362025 291.483453 
L 550.474625 291.374676 
L 551.483287 291.302158 
L 554.004941 291.22964 
L 555.517933 291.084604 
L 558.543918 290.975827 
L 562.074234 290.830791 
L 566.613211 290.722014 
L 569.134865 290.649496 
L 572.66518 290.540719 
L 576.699827 290.359424 
L 579.221481 290.250647 
L 581.238804 290.214388 
L 585.777781 290.105612 
L 587.795104 290.069353 
L 594.351405 289.960576 
L 596.368728 289.924317 
L 598.890382 289.81554 
L 601.916367 289.706763 
L 605.446682 289.634245 
L 606.455344 289.561727 
L 618.559283 289.45295 
L 625.115583 289.09036 
L 627.637237 289.017842 
L 628.645899 288.909065 
L 629.654561 288.836547 
L 633.689207 288.72777 
L 636.715192 288.618993 
L 641.7585 288.510216 
L 644.280154 288.256403 
L 649.323462 288.147626 
L 650.332123 288.038849 
L 655.375431 287.930072 
L 657.897085 287.857554 
L 663.444724 287.821295 
L 664.453386 287.712518 
L 670.001024 287.603741 
L 671.009686 287.531223 
L 682.104963 287.422446 
L 685.130948 287.313669 
L 692.69591 287.204892 
L 694.713233 287.168633 
L 699.252211 287.096115 
L 700.260872 286.987338 
L 706.312842 286.878561 
L 709.338827 286.769784 
L 718.416781 286.661007 
L 719.929773 286.55223 
L 721.442766 286.443453 
L 722.955758 286.334676 
L 730.52072 286.225899 
L 734.051036 286.080863 
L 745.146313 285.972086 
L 747.163636 285.935827 
L 747.163636 285.935827 
" clip-path="url(#pa8373b58ce)" style="fill: none; stroke: #ff7f0e; stroke-width: 1.5; stroke-linecap: square"/>
   </g>
   <g id="patch_3">
    <path d="M 108 320.4 
L 108 43.2 
" style="fill: none; stroke: #a9a9a9; stroke-width: 0.8; stroke-linejoin: miter; stroke-linecap: square"/>
   </g>
   <g id="patch_4">
    <path d="M 777.6 320.4 
L 777.6 43.2 
" style="fill: none"/>
   </g>
   <g id="patch_5">
    <path d="M 108 320.4 
L 777.6 320.4 
" style="fill: none; stroke: #a9a9a9; stroke-width: 0.8; stroke-linejoin: miter; stroke-linecap: square"/>
   </g>
   <g id="patch_6">
    <path d="M 108 43.2 
L 777.6 43.2 
" style="fill: none"/>
   </g>
   <g id="text_22">
    <!-- get_subscribe history -->
    <g style="fill: #a9a9a9" transform="translate(378.6075 37.2) scale(0.12 -0.12)">
     <defs>
      <path id="DejaVuSans-67" d="M 2906 1791 
Q 2906 2416 2648 2759 
Q 2391 3103 1925 3103 
Q 1463 3103 1205 2759 
Q 947 2416 947 1791 
Q 947 1169 1205 825 
Q 1463 481 1925 481 
Q 2391 481 2648 825 
Q 2906 1169 2906 1791 
z
M 3481 434 
Q 3481 -459 3084 -895 
Q 2688 -1331 1869 -1331 
Q 1566 -1331 1297 -1286 
Q 1028 -1241 775 -1147 
L 775 -588 
Q 1028 -725 1275 -790 
Q 1522 -856 1778 -856 
Q 2344 -856 2625 -561 
Q 2906 -266 2906 331 
L 2906 616 
Q 2728 306 2450 153 
Q 2172 0 1784 0 
Q 1141 0 747 490 
Q 353 981 353 1791 
Q 353 2603 747 3093 
Q 1141 3584 1784 3584 
Q 2172 3584 2450 3431 
Q 2728 3278 2906 2969 
L 2906 3500 
L 3481 3500 
L 3481 434 
z
" transform="scale(0.015625)"/>
      <path id="DejaVuSans-65" d="M 3597 1894 
L 3597 1613 
L 953 1613 
Q 991 1019 1311 708 
Q 1631 397 2203 397 
Q 2534 397 2845 478 
Q 3156 559 3463 722 
L 3463 178 
Q 3153 47 2828 -22 
Q 2503 -91 2169 -91 
Q 1331 -91 842 396 
Q 353 884 353 1716 
Q 353 2575 817 3079 
Q 1281 3584 2069 3584 
Q 2775 3584 3186 3129 
Q 3597 2675 3597 1894 
z
M 3022 2063 
Q 3016 2534 2758 2815 
Q 2500 3097 2075 3097 
Q 1594 3097 1305 2825 
Q 1016 2553 972 2059 
L 3022 2063 
z
" transform="scale(0.015625)"/>
      <path id="DejaVuSans-74" d="M 1172 4494 
L 1172 3500 
L 2356 3500 
L 2356 3053 
L 1172 3053 
L 1172 1153 
Q 1172 725 1289 603 
Q 1406 481 1766 481 
L 2356 481 
L 2356 0 
L 1766 0 
Q 1100 0 847 248 
Q 594 497 594 1153 
L 594 3053 
L 172 3053 
L 172 3500 
L 594 3500 
L 594 4494 
L 1172 4494 
z
" transform="scale(0.015625)"/>
      <path id="DejaVuSans-5f" d="M 3263 -1063 
L 3263 -1509 
L -63 -1509 
L -63 -1063 
L 3263 -1063 
z
" transform="scale(0.015625)"/>
      <path id="DejaVuSans-73" d="M 2834 3397 
L 2834 2853 
Q 2591 2978 2328 3040 
Q 2066 3103 1784 3103 
Q 1356 3103 1142 2972 
Q 928 2841 928 2578 
Q 928 2378 1081 2264 
Q 1234 2150 1697 2047 
L 1894 2003 
Q 2506 1872 2764 1633 
Q 3022 1394 3022 966 
Q 3022 478 2636 193 
Q 2250 -91 1575 -91 
Q 1294 -91 989 -36 
Q 684 19 347 128 
L 347 722 
Q 666 556 975 473 
Q 1284 391 1588 391 
Q 1994 391 2212 530 
Q 2431 669 2431 922 
Q 2431 1156 2273 1281 
Q 2116 1406 1581 1522 
L 1381 1569 
Q 847 1681 609 1914 
Q 372 2147 372 2553 
Q 372 3047 722 3315 
Q 1072 3584 1716 3584 
Q 2034 3584 2315 3537 
Q 2597 3491 2834 3397 
z
" transform="scale(0.015625)"/>
      <path id="DejaVuSans-75" d="M 544 1381 
L 544 3500 
L 1119 3500 
L 1119 1403 
Q 1119 906 1312 657 
Q 1506 409 1894 409 
Q 2359 409 2629 706 
Q 2900 1003 2900 1516 
L 2900 3500 
L 3475 3500 
L 3475 0 
L 2900 0 
L 2900 538 
Q 2691 219 2414 64 
Q 2138 -91 1772 -91 
Q 1169 -91 856 284 
Q 544 659 544 1381 
z
M 1991 3584 
L 1991 3584 
z
" transform="scale(0.015625)"/>
      <path id="DejaVuSans-62" d="M 3116 1747 
Q 3116 2381 2855 2742 
Q 2594 3103 2138 3103 
Q 1681 3103 1420 2742 
Q 1159 2381 1159 1747 
Q 1159 1113 1420 752 
Q 1681 391 2138 391 
Q 2594 391 2855 752 
Q 3116 1113 3116 1747 
z
M 1159 2969 
Q 1341 3281 1617 3432 
Q 1894 3584 2278 3584 
Q 2916 3584 3314 3078 
Q 3713 2572 3713 1747 
Q 3713 922 3314 415 
Q 2916 -91 2278 -91 
Q 1894 -91 1617 61 
Q 1341 213 1159 525 
L 1159 0 
L 581 0 
L 581 4863 
L 1159 4863 
L 1159 2969 
z
" transform="scale(0.015625)"/>
      <path id="DejaVuSans-63" d="M 3122 3366 
L 3122 2828 
Q 2878 2963 2633 3030 
Q 2388 3097 2138 3097 
Q 1578 3097 1268 2742 
Q 959 2388 959 1747 
Q 959 1106 1268 751 
Q 1578 397 2138 397 
Q 2388 397 2633 464 
Q 2878 531 3122 666 
L 3122 134 
Q 2881 22 2623 -34 
Q 2366 -91 2075 -91 
Q 1284 -91 818 406 
Q 353 903 353 1747 
Q 353 2603 823 3093 
Q 1294 3584 2113 3584 
Q 2378 3584 2631 3529 
Q 2884 3475 3122 3366 
z
" transform="scale(0.015625)"/>
      <path id="DejaVuSans-72" d="M 2631 2963 
Q 2534 3019 2420 3045 
Q 2306 3072 2169 3072 
Q 1681 3072 1420 2755 
Q 1159 2438 1159 1844 
L 1159 0 
L 581 0 
L 581 3500 
L 1159 3500 
L 1159 2956 
Q 1341 3275 1631 3429 
Q 1922 3584 2338 3584 
Q 2397 3584 2469 3576 
Q 2541 3569 2628 3553 
L 2631 2963 
z
" transform="scale(0.015625)"/>
      <path id="DejaVuSans-69" d="M 603 3500 
L 1178 3500 
L 1178 0 
L 603 0 
L 603 3500 
z
M 603 4863 
L 1178 4863 
L 1178 4134 
L 603 4134 
L 603 4863 
z
" transform="scale(0.015625)"/>
      <path id="DejaVuSans-20" transform="scale(0.015625)"/>
      <path id="DejaVuSans-68" d="M 3513 2113 
L 3513 0 
L 2938 0 
L 2938 2094 
Q 2938 2591 2744 2837 
Q 2550 3084 2163 3084 
Q 1697 3084 1428 2787 
Q 1159 2491 1159 1978 
L 1159 0 
L 581 0 
L 581 4863 
L 1159 4863 
L 1159 2956 
Q 1366 3272 1645 3428 
Q 1925 3584 2291 3584 
Q 2894 3584 3203 3211 
Q 3513 2838 3513 2113 
z
" transform="scale(0.015625)"/>
      <path id="DejaVuSans-6f" d="M 1959 3097 
Q 1497 3097 1228 2736 
Q 959 2375 959 1747 
Q 959 1119 1226 758 
Q 1494 397 1959 397 
Q 2419 397 2687 759 
Q 2956 1122 2956 1747 
Q 2956 2369 2687 2733 
Q 2419 3097 1959 3097 
z
M 1959 3584 
Q 2709 3584 3137 3096 
Q 3566 2609 3566 1747 
Q 3566 888 3137 398 
Q 2709 -91 1959 -91 
Q 1206 -91 779 398 
Q 353 888 353 1747 
Q 353 2609 779 3096 
Q 1206 3584 1959 3584 
z
" transform="scale(0.015625)"/>
      <path id="DejaVuSans-79" d="M 2059 -325 
Q 1816 -950 1584 -1140 
Q 1353 -1331 966 -1331 
L 506 -1331 
L 506 -850 
L 844 -850 
Q 1081 -850 1212 -737 
Q 1344 -625 1503 -206 
L 1606 56 
L 191 3500 
L 800 3500 
L 1894 763 
L 2988 3500 
L 3597 3500 
L 2059 -325 
z
" transform="scale(0.015625)"/>
     </defs>
     <use xlink:href="#DejaVuSans-67"/>
     <use xlink:href="#DejaVuSans-65" x="63.476562"/>
     <use xlink:href="#DejaVuSans-74" x="125"/>
     <use xlink:href="#DejaVuSans-5f" x="164.208984"/>
     <use xlink:href="#DejaVuSans-73" x="214.208984"/>
     <use xlink:href="#DejaVuSans-75" x="266.308594"/>
     <use xlink:href="#DejaVuSans-62" x="329.6875"/>
     <use xlink:href="#DejaVuSans-73" x="393.164062"/>
     <use xlink:href="#DejaVuSans-63" x="445.263672"/>
     <use xlink:href="#DejaVuSans-72" x="500.244141"/>
     <use xlink:href="#DejaVuSans-69" x="541.357422"/>
     <use xlink:href="#DejaVuSans-62" x="569.140625"/>
     <use xlink:href="#DejaVuSans-65" x="632.617188"/>
     <use xlink:href="#DejaVuSans-20" x="694.140625"/>
     <use xlink:href="#DejaVuSans-68" x="725.927734"/>
     <use xlink:href="#DejaVuSans-69" x="789.306641"/>
     <use xlink:href="#DejaVuSans-73" x="817.089844"/>
     <use xlink:href="#DejaVuSans-74" x="869.189453"/>
     <use xlink:href="#DejaVuSans-6f" x="908.398438"/>
     <use xlink:href="#DejaVuSans-72" x="969.580078"/>
     <use xlink:href="#DejaVuSans-79" x="1010.693359"/>
    </g>
   </g>
   <g id="legend_1">
    <g id="line2d_45">
     <path d="M 815.08 328.498438 
L 825.08 328.498438 
L 835.08 328.498438 
" style="fill: none; stroke: #1f77b4; stroke-width: 1.5; stroke-linecap: square"/>
    </g>
    <g id="text_23">
     <!-- star -->
     <g style="fill: #a9a9a9" transform="translate(843.08 331.998438) scale(0.1 -0.1)">
      <defs>
       <path id="DejaVuSans-61" d="M 2194 1759 
Q 1497 1759 1228 1600 
Q 959 1441 959 1056 
Q 959 750 1161 570 
Q 1363 391 1709 391 
Q 2188 391 2477 730 
Q 2766 1069 2766 1631 
L 2766 1759 
L 2194 1759 
z
M 3341 1997 
L 3341 0 
L 2766 0 
L 2766 531 
Q 2569 213 2275 61 
Q 1981 -91 1556 -91 
Q 1019 -91 701 211 
Q 384 513 384 1019 
Q 384 1609 779 1909 
Q 1175 2209 1959 2209 
L 2766 2209 
L 2766 2266 
Q 2766 2663 2505 2880 
Q 2244 3097 1772 3097 
Q 1472 3097 1187 3025 
Q 903 2953 641 2809 
L 641 3341 
Q 956 3463 1253 3523 
Q 1550 3584 1831 3584 
Q 2591 3584 2966 3190 
Q 3341 2797 3341 1997 
z
" transform="scale(0.015625)"/>
      </defs>
      <use xlink:href="#DejaVuSans-73"/>
      <use xlink:href="#DejaVuSans-74" x="52.099609"/>
      <use xlink:href="#DejaVuSans-61" x="91.308594"/>
      <use xlink:href="#DejaVuSans-72" x="152.587891"/>
     </g>
    </g>
    <g id="line2d_46">
     <path d="M 815.08 343.176562 
L 825.08 343.176562 
L 835.08 343.176562 
" style="fill: none; stroke: #ff7f0e; stroke-width: 1.5; stroke-linecap: square"/>
    </g>
    <g id="text_24">
     <!-- fork -->
     <g style="fill: #a9a9a9" transform="translate(843.08 346.676562) scale(0.1 -0.1)">
      <defs>
       <path id="DejaVuSans-66" d="M 2375 4863 
L 2375 4384 
L 1825 4384 
Q 1516 4384 1395 4259 
Q 1275 4134 1275 3809 
L 1275 3500 
L 2222 3500 
L 2222 3053 
L 1275 3053 
L 1275 0 
L 697 0 
L 697 3053 
L 147 3053 
L 147 3500 
L 697 3500 
L 697 3744 
Q 697 4328 969 4595 
Q 1241 4863 1831 4863 
L 2375 4863 
z
" transform="scale(0.015625)"/>
       <path id="DejaVuSans-6b" d="M 581 4863 
L 1159 4863 
L 1159 1991 
L 2875 3500 
L 3609 3500 
L 1753 1863 
L 3688 0 
L 2938 0 
L 1159 1709 
L 1159 0 
L 581 0 
L 581 4863 
z
" transform="scale(0.015625)"/>
      </defs>
      <use xlink:href="#DejaVuSans-66"/>
      <use xlink:href="#DejaVuSans-6f" x="35.205078"/>
      <use xlink:href="#DejaVuSans-72" x="96.386719"/>
      <use xlink:href="#DejaVuSans-6b" x="137.5"/>
     </g>
    </g>
   </g>
  </g>
 </g>
 <defs>
  <clipPath id="pa8373b58ce">
   <rect x="108" y="43.2" width="669.6" height="277.2"/>
  </clipPath>
 </defs>
</svg>
