<?xml version="1.0" encoding="utf-8" standalone="no"?>
<!DOCTYPE svg PUBLIC "-//W3C//DTD SVG 1.1//EN"
  "http://www.w3.org/Graphics/SVG/1.1/DTD/svg11.dtd">
<svg xmlns:xlink="http://www.w3.org/1999/xlink" width="864pt" height="360pt" viewBox="0 0 864 360" xmlns="http://www.w3.org/2000/svg" version="1.1">
 <metadata>
  <rdf:RDF xmlns:dc="http://purl.org/dc/elements/1.1/" xmlns:cc="http://creativecommons.org/ns#" xmlns:rdf="http://www.w3.org/1999/02/22-rdf-syntax-ns#">
   <cc:Work>
    <dc:type rdf:resource="http://purl.org/dc/dcmitype/StillImage"/>
    <dc:date>2024-11-15T20:06:01.065549</dc:date>
    <dc:format>image/svg+xml</dc:format>
    <dc:creator>
     <cc:Agent>
      <dc:title>Matplotlib v3.9.2, https://matplotlib.org/</dc:title>
     </cc:Agent>
    </dc:creator>
   </cc:Work>
  </rdf:RDF>
 </metadata>
 <defs>
  <style type="text/css">*{stroke-linejoin: round; stroke-linecap: butt}</style>
 </defs>
 <g id="figure_1">
  <g id="patch_1">
   <path d="M 0 360 
L 864 360 
L 864 0 
L 0 0 
L 0 360 
z
" style="fill: none; opacity: 0"/>
  </g>
  <g id="axes_1">
   <g id="patch_2">
    <path d="M 108 320.4 
L 777.6 320.4 
L 777.6 43.2 
L 108 43.2 
L 108 320.4 
z
" style="fill: none; opacity: 0"/>
   </g>
   <g id="matplotlib.axis_1">
    <g id="xtick_1">
     <g id="line2d_1">
      <path d="M 158.056499 320.4 
L 158.056499 43.2 
" clip-path="url(#pcd9af504db)" style="fill: none; stroke-dasharray: 5.12,1.28,0.8,1.28; stroke-dashoffset: 0; stroke: #b0b0b0; stroke-width: 0.8"/>
     </g>
     <g id="line2d_2">
      <defs>
       <path id="m34405c6c02" d="M 0 0 
L 0 3.5 
" style="stroke: #a9a9a9; stroke-width: 0.8"/>
      </defs>
      <g>
       <use xlink:href="#m34405c6c02" x="158.056499" y="320.4" style="fill: #a9a9a9; stroke: #a9a9a9; stroke-width: 0.8"/>
      </g>
     </g>
     <g id="text_1">
      <!-- 2021-09 -->
      <g style="fill: #a9a9a9" transform="translate(137.165093 334.998438) scale(0.1 -0.1)">
       <defs>
        <path id="DejaVuSans-32" d="M 1228 531 
L 3431 531 
L 3431 0 
L 469 0 
L 469 531 
Q 828 903 1448 1529 
Q 2069 2156 2228 2338 
Q 2531 2678 2651 2914 
Q 2772 3150 2772 3378 
Q 2772 3750 2511 3984 
Q 2250 4219 1831 4219 
Q 1534 4219 1204 4116 
Q 875 4013 500 3803 
L 500 4441 
Q 881 4594 1212 4672 
Q 1544 4750 1819 4750 
Q 2544 4750 2975 4387 
Q 3406 4025 3406 3419 
Q 3406 3131 3298 2873 
Q 3191 2616 2906 2266 
Q 2828 2175 2409 1742 
Q 1991 1309 1228 531 
z
" transform="scale(0.015625)"/>
        <path id="DejaVuSans-30" d="M 2034 4250 
Q 1547 4250 1301 3770 
Q 1056 3291 1056 2328 
Q 1056 1369 1301 889 
Q 1547 409 2034 409 
Q 2525 409 2770 889 
Q 3016 1369 3016 2328 
Q 3016 3291 2770 3770 
Q 2525 4250 2034 4250 
z
M 2034 4750 
Q 2819 4750 3233 4129 
Q 3647 3509 3647 2328 
Q 3647 1150 3233 529 
Q 2819 -91 2034 -91 
Q 1250 -91 836 529 
Q 422 1150 422 2328 
Q 422 3509 836 4129 
Q 1250 4750 2034 4750 
z
" transform="scale(0.015625)"/>
        <path id="DejaVuSans-31" d="M 794 531 
L 1825 531 
L 1825 4091 
L 703 3866 
L 703 4441 
L 1819 4666 
L 2450 4666 
L 2450 531 
L 3481 531 
L 3481 0 
L 794 0 
L 794 531 
z
" transform="scale(0.015625)"/>
        <path id="DejaVuSans-2d" d="M 313 2009 
L 1997 2009 
L 1997 1497 
L 313 1497 
L 313 2009 
z
" transform="scale(0.015625)"/>
        <path id="DejaVuSans-39" d="M 703 97 
L 703 672 
Q 941 559 1184 500 
Q 1428 441 1663 441 
Q 2288 441 2617 861 
Q 2947 1281 2994 2138 
Q 2813 1869 2534 1725 
Q 2256 1581 1919 1581 
Q 1219 1581 811 2004 
Q 403 2428 403 3163 
Q 403 3881 828 4315 
Q 1253 4750 1959 4750 
Q 2769 4750 3195 4129 
Q 3622 3509 3622 2328 
Q 3622 1225 3098 567 
Q 2575 -91 1691 -91 
Q 1453 -91 1209 -44 
Q 966 3 703 97 
z
M 1959 2075 
Q 2384 2075 2632 2365 
Q 2881 2656 2881 3163 
Q 2881 3666 2632 3958 
Q 2384 4250 1959 4250 
Q 1534 4250 1286 3958 
Q 1038 3666 1038 3163 
Q 1038 2656 1286 2365 
Q 1534 2075 1959 2075 
z
" transform="scale(0.015625)"/>
       </defs>
       <use xlink:href="#DejaVuSans-32"/>
       <use xlink:href="#DejaVuSans-30" x="63.623047"/>
       <use xlink:href="#DejaVuSans-32" x="127.246094"/>
       <use xlink:href="#DejaVuSans-31" x="190.869141"/>
       <use xlink:href="#DejaVuSans-2d" x="254.492188"/>
       <use xlink:href="#DejaVuSans-30" x="290.576172"/>
       <use xlink:href="#DejaVuSans-39" x="354.199219"/>
      </g>
     </g>
    </g>
    <g id="xtick_2">
     <g id="line2d_3">
      <path d="M 219.432307 320.4 
L 219.432307 43.2 
" clip-path="url(#pcd9af504db)" style="fill: none; stroke-dasharray: 5.12,1.28,0.8,1.28; stroke-dashoffset: 0; stroke: #b0b0b0; stroke-width: 0.8"/>
     </g>
     <g id="line2d_4">
      <g>
       <use xlink:href="#m34405c6c02" x="219.432307" y="320.4" style="fill: #a9a9a9; stroke: #a9a9a9; stroke-width: 0.8"/>
      </g>
     </g>
     <g id="text_2">
      <!-- 2022-01 -->
      <g style="fill: #a9a9a9" transform="translate(198.5409 334.998438) scale(0.1 -0.1)">
       <use xlink:href="#DejaVuSans-32"/>
       <use xlink:href="#DejaVuSans-30" x="63.623047"/>
       <use xlink:href="#DejaVuSans-32" x="127.246094"/>
       <use xlink:href="#DejaVuSans-32" x="190.869141"/>
       <use xlink:href="#DejaVuSans-2d" x="254.492188"/>
       <use xlink:href="#DejaVuSans-30" x="290.576172"/>
       <use xlink:href="#DejaVuSans-31" x="354.199219"/>
      </g>
     </g>
    </g>
    <g id="xtick_3">
     <g id="line2d_5">
      <path d="M 279.801953 320.4 
L 279.801953 43.2 
" clip-path="url(#pcd9af504db)" style="fill: none; stroke-dasharray: 5.12,1.28,0.8,1.28; stroke-dashoffset: 0; stroke: #b0b0b0; stroke-width: 0.8"/>
     </g>
     <g id="line2d_6">
      <g>
       <use xlink:href="#m34405c6c02" x="279.801953" y="320.4" style="fill: #a9a9a9; stroke: #a9a9a9; stroke-width: 0.8"/>
      </g>
     </g>
     <g id="text_3">
      <!-- 2022-05 -->
      <g style="fill: #a9a9a9" transform="translate(258.910547 334.998438) scale(0.1 -0.1)">
       <defs>
        <path id="DejaVuSans-35" d="M 691 4666 
L 3169 4666 
L 3169 4134 
L 1269 4134 
L 1269 2991 
Q 1406 3038 1543 3061 
Q 1681 3084 1819 3084 
Q 2600 3084 3056 2656 
Q 3513 2228 3513 1497 
Q 3513 744 3044 326 
Q 2575 -91 1722 -91 
Q 1428 -91 1123 -41 
Q 819 9 494 109 
L 494 744 
Q 775 591 1075 516 
Q 1375 441 1709 441 
Q 2250 441 2565 725 
Q 2881 1009 2881 1497 
Q 2881 1984 2565 2268 
Q 2250 2553 1709 2553 
Q 1456 2553 1204 2497 
Q 953 2441 691 2322 
L 691 4666 
z
" transform="scale(0.015625)"/>
       </defs>
       <use xlink:href="#DejaVuSans-32"/>
       <use xlink:href="#DejaVuSans-30" x="63.623047"/>
       <use xlink:href="#DejaVuSans-32" x="127.246094"/>
       <use xlink:href="#DejaVuSans-32" x="190.869141"/>
       <use xlink:href="#DejaVuSans-2d" x="254.492188"/>
       <use xlink:href="#DejaVuSans-30" x="290.576172"/>
       <use xlink:href="#DejaVuSans-35" x="354.199219"/>
      </g>
     </g>
    </g>
    <g id="xtick_4">
     <g id="line2d_7">
      <path d="M 341.680841 320.4 
L 341.680841 43.2 
" clip-path="url(#pcd9af504db)" style="fill: none; stroke-dasharray: 5.12,1.28,0.8,1.28; stroke-dashoffset: 0; stroke: #b0b0b0; stroke-width: 0.8"/>
     </g>
     <g id="line2d_8">
      <g>
       <use xlink:href="#m34405c6c02" x="341.680841" y="320.4" style="fill: #a9a9a9; stroke: #a9a9a9; stroke-width: 0.8"/>
      </g>
     </g>
     <g id="text_4">
      <!-- 2022-09 -->
      <g style="fill: #a9a9a9" transform="translate(320.789435 334.998438) scale(0.1 -0.1)">
       <use xlink:href="#DejaVuSans-32"/>
       <use xlink:href="#DejaVuSans-30" x="63.623047"/>
       <use xlink:href="#DejaVuSans-32" x="127.246094"/>
       <use xlink:href="#DejaVuSans-32" x="190.869141"/>
       <use xlink:href="#DejaVuSans-2d" x="254.492188"/>
       <use xlink:href="#DejaVuSans-30" x="290.576172"/>
       <use xlink:href="#DejaVuSans-39" x="354.199219"/>
      </g>
     </g>
    </g>
    <g id="xtick_5">
     <g id="line2d_9">
      <path d="M 403.056649 320.4 
L 403.056649 43.2 
" clip-path="url(#pcd9af504db)" style="fill: none; stroke-dasharray: 5.12,1.28,0.8,1.28; stroke-dashoffset: 0; stroke: #b0b0b0; stroke-width: 0.8"/>
     </g>
     <g id="line2d_10">
      <g>
       <use xlink:href="#m34405c6c02" x="403.056649" y="320.4" style="fill: #a9a9a9; stroke: #a9a9a9; stroke-width: 0.8"/>
      </g>
     </g>
     <g id="text_5">
      <!-- 2023-01 -->
      <g style="fill: #a9a9a9" transform="translate(382.165243 334.998438) scale(0.1 -0.1)">
       <defs>
        <path id="DejaVuSans-33" d="M 2597 2516 
Q 3050 2419 3304 2112 
Q 3559 1806 3559 1356 
Q 3559 666 3084 287 
Q 2609 -91 1734 -91 
Q 1441 -91 1130 -33 
Q 819 25 488 141 
L 488 750 
Q 750 597 1062 519 
Q 1375 441 1716 441 
Q 2309 441 2620 675 
Q 2931 909 2931 1356 
Q 2931 1769 2642 2001 
Q 2353 2234 1838 2234 
L 1294 2234 
L 1294 2753 
L 1863 2753 
Q 2328 2753 2575 2939 
Q 2822 3125 2822 3475 
Q 2822 3834 2567 4026 
Q 2313 4219 1838 4219 
Q 1578 4219 1281 4162 
Q 984 4106 628 3988 
L 628 4550 
Q 988 4650 1302 4700 
Q 1616 4750 1894 4750 
Q 2613 4750 3031 4423 
Q 3450 4097 3450 3541 
Q 3450 3153 3228 2886 
Q 3006 2619 2597 2516 
z
" transform="scale(0.015625)"/>
       </defs>
       <use xlink:href="#DejaVuSans-32"/>
       <use xlink:href="#DejaVuSans-30" x="63.623047"/>
       <use xlink:href="#DejaVuSans-32" x="127.246094"/>
       <use xlink:href="#DejaVuSans-33" x="190.869141"/>
       <use xlink:href="#DejaVuSans-2d" x="254.492188"/>
       <use xlink:href="#DejaVuSans-30" x="290.576172"/>
       <use xlink:href="#DejaVuSans-31" x="354.199219"/>
      </g>
     </g>
    </g>
    <g id="xtick_6">
     <g id="line2d_11">
      <path d="M 463.426296 320.4 
L 463.426296 43.2 
" clip-path="url(#pcd9af504db)" style="fill: none; stroke-dasharray: 5.12,1.28,0.8,1.28; stroke-dashoffset: 0; stroke: #b0b0b0; stroke-width: 0.8"/>
     </g>
     <g id="line2d_12">
      <g>
       <use xlink:href="#m34405c6c02" x="463.426296" y="320.4" style="fill: #a9a9a9; stroke: #a9a9a9; stroke-width: 0.8"/>
      </g>
     </g>
     <g id="text_6">
      <!-- 2023-05 -->
      <g style="fill: #a9a9a9" transform="translate(442.53489 334.998438) scale(0.1 -0.1)">
       <use xlink:href="#DejaVuSans-32"/>
       <use xlink:href="#DejaVuSans-30" x="63.623047"/>
       <use xlink:href="#DejaVuSans-32" x="127.246094"/>
       <use xlink:href="#DejaVuSans-33" x="190.869141"/>
       <use xlink:href="#DejaVuSans-2d" x="254.492188"/>
       <use xlink:href="#DejaVuSans-30" x="290.576172"/>
       <use xlink:href="#DejaVuSans-35" x="354.199219"/>
      </g>
     </g>
    </g>
    <g id="xtick_7">
     <g id="line2d_13">
      <path d="M 525.305184 320.4 
L 525.305184 43.2 
" clip-path="url(#pcd9af504db)" style="fill: none; stroke-dasharray: 5.12,1.28,0.8,1.28; stroke-dashoffset: 0; stroke: #b0b0b0; stroke-width: 0.8"/>
     </g>
     <g id="line2d_14">
      <g>
       <use xlink:href="#m34405c6c02" x="525.305184" y="320.4" style="fill: #a9a9a9; stroke: #a9a9a9; stroke-width: 0.8"/>
      </g>
     </g>
     <g id="text_7">
      <!-- 2023-09 -->
      <g style="fill: #a9a9a9" transform="translate(504.413778 334.998438) scale(0.1 -0.1)">
       <use xlink:href="#DejaVuSans-32"/>
       <use xlink:href="#DejaVuSans-30" x="63.623047"/>
       <use xlink:href="#DejaVuSans-32" x="127.246094"/>
       <use xlink:href="#DejaVuSans-33" x="190.869141"/>
       <use xlink:href="#DejaVuSans-2d" x="254.492188"/>
       <use xlink:href="#DejaVuSans-30" x="290.576172"/>
       <use xlink:href="#DejaVuSans-39" x="354.199219"/>
      </g>
     </g>
    </g>
    <g id="xtick_8">
     <g id="line2d_15">
      <path d="M 586.680992 320.4 
L 586.680992 43.2 
" clip-path="url(#pcd9af504db)" style="fill: none; stroke-dasharray: 5.12,1.28,0.8,1.28; stroke-dashoffset: 0; stroke: #b0b0b0; stroke-width: 0.8"/>
     </g>
     <g id="line2d_16">
      <g>
       <use xlink:href="#m34405c6c02" x="586.680992" y="320.4" style="fill: #a9a9a9; stroke: #a9a9a9; stroke-width: 0.8"/>
      </g>
     </g>
     <g id="text_8">
      <!-- 2024-01 -->
      <g style="fill: #a9a9a9" transform="translate(565.789585 334.998438) scale(0.1 -0.1)">
       <defs>
        <path id="DejaVuSans-34" d="M 2419 4116 
L 825 1625 
L 2419 1625 
L 2419 4116 
z
M 2253 4666 
L 3047 4666 
L 3047 1625 
L 3713 1625 
L 3713 1100 
L 3047 1100 
L 3047 0 
L 2419 0 
L 2419 1100 
L 313 1100 
L 313 1709 
L 2253 4666 
z
" transform="scale(0.015625)"/>
       </defs>
       <use xlink:href="#DejaVuSans-32"/>
       <use xlink:href="#DejaVuSans-30" x="63.623047"/>
       <use xlink:href="#DejaVuSans-32" x="127.246094"/>
       <use xlink:href="#DejaVuSans-34" x="190.869141"/>
       <use xlink:href="#DejaVuSans-2d" x="254.492188"/>
       <use xlink:href="#DejaVuSans-30" x="290.576172"/>
       <use xlink:href="#DejaVuSans-31" x="354.199219"/>
      </g>
     </g>
    </g>
    <g id="xtick_9">
     <g id="line2d_17">
      <path d="M 647.553719 320.4 
L 647.553719 43.2 
" clip-path="url(#pcd9af504db)" style="fill: none; stroke-dasharray: 5.12,1.28,0.8,1.28; stroke-dashoffset: 0; stroke: #b0b0b0; stroke-width: 0.8"/>
     </g>
     <g id="line2d_18">
      <g>
       <use xlink:href="#m34405c6c02" x="647.553719" y="320.4" style="fill: #a9a9a9; stroke: #a9a9a9; stroke-width: 0.8"/>
      </g>
     </g>
     <g id="text_9">
      <!-- 2024-05 -->
      <g style="fill: #a9a9a9" transform="translate(626.662313 334.998438) scale(0.1 -0.1)">
       <use xlink:href="#DejaVuSans-32"/>
       <use xlink:href="#DejaVuSans-30" x="63.623047"/>
       <use xlink:href="#DejaVuSans-32" x="127.246094"/>
       <use xlink:href="#DejaVuSans-34" x="190.869141"/>
       <use xlink:href="#DejaVuSans-2d" x="254.492188"/>
       <use xlink:href="#DejaVuSans-30" x="290.576172"/>
       <use xlink:href="#DejaVuSans-35" x="354.199219"/>
      </g>
     </g>
    </g>
    <g id="xtick_10">
     <g id="line2d_19">
      <path d="M 709.432607 320.4 
L 709.432607 43.2 
" clip-path="url(#pcd9af504db)" style="fill: none; stroke-dasharray: 5.12,1.28,0.8,1.28; stroke-dashoffset: 0; stroke: #b0b0b0; stroke-width: 0.8"/>
     </g>
     <g id="line2d_20">
      <g>
       <use xlink:href="#m34405c6c02" x="709.432607" y="320.4" style="fill: #a9a9a9; stroke: #a9a9a9; stroke-width: 0.8"/>
      </g>
     </g>
     <g id="text_10">
      <!-- 2024-09 -->
      <g style="fill: #a9a9a9" transform="translate(688.541201 334.998438) scale(0.1 -0.1)">
       <use xlink:href="#DejaVuSans-32"/>
       <use xlink:href="#DejaVuSans-30" x="63.623047"/>
       <use xlink:href="#DejaVuSans-32" x="127.246094"/>
       <use xlink:href="#DejaVuSans-34" x="190.869141"/>
       <use xlink:href="#DejaVuSans-2d" x="254.492188"/>
       <use xlink:href="#DejaVuSans-30" x="290.576172"/>
       <use xlink:href="#DejaVuSans-39" x="354.199219"/>
      </g>
     </g>
    </g>
    <g id="xtick_11">
     <g id="line2d_21">
      <path d="M 770.808415 320.4 
L 770.808415 43.2 
" clip-path="url(#pcd9af504db)" style="fill: none; stroke-dasharray: 5.12,1.28,0.8,1.28; stroke-dashoffset: 0; stroke: #b0b0b0; stroke-width: 0.8"/>
     </g>
     <g id="line2d_22">
      <g>
       <use xlink:href="#m34405c6c02" x="770.808415" y="320.4" style="fill: #a9a9a9; stroke: #a9a9a9; stroke-width: 0.8"/>
      </g>
     </g>
     <g id="text_11">
      <!-- 2025-01 -->
      <g style="fill: #a9a9a9" transform="translate(749.917008 334.998438) scale(0.1 -0.1)">
       <use xlink:href="#DejaVuSans-32"/>
       <use xlink:href="#DejaVuSans-30" x="63.623047"/>
       <use xlink:href="#DejaVuSans-32" x="127.246094"/>
       <use xlink:href="#DejaVuSans-35" x="190.869141"/>
       <use xlink:href="#DejaVuSans-2d" x="254.492188"/>
       <use xlink:href="#DejaVuSans-30" x="290.576172"/>
       <use xlink:href="#DejaVuSans-31" x="354.199219"/>
      </g>
     </g>
    </g>
   </g>
   <g id="matplotlib.axis_2">
    <g id="ytick_1">
     <g id="line2d_23">
      <path d="M 108 307.836196 
L 777.6 307.836196 
" clip-path="url(#pcd9af504db)" style="fill: none; stroke-dasharray: 5.12,1.28,0.8,1.28; stroke-dashoffset: 0; stroke: #b0b0b0; stroke-width: 0.8"/>
     </g>
     <g id="line2d_24">
      <defs>
       <path id="m93349dd90b" d="M 0 0 
L -3.5 0 
" style="stroke: #a9a9a9; stroke-width: 0.8"/>
      </defs>
      <g>
       <use xlink:href="#m93349dd90b" x="108" y="307.836196" style="fill: #a9a9a9; stroke: #a9a9a9; stroke-width: 0.8"/>
      </g>
     </g>
     <g id="text_12">
      <!-- 0 -->
      <g style="fill: #a9a9a9" transform="translate(94.6375 311.635415) scale(0.1 -0.1)">
       <use xlink:href="#DejaVuSans-30"/>
      </g>
     </g>
    </g>
    <g id="ytick_2">
     <g id="line2d_25">
      <path d="M 108 278.879 
L 777.6 278.879 
" clip-path="url(#pcd9af504db)" style="fill: none; stroke-dasharray: 5.12,1.28,0.8,1.28; stroke-dashoffset: 0; stroke: #b0b0b0; stroke-width: 0.8"/>
     </g>
     <g id="line2d_26">
      <g>
       <use xlink:href="#m93349dd90b" x="108" y="278.879" style="fill: #a9a9a9; stroke: #a9a9a9; stroke-width: 0.8"/>
      </g>
     </g>
     <g id="text_13">
      <!-- 800 -->
      <g style="fill: #a9a9a9" transform="translate(81.9125 282.678219) scale(0.1 -0.1)">
       <defs>
        <path id="DejaVuSans-38" d="M 2034 2216 
Q 1584 2216 1326 1975 
Q 1069 1734 1069 1313 
Q 1069 891 1326 650 
Q 1584 409 2034 409 
Q 2484 409 2743 651 
Q 3003 894 3003 1313 
Q 3003 1734 2745 1975 
Q 2488 2216 2034 2216 
z
M 1403 2484 
Q 997 2584 770 2862 
Q 544 3141 544 3541 
Q 544 4100 942 4425 
Q 1341 4750 2034 4750 
Q 2731 4750 3128 4425 
Q 3525 4100 3525 3541 
Q 3525 3141 3298 2862 
Q 3072 2584 2669 2484 
Q 3125 2378 3379 2068 
Q 3634 1759 3634 1313 
Q 3634 634 3220 271 
Q 2806 -91 2034 -91 
Q 1263 -91 848 271 
Q 434 634 434 1313 
Q 434 1759 690 2068 
Q 947 2378 1403 2484 
z
M 1172 3481 
Q 1172 3119 1398 2916 
Q 1625 2713 2034 2713 
Q 2441 2713 2670 2916 
Q 2900 3119 2900 3481 
Q 2900 3844 2670 4047 
Q 2441 4250 2034 4250 
Q 1625 4250 1398 4047 
Q 1172 3844 1172 3481 
z
" transform="scale(0.015625)"/>
       </defs>
       <use xlink:href="#DejaVuSans-38"/>
       <use xlink:href="#DejaVuSans-30" x="63.623047"/>
       <use xlink:href="#DejaVuSans-30" x="127.246094"/>
      </g>
     </g>
    </g>
    <g id="ytick_3">
     <g id="line2d_27">
      <path d="M 108 249.921804 
L 777.6 249.921804 
" clip-path="url(#pcd9af504db)" style="fill: none; stroke-dasharray: 5.12,1.28,0.8,1.28; stroke-dashoffset: 0; stroke: #b0b0b0; stroke-width: 0.8"/>
     </g>
     <g id="line2d_28">
      <g>
       <use xlink:href="#m93349dd90b" x="108" y="249.921804" style="fill: #a9a9a9; stroke: #a9a9a9; stroke-width: 0.8"/>
      </g>
     </g>
     <g id="text_14">
      <!-- 1600 -->
      <g style="fill: #a9a9a9" transform="translate(75.55 253.721023) scale(0.1 -0.1)">
       <defs>
        <path id="DejaVuSans-36" d="M 2113 2584 
Q 1688 2584 1439 2293 
Q 1191 2003 1191 1497 
Q 1191 994 1439 701 
Q 1688 409 2113 409 
Q 2538 409 2786 701 
Q 3034 994 3034 1497 
Q 3034 2003 2786 2293 
Q 2538 2584 2113 2584 
z
M 3366 4563 
L 3366 3988 
Q 3128 4100 2886 4159 
Q 2644 4219 2406 4219 
Q 1781 4219 1451 3797 
Q 1122 3375 1075 2522 
Q 1259 2794 1537 2939 
Q 1816 3084 2150 3084 
Q 2853 3084 3261 2657 
Q 3669 2231 3669 1497 
Q 3669 778 3244 343 
Q 2819 -91 2113 -91 
Q 1303 -91 875 529 
Q 447 1150 447 2328 
Q 447 3434 972 4092 
Q 1497 4750 2381 4750 
Q 2619 4750 2861 4703 
Q 3103 4656 3366 4563 
z
" transform="scale(0.015625)"/>
       </defs>
       <use xlink:href="#DejaVuSans-31"/>
       <use xlink:href="#DejaVuSans-36" x="63.623047"/>
       <use xlink:href="#DejaVuSans-30" x="127.246094"/>
       <use xlink:href="#DejaVuSans-30" x="190.869141"/>
      </g>
     </g>
    </g>
    <g id="ytick_4">
     <g id="line2d_29">
      <path d="M 108 220.964608 
L 777.6 220.964608 
" clip-path="url(#pcd9af504db)" style="fill: none; stroke-dasharray: 5.12,1.28,0.8,1.28; stroke-dashoffset: 0; stroke: #b0b0b0; stroke-width: 0.8"/>
     </g>
     <g id="line2d_30">
      <g>
       <use xlink:href="#m93349dd90b" x="108" y="220.964608" style="fill: #a9a9a9; stroke: #a9a9a9; stroke-width: 0.8"/>
      </g>
     </g>
     <g id="text_15">
      <!-- 2400 -->
      <g style="fill: #a9a9a9" transform="translate(75.55 224.763827) scale(0.1 -0.1)">
       <use xlink:href="#DejaVuSans-32"/>
       <use xlink:href="#DejaVuSans-34" x="63.623047"/>
       <use xlink:href="#DejaVuSans-30" x="127.246094"/>
       <use xlink:href="#DejaVuSans-30" x="190.869141"/>
      </g>
     </g>
    </g>
    <g id="ytick_5">
     <g id="line2d_31">
      <path d="M 108 192.007412 
L 777.6 192.007412 
" clip-path="url(#pcd9af504db)" style="fill: none; stroke-dasharray: 5.12,1.28,0.8,1.28; stroke-dashoffset: 0; stroke: #b0b0b0; stroke-width: 0.8"/>
     </g>
     <g id="line2d_32">
      <g>
       <use xlink:href="#m93349dd90b" x="108" y="192.007412" style="fill: #a9a9a9; stroke: #a9a9a9; stroke-width: 0.8"/>
      </g>
     </g>
     <g id="text_16">
      <!-- 3200 -->
      <g style="fill: #a9a9a9" transform="translate(75.55 195.80663) scale(0.1 -0.1)">
       <use xlink:href="#DejaVuSans-33"/>
       <use xlink:href="#DejaVuSans-32" x="63.623047"/>
       <use xlink:href="#DejaVuSans-30" x="127.246094"/>
       <use xlink:href="#DejaVuSans-30" x="190.869141"/>
      </g>
     </g>
    </g>
    <g id="ytick_6">
     <g id="line2d_33">
      <path d="M 108 163.050215 
L 777.6 163.050215 
" clip-path="url(#pcd9af504db)" style="fill: none; stroke-dasharray: 5.12,1.28,0.8,1.28; stroke-dashoffset: 0; stroke: #b0b0b0; stroke-width: 0.8"/>
     </g>
     <g id="line2d_34">
      <g>
       <use xlink:href="#m93349dd90b" x="108" y="163.050215" style="fill: #a9a9a9; stroke: #a9a9a9; stroke-width: 0.8"/>
      </g>
     </g>
     <g id="text_17">
      <!-- 4000 -->
      <g style="fill: #a9a9a9" transform="translate(75.55 166.849434) scale(0.1 -0.1)">
       <use xlink:href="#DejaVuSans-34"/>
       <use xlink:href="#DejaVuSans-30" x="63.623047"/>
       <use xlink:href="#DejaVuSans-30" x="127.246094"/>
       <use xlink:href="#DejaVuSans-30" x="190.869141"/>
      </g>
     </g>
    </g>
    <g id="ytick_7">
     <g id="line2d_35">
      <path d="M 108 134.093019 
L 777.6 134.093019 
" clip-path="url(#pcd9af504db)" style="fill: none; stroke-dasharray: 5.12,1.28,0.8,1.28; stroke-dashoffset: 0; stroke: #b0b0b0; stroke-width: 0.8"/>
     </g>
     <g id="line2d_36">
      <g>
       <use xlink:href="#m93349dd90b" x="108" y="134.093019" style="fill: #a9a9a9; stroke: #a9a9a9; stroke-width: 0.8"/>
      </g>
     </g>
     <g id="text_18">
      <!-- 4800 -->
      <g style="fill: #a9a9a9" transform="translate(75.55 137.892238) scale(0.1 -0.1)">
       <use xlink:href="#DejaVuSans-34"/>
       <use xlink:href="#DejaVuSans-38" x="63.623047"/>
       <use xlink:href="#DejaVuSans-30" x="127.246094"/>
       <use xlink:href="#DejaVuSans-30" x="190.869141"/>
      </g>
     </g>
    </g>
    <g id="ytick_8">
     <g id="line2d_37">
      <path d="M 108 105.135823 
L 777.6 105.135823 
" clip-path="url(#pcd9af504db)" style="fill: none; stroke-dasharray: 5.12,1.28,0.8,1.28; stroke-dashoffset: 0; stroke: #b0b0b0; stroke-width: 0.8"/>
     </g>
     <g id="line2d_38">
      <g>
       <use xlink:href="#m93349dd90b" x="108" y="105.135823" style="fill: #a9a9a9; stroke: #a9a9a9; stroke-width: 0.8"/>
      </g>
     </g>
     <g id="text_19">
      <!-- 5600 -->
      <g style="fill: #a9a9a9" transform="translate(75.55 108.935042) scale(0.1 -0.1)">
       <use xlink:href="#DejaVuSans-35"/>
       <use xlink:href="#DejaVuSans-36" x="63.623047"/>
       <use xlink:href="#DejaVuSans-30" x="127.246094"/>
       <use xlink:href="#DejaVuSans-30" x="190.869141"/>
      </g>
     </g>
    </g>
    <g id="ytick_9">
     <g id="line2d_39">
      <path d="M 108 76.178627 
L 777.6 76.178627 
" clip-path="url(#pcd9af504db)" style="fill: none; stroke-dasharray: 5.12,1.28,0.8,1.28; stroke-dashoffset: 0; stroke: #b0b0b0; stroke-width: 0.8"/>
     </g>
     <g id="line2d_40">
      <g>
       <use xlink:href="#m93349dd90b" x="108" y="76.178627" style="fill: #a9a9a9; stroke: #a9a9a9; stroke-width: 0.8"/>
      </g>
     </g>
     <g id="text_20">
      <!-- 6400 -->
      <g style="fill: #a9a9a9" transform="translate(75.55 79.977846) scale(0.1 -0.1)">
       <use xlink:href="#DejaVuSans-36"/>
       <use xlink:href="#DejaVuSans-34" x="63.623047"/>
       <use xlink:href="#DejaVuSans-30" x="127.246094"/>
       <use xlink:href="#DejaVuSans-30" x="190.869141"/>
      </g>
     </g>
    </g>
    <g id="ytick_10">
     <g id="line2d_41">
      <path d="M 108 47.221431 
L 777.6 47.221431 
" clip-path="url(#pcd9af504db)" style="fill: none; stroke-dasharray: 5.12,1.28,0.8,1.28; stroke-dashoffset: 0; stroke: #b0b0b0; stroke-width: 0.8"/>
     </g>
     <g id="line2d_42">
      <g>
       <use xlink:href="#m93349dd90b" x="108" y="47.221431" style="fill: #a9a9a9; stroke: #a9a9a9; stroke-width: 0.8"/>
      </g>
     </g>
     <g id="text_21">
      <!-- 7200 -->
      <g style="fill: #a9a9a9" transform="translate(75.55 51.020649) scale(0.1 -0.1)">
       <defs>
        <path id="DejaVuSans-37" d="M 525 4666 
L 3525 4666 
L 3525 4397 
L 1831 0 
L 1172 0 
L 2766 4134 
L 525 4134 
L 525 4666 
z
" transform="scale(0.015625)"/>
       </defs>
       <use xlink:href="#DejaVuSans-37"/>
       <use xlink:href="#DejaVuSans-32" x="63.623047"/>
       <use xlink:href="#DejaVuSans-30" x="127.246094"/>
       <use xlink:href="#DejaVuSans-30" x="190.869141"/>
      </g>
     </g>
    </g>
   </g>
   <g id="line2d_43">
    <path d="M 138.436364 307.727607 
L 141.454846 307.474232 
L 141.957926 307.257053 
L 143.970248 307.003677 
L 145.982569 306.605516 
L 146.98873 306.46073 
L 149.504132 306.243551 
L 150.510293 305.845389 
L 151.013373 305.193852 
L 151.516454 304.831887 
L 152.019534 303.709796 
L 152.522615 303.637403 
L 153.025695 303.239242 
L 154.031856 302.732491 
L 156.044177 301.139845 
L 158.056499 300.16254 
L 159.56574 299.474806 
L 160.06882 298.678483 
L 161.074981 297.954553 
L 161.578062 297.737374 
L 166.608866 297.013444 
L 167.111946 296.796265 
L 170.633509 296.506693 
L 172.64583 296.036139 
L 176.670473 295.493192 
L 177.173554 295.239816 
L 177.676634 295.167423 
L 178.682795 294.841655 
L 182.204358 294.262511 
L 183.210518 293.972939 
L 187.738242 293.212812 
L 188.744403 292.995633 
L 189.750563 292.959437 
L 191.762885 292.488883 
L 192.265965 291.801149 
L 193.775207 291.222005 
L 195.284448 290.823844 
L 195.787528 290.570468 
L 196.793689 290.389486 
L 198.806011 289.810342 
L 199.812171 289.737949 
L 200.818332 289.484573 
L 202.830654 288.977822 
L 203.333734 288.941626 
L 204.339895 288.471072 
L 204.842975 288.398679 
L 205.346056 288.145303 
L 210.87994 287.240391 
L 212.892261 286.661247 
L 213.395342 286.335478 
L 215.910744 285.502959 
L 216.916905 284.815226 
L 218.426146 284.525654 
L 231.506236 280.869808 
L 232.009316 280.869808 
L 232.512397 280.652629 
L 233.518557 280.544039 
L 234.021638 280.363057 
L 236.033959 280.254467 
L 237.04012 280.073485 
L 238.046281 279.566734 
L 239.555522 279.023786 
L 240.058603 278.698018 
L 241.064763 278.26366 
L 241.567844 278.010284 
L 242.574005 277.684516 
L 243.077085 277.53973 
L 244.083246 276.92439 
L 244.586326 276.381442 
L 245.592487 274.861189 
L 246.095567 274.716403 
L 246.598648 274.716403 
L 248.107889 273.847687 
L 248.610969 273.594312 
L 249.11405 273.485722 
L 249.61713 273.015168 
L 250.623291 272.617007 
L 251.629452 272.146452 
L 254.144853 268.961161 
L 257.163336 267.368515 
L 258.169497 266.572192 
L 258.672577 266.246423 
L 259.175657 265.486297 
L 259.678738 264.364206 
L 260.181818 263.604079 
L 260.684899 263.205918 
L 261.187979 262.988739 
L 264.709542 260.020626 
L 265.715702 258.826142 
L 266.721863 258.102212 
L 268.231104 257.08871 
L 268.734185 256.654352 
L 269.740346 256.328584 
L 271.249587 255.459868 
L 272.758828 254.482562 
L 274.77115 252.708934 
L 275.77731 252.310773 
L 276.783471 251.623039 
L 277.286551 251.333467 
L 277.789632 251.261074 
L 279.298873 250.428555 
L 279.801953 249.885608 
L 282.317355 248.546337 
L 282.820436 248.365355 
L 284.329677 247.351853 
L 291.875883 244.709509 
L 292.882044 243.804596 
L 293.888204 243.334042 
L 294.894365 242.791095 
L 295.397446 242.501523 
L 296.403606 242.211951 
L 296.906687 241.886182 
L 297.409767 241.741396 
L 298.919008 240.764091 
L 301.43441 240.184947 
L 302.943651 239.316231 
L 304.452893 238.990463 
L 304.955973 238.845677 
L 306.465214 237.723585 
L 308.477536 237.180638 
L 308.980616 236.782476 
L 311.999098 235.768974 
L 313.005259 235.587992 
L 314.01142 235.189831 
L 317.532983 233.922953 
L 318.539144 233.778167 
L 320.048385 233.271416 
L 322.563787 232.076932 
L 324.576108 230.991037 
L 328.600751 229.362195 
L 329.103832 229.289802 
L 330.109992 228.674461 
L 330.613073 228.602068 
L 332.625394 227.769549 
L 334.637716 227.479977 
L 335.643877 226.973226 
L 336.146957 226.538868 
L 336.650038 225.633956 
L 338.662359 225.091008 
L 340.1716 224.330882 
L 340.674681 224.222292 
L 344.699324 222.303878 
L 346.208565 222.014306 
L 347.214726 221.507555 
L 347.717806 221.290376 
L 348.220887 221.217983 
L 350.233208 220.313071 
L 351.742449 219.371962 
L 353.25169 219.08239 
L 355.767092 218.46705 
L 356.270173 218.068888 
L 357.779414 217.525941 
L 359.791736 216.729618 
L 360.294816 216.367653 
L 360.797896 216.18667 
L 361.804057 215.643723 
L 364.319459 214.811204 
L 365.8287 213.616719 
L 366.331781 213.50813 
L 367.337941 212.711807 
L 367.841022 212.639414 
L 368.344102 211.843091 
L 368.847183 211.625912 
L 369.350263 211.227751 
L 369.853343 211.155358 
L 370.859504 210.540017 
L 371.865665 210.214249 
L 372.368745 209.852284 
L 372.871826 209.671301 
L 374.381067 208.621603 
L 376.393388 207.571905 
L 376.896469 207.499512 
L 378.40571 206.739385 
L 378.90879 205.906866 
L 379.914951 205.182936 
L 380.418032 205.074346 
L 381.424192 204.459006 
L 381.927273 204.350417 
L 382.933434 203.843666 
L 384.945755 202.86636 
L 385.448835 202.504395 
L 386.454996 201.52709 
L 387.461157 200.911749 
L 387.964237 200.585981 
L 388.467318 200.043034 
L 390.479639 198.667567 
L 390.98272 198.088423 
L 391.4858 197.690261 
L 392.491961 197.328296 
L 393.498122 196.640563 
L 395.007363 195.880437 
L 395.510443 195.808044 
L 397.019684 195.011721 
L 398.025845 194.39638 
L 403.056649 192.586556 
L 403.55973 192.188394 
L 405.572051 191.428268 
L 406.075131 191.283482 
L 406.578212 190.88532 
L 409.093614 189.509853 
L 410.099775 187.519046 
L 411.105935 186.360758 
L 412.112096 185.781614 
L 413.621337 185.166274 
L 414.124418 185.093881 
L 414.627498 184.804309 
L 417.1429 184.007986 
L 417.64598 183.790807 
L 418.652141 183.103074 
L 420.161382 182.451537 
L 421.167543 181.908589 
L 421.670624 181.546625 
L 422.173704 181.329446 
L 422.676784 180.967481 
L 423.179865 180.424533 
L 424.186026 179.881586 
L 426.701427 178.542315 
L 429.71991 177.058259 
L 430.726071 176.732491 
L 432.235312 176.261936 
L 434.247633 175.357024 
L 435.253794 174.958862 
L 435.756875 174.560701 
L 437.769196 173.872968 
L 438.775357 173.149038 
L 439.781518 172.71468 
L 440.787678 171.918357 
L 441.793839 171.556392 
L 442.29692 171.122034 
L 442.8 171.049641 
L 443.806161 170.289515 
L 444.812322 169.782764 
L 445.315402 169.565585 
L 445.818482 169.058834 
L 449.340045 167.683367 
L 450.346206 167.249009 
L 451.855447 166.778454 
L 452.861608 166.633668 
L 453.364688 166.41649 
L 453.867769 166.344097 
L 454.873929 165.909739 
L 455.37701 165.873542 
L 457.389331 165.113416 
L 458.898573 164.063717 
L 459.401653 163.882735 
L 460.407814 163.339787 
L 460.910894 163.195001 
L 463.929376 161.529963 
L 464.432457 161.421373 
L 465.941698 160.552657 
L 467.450939 160.045906 
L 468.4571 159.720138 
L 470.469421 159.068601 
L 471.475582 158.742833 
L 473.487904 158.344671 
L 473.990984 158.127492 
L 474.494065 158.055099 
L 475.500225 157.620741 
L 476.003306 157.548348 
L 476.506386 157.294973 
L 477.512547 157.11399 
L 479.021788 156.571043 
L 480.027949 156.462453 
L 481.53719 156.136685 
L 484.052592 155.702327 
L 497.132682 151.937891 
L 497.635763 151.43114 
L 498.641923 151.032979 
L 501.660406 149.947084 
L 502.163486 149.621316 
L 502.666566 149.512726 
L 503.169647 149.223154 
L 504.678888 148.788796 
L 505.685049 148.535421 
L 506.188129 148.209652 
L 506.69121 148.101063 
L 507.19429 147.666705 
L 508.703531 147.377133 
L 509.709692 146.906579 
L 510.212772 146.327435 
L 512.225094 145.85688 
L 515.746657 145.13295 
L 516.249737 145.13295 
L 516.752817 144.915771 
L 518.765139 144.553806 
L 519.268219 144.336627 
L 521.280541 143.974662 
L 522.286702 143.540305 
L 523.292863 143.359322 
L 525.808264 142.743982 
L 527.820586 142.128641 
L 528.323666 142.020052 
L 528.826747 141.766676 
L 529.832908 141.513301 
L 530.335988 141.223729 
L 531.845229 140.716978 
L 532.34831 140.391209 
L 533.35447 140.101637 
L 534.360631 139.775869 
L 535.366792 139.377708 
L 536.876033 138.726171 
L 538.888355 138.472795 
L 542.912998 137.061132 
L 543.416078 136.699167 
L 543.919159 136.590577 
L 544.422239 136.337202 
L 544.925319 136.301005 
L 550.459204 134.382591 
L 552.974606 133.731054 
L 553.980766 133.2605 
L 555.490008 132.934731 
L 555.993088 132.53657 
L 556.496168 132.283194 
L 556.999249 131.667854 
L 557.502329 131.305889 
L 558.50849 131.016317 
L 559.01157 130.618156 
L 562.030053 129.496064 
L 562.533133 129.170296 
L 563.539294 128.880724 
L 564.042374 128.554955 
L 566.557776 127.758633 
L 568.067017 126.889917 
L 568.570098 126.781327 
L 571.0855 125.442057 
L 572.594741 124.79052 
L 573.097821 124.428555 
L 574.103982 124.102787 
L 575.110143 123.523643 
L 575.613223 123.34266 
L 576.116304 122.980695 
L 582.656349 120.700316 
L 583.159429 120.591727 
L 583.662509 120.265958 
L 585.674831 119.867797 
L 586.680992 119.469635 
L 587.184072 119.180063 
L 587.687153 119.035277 
L 589.699474 117.985579 
L 590.202554 117.913186 
L 591.711796 117.080666 
L 593.221037 116.573916 
L 596.7426 115.162252 
L 597.24568 115.017466 
L 597.74876 114.691698 
L 598.754921 114.583108 
L 599.258002 114.25734 
L 600.264162 114.076357 
L 601.270323 113.605803 
L 601.773403 113.388624 
L 602.276484 113.316231 
L 604.791886 112.338926 
L 606.301127 111.940764 
L 607.307288 111.687389 
L 608.816529 111.253031 
L 609.82269 110.854869 
L 611.835011 109.768974 
L 612.841172 109.370813 
L 613.344252 109.045045 
L 614.350413 108.827866 
L 614.853494 108.538294 
L 615.356574 108.429704 
L 616.865815 107.597185 
L 617.871976 107.199023 
L 619.884298 106.438897 
L 622.399699 105.606377 
L 623.40586 105.099627 
L 625.921262 104.267107 
L 627.430503 103.72416 
L 627.933584 103.579374 
L 628.939745 103.036426 
L 630.952066 102.131514 
L 635.98287 100.2131 
L 636.48595 99.887331 
L 638.498272 99.199598 
L 639.001352 99.199598 
L 640.007513 98.76524 
L 641.013674 97.860327 
L 641.516754 97.42597 
L 643.025995 96.70204 
L 643.529076 96.59345 
L 644.032156 96.340075 
L 644.535237 96.267682 
L 645.038317 95.905717 
L 645.541397 95.797127 
L 646.547558 95.181787 
L 648.056799 94.42166 
L 649.06296 94.023499 
L 649.566041 93.770124 
L 651.075282 93.444355 
L 653.590684 92.611836 
L 654.596844 92.286067 
L 656.106086 91.525941 
L 657.112246 91.055386 
L 658.118407 90.802011 
L 659.627648 90.114278 
L 664.155372 88.449239 
L 665.664613 87.544326 
L 666.167693 87.435737 
L 667.173854 86.928986 
L 668.180015 86.567021 
L 668.683095 86.132663 
L 669.689256 85.734502 
L 671.198497 85.119161 
L 671.701578 84.721 
L 672.204658 84.684803 
L 673.210819 84.395231 
L 674.21698 84.069463 
L 674.72006 83.816087 
L 675.22314 83.743694 
L 676.732382 83.200747 
L 678.241623 82.657799 
L 679.247784 82.259638 
L 679.750864 81.861477 
L 681.260105 81.463315 
L 681.763186 81.173743 
L 682.769346 80.920368 
L 684.278588 80.087848 
L 684.781668 80.051652 
L 686.290909 79.581097 
L 687.29707 79.508704 
L 688.303231 79.110543 
L 691.321713 78.241827 
L 692.327874 78.205631 
L 696.352517 76.938753 
L 697.358678 76.395806 
L 697.861758 75.961448 
L 699.370999 75.092732 
L 700.37716 74.477392 
L 702.389482 73.898248 
L 702.892562 73.608676 
L 703.395642 73.500086 
L 703.898723 73.101925 
L 706.917205 71.871244 
L 708.929527 71.328296 
L 709.935687 70.893939 
L 710.438768 70.640563 
L 711.444929 70.314795 
L 711.948009 69.989026 
L 712.95417 69.808044 
L 715.469572 68.649756 
L 715.972652 68.360184 
L 717.481893 67.998219 
L 718.991134 67.020914 
L 719.494215 66.948521 
L 722.009617 65.971215 
L 723.518858 65.60925 
L 724.021938 65.536857 
L 724.525019 65.319678 
L 725.028099 65.283482 
L 726.03426 64.957713 
L 726.53734 64.921517 
L 728.046582 64.342373 
L 730.058903 63.763229 
L 731.065064 63.003103 
L 733.077385 61.917208 
L 734.586627 61.410457 
L 737.605109 60.03499 
L 738.61127 59.492043 
L 739.11435 59.238667 
L 739.617431 58.768113 
L 742.132832 58.007986 
L 743.138993 57.428842 
L 745.151315 56.704912 
L 745.654395 56.234358 
L 747.163636 55.8 
L 747.163636 55.8 
" clip-path="url(#pcd9af504db)" style="fill: none; stroke: #1f77b4; stroke-width: 1.5; stroke-linecap: square"/>
   </g>
   <g id="line2d_44">
    <path d="M 138.939444 307.8 
L 143.467168 307.691411 
L 147.491811 307.510428 
L 149.504132 307.510428 
L 150.007213 307.365642 
L 152.522615 307.257053 
L 155.541097 306.931284 
L 158.559579 306.822695 
L 159.56574 306.714105 
L 163.087303 306.569319 
L 166.608866 306.46073 
L 169.124267 306.388337 
L 175.664313 306.279747 
L 178.179715 306.207354 
L 181.701277 306.098765 
L 184.216679 306.026372 
L 189.750563 305.917782 
L 191.762885 305.7368 
L 193.775207 305.700603 
L 196.793689 305.592014 
L 198.806011 305.555817 
L 201.321412 305.483424 
L 203.333734 305.302442 
L 207.861458 305.193852 
L 208.867618 305.121459 
L 210.87994 305.01287 
L 213.898422 304.90428 
L 215.910744 304.795691 
L 224.966191 304.252743 
L 228.487754 304.144154 
L 229.996995 303.999368 
L 232.512397 303.890779 
L 237.543201 303.637403 
L 242.574005 303.56501 
L 244.586326 303.347831 
L 246.598648 303.239242 
L 252.132532 302.732491 
L 255.654095 302.334329 
L 257.163336 302.261936 
L 261.691059 301.718989 
L 264.206461 301.646596 
L 265.715702 301.50181 
L 267.224944 301.39322 
L 281.311195 300.343522 
L 282.317355 300.16254 
L 285.335838 300.05395 
L 293.385124 299.583396 
L 296.906687 299.474806 
L 298.919008 299.257627 
L 301.43441 299.149038 
L 304.452893 299.040448 
L 306.968295 298.931859 
L 308.980616 298.895662 
L 311.496018 298.823269 
L 312.502179 298.678483 
L 319.545304 298.569894 
L 320.551465 298.461304 
L 326.58843 298.352715 
L 331.116153 298.135536 
L 334.637716 298.026946 
L 336.650038 297.809767 
L 340.1716 297.701178 
L 341.177761 297.520195 
L 343.693163 297.447802 
L 348.723967 297.375409 
L 351.239369 297.122034 
L 354.257851 297.013444 
L 356.270173 296.832462 
L 361.300977 296.579086 
L 366.331781 296.470497 
L 370.859504 296.253318 
L 372.368745 296.217122 
L 373.374906 296.072336 
L 375.890308 295.963746 
L 376.896469 295.891353 
L 377.90263 295.81896 
L 378.90879 295.746567 
L 383.436514 295.674174 
L 384.945755 295.565585 
L 398.528926 294.696869 
L 401.044328 294.588279 
L 403.55973 294.515886 
L 410.602855 294.407297 
L 411.609016 294.262511 
L 418.652141 294.153921 
L 423.682945 293.900546 
L 424.689106 293.864349 
L 425.695267 293.75576 
L 428.210669 293.64717 
L 430.726071 293.574777 
L 433.241473 293.466188 
L 435.756875 293.393795 
L 440.284598 293.285205 
L 443.30308 293.176616 
L 450.346206 293.068026 
L 455.88009 292.778454 
L 457.892412 292.706061 
L 459.401653 292.597472 
L 466.444778 292.488883 
L 469.463261 292.380293 
L 478.518708 292.271704 
L 480.531029 292.235507 
L 486.567994 292.163114 
L 487.574155 292.090721 
L 494.61728 291.982132 
L 496.629602 291.945935 
L 509.709692 291.837346 
L 511.218933 291.69256 
L 533.857551 291.58397 
L 536.372953 291.511577 
L 549.453043 291.402988 
L 550.459204 291.330595 
L 552.974606 291.258202 
L 554.483847 291.113416 
L 557.502329 291.004826 
L 561.023892 290.86004 
L 565.551615 290.751451 
L 568.067017 290.679058 
L 571.58858 290.570468 
L 575.613223 290.389486 
L 578.128625 290.280896 
L 580.140947 290.2447 
L 584.66867 290.13611 
L 586.680992 290.099914 
L 593.221037 289.991324 
L 595.233358 289.955128 
L 597.74876 289.846538 
L 600.767243 289.737949 
L 604.288805 289.665556 
L 605.294966 289.593163 
L 617.368896 289.484573 
L 623.908941 289.122608 
L 626.424343 289.050215 
L 627.430503 288.941626 
L 628.436664 288.869233 
L 632.461307 288.760643 
L 635.47979 288.652054 
L 640.510594 288.543465 
L 643.025995 288.290089 
L 648.056799 288.1815 
L 649.06296 288.07291 
L 654.093764 287.964321 
L 656.609166 287.891928 
L 662.14305 287.855731 
L 663.149211 287.747142 
L 668.683095 287.638552 
L 669.689256 287.566159 
L 680.757025 287.45757 
L 683.775507 287.34898 
L 691.321713 287.240391 
L 693.334035 287.204194 
L 697.861758 287.131801 
L 698.867919 287.023212 
L 704.904884 286.914622 
L 707.923366 286.806033 
L 716.978813 286.697443 
L 718.488054 286.588854 
L 719.997295 286.480264 
L 721.506536 286.371675 
L 729.052742 286.263085 
L 732.574305 286.118299 
L 745.654395 286.00971 
L 747.163636 285.937317 
L 747.163636 285.937317 
" clip-path="url(#pcd9af504db)" style="fill: none; stroke: #ff7f0e; stroke-width: 1.5; stroke-linecap: square"/>
   </g>
   <g id="patch_3">
    <path d="M 108 320.4 
L 108 43.2 
" style="fill: none; stroke: #a9a9a9; stroke-width: 0.8; stroke-linejoin: miter; stroke-linecap: square"/>
   </g>
   <g id="patch_4">
    <path d="M 777.6 320.4 
L 777.6 43.2 
" style="fill: none"/>
   </g>
   <g id="patch_5">
    <path d="M 108 320.4 
L 777.6 320.4 
" style="fill: none; stroke: #a9a9a9; stroke-width: 0.8; stroke-linejoin: miter; stroke-linecap: square"/>
   </g>
   <g id="patch_6">
    <path d="M 108 43.2 
L 777.6 43.2 
" style="fill: none"/>
   </g>
   <g id="text_22">
    <!-- get_subscribe history -->
    <g style="fill: #a9a9a9" transform="translate(378.6075 37.2) scale(0.12 -0.12)">
     <defs>
      <path id="DejaVuSans-67" d="M 2906 1791 
Q 2906 2416 2648 2759 
Q 2391 3103 1925 3103 
Q 1463 3103 1205 2759 
Q 947 2416 947 1791 
Q 947 1169 1205 825 
Q 1463 481 1925 481 
Q 2391 481 2648 825 
Q 2906 1169 2906 1791 
z
M 3481 434 
Q 3481 -459 3084 -895 
Q 2688 -1331 1869 -1331 
Q 1566 -1331 1297 -1286 
Q 1028 -1241 775 -1147 
L 775 -588 
Q 1028 -725 1275 -790 
Q 1522 -856 1778 -856 
Q 2344 -856 2625 -561 
Q 2906 -266 2906 331 
L 2906 616 
Q 2728 306 2450 153 
Q 2172 0 1784 0 
Q 1141 0 747 490 
Q 353 981 353 1791 
Q 353 2603 747 3093 
Q 1141 3584 1784 3584 
Q 2172 3584 2450 3431 
Q 2728 3278 2906 2969 
L 2906 3500 
L 3481 3500 
L 3481 434 
z
" transform="scale(0.015625)"/>
      <path id="DejaVuSans-65" d="M 3597 1894 
L 3597 1613 
L 953 1613 
Q 991 1019 1311 708 
Q 1631 397 2203 397 
Q 2534 397 2845 478 
Q 3156 559 3463 722 
L 3463 178 
Q 3153 47 2828 -22 
Q 2503 -91 2169 -91 
Q 1331 -91 842 396 
Q 353 884 353 1716 
Q 353 2575 817 3079 
Q 1281 3584 2069 3584 
Q 2775 3584 3186 3129 
Q 3597 2675 3597 1894 
z
M 3022 2063 
Q 3016 2534 2758 2815 
Q 2500 3097 2075 3097 
Q 1594 3097 1305 2825 
Q 1016 2553 972 2059 
L 3022 2063 
z
" transform="scale(0.015625)"/>
      <path id="DejaVuSans-74" d="M 1172 4494 
L 1172 3500 
L 2356 3500 
L 2356 3053 
L 1172 3053 
L 1172 1153 
Q 1172 725 1289 603 
Q 1406 481 1766 481 
L 2356 481 
L 2356 0 
L 1766 0 
Q 1100 0 847 248 
Q 594 497 594 1153 
L 594 3053 
L 172 3053 
L 172 3500 
L 594 3500 
L 594 4494 
L 1172 4494 
z
" transform="scale(0.015625)"/>
      <path id="DejaVuSans-5f" d="M 3263 -1063 
L 3263 -1509 
L -63 -1509 
L -63 -1063 
L 3263 -1063 
z
" transform="scale(0.015625)"/>
      <path id="DejaVuSans-73" d="M 2834 3397 
L 2834 2853 
Q 2591 2978 2328 3040 
Q 2066 3103 1784 3103 
Q 1356 3103 1142 2972 
Q 928 2841 928 2578 
Q 928 2378 1081 2264 
Q 1234 2150 1697 2047 
L 1894 2003 
Q 2506 1872 2764 1633 
Q 3022 1394 3022 966 
Q 3022 478 2636 193 
Q 2250 -91 1575 -91 
Q 1294 -91 989 -36 
Q 684 19 347 128 
L 347 722 
Q 666 556 975 473 
Q 1284 391 1588 391 
Q 1994 391 2212 530 
Q 2431 669 2431 922 
Q 2431 1156 2273 1281 
Q 2116 1406 1581 1522 
L 1381 1569 
Q 847 1681 609 1914 
Q 372 2147 372 2553 
Q 372 3047 722 3315 
Q 1072 3584 1716 3584 
Q 2034 3584 2315 3537 
Q 2597 3491 2834 3397 
z
" transform="scale(0.015625)"/>
      <path id="DejaVuSans-75" d="M 544 1381 
L 544 3500 
L 1119 3500 
L 1119 1403 
Q 1119 906 1312 657 
Q 1506 409 1894 409 
Q 2359 409 2629 706 
Q 2900 1003 2900 1516 
L 2900 3500 
L 3475 3500 
L 3475 0 
L 2900 0 
L 2900 538 
Q 2691 219 2414 64 
Q 2138 -91 1772 -91 
Q 1169 -91 856 284 
Q 544 659 544 1381 
z
M 1991 3584 
L 1991 3584 
z
" transform="scale(0.015625)"/>
      <path id="DejaVuSans-62" d="M 3116 1747 
Q 3116 2381 2855 2742 
Q 2594 3103 2138 3103 
Q 1681 3103 1420 2742 
Q 1159 2381 1159 1747 
Q 1159 1113 1420 752 
Q 1681 391 2138 391 
Q 2594 391 2855 752 
Q 3116 1113 3116 1747 
z
M 1159 2969 
Q 1341 3281 1617 3432 
Q 1894 3584 2278 3584 
Q 2916 3584 3314 3078 
Q 3713 2572 3713 1747 
Q 3713 922 3314 415 
Q 2916 -91 2278 -91 
Q 1894 -91 1617 61 
Q 1341 213 1159 525 
L 1159 0 
L 581 0 
L 581 4863 
L 1159 4863 
L 1159 2969 
z
" transform="scale(0.015625)"/>
      <path id="DejaVuSans-63" d="M 3122 3366 
L 3122 2828 
Q 2878 2963 2633 3030 
Q 2388 3097 2138 3097 
Q 1578 3097 1268 2742 
Q 959 2388 959 1747 
Q 959 1106 1268 751 
Q 1578 397 2138 397 
Q 2388 397 2633 464 
Q 2878 531 3122 666 
L 3122 134 
Q 2881 22 2623 -34 
Q 2366 -91 2075 -91 
Q 1284 -91 818 406 
Q 353 903 353 1747 
Q 353 2603 823 3093 
Q 1294 3584 2113 3584 
Q 2378 3584 2631 3529 
Q 2884 3475 3122 3366 
z
" transform="scale(0.015625)"/>
      <path id="DejaVuSans-72" d="M 2631 2963 
Q 2534 3019 2420 3045 
Q 2306 3072 2169 3072 
Q 1681 3072 1420 2755 
Q 1159 2438 1159 1844 
L 1159 0 
L 581 0 
L 581 3500 
L 1159 3500 
L 1159 2956 
Q 1341 3275 1631 3429 
Q 1922 3584 2338 3584 
Q 2397 3584 2469 3576 
Q 2541 3569 2628 3553 
L 2631 2963 
z
" transform="scale(0.015625)"/>
      <path id="DejaVuSans-69" d="M 603 3500 
L 1178 3500 
L 1178 0 
L 603 0 
L 603 3500 
z
M 603 4863 
L 1178 4863 
L 1178 4134 
L 603 4134 
L 603 4863 
z
" transform="scale(0.015625)"/>
      <path id="DejaVuSans-20" transform="scale(0.015625)"/>
      <path id="DejaVuSans-68" d="M 3513 2113 
L 3513 0 
L 2938 0 
L 2938 2094 
Q 2938 2591 2744 2837 
Q 2550 3084 2163 3084 
Q 1697 3084 1428 2787 
Q 1159 2491 1159 1978 
L 1159 0 
L 581 0 
L 581 4863 
L 1159 4863 
L 1159 2956 
Q 1366 3272 1645 3428 
Q 1925 3584 2291 3584 
Q 2894 3584 3203 3211 
Q 3513 2838 3513 2113 
z
" transform="scale(0.015625)"/>
      <path id="DejaVuSans-6f" d="M 1959 3097 
Q 1497 3097 1228 2736 
Q 959 2375 959 1747 
Q 959 1119 1226 758 
Q 1494 397 1959 397 
Q 2419 397 2687 759 
Q 2956 1122 2956 1747 
Q 2956 2369 2687 2733 
Q 2419 3097 1959 3097 
z
M 1959 3584 
Q 2709 3584 3137 3096 
Q 3566 2609 3566 1747 
Q 3566 888 3137 398 
Q 2709 -91 1959 -91 
Q 1206 -91 779 398 
Q 353 888 353 1747 
Q 353 2609 779 3096 
Q 1206 3584 1959 3584 
z
" transform="scale(0.015625)"/>
      <path id="DejaVuSans-79" d="M 2059 -325 
Q 1816 -950 1584 -1140 
Q 1353 -1331 966 -1331 
L 506 -1331 
L 506 -850 
L 844 -850 
Q 1081 -850 1212 -737 
Q 1344 -625 1503 -206 
L 1606 56 
L 191 3500 
L 800 3500 
L 1894 763 
L 2988 3500 
L 3597 3500 
L 2059 -325 
z
" transform="scale(0.015625)"/>
     </defs>
     <use xlink:href="#DejaVuSans-67"/>
     <use xlink:href="#DejaVuSans-65" x="63.476562"/>
     <use xlink:href="#DejaVuSans-74" x="125"/>
     <use xlink:href="#DejaVuSans-5f" x="164.208984"/>
     <use xlink:href="#DejaVuSans-73" x="214.208984"/>
     <use xlink:href="#DejaVuSans-75" x="266.308594"/>
     <use xlink:href="#DejaVuSans-62" x="329.6875"/>
     <use xlink:href="#DejaVuSans-73" x="393.164062"/>
     <use xlink:href="#DejaVuSans-63" x="445.263672"/>
     <use xlink:href="#DejaVuSans-72" x="500.244141"/>
     <use xlink:href="#DejaVuSans-69" x="541.357422"/>
     <use xlink:href="#DejaVuSans-62" x="569.140625"/>
     <use xlink:href="#DejaVuSans-65" x="632.617188"/>
     <use xlink:href="#DejaVuSans-20" x="694.140625"/>
     <use xlink:href="#DejaVuSans-68" x="725.927734"/>
     <use xlink:href="#DejaVuSans-69" x="789.306641"/>
     <use xlink:href="#DejaVuSans-73" x="817.089844"/>
     <use xlink:href="#DejaVuSans-74" x="869.189453"/>
     <use xlink:href="#DejaVuSans-6f" x="908.398438"/>
     <use xlink:href="#DejaVuSans-72" x="969.580078"/>
     <use xlink:href="#DejaVuSans-79" x="1010.693359"/>
    </g>
   </g>
   <g id="legend_1">
    <g id="line2d_45">
     <path d="M 815.08 328.498438 
L 825.08 328.498438 
L 835.08 328.498438 
" style="fill: none; stroke: #1f77b4; stroke-width: 1.5; stroke-linecap: square"/>
    </g>
    <g id="text_23">
     <!-- star -->
     <g style="fill: #a9a9a9" transform="translate(843.08 331.998438) scale(0.1 -0.1)">
      <defs>
       <path id="DejaVuSans-61" d="M 2194 1759 
Q 1497 1759 1228 1600 
Q 959 1441 959 1056 
Q 959 750 1161 570 
Q 1363 391 1709 391 
Q 2188 391 2477 730 
Q 2766 1069 2766 1631 
L 2766 1759 
L 2194 1759 
z
M 3341 1997 
L 3341 0 
L 2766 0 
L 2766 531 
Q 2569 213 2275 61 
Q 1981 -91 1556 -91 
Q 1019 -91 701 211 
Q 384 513 384 1019 
Q 384 1609 779 1909 
Q 1175 2209 1959 2209 
L 2766 2209 
L 2766 2266 
Q 2766 2663 2505 2880 
Q 2244 3097 1772 3097 
Q 1472 3097 1187 3025 
Q 903 2953 641 2809 
L 641 3341 
Q 956 3463 1253 3523 
Q 1550 3584 1831 3584 
Q 2591 3584 2966 3190 
Q 3341 2797 3341 1997 
z
" transform="scale(0.015625)"/>
      </defs>
      <use xlink:href="#DejaVuSans-73"/>
      <use xlink:href="#DejaVuSans-74" x="52.099609"/>
      <use xlink:href="#DejaVuSans-61" x="91.308594"/>
      <use xlink:href="#DejaVuSans-72" x="152.587891"/>
     </g>
    </g>
    <g id="line2d_46">
     <path d="M 815.08 343.176562 
L 825.08 343.176562 
L 835.08 343.176562 
" style="fill: none; stroke: #ff7f0e; stroke-width: 1.5; stroke-linecap: square"/>
    </g>
    <g id="text_24">
     <!-- fork -->
     <g style="fill: #a9a9a9" transform="translate(843.08 346.676562) scale(0.1 -0.1)">
      <defs>
       <path id="DejaVuSans-66" d="M 2375 4863 
L 2375 4384 
L 1825 4384 
Q 1516 4384 1395 4259 
Q 1275 4134 1275 3809 
L 1275 3500 
L 2222 3500 
L 2222 3053 
L 1275 3053 
L 1275 0 
L 697 0 
L 697 3053 
L 147 3053 
L 147 3500 
L 697 3500 
L 697 3744 
Q 697 4328 969 4595 
Q 1241 4863 1831 4863 
L 2375 4863 
z
" transform="scale(0.015625)"/>
       <path id="DejaVuSans-6b" d="M 581 4863 
L 1159 4863 
L 1159 1991 
L 2875 3500 
L 3609 3500 
L 1753 1863 
L 3688 0 
L 2938 0 
L 1159 1709 
L 1159 0 
L 581 0 
L 581 4863 
z
" transform="scale(0.015625)"/>
      </defs>
      <use xlink:href="#DejaVuSans-66"/>
      <use xlink:href="#DejaVuSans-6f" x="35.205078"/>
      <use xlink:href="#DejaVuSans-72" x="96.386719"/>
      <use xlink:href="#DejaVuSans-6b" x="137.5"/>
     </g>
    </g>
   </g>
  </g>
 </g>
 <defs>
  <clipPath id="pcd9af504db">
   <rect x="108" y="43.2" width="669.6" height="277.2"/>
  </clipPath>
 </defs>
</svg>
