<?xml version="1.0" encoding="utf-8" standalone="no"?>
<!DOCTYPE svg PUBLIC "-//W3C//DTD SVG 1.1//EN"
  "http://www.w3.org/Graphics/SVG/1.1/DTD/svg11.dtd">
<svg xmlns:xlink="http://www.w3.org/1999/xlink" width="864pt" height="360pt" viewBox="0 0 864 360" xmlns="http://www.w3.org/2000/svg" version="1.1">
 <metadata>
  <rdf:RDF xmlns:dc="http://purl.org/dc/elements/1.1/" xmlns:cc="http://creativecommons.org/ns#" xmlns:rdf="http://www.w3.org/1999/02/22-rdf-syntax-ns#">
   <cc:Work>
    <dc:type rdf:resource="http://purl.org/dc/dcmitype/StillImage"/>
    <dc:date>2024-11-13T08:13:30.578852</dc:date>
    <dc:format>image/svg+xml</dc:format>
    <dc:creator>
     <cc:Agent>
      <dc:title>Matplotlib v3.9.2, https://matplotlib.org/</dc:title>
     </cc:Agent>
    </dc:creator>
   </cc:Work>
  </rdf:RDF>
 </metadata>
 <defs>
  <style type="text/css">*{stroke-linejoin: round; stroke-linecap: butt}</style>
 </defs>
 <g id="figure_1">
  <g id="patch_1">
   <path d="M 0 360 
L 864 360 
L 864 0 
L 0 0 
L 0 360 
z
" style="fill: none; opacity: 0"/>
  </g>
  <g id="axes_1">
   <g id="patch_2">
    <path d="M 108 320.4 
L 777.6 320.4 
L 777.6 43.2 
L 108 43.2 
L 108 320.4 
z
" style="fill: none; opacity: 0"/>
   </g>
   <g id="matplotlib.axis_1">
    <g id="xtick_1">
     <g id="line2d_1">
      <path d="M 158.088983 320.4 
L 158.088983 43.2 
" clip-path="url(#p4b3f31a3c3)" style="fill: none; stroke-dasharray: 5.12,1.28,0.8,1.28; stroke-dashoffset: 0; stroke: #b0b0b0; stroke-width: 0.8"/>
     </g>
     <g id="line2d_2">
      <defs>
       <path id="m07d1123146" d="M 0 0 
L 0 3.5 
" style="stroke: #a9a9a9; stroke-width: 0.8"/>
      </defs>
      <g>
       <use xlink:href="#m07d1123146" x="158.088983" y="320.4" style="fill: #a9a9a9; stroke: #a9a9a9; stroke-width: 0.8"/>
      </g>
     </g>
     <g id="text_1">
      <!-- 2021-09 -->
      <g style="fill: #a9a9a9" transform="translate(137.197576 334.998438) scale(0.1 -0.1)">
       <defs>
        <path id="DejaVuSans-32" d="M 1228 531 
L 3431 531 
L 3431 0 
L 469 0 
L 469 531 
Q 828 903 1448 1529 
Q 2069 2156 2228 2338 
Q 2531 2678 2651 2914 
Q 2772 3150 2772 3378 
Q 2772 3750 2511 3984 
Q 2250 4219 1831 4219 
Q 1534 4219 1204 4116 
Q 875 4013 500 3803 
L 500 4441 
Q 881 4594 1212 4672 
Q 1544 4750 1819 4750 
Q 2544 4750 2975 4387 
Q 3406 4025 3406 3419 
Q 3406 3131 3298 2873 
Q 3191 2616 2906 2266 
Q 2828 2175 2409 1742 
Q 1991 1309 1228 531 
z
" transform="scale(0.015625)"/>
        <path id="DejaVuSans-30" d="M 2034 4250 
Q 1547 4250 1301 3770 
Q 1056 3291 1056 2328 
Q 1056 1369 1301 889 
Q 1547 409 2034 409 
Q 2525 409 2770 889 
Q 3016 1369 3016 2328 
Q 3016 3291 2770 3770 
Q 2525 4250 2034 4250 
z
M 2034 4750 
Q 2819 4750 3233 4129 
Q 3647 3509 3647 2328 
Q 3647 1150 3233 529 
Q 2819 -91 2034 -91 
Q 1250 -91 836 529 
Q 422 1150 422 2328 
Q 422 3509 836 4129 
Q 1250 4750 2034 4750 
z
" transform="scale(0.015625)"/>
        <path id="DejaVuSans-31" d="M 794 531 
L 1825 531 
L 1825 4091 
L 703 3866 
L 703 4441 
L 1819 4666 
L 2450 4666 
L 2450 531 
L 3481 531 
L 3481 0 
L 794 0 
L 794 531 
z
" transform="scale(0.015625)"/>
        <path id="DejaVuSans-2d" d="M 313 2009 
L 1997 2009 
L 1997 1497 
L 313 1497 
L 313 2009 
z
" transform="scale(0.015625)"/>
        <path id="DejaVuSans-39" d="M 703 97 
L 703 672 
Q 941 559 1184 500 
Q 1428 441 1663 441 
Q 2288 441 2617 861 
Q 2947 1281 2994 2138 
Q 2813 1869 2534 1725 
Q 2256 1581 1919 1581 
Q 1219 1581 811 2004 
Q 403 2428 403 3163 
Q 403 3881 828 4315 
Q 1253 4750 1959 4750 
Q 2769 4750 3195 4129 
Q 3622 3509 3622 2328 
Q 3622 1225 3098 567 
Q 2575 -91 1691 -91 
Q 1453 -91 1209 -44 
Q 966 3 703 97 
z
M 1959 2075 
Q 2384 2075 2632 2365 
Q 2881 2656 2881 3163 
Q 2881 3666 2632 3958 
Q 2384 4250 1959 4250 
Q 1534 4250 1286 3958 
Q 1038 3666 1038 3163 
Q 1038 2656 1286 2365 
Q 1534 2075 1959 2075 
z
" transform="scale(0.015625)"/>
       </defs>
       <use xlink:href="#DejaVuSans-32"/>
       <use xlink:href="#DejaVuSans-30" x="63.623047"/>
       <use xlink:href="#DejaVuSans-32" x="127.246094"/>
       <use xlink:href="#DejaVuSans-31" x="190.869141"/>
       <use xlink:href="#DejaVuSans-2d" x="254.492188"/>
       <use xlink:href="#DejaVuSans-30" x="290.576172"/>
       <use xlink:href="#DejaVuSans-39" x="354.199219"/>
      </g>
     </g>
    </g>
    <g id="xtick_2">
     <g id="line2d_3">
      <path d="M 219.566406 320.4 
L 219.566406 43.2 
" clip-path="url(#p4b3f31a3c3)" style="fill: none; stroke-dasharray: 5.12,1.28,0.8,1.28; stroke-dashoffset: 0; stroke: #b0b0b0; stroke-width: 0.8"/>
     </g>
     <g id="line2d_4">
      <g>
       <use xlink:href="#m07d1123146" x="219.566406" y="320.4" style="fill: #a9a9a9; stroke: #a9a9a9; stroke-width: 0.8"/>
      </g>
     </g>
     <g id="text_2">
      <!-- 2022-01 -->
      <g style="fill: #a9a9a9" transform="translate(198.675 334.998438) scale(0.1 -0.1)">
       <use xlink:href="#DejaVuSans-32"/>
       <use xlink:href="#DejaVuSans-30" x="63.623047"/>
       <use xlink:href="#DejaVuSans-32" x="127.246094"/>
       <use xlink:href="#DejaVuSans-32" x="190.869141"/>
       <use xlink:href="#DejaVuSans-2d" x="254.492188"/>
       <use xlink:href="#DejaVuSans-30" x="290.576172"/>
       <use xlink:href="#DejaVuSans-31" x="354.199219"/>
      </g>
     </g>
    </g>
    <g id="xtick_3">
     <g id="line2d_5">
      <path d="M 280.036002 320.4 
L 280.036002 43.2 
" clip-path="url(#p4b3f31a3c3)" style="fill: none; stroke-dasharray: 5.12,1.28,0.8,1.28; stroke-dashoffset: 0; stroke: #b0b0b0; stroke-width: 0.8"/>
     </g>
     <g id="line2d_6">
      <g>
       <use xlink:href="#m07d1123146" x="280.036002" y="320.4" style="fill: #a9a9a9; stroke: #a9a9a9; stroke-width: 0.8"/>
      </g>
     </g>
     <g id="text_3">
      <!-- 2022-05 -->
      <g style="fill: #a9a9a9" transform="translate(259.144596 334.998438) scale(0.1 -0.1)">
       <defs>
        <path id="DejaVuSans-35" d="M 691 4666 
L 3169 4666 
L 3169 4134 
L 1269 4134 
L 1269 2991 
Q 1406 3038 1543 3061 
Q 1681 3084 1819 3084 
Q 2600 3084 3056 2656 
Q 3513 2228 3513 1497 
Q 3513 744 3044 326 
Q 2575 -91 1722 -91 
Q 1428 -91 1123 -41 
Q 819 9 494 109 
L 494 744 
Q 775 591 1075 516 
Q 1375 441 1709 441 
Q 2250 441 2565 725 
Q 2881 1009 2881 1497 
Q 2881 1984 2565 2268 
Q 2250 2553 1709 2553 
Q 1456 2553 1204 2497 
Q 953 2441 691 2322 
L 691 4666 
z
" transform="scale(0.015625)"/>
       </defs>
       <use xlink:href="#DejaVuSans-32"/>
       <use xlink:href="#DejaVuSans-30" x="63.623047"/>
       <use xlink:href="#DejaVuSans-32" x="127.246094"/>
       <use xlink:href="#DejaVuSans-32" x="190.869141"/>
       <use xlink:href="#DejaVuSans-2d" x="254.492188"/>
       <use xlink:href="#DejaVuSans-30" x="290.576172"/>
       <use xlink:href="#DejaVuSans-35" x="354.199219"/>
      </g>
     </g>
    </g>
    <g id="xtick_4">
     <g id="line2d_7">
      <path d="M 342.017339 320.4 
L 342.017339 43.2 
" clip-path="url(#p4b3f31a3c3)" style="fill: none; stroke-dasharray: 5.12,1.28,0.8,1.28; stroke-dashoffset: 0; stroke: #b0b0b0; stroke-width: 0.8"/>
     </g>
     <g id="line2d_8">
      <g>
       <use xlink:href="#m07d1123146" x="342.017339" y="320.4" style="fill: #a9a9a9; stroke: #a9a9a9; stroke-width: 0.8"/>
      </g>
     </g>
     <g id="text_4">
      <!-- 2022-09 -->
      <g style="fill: #a9a9a9" transform="translate(321.125933 334.998438) scale(0.1 -0.1)">
       <use xlink:href="#DejaVuSans-32"/>
       <use xlink:href="#DejaVuSans-30" x="63.623047"/>
       <use xlink:href="#DejaVuSans-32" x="127.246094"/>
       <use xlink:href="#DejaVuSans-32" x="190.869141"/>
       <use xlink:href="#DejaVuSans-2d" x="254.492188"/>
       <use xlink:href="#DejaVuSans-30" x="290.576172"/>
       <use xlink:href="#DejaVuSans-39" x="354.199219"/>
      </g>
     </g>
    </g>
    <g id="xtick_5">
     <g id="line2d_9">
      <path d="M 403.494762 320.4 
L 403.494762 43.2 
" clip-path="url(#p4b3f31a3c3)" style="fill: none; stroke-dasharray: 5.12,1.28,0.8,1.28; stroke-dashoffset: 0; stroke: #b0b0b0; stroke-width: 0.8"/>
     </g>
     <g id="line2d_10">
      <g>
       <use xlink:href="#m07d1123146" x="403.494762" y="320.4" style="fill: #a9a9a9; stroke: #a9a9a9; stroke-width: 0.8"/>
      </g>
     </g>
     <g id="text_5">
      <!-- 2023-01 -->
      <g style="fill: #a9a9a9" transform="translate(382.603356 334.998438) scale(0.1 -0.1)">
       <defs>
        <path id="DejaVuSans-33" d="M 2597 2516 
Q 3050 2419 3304 2112 
Q 3559 1806 3559 1356 
Q 3559 666 3084 287 
Q 2609 -91 1734 -91 
Q 1441 -91 1130 -33 
Q 819 25 488 141 
L 488 750 
Q 750 597 1062 519 
Q 1375 441 1716 441 
Q 2309 441 2620 675 
Q 2931 909 2931 1356 
Q 2931 1769 2642 2001 
Q 2353 2234 1838 2234 
L 1294 2234 
L 1294 2753 
L 1863 2753 
Q 2328 2753 2575 2939 
Q 2822 3125 2822 3475 
Q 2822 3834 2567 4026 
Q 2313 4219 1838 4219 
Q 1578 4219 1281 4162 
Q 984 4106 628 3988 
L 628 4550 
Q 988 4650 1302 4700 
Q 1616 4750 1894 4750 
Q 2613 4750 3031 4423 
Q 3450 4097 3450 3541 
Q 3450 3153 3228 2886 
Q 3006 2619 2597 2516 
z
" transform="scale(0.015625)"/>
       </defs>
       <use xlink:href="#DejaVuSans-32"/>
       <use xlink:href="#DejaVuSans-30" x="63.623047"/>
       <use xlink:href="#DejaVuSans-32" x="127.246094"/>
       <use xlink:href="#DejaVuSans-33" x="190.869141"/>
       <use xlink:href="#DejaVuSans-2d" x="254.492188"/>
       <use xlink:href="#DejaVuSans-30" x="290.576172"/>
       <use xlink:href="#DejaVuSans-31" x="354.199219"/>
      </g>
     </g>
    </g>
    <g id="xtick_6">
     <g id="line2d_11">
      <path d="M 463.964359 320.4 
L 463.964359 43.2 
" clip-path="url(#p4b3f31a3c3)" style="fill: none; stroke-dasharray: 5.12,1.28,0.8,1.28; stroke-dashoffset: 0; stroke: #b0b0b0; stroke-width: 0.8"/>
     </g>
     <g id="line2d_12">
      <g>
       <use xlink:href="#m07d1123146" x="463.964359" y="320.4" style="fill: #a9a9a9; stroke: #a9a9a9; stroke-width: 0.8"/>
      </g>
     </g>
     <g id="text_6">
      <!-- 2023-05 -->
      <g style="fill: #a9a9a9" transform="translate(443.072953 334.998438) scale(0.1 -0.1)">
       <use xlink:href="#DejaVuSans-32"/>
       <use xlink:href="#DejaVuSans-30" x="63.623047"/>
       <use xlink:href="#DejaVuSans-32" x="127.246094"/>
       <use xlink:href="#DejaVuSans-33" x="190.869141"/>
       <use xlink:href="#DejaVuSans-2d" x="254.492188"/>
       <use xlink:href="#DejaVuSans-30" x="290.576172"/>
       <use xlink:href="#DejaVuSans-35" x="354.199219"/>
      </g>
     </g>
    </g>
    <g id="xtick_7">
     <g id="line2d_13">
      <path d="M 525.945695 320.4 
L 525.945695 43.2 
" clip-path="url(#p4b3f31a3c3)" style="fill: none; stroke-dasharray: 5.12,1.28,0.8,1.28; stroke-dashoffset: 0; stroke: #b0b0b0; stroke-width: 0.8"/>
     </g>
     <g id="line2d_14">
      <g>
       <use xlink:href="#m07d1123146" x="525.945695" y="320.4" style="fill: #a9a9a9; stroke: #a9a9a9; stroke-width: 0.8"/>
      </g>
     </g>
     <g id="text_7">
      <!-- 2023-09 -->
      <g style="fill: #a9a9a9" transform="translate(505.054289 334.998438) scale(0.1 -0.1)">
       <use xlink:href="#DejaVuSans-32"/>
       <use xlink:href="#DejaVuSans-30" x="63.623047"/>
       <use xlink:href="#DejaVuSans-32" x="127.246094"/>
       <use xlink:href="#DejaVuSans-33" x="190.869141"/>
       <use xlink:href="#DejaVuSans-2d" x="254.492188"/>
       <use xlink:href="#DejaVuSans-30" x="290.576172"/>
       <use xlink:href="#DejaVuSans-39" x="354.199219"/>
      </g>
     </g>
    </g>
    <g id="xtick_8">
     <g id="line2d_15">
      <path d="M 587.423119 320.4 
L 587.423119 43.2 
" clip-path="url(#p4b3f31a3c3)" style="fill: none; stroke-dasharray: 5.12,1.28,0.8,1.28; stroke-dashoffset: 0; stroke: #b0b0b0; stroke-width: 0.8"/>
     </g>
     <g id="line2d_16">
      <g>
       <use xlink:href="#m07d1123146" x="587.423119" y="320.4" style="fill: #a9a9a9; stroke: #a9a9a9; stroke-width: 0.8"/>
      </g>
     </g>
     <g id="text_8">
      <!-- 2024-01 -->
      <g style="fill: #a9a9a9" transform="translate(566.531712 334.998438) scale(0.1 -0.1)">
       <defs>
        <path id="DejaVuSans-34" d="M 2419 4116 
L 825 1625 
L 2419 1625 
L 2419 4116 
z
M 2253 4666 
L 3047 4666 
L 3047 1625 
L 3713 1625 
L 3713 1100 
L 3047 1100 
L 3047 0 
L 2419 0 
L 2419 1100 
L 313 1100 
L 313 1709 
L 2253 4666 
z
" transform="scale(0.015625)"/>
       </defs>
       <use xlink:href="#DejaVuSans-32"/>
       <use xlink:href="#DejaVuSans-30" x="63.623047"/>
       <use xlink:href="#DejaVuSans-32" x="127.246094"/>
       <use xlink:href="#DejaVuSans-34" x="190.869141"/>
       <use xlink:href="#DejaVuSans-2d" x="254.492188"/>
       <use xlink:href="#DejaVuSans-30" x="290.576172"/>
       <use xlink:href="#DejaVuSans-31" x="354.199219"/>
      </g>
     </g>
    </g>
    <g id="xtick_9">
     <g id="line2d_17">
      <path d="M 648.396629 320.4 
L 648.396629 43.2 
" clip-path="url(#p4b3f31a3c3)" style="fill: none; stroke-dasharray: 5.12,1.28,0.8,1.28; stroke-dashoffset: 0; stroke: #b0b0b0; stroke-width: 0.8"/>
     </g>
     <g id="line2d_18">
      <g>
       <use xlink:href="#m07d1123146" x="648.396629" y="320.4" style="fill: #a9a9a9; stroke: #a9a9a9; stroke-width: 0.8"/>
      </g>
     </g>
     <g id="text_9">
      <!-- 2024-05 -->
      <g style="fill: #a9a9a9" transform="translate(627.505222 334.998438) scale(0.1 -0.1)">
       <use xlink:href="#DejaVuSans-32"/>
       <use xlink:href="#DejaVuSans-30" x="63.623047"/>
       <use xlink:href="#DejaVuSans-32" x="127.246094"/>
       <use xlink:href="#DejaVuSans-34" x="190.869141"/>
       <use xlink:href="#DejaVuSans-2d" x="254.492188"/>
       <use xlink:href="#DejaVuSans-30" x="290.576172"/>
       <use xlink:href="#DejaVuSans-35" x="354.199219"/>
      </g>
     </g>
    </g>
    <g id="xtick_10">
     <g id="line2d_19">
      <path d="M 710.377965 320.4 
L 710.377965 43.2 
" clip-path="url(#p4b3f31a3c3)" style="fill: none; stroke-dasharray: 5.12,1.28,0.8,1.28; stroke-dashoffset: 0; stroke: #b0b0b0; stroke-width: 0.8"/>
     </g>
     <g id="line2d_20">
      <g>
       <use xlink:href="#m07d1123146" x="710.377965" y="320.4" style="fill: #a9a9a9; stroke: #a9a9a9; stroke-width: 0.8"/>
      </g>
     </g>
     <g id="text_10">
      <!-- 2024-09 -->
      <g style="fill: #a9a9a9" transform="translate(689.486559 334.998438) scale(0.1 -0.1)">
       <use xlink:href="#DejaVuSans-32"/>
       <use xlink:href="#DejaVuSans-30" x="63.623047"/>
       <use xlink:href="#DejaVuSans-32" x="127.246094"/>
       <use xlink:href="#DejaVuSans-34" x="190.869141"/>
       <use xlink:href="#DejaVuSans-2d" x="254.492188"/>
       <use xlink:href="#DejaVuSans-30" x="290.576172"/>
       <use xlink:href="#DejaVuSans-39" x="354.199219"/>
      </g>
     </g>
    </g>
    <g id="xtick_11">
     <g id="line2d_21">
      <path d="M 771.855388 320.4 
L 771.855388 43.2 
" clip-path="url(#p4b3f31a3c3)" style="fill: none; stroke-dasharray: 5.12,1.28,0.8,1.28; stroke-dashoffset: 0; stroke: #b0b0b0; stroke-width: 0.8"/>
     </g>
     <g id="line2d_22">
      <g>
       <use xlink:href="#m07d1123146" x="771.855388" y="320.4" style="fill: #a9a9a9; stroke: #a9a9a9; stroke-width: 0.8"/>
      </g>
     </g>
     <g id="text_11">
      <!-- 2025-01 -->
      <g style="fill: #a9a9a9" transform="translate(750.963982 334.998438) scale(0.1 -0.1)">
       <use xlink:href="#DejaVuSans-32"/>
       <use xlink:href="#DejaVuSans-30" x="63.623047"/>
       <use xlink:href="#DejaVuSans-32" x="127.246094"/>
       <use xlink:href="#DejaVuSans-35" x="190.869141"/>
       <use xlink:href="#DejaVuSans-2d" x="254.492188"/>
       <use xlink:href="#DejaVuSans-30" x="290.576172"/>
       <use xlink:href="#DejaVuSans-31" x="354.199219"/>
      </g>
     </g>
    </g>
   </g>
   <g id="matplotlib.axis_2">
    <g id="ytick_1">
     <g id="line2d_23">
      <path d="M 108 307.836238 
L 777.6 307.836238 
" clip-path="url(#p4b3f31a3c3)" style="fill: none; stroke-dasharray: 5.12,1.28,0.8,1.28; stroke-dashoffset: 0; stroke: #b0b0b0; stroke-width: 0.8"/>
     </g>
     <g id="line2d_24">
      <defs>
       <path id="m554b8ede04" d="M 0 0 
L -3.5 0 
" style="stroke: #a9a9a9; stroke-width: 0.8"/>
      </defs>
      <g>
       <use xlink:href="#m554b8ede04" x="108" y="307.836238" style="fill: #a9a9a9; stroke: #a9a9a9; stroke-width: 0.8"/>
      </g>
     </g>
     <g id="text_12">
      <!-- 0 -->
      <g style="fill: #a9a9a9" transform="translate(94.6375 311.635457) scale(0.1 -0.1)">
       <use xlink:href="#DejaVuSans-30"/>
      </g>
     </g>
    </g>
    <g id="ytick_2">
     <g id="line2d_25">
      <path d="M 108 278.845729 
L 777.6 278.845729 
" clip-path="url(#p4b3f31a3c3)" style="fill: none; stroke-dasharray: 5.12,1.28,0.8,1.28; stroke-dashoffset: 0; stroke: #b0b0b0; stroke-width: 0.8"/>
     </g>
     <g id="line2d_26">
      <g>
       <use xlink:href="#m554b8ede04" x="108" y="278.845729" style="fill: #a9a9a9; stroke: #a9a9a9; stroke-width: 0.8"/>
      </g>
     </g>
     <g id="text_13">
      <!-- 800 -->
      <g style="fill: #a9a9a9" transform="translate(81.9125 282.644948) scale(0.1 -0.1)">
       <defs>
        <path id="DejaVuSans-38" d="M 2034 2216 
Q 1584 2216 1326 1975 
Q 1069 1734 1069 1313 
Q 1069 891 1326 650 
Q 1584 409 2034 409 
Q 2484 409 2743 651 
Q 3003 894 3003 1313 
Q 3003 1734 2745 1975 
Q 2488 2216 2034 2216 
z
M 1403 2484 
Q 997 2584 770 2862 
Q 544 3141 544 3541 
Q 544 4100 942 4425 
Q 1341 4750 2034 4750 
Q 2731 4750 3128 4425 
Q 3525 4100 3525 3541 
Q 3525 3141 3298 2862 
Q 3072 2584 2669 2484 
Q 3125 2378 3379 2068 
Q 3634 1759 3634 1313 
Q 3634 634 3220 271 
Q 2806 -91 2034 -91 
Q 1263 -91 848 271 
Q 434 634 434 1313 
Q 434 1759 690 2068 
Q 947 2378 1403 2484 
z
M 1172 3481 
Q 1172 3119 1398 2916 
Q 1625 2713 2034 2713 
Q 2441 2713 2670 2916 
Q 2900 3119 2900 3481 
Q 2900 3844 2670 4047 
Q 2441 4250 2034 4250 
Q 1625 4250 1398 4047 
Q 1172 3844 1172 3481 
z
" transform="scale(0.015625)"/>
       </defs>
       <use xlink:href="#DejaVuSans-38"/>
       <use xlink:href="#DejaVuSans-30" x="63.623047"/>
       <use xlink:href="#DejaVuSans-30" x="127.246094"/>
      </g>
     </g>
    </g>
    <g id="ytick_3">
     <g id="line2d_27">
      <path d="M 108 249.85522 
L 777.6 249.85522 
" clip-path="url(#p4b3f31a3c3)" style="fill: none; stroke-dasharray: 5.12,1.28,0.8,1.28; stroke-dashoffset: 0; stroke: #b0b0b0; stroke-width: 0.8"/>
     </g>
     <g id="line2d_28">
      <g>
       <use xlink:href="#m554b8ede04" x="108" y="249.85522" style="fill: #a9a9a9; stroke: #a9a9a9; stroke-width: 0.8"/>
      </g>
     </g>
     <g id="text_14">
      <!-- 1600 -->
      <g style="fill: #a9a9a9" transform="translate(75.55 253.654439) scale(0.1 -0.1)">
       <defs>
        <path id="DejaVuSans-36" d="M 2113 2584 
Q 1688 2584 1439 2293 
Q 1191 2003 1191 1497 
Q 1191 994 1439 701 
Q 1688 409 2113 409 
Q 2538 409 2786 701 
Q 3034 994 3034 1497 
Q 3034 2003 2786 2293 
Q 2538 2584 2113 2584 
z
M 3366 4563 
L 3366 3988 
Q 3128 4100 2886 4159 
Q 2644 4219 2406 4219 
Q 1781 4219 1451 3797 
Q 1122 3375 1075 2522 
Q 1259 2794 1537 2939 
Q 1816 3084 2150 3084 
Q 2853 3084 3261 2657 
Q 3669 2231 3669 1497 
Q 3669 778 3244 343 
Q 2819 -91 2113 -91 
Q 1303 -91 875 529 
Q 447 1150 447 2328 
Q 447 3434 972 4092 
Q 1497 4750 2381 4750 
Q 2619 4750 2861 4703 
Q 3103 4656 3366 4563 
z
" transform="scale(0.015625)"/>
       </defs>
       <use xlink:href="#DejaVuSans-31"/>
       <use xlink:href="#DejaVuSans-36" x="63.623047"/>
       <use xlink:href="#DejaVuSans-30" x="127.246094"/>
       <use xlink:href="#DejaVuSans-30" x="190.869141"/>
      </g>
     </g>
    </g>
    <g id="ytick_4">
     <g id="line2d_29">
      <path d="M 108 220.864711 
L 777.6 220.864711 
" clip-path="url(#p4b3f31a3c3)" style="fill: none; stroke-dasharray: 5.12,1.28,0.8,1.28; stroke-dashoffset: 0; stroke: #b0b0b0; stroke-width: 0.8"/>
     </g>
     <g id="line2d_30">
      <g>
       <use xlink:href="#m554b8ede04" x="108" y="220.864711" style="fill: #a9a9a9; stroke: #a9a9a9; stroke-width: 0.8"/>
      </g>
     </g>
     <g id="text_15">
      <!-- 2400 -->
      <g style="fill: #a9a9a9" transform="translate(75.55 224.66393) scale(0.1 -0.1)">
       <use xlink:href="#DejaVuSans-32"/>
       <use xlink:href="#DejaVuSans-34" x="63.623047"/>
       <use xlink:href="#DejaVuSans-30" x="127.246094"/>
       <use xlink:href="#DejaVuSans-30" x="190.869141"/>
      </g>
     </g>
    </g>
    <g id="ytick_5">
     <g id="line2d_31">
      <path d="M 108 191.874202 
L 777.6 191.874202 
" clip-path="url(#p4b3f31a3c3)" style="fill: none; stroke-dasharray: 5.12,1.28,0.8,1.28; stroke-dashoffset: 0; stroke: #b0b0b0; stroke-width: 0.8"/>
     </g>
     <g id="line2d_32">
      <g>
       <use xlink:href="#m554b8ede04" x="108" y="191.874202" style="fill: #a9a9a9; stroke: #a9a9a9; stroke-width: 0.8"/>
      </g>
     </g>
     <g id="text_16">
      <!-- 3200 -->
      <g style="fill: #a9a9a9" transform="translate(75.55 195.673421) scale(0.1 -0.1)">
       <use xlink:href="#DejaVuSans-33"/>
       <use xlink:href="#DejaVuSans-32" x="63.623047"/>
       <use xlink:href="#DejaVuSans-30" x="127.246094"/>
       <use xlink:href="#DejaVuSans-30" x="190.869141"/>
      </g>
     </g>
    </g>
    <g id="ytick_6">
     <g id="line2d_33">
      <path d="M 108 162.883693 
L 777.6 162.883693 
" clip-path="url(#p4b3f31a3c3)" style="fill: none; stroke-dasharray: 5.12,1.28,0.8,1.28; stroke-dashoffset: 0; stroke: #b0b0b0; stroke-width: 0.8"/>
     </g>
     <g id="line2d_34">
      <g>
       <use xlink:href="#m554b8ede04" x="108" y="162.883693" style="fill: #a9a9a9; stroke: #a9a9a9; stroke-width: 0.8"/>
      </g>
     </g>
     <g id="text_17">
      <!-- 4000 -->
      <g style="fill: #a9a9a9" transform="translate(75.55 166.682912) scale(0.1 -0.1)">
       <use xlink:href="#DejaVuSans-34"/>
       <use xlink:href="#DejaVuSans-30" x="63.623047"/>
       <use xlink:href="#DejaVuSans-30" x="127.246094"/>
       <use xlink:href="#DejaVuSans-30" x="190.869141"/>
      </g>
     </g>
    </g>
    <g id="ytick_7">
     <g id="line2d_35">
      <path d="M 108 133.893184 
L 777.6 133.893184 
" clip-path="url(#p4b3f31a3c3)" style="fill: none; stroke-dasharray: 5.12,1.28,0.8,1.28; stroke-dashoffset: 0; stroke: #b0b0b0; stroke-width: 0.8"/>
     </g>
     <g id="line2d_36">
      <g>
       <use xlink:href="#m554b8ede04" x="108" y="133.893184" style="fill: #a9a9a9; stroke: #a9a9a9; stroke-width: 0.8"/>
      </g>
     </g>
     <g id="text_18">
      <!-- 4800 -->
      <g style="fill: #a9a9a9" transform="translate(75.55 137.692403) scale(0.1 -0.1)">
       <use xlink:href="#DejaVuSans-34"/>
       <use xlink:href="#DejaVuSans-38" x="63.623047"/>
       <use xlink:href="#DejaVuSans-30" x="127.246094"/>
       <use xlink:href="#DejaVuSans-30" x="190.869141"/>
      </g>
     </g>
    </g>
    <g id="ytick_8">
     <g id="line2d_37">
      <path d="M 108 104.902675 
L 777.6 104.902675 
" clip-path="url(#p4b3f31a3c3)" style="fill: none; stroke-dasharray: 5.12,1.28,0.8,1.28; stroke-dashoffset: 0; stroke: #b0b0b0; stroke-width: 0.8"/>
     </g>
     <g id="line2d_38">
      <g>
       <use xlink:href="#m554b8ede04" x="108" y="104.902675" style="fill: #a9a9a9; stroke: #a9a9a9; stroke-width: 0.8"/>
      </g>
     </g>
     <g id="text_19">
      <!-- 5600 -->
      <g style="fill: #a9a9a9" transform="translate(75.55 108.701893) scale(0.1 -0.1)">
       <use xlink:href="#DejaVuSans-35"/>
       <use xlink:href="#DejaVuSans-36" x="63.623047"/>
       <use xlink:href="#DejaVuSans-30" x="127.246094"/>
       <use xlink:href="#DejaVuSans-30" x="190.869141"/>
      </g>
     </g>
    </g>
    <g id="ytick_9">
     <g id="line2d_39">
      <path d="M 108 75.912166 
L 777.6 75.912166 
" clip-path="url(#p4b3f31a3c3)" style="fill: none; stroke-dasharray: 5.12,1.28,0.8,1.28; stroke-dashoffset: 0; stroke: #b0b0b0; stroke-width: 0.8"/>
     </g>
     <g id="line2d_40">
      <g>
       <use xlink:href="#m554b8ede04" x="108" y="75.912166" style="fill: #a9a9a9; stroke: #a9a9a9; stroke-width: 0.8"/>
      </g>
     </g>
     <g id="text_20">
      <!-- 6400 -->
      <g style="fill: #a9a9a9" transform="translate(75.55 79.711384) scale(0.1 -0.1)">
       <use xlink:href="#DejaVuSans-36"/>
       <use xlink:href="#DejaVuSans-34" x="63.623047"/>
       <use xlink:href="#DejaVuSans-30" x="127.246094"/>
       <use xlink:href="#DejaVuSans-30" x="190.869141"/>
      </g>
     </g>
    </g>
    <g id="ytick_10">
     <g id="line2d_41">
      <path d="M 108 46.921657 
L 777.6 46.921657 
" clip-path="url(#p4b3f31a3c3)" style="fill: none; stroke-dasharray: 5.12,1.28,0.8,1.28; stroke-dashoffset: 0; stroke: #b0b0b0; stroke-width: 0.8"/>
     </g>
     <g id="line2d_42">
      <g>
       <use xlink:href="#m554b8ede04" x="108" y="46.921657" style="fill: #a9a9a9; stroke: #a9a9a9; stroke-width: 0.8"/>
      </g>
     </g>
     <g id="text_21">
      <!-- 7200 -->
      <g style="fill: #a9a9a9" transform="translate(75.55 50.720875) scale(0.1 -0.1)">
       <defs>
        <path id="DejaVuSans-37" d="M 525 4666 
L 3525 4666 
L 3525 4397 
L 1831 0 
L 1172 0 
L 2766 4134 
L 525 4134 
L 525 4666 
z
" transform="scale(0.015625)"/>
       </defs>
       <use xlink:href="#DejaVuSans-37"/>
       <use xlink:href="#DejaVuSans-32" x="63.623047"/>
       <use xlink:href="#DejaVuSans-30" x="127.246094"/>
       <use xlink:href="#DejaVuSans-30" x="190.869141"/>
      </g>
     </g>
    </g>
   </g>
   <g id="line2d_43">
    <path d="M 138.436364 307.727524 
L 141.459843 307.473857 
L 141.963757 307.256428 
L 143.97941 307.002761 
L 145.995063 306.604142 
L 147.00289 306.459189 
L 149.522456 306.24176 
L 150.530283 305.843141 
L 151.034196 305.190854 
L 151.53811 304.828473 
L 152.042023 303.705091 
L 152.545936 303.632614 
L 153.049849 303.233995 
L 154.057676 302.726661 
L 156.073329 301.132183 
L 158.088983 300.153753 
L 159.600722 299.465229 
L 160.104636 298.66799 
L 161.112462 297.943227 
L 161.616376 297.725798 
L 166.655509 297.001035 
L 167.159422 296.783607 
L 170.686815 296.493701 
L 172.702468 296.022606 
L 176.733775 295.479034 
L 177.237688 295.225367 
L 177.741601 295.15289 
L 178.749428 294.826747 
L 182.276821 294.246937 
L 183.284648 293.957032 
L 187.819868 293.196031 
L 188.827694 292.978602 
L 189.835521 292.942364 
L 191.851174 292.471268 
L 192.355087 291.782744 
L 193.866827 291.202934 
L 195.378567 290.804314 
L 195.88248 290.550647 
L 196.890307 290.369456 
L 198.90596 289.789646 
L 199.913787 289.71717 
L 200.921613 289.463503 
L 202.937267 288.956169 
L 203.44118 288.919931 
L 204.449007 288.448835 
L 204.95292 288.376359 
L 205.456833 288.122692 
L 210.99988 287.216739 
L 213.015533 286.636928 
L 213.519446 286.310785 
L 216.039013 285.477308 
L 217.046839 284.788783 
L 218.558579 284.498878 
L 231.660325 280.838827 
L 232.164238 280.838827 
L 232.668152 280.621398 
L 233.675978 280.512683 
L 234.179892 280.331493 
L 236.195545 280.222778 
L 237.203371 280.041588 
L 238.211198 279.534254 
L 239.722938 278.990682 
L 240.226851 278.664538 
L 241.234678 278.229681 
L 241.738591 277.976014 
L 242.746418 277.649871 
L 243.250331 277.46868 
L 244.258158 276.852632 
L 244.762071 276.30906 
L 245.769898 274.787058 
L 246.273811 274.642105 
L 246.777724 274.642105 
L 248.289464 273.77239 
L 248.793377 273.518723 
L 249.297291 273.410009 
L 249.801204 272.938913 
L 250.809031 272.540293 
L 251.816857 272.069198 
L 254.336424 268.880242 
L 257.359904 267.285764 
L 258.36773 266.488525 
L 258.871644 266.162381 
L 259.375557 265.401381 
L 259.87947 264.277998 
L 260.383384 263.516997 
L 260.887297 263.118378 
L 261.39121 262.900949 
L 264.918603 259.929422 
L 265.92643 258.733563 
L 266.934256 258.008801 
L 268.445996 256.994133 
L 268.94991 256.559275 
L 269.957736 256.233132 
L 271.469476 255.363417 
L 272.981216 254.384987 
L 274.996869 252.609318 
L 276.004696 252.210699 
L 277.012523 251.522174 
L 277.516436 251.232269 
L 278.020349 251.159793 
L 279.532089 250.326316 
L 280.036002 249.782744 
L 282.555569 248.441933 
L 283.059482 248.260742 
L 284.571222 247.246074 
L 292.129922 244.60069 
L 293.137748 243.694737 
L 294.145575 243.223641 
L 295.153402 242.680069 
L 295.657315 242.390164 
L 296.665141 242.100259 
L 297.169055 241.774116 
L 297.672968 241.629163 
L 299.184708 240.650733 
L 301.704275 240.070923 
L 303.216014 239.201208 
L 304.727754 238.875065 
L 305.231668 238.730112 
L 306.743408 237.60673 
L 308.759061 237.063158 
L 309.262974 236.664538 
L 312.286454 235.649871 
L 313.294281 235.46868 
L 314.302107 235.07006 
L 317.8295 233.801726 
L 318.837327 233.656773 
L 320.349067 233.149439 
L 322.868633 231.953581 
L 324.884287 230.866437 
L 328.915593 229.23572 
L 329.419506 229.163244 
L 330.427333 228.547196 
L 330.931246 228.47472 
L 332.946899 227.641242 
L 334.962553 227.351337 
L 335.970379 226.844003 
L 336.474293 226.409146 
L 336.978206 225.503192 
L 338.993859 224.95962 
L 340.505599 224.198619 
L 341.009512 224.089905 
L 345.040819 222.169284 
L 346.552559 221.879379 
L 347.560385 221.372045 
L 348.064299 221.154616 
L 348.568212 221.08214 
L 350.583865 220.176186 
L 352.095605 219.233995 
L 353.607345 218.94409 
L 356.126911 218.328041 
L 356.630825 217.929422 
L 358.142565 217.38585 
L 360.158218 216.588611 
L 360.662131 216.22623 
L 361.166045 216.045039 
L 362.173871 215.501467 
L 364.693438 214.66799 
L 366.205178 213.472131 
L 366.709091 213.363417 
L 367.716918 212.566178 
L 368.220831 212.493701 
L 368.724744 211.696462 
L 369.228657 211.479034 
L 369.732571 211.080414 
L 370.236484 211.007938 
L 371.244311 210.39189 
L 372.252137 210.065746 
L 372.756051 209.703365 
L 373.259964 209.522174 
L 374.771704 208.471268 
L 376.787357 207.420362 
L 377.29127 207.347886 
L 378.80301 206.586885 
L 379.306924 205.753408 
L 380.31475 205.028645 
L 380.818663 204.919931 
L 381.82649 204.303883 
L 382.330403 204.195168 
L 383.33823 203.687834 
L 385.353883 202.709405 
L 385.857797 202.347023 
L 386.865623 201.368594 
L 387.87345 200.752545 
L 388.377363 200.426402 
L 388.881276 199.88283 
L 390.89693 198.505781 
L 391.400843 197.925971 
L 391.904756 197.527351 
L 392.912583 197.16497 
L 393.920409 196.476445 
L 395.432149 195.715444 
L 395.936063 195.642968 
L 397.447803 194.845729 
L 398.455629 194.229681 
L 403.494762 192.417774 
L 403.998675 192.019154 
L 406.014329 191.258154 
L 406.518242 191.113201 
L 407.022155 190.714582 
L 409.541722 189.337532 
L 410.549548 187.344435 
L 411.557375 186.184814 
L 412.565202 185.568766 
L 414.076942 184.952718 
L 414.580855 184.880242 
L 415.084768 184.590336 
L 417.604335 183.793097 
L 418.108248 183.575669 
L 419.116075 182.887144 
L 420.627815 182.234858 
L 421.635641 181.691286 
L 422.139554 181.328904 
L 422.643468 181.111475 
L 423.147381 180.749094 
L 423.651294 180.205522 
L 424.659121 179.66195 
L 427.178688 178.321139 
L 430.202167 176.835375 
L 431.209994 176.509232 
L 432.721734 176.038136 
L 434.737387 175.132183 
L 435.745214 174.733563 
L 436.249127 174.334944 
L 438.26478 173.646419 
L 439.272607 172.921657 
L 440.280433 172.486799 
L 441.28826 171.68956 
L 442.296087 171.327179 
L 442.8 170.892321 
L 443.303913 170.819845 
L 444.31174 170.058844 
L 445.319567 169.55151 
L 445.82348 169.334081 
L 446.327393 168.826747 
L 449.854786 167.449698 
L 450.862613 167.01484 
L 452.374353 166.543745 
L 453.382179 166.398792 
L 453.886093 166.181363 
L 454.390006 166.108887 
L 455.397833 165.674029 
L 455.901746 165.637791 
L 457.917399 164.87679 
L 459.429139 163.825884 
L 459.933052 163.644694 
L 460.940879 163.101122 
L 461.444792 162.956169 
L 464.468272 161.289215 
L 464.972185 161.1805 
L 466.483925 160.310785 
L 467.995665 159.803451 
L 469.003492 159.477308 
L 471.019145 158.825022 
L 472.026972 158.498878 
L 474.042625 158.100259 
L 474.546538 157.88283 
L 475.050452 157.810354 
L 476.058278 157.375496 
L 476.562191 157.30302 
L 477.066105 157.049353 
L 478.073931 156.868162 
L 479.585671 156.32459 
L 480.593498 156.215876 
L 482.105238 155.889733 
L 484.624804 155.454875 
L 497.72655 151.686109 
L 498.230464 151.178775 
L 499.23829 150.780155 
L 502.26177 149.693011 
L 502.765683 149.366868 
L 503.269597 149.258154 
L 503.77351 148.968248 
L 505.28525 148.533391 
L 506.293076 148.279724 
L 506.79699 147.953581 
L 507.300903 147.844866 
L 507.804816 147.410009 
L 509.316556 147.120104 
L 510.324383 146.649008 
L 510.828296 146.069198 
L 512.843949 145.598102 
L 516.371343 144.873339 
L 516.875256 144.873339 
L 517.379169 144.65591 
L 519.394822 144.293529 
L 519.898736 144.0761 
L 521.914389 143.713719 
L 522.922216 143.278861 
L 523.930042 143.09767 
L 526.449609 142.481622 
L 528.465262 141.865574 
L 528.969175 141.756859 
L 529.473089 141.503192 
L 530.480915 141.249525 
L 530.984828 140.95962 
L 532.496568 140.452286 
L 533.000482 140.126143 
L 534.008308 139.836238 
L 535.016135 139.510095 
L 536.023961 139.111475 
L 537.535701 138.459189 
L 539.551355 138.205522 
L 543.582661 136.792235 
L 544.086574 136.429853 
L 544.590488 136.321139 
L 545.094401 136.067472 
L 545.598314 136.031234 
L 551.141361 134.110613 
L 553.660927 133.458326 
L 554.668754 132.98723 
L 556.180494 132.661087 
L 556.684407 132.262468 
L 557.18832 132.008801 
L 557.692234 131.392752 
L 558.196147 131.030371 
L 559.203974 130.740466 
L 559.707887 130.341846 
L 562.731367 129.218464 
L 563.23528 128.892321 
L 564.243107 128.602416 
L 564.74702 128.276273 
L 567.266586 127.479034 
L 568.778326 126.609318 
L 569.28224 126.500604 
L 571.801806 125.159793 
L 573.313546 124.507506 
L 573.817459 124.145125 
L 574.825286 123.818982 
L 575.833113 123.239172 
L 576.337026 123.057981 
L 576.840939 122.6956 
L 583.391812 120.412597 
L 583.895725 120.303883 
L 584.399639 119.977739 
L 586.415292 119.57912 
L 587.423119 119.1805 
L 587.927032 118.890595 
L 588.430945 118.745643 
L 590.446598 117.694737 
L 590.950512 117.622261 
L 592.462252 116.788783 
L 593.973992 116.28145 
L 597.501385 114.831924 
L 598.005298 114.686972 
L 598.509211 114.360828 
L 599.517038 114.252114 
L 600.020951 113.925971 
L 601.028778 113.74478 
L 602.036604 113.273684 
L 602.540518 113.056255 
L 603.044431 112.983779 
L 605.563998 112.005349 
L 607.075738 111.60673 
L 608.083564 111.353063 
L 609.595304 110.918205 
L 610.603131 110.519586 
L 612.618784 109.432442 
L 613.62661 109.033822 
L 614.130524 108.707679 
L 615.13835 108.49025 
L 615.642264 108.200345 
L 616.146177 108.091631 
L 617.657917 107.258154 
L 618.665744 106.859534 
L 620.681397 106.098533 
L 623.200963 105.265056 
L 624.20879 104.757722 
L 626.728356 103.924245 
L 628.240096 103.380673 
L 628.74401 103.23572 
L 629.751836 102.692148 
L 631.767489 101.786195 
L 636.806623 99.865574 
L 637.310536 99.539431 
L 639.326189 98.850906 
L 639.830102 98.850906 
L 640.837929 98.416048 
L 641.845756 97.510095 
L 642.349669 97.075237 
L 643.861409 96.350475 
L 644.365322 96.24176 
L 644.869235 95.988093 
L 645.373149 95.915617 
L 645.877062 95.553236 
L 646.380975 95.444521 
L 647.388802 94.828473 
L 648.900542 94.067472 
L 649.908368 93.668852 
L 650.412282 93.415186 
L 651.924022 93.089042 
L 654.443588 92.255565 
L 655.451415 91.929422 
L 656.963155 91.168421 
L 657.970981 90.697325 
L 658.978808 90.443658 
L 660.490548 89.755134 
L 665.025768 88.088179 
L 666.537508 87.182226 
L 667.041421 87.073512 
L 668.049247 86.566178 
L 669.057074 86.203796 
L 669.560987 85.768939 
L 670.568814 85.370319 
L 672.080554 84.754271 
L 672.584467 84.355651 
L 673.08838 84.319413 
L 674.096207 84.029508 
L 675.104034 83.703365 
L 675.607947 83.449698 
L 676.11186 83.377222 
L 677.6236 82.83365 
L 679.13534 82.290078 
L 680.143167 81.891458 
L 680.64708 81.492839 
L 682.15882 81.094219 
L 682.662733 80.804314 
L 683.67056 80.550647 
L 685.1823 79.71717 
L 685.686213 79.680932 
L 687.197953 79.209836 
L 688.20578 79.13736 
L 689.213606 78.73874 
L 692.237086 77.869025 
L 693.244913 77.832787 
L 696.268393 76.854357 
L 696.772306 76.781881 
L 698.284046 75.984642 
L 698.787959 75.549784 
L 700.299699 74.680069 
L 701.307526 74.064021 
L 703.323179 73.484211 
L 703.827092 73.194305 
L 704.331005 73.085591 
L 704.834919 72.686972 
L 707.858399 71.454875 
L 709.874052 70.911303 
L 710.881878 70.476445 
L 711.385792 70.222778 
L 712.393618 69.896635 
L 712.897532 69.570492 
L 713.905358 69.389301 
L 716.424925 68.229681 
L 716.928838 67.939776 
L 718.440578 67.577394 
L 719.952318 66.598965 
L 720.456231 66.526488 
L 722.975798 65.548059 
L 724.487538 65.185677 
L 724.991451 65.113201 
L 725.495364 64.895772 
L 725.999278 64.859534 
L 727.007104 64.533391 
L 727.511017 64.497153 
L 729.022757 63.917343 
L 731.038411 63.337532 
L 732.046237 62.576531 
L 734.06189 61.489387 
L 735.57363 60.982053 
L 738.59711 59.605004 
L 739.604937 59.061432 
L 740.10885 58.807765 
L 740.612763 58.33667 
L 743.13233 57.575669 
L 744.140157 56.995858 
L 746.15581 56.271096 
L 746.659723 55.8 
L 747.163636 55.8 
L 747.163636 55.8 
" clip-path="url(#p4b3f31a3c3)" style="fill: none; stroke: #1f77b4; stroke-width: 1.5; stroke-linecap: square"/>
   </g>
   <g id="line2d_44">
    <path d="M 138.940277 307.8 
L 143.475497 307.691286 
L 147.506803 307.510095 
L 149.522456 307.510095 
L 150.02637 307.365142 
L 152.545936 307.256428 
L 155.569416 306.930285 
L 158.592896 306.82157 
L 159.600722 306.712856 
L 163.128116 306.567903 
L 166.655509 306.459189 
L 169.175075 306.386713 
L 175.725948 306.277998 
L 178.245515 306.205522 
L 181.772908 306.096808 
L 184.292474 306.024331 
L 189.835521 305.915617 
L 191.851174 305.734426 
L 193.866827 305.698188 
L 196.890307 305.589474 
L 198.90596 305.553236 
L 201.425527 305.480759 
L 203.44118 305.299569 
L 207.9764 305.190854 
L 208.984226 305.118378 
L 210.99988 305.009664 
L 214.023359 304.900949 
L 216.039013 304.792235 
L 225.109452 304.248663 
L 228.636845 304.139948 
L 230.148585 303.994996 
L 232.668152 303.886281 
L 237.707285 303.632614 
L 242.746418 303.560138 
L 244.762071 303.342709 
L 246.777724 303.233995 
L 252.320771 302.726661 
L 255.848164 302.328041 
L 257.359904 302.255565 
L 261.895123 301.711993 
L 264.41469 301.639517 
L 265.92643 301.494564 
L 267.43817 301.38585 
L 281.547742 300.334944 
L 282.555569 300.153753 
L 285.579049 300.045039 
L 293.641662 299.573943 
L 297.169055 299.465229 
L 299.184708 299.2478 
L 301.704275 299.139085 
L 304.727754 299.030371 
L 307.247321 298.921657 
L 309.262974 298.885418 
L 311.782541 298.812942 
L 312.790367 298.66799 
L 319.845154 298.559275 
L 320.85298 298.450561 
L 326.89994 298.341846 
L 331.43516 298.124418 
L 334.962553 298.015703 
L 336.978206 297.798274 
L 340.505599 297.68956 
L 341.513426 297.508369 
L 344.032992 297.435893 
L 349.072125 297.363417 
L 351.591692 297.10975 
L 354.615172 297.001035 
L 356.630825 296.819845 
L 361.669958 296.566178 
L 366.709091 296.457463 
L 371.244311 296.240035 
L 372.756051 296.203796 
L 373.763877 296.058844 
L 376.283444 295.950129 
L 377.29127 295.877653 
L 378.299097 295.805177 
L 379.306924 295.732701 
L 383.842143 295.660224 
L 385.353883 295.55151 
L 398.959542 294.681795 
L 401.479109 294.57308 
L 403.998675 294.500604 
L 411.053462 294.39189 
L 412.061288 294.246937 
L 419.116075 294.138223 
L 424.155208 293.884556 
L 425.163034 293.848318 
L 426.170861 293.739603 
L 428.690427 293.630889 
L 431.209994 293.558412 
L 433.729561 293.449698 
L 436.249127 293.377222 
L 440.784347 293.268507 
L 443.807827 293.159793 
L 450.862613 293.051079 
L 456.405659 292.761173 
L 458.421312 292.688697 
L 459.933052 292.579983 
L 466.987839 292.471268 
L 470.011318 292.362554 
L 479.081758 292.25384 
L 481.097411 292.217601 
L 487.144371 292.145125 
L 488.152197 292.072649 
L 495.206984 291.963934 
L 497.222637 291.927696 
L 510.324383 291.818982 
L 511.836123 291.674029 
L 534.512222 291.565315 
L 537.031788 291.492839 
L 550.133534 291.384124 
L 551.141361 291.311648 
L 553.660927 291.239172 
L 555.172667 291.094219 
L 558.196147 290.985505 
L 561.72354 290.840552 
L 566.25876 290.731838 
L 568.778326 290.659362 
L 572.305719 290.550647 
L 576.337026 290.369456 
L 578.856592 290.260742 
L 580.872246 290.224504 
L 585.407465 290.115789 
L 587.423119 290.079551 
L 593.973992 289.970837 
L 595.989645 289.934599 
L 598.509211 289.825884 
L 601.532691 289.71717 
L 605.060084 289.644694 
L 606.067911 289.572217 
L 618.16183 289.463503 
L 624.712703 289.101122 
L 627.23227 289.028645 
L 628.240096 288.919931 
L 629.247923 288.847455 
L 633.279229 288.73874 
L 636.302709 288.630026 
L 641.341842 288.521311 
L 643.861409 288.267645 
L 648.900542 288.15893 
L 649.908368 288.050216 
L 654.947502 287.941501 
L 657.467068 287.869025 
L 663.010114 287.832787 
L 664.017941 287.724072 
L 669.560987 287.615358 
L 670.568814 287.542882 
L 681.654907 287.434167 
L 684.678387 287.325453 
L 692.237086 287.216739 
L 694.252739 287.1805 
L 698.787959 287.108024 
L 699.795786 286.99931 
L 705.842745 286.890595 
L 708.866225 286.781881 
L 717.936665 286.673167 
L 719.448405 286.564452 
L 720.960144 286.455738 
L 722.471884 286.347023 
L 730.030584 286.238309 
L 733.557977 286.093356 
L 744.64407 285.984642 
L 746.659723 285.948404 
L 747.163636 285.948404 
L 747.163636 285.948404 
" clip-path="url(#p4b3f31a3c3)" style="fill: none; stroke: #ff7f0e; stroke-width: 1.5; stroke-linecap: square"/>
   </g>
   <g id="patch_3">
    <path d="M 108 320.4 
L 108 43.2 
" style="fill: none; stroke: #a9a9a9; stroke-width: 0.8; stroke-linejoin: miter; stroke-linecap: square"/>
   </g>
   <g id="patch_4">
    <path d="M 777.6 320.4 
L 777.6 43.2 
" style="fill: none"/>
   </g>
   <g id="patch_5">
    <path d="M 108 320.4 
L 777.6 320.4 
" style="fill: none; stroke: #a9a9a9; stroke-width: 0.8; stroke-linejoin: miter; stroke-linecap: square"/>
   </g>
   <g id="patch_6">
    <path d="M 108 43.2 
L 777.6 43.2 
" style="fill: none"/>
   </g>
   <g id="text_22">
    <!-- get_subscribe history -->
    <g style="fill: #a9a9a9" transform="translate(378.6075 37.2) scale(0.12 -0.12)">
     <defs>
      <path id="DejaVuSans-67" d="M 2906 1791 
Q 2906 2416 2648 2759 
Q 2391 3103 1925 3103 
Q 1463 3103 1205 2759 
Q 947 2416 947 1791 
Q 947 1169 1205 825 
Q 1463 481 1925 481 
Q 2391 481 2648 825 
Q 2906 1169 2906 1791 
z
M 3481 434 
Q 3481 -459 3084 -895 
Q 2688 -1331 1869 -1331 
Q 1566 -1331 1297 -1286 
Q 1028 -1241 775 -1147 
L 775 -588 
Q 1028 -725 1275 -790 
Q 1522 -856 1778 -856 
Q 2344 -856 2625 -561 
Q 2906 -266 2906 331 
L 2906 616 
Q 2728 306 2450 153 
Q 2172 0 1784 0 
Q 1141 0 747 490 
Q 353 981 353 1791 
Q 353 2603 747 3093 
Q 1141 3584 1784 3584 
Q 2172 3584 2450 3431 
Q 2728 3278 2906 2969 
L 2906 3500 
L 3481 3500 
L 3481 434 
z
" transform="scale(0.015625)"/>
      <path id="DejaVuSans-65" d="M 3597 1894 
L 3597 1613 
L 953 1613 
Q 991 1019 1311 708 
Q 1631 397 2203 397 
Q 2534 397 2845 478 
Q 3156 559 3463 722 
L 3463 178 
Q 3153 47 2828 -22 
Q 2503 -91 2169 -91 
Q 1331 -91 842 396 
Q 353 884 353 1716 
Q 353 2575 817 3079 
Q 1281 3584 2069 3584 
Q 2775 3584 3186 3129 
Q 3597 2675 3597 1894 
z
M 3022 2063 
Q 3016 2534 2758 2815 
Q 2500 3097 2075 3097 
Q 1594 3097 1305 2825 
Q 1016 2553 972 2059 
L 3022 2063 
z
" transform="scale(0.015625)"/>
      <path id="DejaVuSans-74" d="M 1172 4494 
L 1172 3500 
L 2356 3500 
L 2356 3053 
L 1172 3053 
L 1172 1153 
Q 1172 725 1289 603 
Q 1406 481 1766 481 
L 2356 481 
L 2356 0 
L 1766 0 
Q 1100 0 847 248 
Q 594 497 594 1153 
L 594 3053 
L 172 3053 
L 172 3500 
L 594 3500 
L 594 4494 
L 1172 4494 
z
" transform="scale(0.015625)"/>
      <path id="DejaVuSans-5f" d="M 3263 -1063 
L 3263 -1509 
L -63 -1509 
L -63 -1063 
L 3263 -1063 
z
" transform="scale(0.015625)"/>
      <path id="DejaVuSans-73" d="M 2834 3397 
L 2834 2853 
Q 2591 2978 2328 3040 
Q 2066 3103 1784 3103 
Q 1356 3103 1142 2972 
Q 928 2841 928 2578 
Q 928 2378 1081 2264 
Q 1234 2150 1697 2047 
L 1894 2003 
Q 2506 1872 2764 1633 
Q 3022 1394 3022 966 
Q 3022 478 2636 193 
Q 2250 -91 1575 -91 
Q 1294 -91 989 -36 
Q 684 19 347 128 
L 347 722 
Q 666 556 975 473 
Q 1284 391 1588 391 
Q 1994 391 2212 530 
Q 2431 669 2431 922 
Q 2431 1156 2273 1281 
Q 2116 1406 1581 1522 
L 1381 1569 
Q 847 1681 609 1914 
Q 372 2147 372 2553 
Q 372 3047 722 3315 
Q 1072 3584 1716 3584 
Q 2034 3584 2315 3537 
Q 2597 3491 2834 3397 
z
" transform="scale(0.015625)"/>
      <path id="DejaVuSans-75" d="M 544 1381 
L 544 3500 
L 1119 3500 
L 1119 1403 
Q 1119 906 1312 657 
Q 1506 409 1894 409 
Q 2359 409 2629 706 
Q 2900 1003 2900 1516 
L 2900 3500 
L 3475 3500 
L 3475 0 
L 2900 0 
L 2900 538 
Q 2691 219 2414 64 
Q 2138 -91 1772 -91 
Q 1169 -91 856 284 
Q 544 659 544 1381 
z
M 1991 3584 
L 1991 3584 
z
" transform="scale(0.015625)"/>
      <path id="DejaVuSans-62" d="M 3116 1747 
Q 3116 2381 2855 2742 
Q 2594 3103 2138 3103 
Q 1681 3103 1420 2742 
Q 1159 2381 1159 1747 
Q 1159 1113 1420 752 
Q 1681 391 2138 391 
Q 2594 391 2855 752 
Q 3116 1113 3116 1747 
z
M 1159 2969 
Q 1341 3281 1617 3432 
Q 1894 3584 2278 3584 
Q 2916 3584 3314 3078 
Q 3713 2572 3713 1747 
Q 3713 922 3314 415 
Q 2916 -91 2278 -91 
Q 1894 -91 1617 61 
Q 1341 213 1159 525 
L 1159 0 
L 581 0 
L 581 4863 
L 1159 4863 
L 1159 2969 
z
" transform="scale(0.015625)"/>
      <path id="DejaVuSans-63" d="M 3122 3366 
L 3122 2828 
Q 2878 2963 2633 3030 
Q 2388 3097 2138 3097 
Q 1578 3097 1268 2742 
Q 959 2388 959 1747 
Q 959 1106 1268 751 
Q 1578 397 2138 397 
Q 2388 397 2633 464 
Q 2878 531 3122 666 
L 3122 134 
Q 2881 22 2623 -34 
Q 2366 -91 2075 -91 
Q 1284 -91 818 406 
Q 353 903 353 1747 
Q 353 2603 823 3093 
Q 1294 3584 2113 3584 
Q 2378 3584 2631 3529 
Q 2884 3475 3122 3366 
z
" transform="scale(0.015625)"/>
      <path id="DejaVuSans-72" d="M 2631 2963 
Q 2534 3019 2420 3045 
Q 2306 3072 2169 3072 
Q 1681 3072 1420 2755 
Q 1159 2438 1159 1844 
L 1159 0 
L 581 0 
L 581 3500 
L 1159 3500 
L 1159 2956 
Q 1341 3275 1631 3429 
Q 1922 3584 2338 3584 
Q 2397 3584 2469 3576 
Q 2541 3569 2628 3553 
L 2631 2963 
z
" transform="scale(0.015625)"/>
      <path id="DejaVuSans-69" d="M 603 3500 
L 1178 3500 
L 1178 0 
L 603 0 
L 603 3500 
z
M 603 4863 
L 1178 4863 
L 1178 4134 
L 603 4134 
L 603 4863 
z
" transform="scale(0.015625)"/>
      <path id="DejaVuSans-20" transform="scale(0.015625)"/>
      <path id="DejaVuSans-68" d="M 3513 2113 
L 3513 0 
L 2938 0 
L 2938 2094 
Q 2938 2591 2744 2837 
Q 2550 3084 2163 3084 
Q 1697 3084 1428 2787 
Q 1159 2491 1159 1978 
L 1159 0 
L 581 0 
L 581 4863 
L 1159 4863 
L 1159 2956 
Q 1366 3272 1645 3428 
Q 1925 3584 2291 3584 
Q 2894 3584 3203 3211 
Q 3513 2838 3513 2113 
z
" transform="scale(0.015625)"/>
      <path id="DejaVuSans-6f" d="M 1959 3097 
Q 1497 3097 1228 2736 
Q 959 2375 959 1747 
Q 959 1119 1226 758 
Q 1494 397 1959 397 
Q 2419 397 2687 759 
Q 2956 1122 2956 1747 
Q 2956 2369 2687 2733 
Q 2419 3097 1959 3097 
z
M 1959 3584 
Q 2709 3584 3137 3096 
Q 3566 2609 3566 1747 
Q 3566 888 3137 398 
Q 2709 -91 1959 -91 
Q 1206 -91 779 398 
Q 353 888 353 1747 
Q 353 2609 779 3096 
Q 1206 3584 1959 3584 
z
" transform="scale(0.015625)"/>
      <path id="DejaVuSans-79" d="M 2059 -325 
Q 1816 -950 1584 -1140 
Q 1353 -1331 966 -1331 
L 506 -1331 
L 506 -850 
L 844 -850 
Q 1081 -850 1212 -737 
Q 1344 -625 1503 -206 
L 1606 56 
L 191 3500 
L 800 3500 
L 1894 763 
L 2988 3500 
L 3597 3500 
L 2059 -325 
z
" transform="scale(0.015625)"/>
     </defs>
     <use xlink:href="#DejaVuSans-67"/>
     <use xlink:href="#DejaVuSans-65" x="63.476562"/>
     <use xlink:href="#DejaVuSans-74" x="125"/>
     <use xlink:href="#DejaVuSans-5f" x="164.208984"/>
     <use xlink:href="#DejaVuSans-73" x="214.208984"/>
     <use xlink:href="#DejaVuSans-75" x="266.308594"/>
     <use xlink:href="#DejaVuSans-62" x="329.6875"/>
     <use xlink:href="#DejaVuSans-73" x="393.164062"/>
     <use xlink:href="#DejaVuSans-63" x="445.263672"/>
     <use xlink:href="#DejaVuSans-72" x="500.244141"/>
     <use xlink:href="#DejaVuSans-69" x="541.357422"/>
     <use xlink:href="#DejaVuSans-62" x="569.140625"/>
     <use xlink:href="#DejaVuSans-65" x="632.617188"/>
     <use xlink:href="#DejaVuSans-20" x="694.140625"/>
     <use xlink:href="#DejaVuSans-68" x="725.927734"/>
     <use xlink:href="#DejaVuSans-69" x="789.306641"/>
     <use xlink:href="#DejaVuSans-73" x="817.089844"/>
     <use xlink:href="#DejaVuSans-74" x="869.189453"/>
     <use xlink:href="#DejaVuSans-6f" x="908.398438"/>
     <use xlink:href="#DejaVuSans-72" x="969.580078"/>
     <use xlink:href="#DejaVuSans-79" x="1010.693359"/>
    </g>
   </g>
   <g id="legend_1">
    <g id="line2d_45">
     <path d="M 815.08 328.498438 
L 825.08 328.498438 
L 835.08 328.498438 
" style="fill: none; stroke: #1f77b4; stroke-width: 1.5; stroke-linecap: square"/>
    </g>
    <g id="text_23">
     <!-- star -->
     <g style="fill: #a9a9a9" transform="translate(843.08 331.998438) scale(0.1 -0.1)">
      <defs>
       <path id="DejaVuSans-61" d="M 2194 1759 
Q 1497 1759 1228 1600 
Q 959 1441 959 1056 
Q 959 750 1161 570 
Q 1363 391 1709 391 
Q 2188 391 2477 730 
Q 2766 1069 2766 1631 
L 2766 1759 
L 2194 1759 
z
M 3341 1997 
L 3341 0 
L 2766 0 
L 2766 531 
Q 2569 213 2275 61 
Q 1981 -91 1556 -91 
Q 1019 -91 701 211 
Q 384 513 384 1019 
Q 384 1609 779 1909 
Q 1175 2209 1959 2209 
L 2766 2209 
L 2766 2266 
Q 2766 2663 2505 2880 
Q 2244 3097 1772 3097 
Q 1472 3097 1187 3025 
Q 903 2953 641 2809 
L 641 3341 
Q 956 3463 1253 3523 
Q 1550 3584 1831 3584 
Q 2591 3584 2966 3190 
Q 3341 2797 3341 1997 
z
" transform="scale(0.015625)"/>
      </defs>
      <use xlink:href="#DejaVuSans-73"/>
      <use xlink:href="#DejaVuSans-74" x="52.099609"/>
      <use xlink:href="#DejaVuSans-61" x="91.308594"/>
      <use xlink:href="#DejaVuSans-72" x="152.587891"/>
     </g>
    </g>
    <g id="line2d_46">
     <path d="M 815.08 343.176562 
L 825.08 343.176562 
L 835.08 343.176562 
" style="fill: none; stroke: #ff7f0e; stroke-width: 1.5; stroke-linecap: square"/>
    </g>
    <g id="text_24">
     <!-- fork -->
     <g style="fill: #a9a9a9" transform="translate(843.08 346.676562) scale(0.1 -0.1)">
      <defs>
       <path id="DejaVuSans-66" d="M 2375 4863 
L 2375 4384 
L 1825 4384 
Q 1516 4384 1395 4259 
Q 1275 4134 1275 3809 
L 1275 3500 
L 2222 3500 
L 2222 3053 
L 1275 3053 
L 1275 0 
L 697 0 
L 697 3053 
L 147 3053 
L 147 3500 
L 697 3500 
L 697 3744 
Q 697 4328 969 4595 
Q 1241 4863 1831 4863 
L 2375 4863 
z
" transform="scale(0.015625)"/>
       <path id="DejaVuSans-6b" d="M 581 4863 
L 1159 4863 
L 1159 1991 
L 2875 3500 
L 3609 3500 
L 1753 1863 
L 3688 0 
L 2938 0 
L 1159 1709 
L 1159 0 
L 581 0 
L 581 4863 
z
" transform="scale(0.015625)"/>
      </defs>
      <use xlink:href="#DejaVuSans-66"/>
      <use xlink:href="#DejaVuSans-6f" x="35.205078"/>
      <use xlink:href="#DejaVuSans-72" x="96.386719"/>
      <use xlink:href="#DejaVuSans-6b" x="137.5"/>
     </g>
    </g>
   </g>
  </g>
 </g>
 <defs>
  <clipPath id="p4b3f31a3c3">
   <rect x="108" y="43.2" width="669.6" height="277.2"/>
  </clipPath>
 </defs>
</svg>
