<?xml version="1.0" encoding="utf-8" standalone="no"?>
<!DOCTYPE svg PUBLIC "-//W3C//DTD SVG 1.1//EN"
  "http://www.w3.org/Graphics/SVG/1.1/DTD/svg11.dtd">
<svg xmlns:xlink="http://www.w3.org/1999/xlink" width="864pt" height="360pt" viewBox="0 0 864 360" xmlns="http://www.w3.org/2000/svg" version="1.1">
 <metadata>
  <rdf:RDF xmlns:dc="http://purl.org/dc/elements/1.1/" xmlns:cc="http://creativecommons.org/ns#" xmlns:rdf="http://www.w3.org/1999/02/22-rdf-syntax-ns#">
   <cc:Work>
    <dc:type rdf:resource="http://purl.org/dc/dcmitype/StillImage"/>
    <dc:date>2024-11-14T20:06:50.659349</dc:date>
    <dc:format>image/svg+xml</dc:format>
    <dc:creator>
     <cc:Agent>
      <dc:title>Matplotlib v3.9.2, https://matplotlib.org/</dc:title>
     </cc:Agent>
    </dc:creator>
   </cc:Work>
  </rdf:RDF>
 </metadata>
 <defs>
  <style type="text/css">*{stroke-linejoin: round; stroke-linecap: butt}</style>
 </defs>
 <g id="figure_1">
  <g id="patch_1">
   <path d="M 0 360 
L 864 360 
L 864 0 
L 0 0 
L 0 360 
z
" style="fill: none; opacity: 0"/>
  </g>
  <g id="axes_1">
   <g id="patch_2">
    <path d="M 108 320.4 
L 777.6 320.4 
L 777.6 43.2 
L 108 43.2 
L 108 320.4 
z
" style="fill: none; opacity: 0"/>
   </g>
   <g id="matplotlib.axis_1">
    <g id="xtick_1">
     <g id="line2d_1">
      <path d="M 158.072727 320.4 
L 158.072727 43.2 
" clip-path="url(#pa129cb49dc)" style="fill: none; stroke-dasharray: 5.12,1.28,0.8,1.28; stroke-dashoffset: 0; stroke: #b0b0b0; stroke-width: 0.8"/>
     </g>
     <g id="line2d_2">
      <defs>
       <path id="mbb61cd1ba3" d="M 0 0 
L 0 3.5 
" style="stroke: #a9a9a9; stroke-width: 0.8"/>
      </defs>
      <g>
       <use xlink:href="#mbb61cd1ba3" x="158.072727" y="320.4" style="fill: #a9a9a9; stroke: #a9a9a9; stroke-width: 0.8"/>
      </g>
     </g>
     <g id="text_1">
      <!-- 2021-09 -->
      <g style="fill: #a9a9a9" transform="translate(137.181321 334.998438) scale(0.1 -0.1)">
       <defs>
        <path id="DejaVuSans-32" d="M 1228 531 
L 3431 531 
L 3431 0 
L 469 0 
L 469 531 
Q 828 903 1448 1529 
Q 2069 2156 2228 2338 
Q 2531 2678 2651 2914 
Q 2772 3150 2772 3378 
Q 2772 3750 2511 3984 
Q 2250 4219 1831 4219 
Q 1534 4219 1204 4116 
Q 875 4013 500 3803 
L 500 4441 
Q 881 4594 1212 4672 
Q 1544 4750 1819 4750 
Q 2544 4750 2975 4387 
Q 3406 4025 3406 3419 
Q 3406 3131 3298 2873 
Q 3191 2616 2906 2266 
Q 2828 2175 2409 1742 
Q 1991 1309 1228 531 
z
" transform="scale(0.015625)"/>
        <path id="DejaVuSans-30" d="M 2034 4250 
Q 1547 4250 1301 3770 
Q 1056 3291 1056 2328 
Q 1056 1369 1301 889 
Q 1547 409 2034 409 
Q 2525 409 2770 889 
Q 3016 1369 3016 2328 
Q 3016 3291 2770 3770 
Q 2525 4250 2034 4250 
z
M 2034 4750 
Q 2819 4750 3233 4129 
Q 3647 3509 3647 2328 
Q 3647 1150 3233 529 
Q 2819 -91 2034 -91 
Q 1250 -91 836 529 
Q 422 1150 422 2328 
Q 422 3509 836 4129 
Q 1250 4750 2034 4750 
z
" transform="scale(0.015625)"/>
        <path id="DejaVuSans-31" d="M 794 531 
L 1825 531 
L 1825 4091 
L 703 3866 
L 703 4441 
L 1819 4666 
L 2450 4666 
L 2450 531 
L 3481 531 
L 3481 0 
L 794 0 
L 794 531 
z
" transform="scale(0.015625)"/>
        <path id="DejaVuSans-2d" d="M 313 2009 
L 1997 2009 
L 1997 1497 
L 313 1497 
L 313 2009 
z
" transform="scale(0.015625)"/>
        <path id="DejaVuSans-39" d="M 703 97 
L 703 672 
Q 941 559 1184 500 
Q 1428 441 1663 441 
Q 2288 441 2617 861 
Q 2947 1281 2994 2138 
Q 2813 1869 2534 1725 
Q 2256 1581 1919 1581 
Q 1219 1581 811 2004 
Q 403 2428 403 3163 
Q 403 3881 828 4315 
Q 1253 4750 1959 4750 
Q 2769 4750 3195 4129 
Q 3622 3509 3622 2328 
Q 3622 1225 3098 567 
Q 2575 -91 1691 -91 
Q 1453 -91 1209 -44 
Q 966 3 703 97 
z
M 1959 2075 
Q 2384 2075 2632 2365 
Q 2881 2656 2881 3163 
Q 2881 3666 2632 3958 
Q 2384 4250 1959 4250 
Q 1534 4250 1286 3958 
Q 1038 3666 1038 3163 
Q 1038 2656 1286 2365 
Q 1534 2075 1959 2075 
z
" transform="scale(0.015625)"/>
       </defs>
       <use xlink:href="#DejaVuSans-32"/>
       <use xlink:href="#DejaVuSans-30" x="63.623047"/>
       <use xlink:href="#DejaVuSans-32" x="127.246094"/>
       <use xlink:href="#DejaVuSans-31" x="190.869141"/>
       <use xlink:href="#DejaVuSans-2d" x="254.492188"/>
       <use xlink:href="#DejaVuSans-30" x="290.576172"/>
       <use xlink:href="#DejaVuSans-39" x="354.199219"/>
      </g>
     </g>
    </g>
    <g id="xtick_2">
     <g id="line2d_3">
      <path d="M 219.499301 320.4 
L 219.499301 43.2 
" clip-path="url(#pa129cb49dc)" style="fill: none; stroke-dasharray: 5.12,1.28,0.8,1.28; stroke-dashoffset: 0; stroke: #b0b0b0; stroke-width: 0.8"/>
     </g>
     <g id="line2d_4">
      <g>
       <use xlink:href="#mbb61cd1ba3" x="219.499301" y="320.4" style="fill: #a9a9a9; stroke: #a9a9a9; stroke-width: 0.8"/>
      </g>
     </g>
     <g id="text_2">
      <!-- 2022-01 -->
      <g style="fill: #a9a9a9" transform="translate(198.607894 334.998438) scale(0.1 -0.1)">
       <use xlink:href="#DejaVuSans-32"/>
       <use xlink:href="#DejaVuSans-30" x="63.623047"/>
       <use xlink:href="#DejaVuSans-32" x="127.246094"/>
       <use xlink:href="#DejaVuSans-32" x="190.869141"/>
       <use xlink:href="#DejaVuSans-2d" x="254.492188"/>
       <use xlink:href="#DejaVuSans-30" x="290.576172"/>
       <use xlink:href="#DejaVuSans-31" x="354.199219"/>
      </g>
     </g>
    </g>
    <g id="xtick_3">
     <g id="line2d_5">
      <path d="M 279.918881 320.4 
L 279.918881 43.2 
" clip-path="url(#pa129cb49dc)" style="fill: none; stroke-dasharray: 5.12,1.28,0.8,1.28; stroke-dashoffset: 0; stroke: #b0b0b0; stroke-width: 0.8"/>
     </g>
     <g id="line2d_6">
      <g>
       <use xlink:href="#mbb61cd1ba3" x="279.918881" y="320.4" style="fill: #a9a9a9; stroke: #a9a9a9; stroke-width: 0.8"/>
      </g>
     </g>
     <g id="text_3">
      <!-- 2022-05 -->
      <g style="fill: #a9a9a9" transform="translate(259.027475 334.998438) scale(0.1 -0.1)">
       <defs>
        <path id="DejaVuSans-35" d="M 691 4666 
L 3169 4666 
L 3169 4134 
L 1269 4134 
L 1269 2991 
Q 1406 3038 1543 3061 
Q 1681 3084 1819 3084 
Q 2600 3084 3056 2656 
Q 3513 2228 3513 1497 
Q 3513 744 3044 326 
Q 2575 -91 1722 -91 
Q 1428 -91 1123 -41 
Q 819 9 494 109 
L 494 744 
Q 775 591 1075 516 
Q 1375 441 1709 441 
Q 2250 441 2565 725 
Q 2881 1009 2881 1497 
Q 2881 1984 2565 2268 
Q 2250 2553 1709 2553 
Q 1456 2553 1204 2497 
Q 953 2441 691 2322 
L 691 4666 
z
" transform="scale(0.015625)"/>
       </defs>
       <use xlink:href="#DejaVuSans-32"/>
       <use xlink:href="#DejaVuSans-30" x="63.623047"/>
       <use xlink:href="#DejaVuSans-32" x="127.246094"/>
       <use xlink:href="#DejaVuSans-32" x="190.869141"/>
       <use xlink:href="#DejaVuSans-2d" x="254.492188"/>
       <use xlink:href="#DejaVuSans-30" x="290.576172"/>
       <use xlink:href="#DejaVuSans-35" x="354.199219"/>
      </g>
     </g>
    </g>
    <g id="xtick_4">
     <g id="line2d_7">
      <path d="M 341.848951 320.4 
L 341.848951 43.2 
" clip-path="url(#pa129cb49dc)" style="fill: none; stroke-dasharray: 5.12,1.28,0.8,1.28; stroke-dashoffset: 0; stroke: #b0b0b0; stroke-width: 0.8"/>
     </g>
     <g id="line2d_8">
      <g>
       <use xlink:href="#mbb61cd1ba3" x="341.848951" y="320.4" style="fill: #a9a9a9; stroke: #a9a9a9; stroke-width: 0.8"/>
      </g>
     </g>
     <g id="text_4">
      <!-- 2022-09 -->
      <g style="fill: #a9a9a9" transform="translate(320.957545 334.998438) scale(0.1 -0.1)">
       <use xlink:href="#DejaVuSans-32"/>
       <use xlink:href="#DejaVuSans-30" x="63.623047"/>
       <use xlink:href="#DejaVuSans-32" x="127.246094"/>
       <use xlink:href="#DejaVuSans-32" x="190.869141"/>
       <use xlink:href="#DejaVuSans-2d" x="254.492188"/>
       <use xlink:href="#DejaVuSans-30" x="290.576172"/>
       <use xlink:href="#DejaVuSans-39" x="354.199219"/>
      </g>
     </g>
    </g>
    <g id="xtick_5">
     <g id="line2d_9">
      <path d="M 403.275524 320.4 
L 403.275524 43.2 
" clip-path="url(#pa129cb49dc)" style="fill: none; stroke-dasharray: 5.12,1.28,0.8,1.28; stroke-dashoffset: 0; stroke: #b0b0b0; stroke-width: 0.8"/>
     </g>
     <g id="line2d_10">
      <g>
       <use xlink:href="#mbb61cd1ba3" x="403.275524" y="320.4" style="fill: #a9a9a9; stroke: #a9a9a9; stroke-width: 0.8"/>
      </g>
     </g>
     <g id="text_5">
      <!-- 2023-01 -->
      <g style="fill: #a9a9a9" transform="translate(382.384118 334.998438) scale(0.1 -0.1)">
       <defs>
        <path id="DejaVuSans-33" d="M 2597 2516 
Q 3050 2419 3304 2112 
Q 3559 1806 3559 1356 
Q 3559 666 3084 287 
Q 2609 -91 1734 -91 
Q 1441 -91 1130 -33 
Q 819 25 488 141 
L 488 750 
Q 750 597 1062 519 
Q 1375 441 1716 441 
Q 2309 441 2620 675 
Q 2931 909 2931 1356 
Q 2931 1769 2642 2001 
Q 2353 2234 1838 2234 
L 1294 2234 
L 1294 2753 
L 1863 2753 
Q 2328 2753 2575 2939 
Q 2822 3125 2822 3475 
Q 2822 3834 2567 4026 
Q 2313 4219 1838 4219 
Q 1578 4219 1281 4162 
Q 984 4106 628 3988 
L 628 4550 
Q 988 4650 1302 4700 
Q 1616 4750 1894 4750 
Q 2613 4750 3031 4423 
Q 3450 4097 3450 3541 
Q 3450 3153 3228 2886 
Q 3006 2619 2597 2516 
z
" transform="scale(0.015625)"/>
       </defs>
       <use xlink:href="#DejaVuSans-32"/>
       <use xlink:href="#DejaVuSans-30" x="63.623047"/>
       <use xlink:href="#DejaVuSans-32" x="127.246094"/>
       <use xlink:href="#DejaVuSans-33" x="190.869141"/>
       <use xlink:href="#DejaVuSans-2d" x="254.492188"/>
       <use xlink:href="#DejaVuSans-30" x="290.576172"/>
       <use xlink:href="#DejaVuSans-31" x="354.199219"/>
      </g>
     </g>
    </g>
    <g id="xtick_6">
     <g id="line2d_11">
      <path d="M 463.695105 320.4 
L 463.695105 43.2 
" clip-path="url(#pa129cb49dc)" style="fill: none; stroke-dasharray: 5.12,1.28,0.8,1.28; stroke-dashoffset: 0; stroke: #b0b0b0; stroke-width: 0.8"/>
     </g>
     <g id="line2d_12">
      <g>
       <use xlink:href="#mbb61cd1ba3" x="463.695105" y="320.4" style="fill: #a9a9a9; stroke: #a9a9a9; stroke-width: 0.8"/>
      </g>
     </g>
     <g id="text_6">
      <!-- 2023-05 -->
      <g style="fill: #a9a9a9" transform="translate(442.803699 334.998438) scale(0.1 -0.1)">
       <use xlink:href="#DejaVuSans-32"/>
       <use xlink:href="#DejaVuSans-30" x="63.623047"/>
       <use xlink:href="#DejaVuSans-32" x="127.246094"/>
       <use xlink:href="#DejaVuSans-33" x="190.869141"/>
       <use xlink:href="#DejaVuSans-2d" x="254.492188"/>
       <use xlink:href="#DejaVuSans-30" x="290.576172"/>
       <use xlink:href="#DejaVuSans-35" x="354.199219"/>
      </g>
     </g>
    </g>
    <g id="xtick_7">
     <g id="line2d_13">
      <path d="M 525.625175 320.4 
L 525.625175 43.2 
" clip-path="url(#pa129cb49dc)" style="fill: none; stroke-dasharray: 5.12,1.28,0.8,1.28; stroke-dashoffset: 0; stroke: #b0b0b0; stroke-width: 0.8"/>
     </g>
     <g id="line2d_14">
      <g>
       <use xlink:href="#mbb61cd1ba3" x="525.625175" y="320.4" style="fill: #a9a9a9; stroke: #a9a9a9; stroke-width: 0.8"/>
      </g>
     </g>
     <g id="text_7">
      <!-- 2023-09 -->
      <g style="fill: #a9a9a9" transform="translate(504.733769 334.998438) scale(0.1 -0.1)">
       <use xlink:href="#DejaVuSans-32"/>
       <use xlink:href="#DejaVuSans-30" x="63.623047"/>
       <use xlink:href="#DejaVuSans-32" x="127.246094"/>
       <use xlink:href="#DejaVuSans-33" x="190.869141"/>
       <use xlink:href="#DejaVuSans-2d" x="254.492188"/>
       <use xlink:href="#DejaVuSans-30" x="290.576172"/>
       <use xlink:href="#DejaVuSans-39" x="354.199219"/>
      </g>
     </g>
    </g>
    <g id="xtick_8">
     <g id="line2d_15">
      <path d="M 587.051748 320.4 
L 587.051748 43.2 
" clip-path="url(#pa129cb49dc)" style="fill: none; stroke-dasharray: 5.12,1.28,0.8,1.28; stroke-dashoffset: 0; stroke: #b0b0b0; stroke-width: 0.8"/>
     </g>
     <g id="line2d_16">
      <g>
       <use xlink:href="#mbb61cd1ba3" x="587.051748" y="320.4" style="fill: #a9a9a9; stroke: #a9a9a9; stroke-width: 0.8"/>
      </g>
     </g>
     <g id="text_8">
      <!-- 2024-01 -->
      <g style="fill: #a9a9a9" transform="translate(566.160342 334.998438) scale(0.1 -0.1)">
       <defs>
        <path id="DejaVuSans-34" d="M 2419 4116 
L 825 1625 
L 2419 1625 
L 2419 4116 
z
M 2253 4666 
L 3047 4666 
L 3047 1625 
L 3713 1625 
L 3713 1100 
L 3047 1100 
L 3047 0 
L 2419 0 
L 2419 1100 
L 313 1100 
L 313 1709 
L 2253 4666 
z
" transform="scale(0.015625)"/>
       </defs>
       <use xlink:href="#DejaVuSans-32"/>
       <use xlink:href="#DejaVuSans-30" x="63.623047"/>
       <use xlink:href="#DejaVuSans-32" x="127.246094"/>
       <use xlink:href="#DejaVuSans-34" x="190.869141"/>
       <use xlink:href="#DejaVuSans-2d" x="254.492188"/>
       <use xlink:href="#DejaVuSans-30" x="290.576172"/>
       <use xlink:href="#DejaVuSans-31" x="354.199219"/>
      </g>
     </g>
    </g>
    <g id="xtick_9">
     <g id="line2d_17">
      <path d="M 647.974825 320.4 
L 647.974825 43.2 
" clip-path="url(#pa129cb49dc)" style="fill: none; stroke-dasharray: 5.12,1.28,0.8,1.28; stroke-dashoffset: 0; stroke: #b0b0b0; stroke-width: 0.8"/>
     </g>
     <g id="line2d_18">
      <g>
       <use xlink:href="#mbb61cd1ba3" x="647.974825" y="320.4" style="fill: #a9a9a9; stroke: #a9a9a9; stroke-width: 0.8"/>
      </g>
     </g>
     <g id="text_9">
      <!-- 2024-05 -->
      <g style="fill: #a9a9a9" transform="translate(627.083419 334.998438) scale(0.1 -0.1)">
       <use xlink:href="#DejaVuSans-32"/>
       <use xlink:href="#DejaVuSans-30" x="63.623047"/>
       <use xlink:href="#DejaVuSans-32" x="127.246094"/>
       <use xlink:href="#DejaVuSans-34" x="190.869141"/>
       <use xlink:href="#DejaVuSans-2d" x="254.492188"/>
       <use xlink:href="#DejaVuSans-30" x="290.576172"/>
       <use xlink:href="#DejaVuSans-35" x="354.199219"/>
      </g>
     </g>
    </g>
    <g id="xtick_10">
     <g id="line2d_19">
      <path d="M 709.904895 320.4 
L 709.904895 43.2 
" clip-path="url(#pa129cb49dc)" style="fill: none; stroke-dasharray: 5.12,1.28,0.8,1.28; stroke-dashoffset: 0; stroke: #b0b0b0; stroke-width: 0.8"/>
     </g>
     <g id="line2d_20">
      <g>
       <use xlink:href="#mbb61cd1ba3" x="709.904895" y="320.4" style="fill: #a9a9a9; stroke: #a9a9a9; stroke-width: 0.8"/>
      </g>
     </g>
     <g id="text_10">
      <!-- 2024-09 -->
      <g style="fill: #a9a9a9" transform="translate(689.013489 334.998438) scale(0.1 -0.1)">
       <use xlink:href="#DejaVuSans-32"/>
       <use xlink:href="#DejaVuSans-30" x="63.623047"/>
       <use xlink:href="#DejaVuSans-32" x="127.246094"/>
       <use xlink:href="#DejaVuSans-34" x="190.869141"/>
       <use xlink:href="#DejaVuSans-2d" x="254.492188"/>
       <use xlink:href="#DejaVuSans-30" x="290.576172"/>
       <use xlink:href="#DejaVuSans-39" x="354.199219"/>
      </g>
     </g>
    </g>
    <g id="xtick_11">
     <g id="line2d_21">
      <path d="M 771.331469 320.4 
L 771.331469 43.2 
" clip-path="url(#pa129cb49dc)" style="fill: none; stroke-dasharray: 5.12,1.28,0.8,1.28; stroke-dashoffset: 0; stroke: #b0b0b0; stroke-width: 0.8"/>
     </g>
     <g id="line2d_22">
      <g>
       <use xlink:href="#mbb61cd1ba3" x="771.331469" y="320.4" style="fill: #a9a9a9; stroke: #a9a9a9; stroke-width: 0.8"/>
      </g>
     </g>
     <g id="text_11">
      <!-- 2025-01 -->
      <g style="fill: #a9a9a9" transform="translate(750.440062 334.998438) scale(0.1 -0.1)">
       <use xlink:href="#DejaVuSans-32"/>
       <use xlink:href="#DejaVuSans-30" x="63.623047"/>
       <use xlink:href="#DejaVuSans-32" x="127.246094"/>
       <use xlink:href="#DejaVuSans-35" x="190.869141"/>
       <use xlink:href="#DejaVuSans-2d" x="254.492188"/>
       <use xlink:href="#DejaVuSans-30" x="290.576172"/>
       <use xlink:href="#DejaVuSans-31" x="354.199219"/>
      </g>
     </g>
    </g>
   </g>
   <g id="matplotlib.axis_2">
    <g id="ytick_1">
     <g id="line2d_23">
      <path d="M 108 307.836217 
L 777.6 307.836217 
" clip-path="url(#pa129cb49dc)" style="fill: none; stroke-dasharray: 5.12,1.28,0.8,1.28; stroke-dashoffset: 0; stroke: #b0b0b0; stroke-width: 0.8"/>
     </g>
     <g id="line2d_24">
      <defs>
       <path id="m3dc919339c" d="M 0 0 
L -3.5 0 
" style="stroke: #a9a9a9; stroke-width: 0.8"/>
      </defs>
      <g>
       <use xlink:href="#m3dc919339c" x="108" y="307.836217" style="fill: #a9a9a9; stroke: #a9a9a9; stroke-width: 0.8"/>
      </g>
     </g>
     <g id="text_12">
      <!-- 0 -->
      <g style="fill: #a9a9a9" transform="translate(94.6375 311.635436) scale(0.1 -0.1)">
       <use xlink:href="#DejaVuSans-30"/>
      </g>
     </g>
    </g>
    <g id="ytick_2">
     <g id="line2d_25">
      <path d="M 108 278.862374 
L 777.6 278.862374 
" clip-path="url(#pa129cb49dc)" style="fill: none; stroke-dasharray: 5.12,1.28,0.8,1.28; stroke-dashoffset: 0; stroke: #b0b0b0; stroke-width: 0.8"/>
     </g>
     <g id="line2d_26">
      <g>
       <use xlink:href="#m3dc919339c" x="108" y="278.862374" style="fill: #a9a9a9; stroke: #a9a9a9; stroke-width: 0.8"/>
      </g>
     </g>
     <g id="text_13">
      <!-- 800 -->
      <g style="fill: #a9a9a9" transform="translate(81.9125 282.661593) scale(0.1 -0.1)">
       <defs>
        <path id="DejaVuSans-38" d="M 2034 2216 
Q 1584 2216 1326 1975 
Q 1069 1734 1069 1313 
Q 1069 891 1326 650 
Q 1584 409 2034 409 
Q 2484 409 2743 651 
Q 3003 894 3003 1313 
Q 3003 1734 2745 1975 
Q 2488 2216 2034 2216 
z
M 1403 2484 
Q 997 2584 770 2862 
Q 544 3141 544 3541 
Q 544 4100 942 4425 
Q 1341 4750 2034 4750 
Q 2731 4750 3128 4425 
Q 3525 4100 3525 3541 
Q 3525 3141 3298 2862 
Q 3072 2584 2669 2484 
Q 3125 2378 3379 2068 
Q 3634 1759 3634 1313 
Q 3634 634 3220 271 
Q 2806 -91 2034 -91 
Q 1263 -91 848 271 
Q 434 634 434 1313 
Q 434 1759 690 2068 
Q 947 2378 1403 2484 
z
M 1172 3481 
Q 1172 3119 1398 2916 
Q 1625 2713 2034 2713 
Q 2441 2713 2670 2916 
Q 2900 3119 2900 3481 
Q 2900 3844 2670 4047 
Q 2441 4250 2034 4250 
Q 1625 4250 1398 4047 
Q 1172 3844 1172 3481 
z
" transform="scale(0.015625)"/>
       </defs>
       <use xlink:href="#DejaVuSans-38"/>
       <use xlink:href="#DejaVuSans-30" x="63.623047"/>
       <use xlink:href="#DejaVuSans-30" x="127.246094"/>
      </g>
     </g>
    </g>
    <g id="ytick_3">
     <g id="line2d_27">
      <path d="M 108 249.888531 
L 777.6 249.888531 
" clip-path="url(#pa129cb49dc)" style="fill: none; stroke-dasharray: 5.12,1.28,0.8,1.28; stroke-dashoffset: 0; stroke: #b0b0b0; stroke-width: 0.8"/>
     </g>
     <g id="line2d_28">
      <g>
       <use xlink:href="#m3dc919339c" x="108" y="249.888531" style="fill: #a9a9a9; stroke: #a9a9a9; stroke-width: 0.8"/>
      </g>
     </g>
     <g id="text_14">
      <!-- 1600 -->
      <g style="fill: #a9a9a9" transform="translate(75.55 253.68775) scale(0.1 -0.1)">
       <defs>
        <path id="DejaVuSans-36" d="M 2113 2584 
Q 1688 2584 1439 2293 
Q 1191 2003 1191 1497 
Q 1191 994 1439 701 
Q 1688 409 2113 409 
Q 2538 409 2786 701 
Q 3034 994 3034 1497 
Q 3034 2003 2786 2293 
Q 2538 2584 2113 2584 
z
M 3366 4563 
L 3366 3988 
Q 3128 4100 2886 4159 
Q 2644 4219 2406 4219 
Q 1781 4219 1451 3797 
Q 1122 3375 1075 2522 
Q 1259 2794 1537 2939 
Q 1816 3084 2150 3084 
Q 2853 3084 3261 2657 
Q 3669 2231 3669 1497 
Q 3669 778 3244 343 
Q 2819 -91 2113 -91 
Q 1303 -91 875 529 
Q 447 1150 447 2328 
Q 447 3434 972 4092 
Q 1497 4750 2381 4750 
Q 2619 4750 2861 4703 
Q 3103 4656 3366 4563 
z
" transform="scale(0.015625)"/>
       </defs>
       <use xlink:href="#DejaVuSans-31"/>
       <use xlink:href="#DejaVuSans-36" x="63.623047"/>
       <use xlink:href="#DejaVuSans-30" x="127.246094"/>
       <use xlink:href="#DejaVuSans-30" x="190.869141"/>
      </g>
     </g>
    </g>
    <g id="ytick_4">
     <g id="line2d_29">
      <path d="M 108 220.914688 
L 777.6 220.914688 
" clip-path="url(#pa129cb49dc)" style="fill: none; stroke-dasharray: 5.12,1.28,0.8,1.28; stroke-dashoffset: 0; stroke: #b0b0b0; stroke-width: 0.8"/>
     </g>
     <g id="line2d_30">
      <g>
       <use xlink:href="#m3dc919339c" x="108" y="220.914688" style="fill: #a9a9a9; stroke: #a9a9a9; stroke-width: 0.8"/>
      </g>
     </g>
     <g id="text_15">
      <!-- 2400 -->
      <g style="fill: #a9a9a9" transform="translate(75.55 224.713907) scale(0.1 -0.1)">
       <use xlink:href="#DejaVuSans-32"/>
       <use xlink:href="#DejaVuSans-34" x="63.623047"/>
       <use xlink:href="#DejaVuSans-30" x="127.246094"/>
       <use xlink:href="#DejaVuSans-30" x="190.869141"/>
      </g>
     </g>
    </g>
    <g id="ytick_5">
     <g id="line2d_31">
      <path d="M 108 191.940845 
L 777.6 191.940845 
" clip-path="url(#pa129cb49dc)" style="fill: none; stroke-dasharray: 5.12,1.28,0.8,1.28; stroke-dashoffset: 0; stroke: #b0b0b0; stroke-width: 0.8"/>
     </g>
     <g id="line2d_32">
      <g>
       <use xlink:href="#m3dc919339c" x="108" y="191.940845" style="fill: #a9a9a9; stroke: #a9a9a9; stroke-width: 0.8"/>
      </g>
     </g>
     <g id="text_16">
      <!-- 3200 -->
      <g style="fill: #a9a9a9" transform="translate(75.55 195.740064) scale(0.1 -0.1)">
       <use xlink:href="#DejaVuSans-33"/>
       <use xlink:href="#DejaVuSans-32" x="63.623047"/>
       <use xlink:href="#DejaVuSans-30" x="127.246094"/>
       <use xlink:href="#DejaVuSans-30" x="190.869141"/>
      </g>
     </g>
    </g>
    <g id="ytick_6">
     <g id="line2d_33">
      <path d="M 108 162.967002 
L 777.6 162.967002 
" clip-path="url(#pa129cb49dc)" style="fill: none; stroke-dasharray: 5.12,1.28,0.8,1.28; stroke-dashoffset: 0; stroke: #b0b0b0; stroke-width: 0.8"/>
     </g>
     <g id="line2d_34">
      <g>
       <use xlink:href="#m3dc919339c" x="108" y="162.967002" style="fill: #a9a9a9; stroke: #a9a9a9; stroke-width: 0.8"/>
      </g>
     </g>
     <g id="text_17">
      <!-- 4000 -->
      <g style="fill: #a9a9a9" transform="translate(75.55 166.766221) scale(0.1 -0.1)">
       <use xlink:href="#DejaVuSans-34"/>
       <use xlink:href="#DejaVuSans-30" x="63.623047"/>
       <use xlink:href="#DejaVuSans-30" x="127.246094"/>
       <use xlink:href="#DejaVuSans-30" x="190.869141"/>
      </g>
     </g>
    </g>
    <g id="ytick_7">
     <g id="line2d_35">
      <path d="M 108 133.993159 
L 777.6 133.993159 
" clip-path="url(#pa129cb49dc)" style="fill: none; stroke-dasharray: 5.12,1.28,0.8,1.28; stroke-dashoffset: 0; stroke: #b0b0b0; stroke-width: 0.8"/>
     </g>
     <g id="line2d_36">
      <g>
       <use xlink:href="#m3dc919339c" x="108" y="133.993159" style="fill: #a9a9a9; stroke: #a9a9a9; stroke-width: 0.8"/>
      </g>
     </g>
     <g id="text_18">
      <!-- 4800 -->
      <g style="fill: #a9a9a9" transform="translate(75.55 137.792378) scale(0.1 -0.1)">
       <use xlink:href="#DejaVuSans-34"/>
       <use xlink:href="#DejaVuSans-38" x="63.623047"/>
       <use xlink:href="#DejaVuSans-30" x="127.246094"/>
       <use xlink:href="#DejaVuSans-30" x="190.869141"/>
      </g>
     </g>
    </g>
    <g id="ytick_8">
     <g id="line2d_37">
      <path d="M 108 105.019316 
L 777.6 105.019316 
" clip-path="url(#pa129cb49dc)" style="fill: none; stroke-dasharray: 5.12,1.28,0.8,1.28; stroke-dashoffset: 0; stroke: #b0b0b0; stroke-width: 0.8"/>
     </g>
     <g id="line2d_38">
      <g>
       <use xlink:href="#m3dc919339c" x="108" y="105.019316" style="fill: #a9a9a9; stroke: #a9a9a9; stroke-width: 0.8"/>
      </g>
     </g>
     <g id="text_19">
      <!-- 5600 -->
      <g style="fill: #a9a9a9" transform="translate(75.55 108.818535) scale(0.1 -0.1)">
       <use xlink:href="#DejaVuSans-35"/>
       <use xlink:href="#DejaVuSans-36" x="63.623047"/>
       <use xlink:href="#DejaVuSans-30" x="127.246094"/>
       <use xlink:href="#DejaVuSans-30" x="190.869141"/>
      </g>
     </g>
    </g>
    <g id="ytick_9">
     <g id="line2d_39">
      <path d="M 108 76.045473 
L 777.6 76.045473 
" clip-path="url(#pa129cb49dc)" style="fill: none; stroke-dasharray: 5.12,1.28,0.8,1.28; stroke-dashoffset: 0; stroke: #b0b0b0; stroke-width: 0.8"/>
     </g>
     <g id="line2d_40">
      <g>
       <use xlink:href="#m3dc919339c" x="108" y="76.045473" style="fill: #a9a9a9; stroke: #a9a9a9; stroke-width: 0.8"/>
      </g>
     </g>
     <g id="text_20">
      <!-- 6400 -->
      <g style="fill: #a9a9a9" transform="translate(75.55 79.844692) scale(0.1 -0.1)">
       <use xlink:href="#DejaVuSans-36"/>
       <use xlink:href="#DejaVuSans-34" x="63.623047"/>
       <use xlink:href="#DejaVuSans-30" x="127.246094"/>
       <use xlink:href="#DejaVuSans-30" x="190.869141"/>
      </g>
     </g>
    </g>
    <g id="ytick_10">
     <g id="line2d_41">
      <path d="M 108 47.07163 
L 777.6 47.07163 
" clip-path="url(#pa129cb49dc)" style="fill: none; stroke-dasharray: 5.12,1.28,0.8,1.28; stroke-dashoffset: 0; stroke: #b0b0b0; stroke-width: 0.8"/>
     </g>
     <g id="line2d_42">
      <g>
       <use xlink:href="#m3dc919339c" x="108" y="47.07163" style="fill: #a9a9a9; stroke: #a9a9a9; stroke-width: 0.8"/>
      </g>
     </g>
     <g id="text_21">
      <!-- 7200 -->
      <g style="fill: #a9a9a9" transform="translate(75.55 50.870849) scale(0.1 -0.1)">
       <defs>
        <path id="DejaVuSans-37" d="M 525 4666 
L 3525 4666 
L 3525 4397 
L 1831 0 
L 1172 0 
L 2766 4134 
L 525 4134 
L 525 4666 
z
" transform="scale(0.015625)"/>
       </defs>
       <use xlink:href="#DejaVuSans-37"/>
       <use xlink:href="#DejaVuSans-32" x="63.623047"/>
       <use xlink:href="#DejaVuSans-30" x="127.246094"/>
       <use xlink:href="#DejaVuSans-30" x="190.869141"/>
      </g>
     </g>
    </g>
   </g>
   <g id="line2d_43">
    <path d="M 138.436364 307.727565 
L 141.457343 307.474044 
L 141.960839 307.25674 
L 143.974825 307.003219 
L 145.988811 306.604829 
L 146.995804 306.45996 
L 149.513287 306.242656 
L 150.52028 305.844266 
L 151.023776 305.192354 
L 151.527273 304.830181 
L 152.030769 303.707445 
L 152.534266 303.63501 
L 153.037762 303.23662 
L 154.044755 302.729577 
L 156.058741 301.136016 
L 158.072727 300.158149 
L 159.583217 299.47002 
L 160.086713 298.673239 
L 161.093706 297.948893 
L 161.597203 297.73159 
L 166.632168 297.007243 
L 167.135664 296.78994 
L 170.66014 296.500201 
L 172.674126 296.029376 
L 176.702098 295.486117 
L 177.205594 295.232596 
L 177.709091 295.160161 
L 178.716084 294.834205 
L 182.240559 294.254728 
L 183.247552 293.96499 
L 187.779021 293.204427 
L 188.786014 292.987123 
L 189.793007 292.950905 
L 191.806993 292.48008 
L 192.31049 291.791952 
L 193.820979 291.212475 
L 195.331469 290.814085 
L 195.834965 290.560563 
L 196.841958 290.379477 
L 198.855944 289.8 
L 199.862937 289.727565 
L 200.86993 289.474044 
L 202.883916 288.967002 
L 203.387413 288.930785 
L 204.394406 288.45996 
L 204.897902 288.387525 
L 205.401399 288.134004 
L 210.93986 287.228571 
L 212.953846 286.649095 
L 213.457343 286.323139 
L 215.974825 285.490141 
L 216.981818 284.802012 
L 218.492308 284.512274 
L 231.583217 280.854326 
L 232.086713 280.854326 
L 232.59021 280.637022 
L 233.597203 280.52837 
L 234.100699 280.347284 
L 236.114685 280.238632 
L 237.121678 280.057545 
L 238.128671 279.550503 
L 239.639161 279.007243 
L 240.142657 278.681288 
L 241.14965 278.24668 
L 241.653147 277.993159 
L 242.66014 277.667203 
L 243.163636 277.522334 
L 244.170629 276.90664 
L 244.674126 276.36338 
L 245.681119 274.842254 
L 246.184615 274.697384 
L 246.688112 274.697384 
L 248.198601 273.828169 
L 248.702098 273.574648 
L 249.205594 273.465996 
L 249.709091 272.995171 
L 250.716084 272.596781 
L 251.723077 272.125956 
L 254.240559 268.938833 
L 257.261538 267.345272 
L 258.268531 266.548491 
L 258.772028 266.222535 
L 259.275524 265.461972 
L 259.779021 264.339235 
L 260.282517 263.578672 
L 260.786014 263.180282 
L 261.28951 262.962978 
L 264.813986 259.993159 
L 265.820979 258.797988 
L 266.827972 258.073642 
L 268.338462 257.059557 
L 268.841958 256.62495 
L 269.848951 256.298994 
L 271.359441 255.429779 
L 272.86993 254.451911 
L 274.883916 252.677264 
L 275.890909 252.278873 
L 276.897902 251.590744 
L 277.401399 251.301006 
L 277.904895 251.228571 
L 279.415385 250.395573 
L 279.918881 249.852314 
L 282.436364 248.512274 
L 282.93986 248.331187 
L 284.45035 247.317103 
L 292.002797 244.673239 
L 293.00979 243.767807 
L 294.016783 243.296982 
L 295.023776 242.753722 
L 295.527273 242.463984 
L 296.534266 242.174245 
L 297.037762 241.84829 
L 297.541259 241.703421 
L 299.051748 240.725553 
L 301.569231 240.146076 
L 303.07972 239.276861 
L 304.59021 238.950905 
L 305.093706 238.806036 
L 306.604196 237.6833 
L 308.618182 237.14004 
L 309.121678 236.74165 
L 312.142657 235.727565 
L 313.14965 235.546479 
L 314.156643 235.148089 
L 317.681119 233.880483 
L 318.688112 233.735614 
L 320.198601 233.228571 
L 322.716084 232.0334 
L 324.73007 230.946881 
L 328.758042 229.317103 
L 329.261538 229.244668 
L 330.268531 228.628974 
L 330.772028 228.556539 
L 332.786014 227.723541 
L 334.8 227.433803 
L 335.806993 226.926761 
L 336.31049 226.492153 
L 336.813986 225.58672 
L 338.827972 225.043461 
L 340.338462 224.282897 
L 340.841958 224.174245 
L 344.86993 222.254728 
L 346.38042 221.96499 
L 347.387413 221.457948 
L 347.890909 221.240644 
L 348.394406 221.168209 
L 350.408392 220.262777 
L 351.918881 219.321127 
L 353.429371 219.031388 
L 355.946853 218.415694 
L 356.45035 218.017304 
L 357.960839 217.474044 
L 359.974825 216.677264 
L 360.478322 216.315091 
L 360.981818 216.134004 
L 361.988811 215.590744 
L 364.506294 214.757746 
L 366.016783 213.562575 
L 366.52028 213.453924 
L 367.527273 212.657143 
L 368.030769 212.584708 
L 368.534266 211.787928 
L 369.037762 211.570624 
L 369.541259 211.172233 
L 370.044755 211.099799 
L 371.051748 210.484105 
L 372.058741 210.158149 
L 372.562238 209.795976 
L 373.065734 209.614889 
L 374.576224 208.564588 
L 376.59021 207.514286 
L 377.093706 207.441851 
L 378.604196 206.681288 
L 379.107692 205.84829 
L 380.114685 205.123944 
L 380.618182 205.015292 
L 381.625175 204.399598 
L 382.128671 204.290946 
L 383.135664 203.783903 
L 385.14965 202.806036 
L 385.653147 202.443863 
L 386.66014 201.465996 
L 387.667133 200.850302 
L 388.170629 200.524346 
L 388.674126 199.981087 
L 390.688112 198.604829 
L 391.191608 198.025352 
L 391.695105 197.626962 
L 392.702098 197.264789 
L 393.709091 196.57666 
L 395.21958 195.816097 
L 395.723077 195.743662 
L 397.233566 194.946881 
L 398.240559 194.331187 
L 403.275524 192.520322 
L 403.779021 192.121932 
L 405.793007 191.361368 
L 406.296503 191.216499 
L 406.8 190.818109 
L 409.317483 189.441851 
L 410.324476 187.449899 
L 411.331469 186.290946 
L 412.338462 185.711469 
L 413.848951 185.095775 
L 414.352448 185.02334 
L 414.855944 184.733602 
L 417.373427 183.936821 
L 417.876923 183.719517 
L 418.883916 183.031388 
L 420.394406 182.379477 
L 421.401399 181.836217 
L 421.904895 181.474044 
L 422.408392 181.25674 
L 422.911888 180.894567 
L 423.415385 180.351308 
L 424.422378 179.808048 
L 426.93986 178.468008 
L 429.960839 176.983099 
L 430.967832 176.657143 
L 432.478322 176.186318 
L 434.492308 175.280885 
L 435.499301 174.882495 
L 436.002797 174.484105 
L 438.016783 173.795976 
L 439.023776 173.07163 
L 440.030769 172.637022 
L 441.037762 171.840241 
L 442.044755 171.478068 
L 442.548252 171.043461 
L 443.051748 170.971026 
L 444.058741 170.210463 
L 445.065734 169.703421 
L 445.569231 169.486117 
L 446.072727 168.979074 
L 449.597203 167.602817 
L 450.604196 167.168209 
L 452.114685 166.697384 
L 453.121678 166.552515 
L 453.625175 166.335211 
L 454.128671 166.262777 
L 455.135664 165.828169 
L 455.639161 165.791952 
L 457.653147 165.031388 
L 459.163636 163.981087 
L 459.667133 163.8 
L 460.674126 163.25674 
L 461.177622 163.111871 
L 464.198601 161.445875 
L 464.702098 161.337223 
L 466.212587 160.468008 
L 467.723077 159.960966 
L 468.73007 159.63501 
L 470.744056 158.983099 
L 471.751049 158.657143 
L 473.765035 158.258753 
L 474.268531 158.041449 
L 474.772028 157.969014 
L 475.779021 157.534406 
L 476.282517 157.461972 
L 476.786014 157.208451 
L 477.793007 157.027364 
L 479.303497 156.484105 
L 480.31049 156.375453 
L 481.820979 156.049497 
L 484.338462 155.614889 
L 497.429371 151.84829 
L 497.932867 151.341247 
L 498.93986 150.942857 
L 501.960839 149.856338 
L 502.464336 149.530382 
L 502.967832 149.42173 
L 503.471329 149.131992 
L 504.981818 148.697384 
L 505.988811 148.443863 
L 506.492308 148.117907 
L 506.995804 148.009256 
L 507.499301 147.574648 
L 509.00979 147.284909 
L 510.016783 146.814085 
L 510.52028 146.234608 
L 512.534266 145.763783 
L 516.058741 145.039437 
L 516.562238 145.039437 
L 517.065734 144.822133 
L 519.07972 144.45996 
L 519.583217 144.242656 
L 521.597203 143.880483 
L 522.604196 143.445875 
L 523.611189 143.264789 
L 526.128671 142.649095 
L 528.142657 142.0334 
L 528.646154 141.924748 
L 529.14965 141.671227 
L 530.156643 141.417706 
L 530.66014 141.127968 
L 532.170629 140.620926 
L 532.674126 140.29497 
L 533.681119 140.005231 
L 534.688112 139.679276 
L 535.695105 139.280885 
L 537.205594 138.628974 
L 539.21958 138.375453 
L 543.247552 136.962978 
L 543.751049 136.600805 
L 544.254545 136.492153 
L 544.758042 136.238632 
L 545.261538 136.202414 
L 550.8 134.282897 
L 553.317483 133.630986 
L 554.324476 133.160161 
L 555.834965 132.834205 
L 556.338462 132.435815 
L 556.841958 132.182294 
L 557.345455 131.5666 
L 557.848951 131.204427 
L 558.855944 130.914688 
L 559.359441 130.516298 
L 562.38042 129.393561 
L 562.883916 129.067606 
L 563.890909 128.777867 
L 564.394406 128.451911 
L 566.911888 127.655131 
L 568.422378 126.785915 
L 568.925874 126.677264 
L 571.443357 125.337223 
L 572.953846 124.685312 
L 573.457343 124.323139 
L 574.464336 123.997183 
L 575.471329 123.417706 
L 575.974825 123.23662 
L 576.478322 122.874447 
L 583.023776 120.592757 
L 583.527273 120.484105 
L 584.030769 120.158149 
L 586.044755 119.759759 
L 587.051748 119.361368 
L 587.555245 119.07163 
L 588.058741 118.926761 
L 590.072727 117.876459 
L 590.576224 117.804024 
L 592.086713 116.971026 
L 593.597203 116.463984 
L 597.121678 115.015292 
L 597.625175 114.870423 
L 598.128671 114.544467 
L 599.135664 114.435815 
L 599.639161 114.109859 
L 600.646154 113.928773 
L 601.653147 113.457948 
L 602.156643 113.240644 
L 602.66014 113.168209 
L 605.177622 112.190342 
L 606.688112 111.791952 
L 607.695105 111.538431 
L 609.205594 111.103823 
L 610.212587 110.705433 
L 612.226573 109.618913 
L 613.233566 109.220523 
L 613.737063 108.894567 
L 614.744056 108.677264 
L 615.247552 108.387525 
L 615.751049 108.278873 
L 617.261538 107.445875 
L 618.268531 107.047485 
L 620.282517 106.286922 
L 622.8 105.453924 
L 623.806993 104.946881 
L 626.324476 104.113883 
L 627.834965 103.570624 
L 628.338462 103.425755 
L 629.345455 102.882495 
L 631.359441 101.977062 
L 636.394406 100.057545 
L 636.897902 99.73159 
L 638.911888 99.043461 
L 639.415385 99.043461 
L 640.422378 98.608853 
L 641.429371 97.703421 
L 641.932867 97.268813 
L 643.443357 96.544467 
L 643.946853 96.435815 
L 644.45035 96.182294 
L 644.953846 96.109859 
L 645.457343 95.747686 
L 645.960839 95.639034 
L 646.967832 95.02334 
L 648.478322 94.262777 
L 649.485315 93.864386 
L 649.988811 93.610865 
L 651.499301 93.284909 
L 654.016783 92.451911 
L 655.023776 92.125956 
L 656.534266 91.365392 
L 657.541259 90.894567 
L 658.548252 90.641046 
L 660.058741 89.952918 
L 664.59021 88.286922 
L 666.100699 87.381489 
L 666.604196 87.272837 
L 667.611189 86.765795 
L 668.618182 86.403622 
L 669.121678 85.969014 
L 670.128671 85.570624 
L 671.639161 84.95493 
L 672.142657 84.556539 
L 672.646154 84.520322 
L 673.653147 84.230584 
L 674.66014 83.904628 
L 675.163636 83.651107 
L 675.667133 83.578672 
L 677.177622 83.035412 
L 678.688112 82.492153 
L 679.695105 82.093763 
L 680.198601 81.695372 
L 681.709091 81.296982 
L 682.212587 81.007243 
L 683.21958 80.753722 
L 684.73007 79.920724 
L 685.233566 79.884507 
L 686.744056 79.413682 
L 687.751049 79.341247 
L 688.758042 78.942857 
L 691.779021 78.073642 
L 692.786014 78.037425 
L 696.813986 76.769819 
L 697.820979 76.226559 
L 698.324476 75.791952 
L 699.834965 74.922736 
L 700.841958 74.307042 
L 702.855944 73.727565 
L 703.359441 73.437827 
L 703.862937 73.329175 
L 704.366434 72.930785 
L 707.387413 71.699396 
L 709.401399 71.156137 
L 710.408392 70.721529 
L 710.911888 70.468008 
L 711.918881 70.142052 
L 712.422378 69.816097 
L 713.429371 69.63501 
L 715.946853 68.476056 
L 716.45035 68.186318 
L 717.960839 67.824145 
L 719.471329 66.846278 
L 719.974825 66.773843 
L 722.492308 65.795976 
L 724.002797 65.433803 
L 724.506294 65.361368 
L 725.00979 65.144064 
L 725.513287 65.107847 
L 726.52028 64.781891 
L 727.023776 64.745674 
L 728.534266 64.166197 
L 730.548252 63.58672 
L 731.555245 62.826157 
L 733.569231 61.739638 
L 735.07972 61.232596 
L 738.100699 59.856338 
L 739.107692 59.313078 
L 739.611189 59.059557 
L 740.114685 58.588732 
L 742.632168 57.828169 
L 743.639161 57.248692 
L 745.653147 56.524346 
L 746.156643 56.053521 
L 747.163636 55.8 
L 747.163636 55.8 
" clip-path="url(#pa129cb49dc)" style="fill: none; stroke: #1f77b4; stroke-width: 1.5; stroke-linecap: square"/>
   </g>
   <g id="line2d_44">
    <path d="M 138.93986 307.8 
L 143.471329 307.691348 
L 147.499301 307.510262 
L 149.513287 307.510262 
L 150.016783 307.365392 
L 152.534266 307.25674 
L 155.555245 306.930785 
L 158.576224 306.822133 
L 159.583217 306.713481 
L 163.107692 306.568612 
L 166.632168 306.45996 
L 169.14965 306.387525 
L 175.695105 306.278873 
L 178.212587 306.206439 
L 181.737063 306.097787 
L 184.254545 306.025352 
L 189.793007 305.9167 
L 191.806993 305.735614 
L 193.820979 305.699396 
L 196.841958 305.590744 
L 198.855944 305.554527 
L 201.373427 305.482093 
L 203.387413 305.301006 
L 207.918881 305.192354 
L 208.925874 305.11992 
L 210.93986 305.011268 
L 213.960839 304.902616 
L 215.974825 304.793964 
L 225.037762 304.250704 
L 228.562238 304.142052 
L 230.072727 303.997183 
L 232.59021 303.888531 
L 237.625175 303.63501 
L 242.66014 303.562575 
L 244.674126 303.345272 
L 246.688112 303.23662 
L 252.226573 302.729577 
L 255.751049 302.331187 
L 257.261538 302.258753 
L 261.793007 301.715493 
L 264.31049 301.643058 
L 265.820979 301.498189 
L 267.331469 301.389537 
L 281.429371 300.339235 
L 282.436364 300.158149 
L 285.457343 300.049497 
L 293.513287 299.578672 
L 297.037762 299.47002 
L 299.051748 299.252716 
L 301.569231 299.144064 
L 304.59021 299.035412 
L 307.107692 298.926761 
L 309.121678 298.890543 
L 311.639161 298.818109 
L 312.646154 298.673239 
L 319.695105 298.564588 
L 320.702098 298.455936 
L 326.744056 298.347284 
L 331.275524 298.12998 
L 334.8 298.021328 
L 336.813986 297.804024 
L 340.338462 297.695372 
L 341.345455 297.514286 
L 343.862937 297.441851 
L 348.897902 297.369416 
L 351.415385 297.115895 
L 354.436364 297.007243 
L 356.45035 296.826157 
L 361.485315 296.572636 
L 366.52028 296.463984 
L 371.051748 296.24668 
L 372.562238 296.210463 
L 373.569231 296.065594 
L 376.086713 295.956942 
L 377.093706 295.884507 
L 378.100699 295.812072 
L 379.107692 295.739638 
L 383.639161 295.667203 
L 385.14965 295.558551 
L 398.744056 294.689336 
L 401.261538 294.580684 
L 403.779021 294.508249 
L 410.827972 294.399598 
L 411.834965 294.254728 
L 418.883916 294.146076 
L 423.918881 293.892555 
L 424.925874 293.856338 
L 425.932867 293.747686 
L 428.45035 293.639034 
L 430.967832 293.5666 
L 433.485315 293.457948 
L 436.002797 293.385513 
L 440.534266 293.276861 
L 443.555245 293.168209 
L 450.604196 293.059557 
L 456.142657 292.769819 
L 458.156643 292.697384 
L 459.667133 292.588732 
L 466.716084 292.48008 
L 469.737063 292.371429 
L 478.8 292.262777 
L 480.813986 292.226559 
L 486.855944 292.154125 
L 487.862937 292.08169 
L 494.911888 291.973038 
L 496.925874 291.936821 
L 510.016783 291.828169 
L 511.527273 291.6833 
L 534.184615 291.574648 
L 536.702098 291.502213 
L 549.793007 291.393561 
L 550.8 291.321127 
L 553.317483 291.248692 
L 554.827972 291.103823 
L 557.848951 290.995171 
L 561.373427 290.850302 
L 565.904895 290.74165 
L 568.422378 290.669215 
L 571.946853 290.560563 
L 575.974825 290.379477 
L 578.492308 290.270825 
L 580.506294 290.234608 
L 585.037762 290.125956 
L 587.051748 290.089738 
L 593.597203 289.981087 
L 595.611189 289.944869 
L 598.128671 289.836217 
L 601.14965 289.727565 
L 604.674126 289.655131 
L 605.681119 289.582696 
L 617.765035 289.474044 
L 624.31049 289.111871 
L 626.827972 289.039437 
L 627.834965 288.930785 
L 628.841958 288.85835 
L 632.86993 288.749698 
L 635.890909 288.641046 
L 640.925874 288.532394 
L 643.443357 288.278873 
L 648.478322 288.170221 
L 649.485315 288.061569 
L 654.52028 287.952918 
L 657.037762 287.880483 
L 662.576224 287.844266 
L 663.583217 287.735614 
L 669.121678 287.626962 
L 670.128671 287.554527 
L 681.205594 287.445875 
L 684.226573 287.337223 
L 691.779021 287.228571 
L 693.793007 287.192354 
L 698.324476 287.11992 
L 699.331469 287.011268 
L 705.373427 286.902616 
L 708.394406 286.793964 
L 717.457343 286.685312 
L 718.967832 286.57666 
L 720.478322 286.468008 
L 721.988811 286.359356 
L 729.541259 286.250704 
L 733.065734 286.105835 
L 746.156643 285.997183 
L 747.163636 285.960966 
L 747.163636 285.960966 
" clip-path="url(#pa129cb49dc)" style="fill: none; stroke: #ff7f0e; stroke-width: 1.5; stroke-linecap: square"/>
   </g>
   <g id="patch_3">
    <path d="M 108 320.4 
L 108 43.2 
" style="fill: none; stroke: #a9a9a9; stroke-width: 0.8; stroke-linejoin: miter; stroke-linecap: square"/>
   </g>
   <g id="patch_4">
    <path d="M 777.6 320.4 
L 777.6 43.2 
" style="fill: none"/>
   </g>
   <g id="patch_5">
    <path d="M 108 320.4 
L 777.6 320.4 
" style="fill: none; stroke: #a9a9a9; stroke-width: 0.8; stroke-linejoin: miter; stroke-linecap: square"/>
   </g>
   <g id="patch_6">
    <path d="M 108 43.2 
L 777.6 43.2 
" style="fill: none"/>
   </g>
   <g id="text_22">
    <!-- get_subscribe history -->
    <g style="fill: #a9a9a9" transform="translate(378.6075 37.2) scale(0.12 -0.12)">
     <defs>
      <path id="DejaVuSans-67" d="M 2906 1791 
Q 2906 2416 2648 2759 
Q 2391 3103 1925 3103 
Q 1463 3103 1205 2759 
Q 947 2416 947 1791 
Q 947 1169 1205 825 
Q 1463 481 1925 481 
Q 2391 481 2648 825 
Q 2906 1169 2906 1791 
z
M 3481 434 
Q 3481 -459 3084 -895 
Q 2688 -1331 1869 -1331 
Q 1566 -1331 1297 -1286 
Q 1028 -1241 775 -1147 
L 775 -588 
Q 1028 -725 1275 -790 
Q 1522 -856 1778 -856 
Q 2344 -856 2625 -561 
Q 2906 -266 2906 331 
L 2906 616 
Q 2728 306 2450 153 
Q 2172 0 1784 0 
Q 1141 0 747 490 
Q 353 981 353 1791 
Q 353 2603 747 3093 
Q 1141 3584 1784 3584 
Q 2172 3584 2450 3431 
Q 2728 3278 2906 2969 
L 2906 3500 
L 3481 3500 
L 3481 434 
z
" transform="scale(0.015625)"/>
      <path id="DejaVuSans-65" d="M 3597 1894 
L 3597 1613 
L 953 1613 
Q 991 1019 1311 708 
Q 1631 397 2203 397 
Q 2534 397 2845 478 
Q 3156 559 3463 722 
L 3463 178 
Q 3153 47 2828 -22 
Q 2503 -91 2169 -91 
Q 1331 -91 842 396 
Q 353 884 353 1716 
Q 353 2575 817 3079 
Q 1281 3584 2069 3584 
Q 2775 3584 3186 3129 
Q 3597 2675 3597 1894 
z
M 3022 2063 
Q 3016 2534 2758 2815 
Q 2500 3097 2075 3097 
Q 1594 3097 1305 2825 
Q 1016 2553 972 2059 
L 3022 2063 
z
" transform="scale(0.015625)"/>
      <path id="DejaVuSans-74" d="M 1172 4494 
L 1172 3500 
L 2356 3500 
L 2356 3053 
L 1172 3053 
L 1172 1153 
Q 1172 725 1289 603 
Q 1406 481 1766 481 
L 2356 481 
L 2356 0 
L 1766 0 
Q 1100 0 847 248 
Q 594 497 594 1153 
L 594 3053 
L 172 3053 
L 172 3500 
L 594 3500 
L 594 4494 
L 1172 4494 
z
" transform="scale(0.015625)"/>
      <path id="DejaVuSans-5f" d="M 3263 -1063 
L 3263 -1509 
L -63 -1509 
L -63 -1063 
L 3263 -1063 
z
" transform="scale(0.015625)"/>
      <path id="DejaVuSans-73" d="M 2834 3397 
L 2834 2853 
Q 2591 2978 2328 3040 
Q 2066 3103 1784 3103 
Q 1356 3103 1142 2972 
Q 928 2841 928 2578 
Q 928 2378 1081 2264 
Q 1234 2150 1697 2047 
L 1894 2003 
Q 2506 1872 2764 1633 
Q 3022 1394 3022 966 
Q 3022 478 2636 193 
Q 2250 -91 1575 -91 
Q 1294 -91 989 -36 
Q 684 19 347 128 
L 347 722 
Q 666 556 975 473 
Q 1284 391 1588 391 
Q 1994 391 2212 530 
Q 2431 669 2431 922 
Q 2431 1156 2273 1281 
Q 2116 1406 1581 1522 
L 1381 1569 
Q 847 1681 609 1914 
Q 372 2147 372 2553 
Q 372 3047 722 3315 
Q 1072 3584 1716 3584 
Q 2034 3584 2315 3537 
Q 2597 3491 2834 3397 
z
" transform="scale(0.015625)"/>
      <path id="DejaVuSans-75" d="M 544 1381 
L 544 3500 
L 1119 3500 
L 1119 1403 
Q 1119 906 1312 657 
Q 1506 409 1894 409 
Q 2359 409 2629 706 
Q 2900 1003 2900 1516 
L 2900 3500 
L 3475 3500 
L 3475 0 
L 2900 0 
L 2900 538 
Q 2691 219 2414 64 
Q 2138 -91 1772 -91 
Q 1169 -91 856 284 
Q 544 659 544 1381 
z
M 1991 3584 
L 1991 3584 
z
" transform="scale(0.015625)"/>
      <path id="DejaVuSans-62" d="M 3116 1747 
Q 3116 2381 2855 2742 
Q 2594 3103 2138 3103 
Q 1681 3103 1420 2742 
Q 1159 2381 1159 1747 
Q 1159 1113 1420 752 
Q 1681 391 2138 391 
Q 2594 391 2855 752 
Q 3116 1113 3116 1747 
z
M 1159 2969 
Q 1341 3281 1617 3432 
Q 1894 3584 2278 3584 
Q 2916 3584 3314 3078 
Q 3713 2572 3713 1747 
Q 3713 922 3314 415 
Q 2916 -91 2278 -91 
Q 1894 -91 1617 61 
Q 1341 213 1159 525 
L 1159 0 
L 581 0 
L 581 4863 
L 1159 4863 
L 1159 2969 
z
" transform="scale(0.015625)"/>
      <path id="DejaVuSans-63" d="M 3122 3366 
L 3122 2828 
Q 2878 2963 2633 3030 
Q 2388 3097 2138 3097 
Q 1578 3097 1268 2742 
Q 959 2388 959 1747 
Q 959 1106 1268 751 
Q 1578 397 2138 397 
Q 2388 397 2633 464 
Q 2878 531 3122 666 
L 3122 134 
Q 2881 22 2623 -34 
Q 2366 -91 2075 -91 
Q 1284 -91 818 406 
Q 353 903 353 1747 
Q 353 2603 823 3093 
Q 1294 3584 2113 3584 
Q 2378 3584 2631 3529 
Q 2884 3475 3122 3366 
z
" transform="scale(0.015625)"/>
      <path id="DejaVuSans-72" d="M 2631 2963 
Q 2534 3019 2420 3045 
Q 2306 3072 2169 3072 
Q 1681 3072 1420 2755 
Q 1159 2438 1159 1844 
L 1159 0 
L 581 0 
L 581 3500 
L 1159 3500 
L 1159 2956 
Q 1341 3275 1631 3429 
Q 1922 3584 2338 3584 
Q 2397 3584 2469 3576 
Q 2541 3569 2628 3553 
L 2631 2963 
z
" transform="scale(0.015625)"/>
      <path id="DejaVuSans-69" d="M 603 3500 
L 1178 3500 
L 1178 0 
L 603 0 
L 603 3500 
z
M 603 4863 
L 1178 4863 
L 1178 4134 
L 603 4134 
L 603 4863 
z
" transform="scale(0.015625)"/>
      <path id="DejaVuSans-20" transform="scale(0.015625)"/>
      <path id="DejaVuSans-68" d="M 3513 2113 
L 3513 0 
L 2938 0 
L 2938 2094 
Q 2938 2591 2744 2837 
Q 2550 3084 2163 3084 
Q 1697 3084 1428 2787 
Q 1159 2491 1159 1978 
L 1159 0 
L 581 0 
L 581 4863 
L 1159 4863 
L 1159 2956 
Q 1366 3272 1645 3428 
Q 1925 3584 2291 3584 
Q 2894 3584 3203 3211 
Q 3513 2838 3513 2113 
z
" transform="scale(0.015625)"/>
      <path id="DejaVuSans-6f" d="M 1959 3097 
Q 1497 3097 1228 2736 
Q 959 2375 959 1747 
Q 959 1119 1226 758 
Q 1494 397 1959 397 
Q 2419 397 2687 759 
Q 2956 1122 2956 1747 
Q 2956 2369 2687 2733 
Q 2419 3097 1959 3097 
z
M 1959 3584 
Q 2709 3584 3137 3096 
Q 3566 2609 3566 1747 
Q 3566 888 3137 398 
Q 2709 -91 1959 -91 
Q 1206 -91 779 398 
Q 353 888 353 1747 
Q 353 2609 779 3096 
Q 1206 3584 1959 3584 
z
" transform="scale(0.015625)"/>
      <path id="DejaVuSans-79" d="M 2059 -325 
Q 1816 -950 1584 -1140 
Q 1353 -1331 966 -1331 
L 506 -1331 
L 506 -850 
L 844 -850 
Q 1081 -850 1212 -737 
Q 1344 -625 1503 -206 
L 1606 56 
L 191 3500 
L 800 3500 
L 1894 763 
L 2988 3500 
L 3597 3500 
L 2059 -325 
z
" transform="scale(0.015625)"/>
     </defs>
     <use xlink:href="#DejaVuSans-67"/>
     <use xlink:href="#DejaVuSans-65" x="63.476562"/>
     <use xlink:href="#DejaVuSans-74" x="125"/>
     <use xlink:href="#DejaVuSans-5f" x="164.208984"/>
     <use xlink:href="#DejaVuSans-73" x="214.208984"/>
     <use xlink:href="#DejaVuSans-75" x="266.308594"/>
     <use xlink:href="#DejaVuSans-62" x="329.6875"/>
     <use xlink:href="#DejaVuSans-73" x="393.164062"/>
     <use xlink:href="#DejaVuSans-63" x="445.263672"/>
     <use xlink:href="#DejaVuSans-72" x="500.244141"/>
     <use xlink:href="#DejaVuSans-69" x="541.357422"/>
     <use xlink:href="#DejaVuSans-62" x="569.140625"/>
     <use xlink:href="#DejaVuSans-65" x="632.617188"/>
     <use xlink:href="#DejaVuSans-20" x="694.140625"/>
     <use xlink:href="#DejaVuSans-68" x="725.927734"/>
     <use xlink:href="#DejaVuSans-69" x="789.306641"/>
     <use xlink:href="#DejaVuSans-73" x="817.089844"/>
     <use xlink:href="#DejaVuSans-74" x="869.189453"/>
     <use xlink:href="#DejaVuSans-6f" x="908.398438"/>
     <use xlink:href="#DejaVuSans-72" x="969.580078"/>
     <use xlink:href="#DejaVuSans-79" x="1010.693359"/>
    </g>
   </g>
   <g id="legend_1">
    <g id="line2d_45">
     <path d="M 815.08 328.498438 
L 825.08 328.498438 
L 835.08 328.498438 
" style="fill: none; stroke: #1f77b4; stroke-width: 1.5; stroke-linecap: square"/>
    </g>
    <g id="text_23">
     <!-- star -->
     <g style="fill: #a9a9a9" transform="translate(843.08 331.998438) scale(0.1 -0.1)">
      <defs>
       <path id="DejaVuSans-61" d="M 2194 1759 
Q 1497 1759 1228 1600 
Q 959 1441 959 1056 
Q 959 750 1161 570 
Q 1363 391 1709 391 
Q 2188 391 2477 730 
Q 2766 1069 2766 1631 
L 2766 1759 
L 2194 1759 
z
M 3341 1997 
L 3341 0 
L 2766 0 
L 2766 531 
Q 2569 213 2275 61 
Q 1981 -91 1556 -91 
Q 1019 -91 701 211 
Q 384 513 384 1019 
Q 384 1609 779 1909 
Q 1175 2209 1959 2209 
L 2766 2209 
L 2766 2266 
Q 2766 2663 2505 2880 
Q 2244 3097 1772 3097 
Q 1472 3097 1187 3025 
Q 903 2953 641 2809 
L 641 3341 
Q 956 3463 1253 3523 
Q 1550 3584 1831 3584 
Q 2591 3584 2966 3190 
Q 3341 2797 3341 1997 
z
" transform="scale(0.015625)"/>
      </defs>
      <use xlink:href="#DejaVuSans-73"/>
      <use xlink:href="#DejaVuSans-74" x="52.099609"/>
      <use xlink:href="#DejaVuSans-61" x="91.308594"/>
      <use xlink:href="#DejaVuSans-72" x="152.587891"/>
     </g>
    </g>
    <g id="line2d_46">
     <path d="M 815.08 343.176562 
L 825.08 343.176562 
L 835.08 343.176562 
" style="fill: none; stroke: #ff7f0e; stroke-width: 1.5; stroke-linecap: square"/>
    </g>
    <g id="text_24">
     <!-- fork -->
     <g style="fill: #a9a9a9" transform="translate(843.08 346.676562) scale(0.1 -0.1)">
      <defs>
       <path id="DejaVuSans-66" d="M 2375 4863 
L 2375 4384 
L 1825 4384 
Q 1516 4384 1395 4259 
Q 1275 4134 1275 3809 
L 1275 3500 
L 2222 3500 
L 2222 3053 
L 1275 3053 
L 1275 0 
L 697 0 
L 697 3053 
L 147 3053 
L 147 3500 
L 697 3500 
L 697 3744 
Q 697 4328 969 4595 
Q 1241 4863 1831 4863 
L 2375 4863 
z
" transform="scale(0.015625)"/>
       <path id="DejaVuSans-6b" d="M 581 4863 
L 1159 4863 
L 1159 1991 
L 2875 3500 
L 3609 3500 
L 1753 1863 
L 3688 0 
L 2938 0 
L 1159 1709 
L 1159 0 
L 581 0 
L 581 4863 
z
" transform="scale(0.015625)"/>
      </defs>
      <use xlink:href="#DejaVuSans-66"/>
      <use xlink:href="#DejaVuSans-6f" x="35.205078"/>
      <use xlink:href="#DejaVuSans-72" x="96.386719"/>
      <use xlink:href="#DejaVuSans-6b" x="137.5"/>
     </g>
    </g>
   </g>
  </g>
 </g>
 <defs>
  <clipPath id="pa129cb49dc">
   <rect x="108" y="43.2" width="669.6" height="277.2"/>
  </clipPath>
 </defs>
</svg>
