<?xml version="1.0" encoding="utf-8" standalone="no"?>
<!DOCTYPE svg PUBLIC "-//W3C//DTD SVG 1.1//EN"
  "http://www.w3.org/Graphics/SVG/1.1/DTD/svg11.dtd">
<svg xmlns:xlink="http://www.w3.org/1999/xlink" width="864pt" height="360pt" viewBox="0 0 864 360" xmlns="http://www.w3.org/2000/svg" version="1.1">
 <metadata>
  <rdf:RDF xmlns:dc="http://purl.org/dc/elements/1.1/" xmlns:cc="http://creativecommons.org/ns#" xmlns:rdf="http://www.w3.org/1999/02/22-rdf-syntax-ns#">
   <cc:Work>
    <dc:type rdf:resource="http://purl.org/dc/dcmitype/StillImage"/>
    <dc:date>2024-11-12T08:13:40.436981</dc:date>
    <dc:format>image/svg+xml</dc:format>
    <dc:creator>
     <cc:Agent>
      <dc:title>Matplotlib v3.9.2, https://matplotlib.org/</dc:title>
     </cc:Agent>
    </dc:creator>
   </cc:Work>
  </rdf:RDF>
 </metadata>
 <defs>
  <style type="text/css">*{stroke-linejoin: round; stroke-linecap: butt}</style>
 </defs>
 <g id="figure_1">
  <g id="patch_1">
   <path d="M 0 360 
L 864 360 
L 864 0 
L 0 0 
L 0 360 
z
" style="fill: none; opacity: 0"/>
  </g>
  <g id="axes_1">
   <g id="patch_2">
    <path d="M 108 320.4 
L 777.6 320.4 
L 777.6 43.2 
L 108 43.2 
L 108 320.4 
z
" style="fill: none; opacity: 0"/>
   </g>
   <g id="matplotlib.axis_1">
    <g id="xtick_1">
     <g id="line2d_1">
      <path d="M 158.105265 320.4 
L 158.105265 43.2 
" clip-path="url(#pe0b69e1b01)" style="fill: none; stroke-dasharray: 5.12,1.28,0.8,1.28; stroke-dashoffset: 0; stroke: #b0b0b0; stroke-width: 0.8"/>
     </g>
     <g id="line2d_2">
      <defs>
       <path id="m3df82ba9f1" d="M 0 0 
L 0 3.5 
" style="stroke: #a9a9a9; stroke-width: 0.8"/>
      </defs>
      <g>
       <use xlink:href="#m3df82ba9f1" x="158.105265" y="320.4" style="fill: #a9a9a9; stroke: #a9a9a9; stroke-width: 0.8"/>
      </g>
     </g>
     <g id="text_1">
      <!-- 2021-09 -->
      <g style="fill: #a9a9a9" transform="translate(137.213858 334.998438) scale(0.1 -0.1)">
       <defs>
        <path id="DejaVuSans-32" d="M 1228 531 
L 3431 531 
L 3431 0 
L 469 0 
L 469 531 
Q 828 903 1448 1529 
Q 2069 2156 2228 2338 
Q 2531 2678 2651 2914 
Q 2772 3150 2772 3378 
Q 2772 3750 2511 3984 
Q 2250 4219 1831 4219 
Q 1534 4219 1204 4116 
Q 875 4013 500 3803 
L 500 4441 
Q 881 4594 1212 4672 
Q 1544 4750 1819 4750 
Q 2544 4750 2975 4387 
Q 3406 4025 3406 3419 
Q 3406 3131 3298 2873 
Q 3191 2616 2906 2266 
Q 2828 2175 2409 1742 
Q 1991 1309 1228 531 
z
" transform="scale(0.015625)"/>
        <path id="DejaVuSans-30" d="M 2034 4250 
Q 1547 4250 1301 3770 
Q 1056 3291 1056 2328 
Q 1056 1369 1301 889 
Q 1547 409 2034 409 
Q 2525 409 2770 889 
Q 3016 1369 3016 2328 
Q 3016 3291 2770 3770 
Q 2525 4250 2034 4250 
z
M 2034 4750 
Q 2819 4750 3233 4129 
Q 3647 3509 3647 2328 
Q 3647 1150 3233 529 
Q 2819 -91 2034 -91 
Q 1250 -91 836 529 
Q 422 1150 422 2328 
Q 422 3509 836 4129 
Q 1250 4750 2034 4750 
z
" transform="scale(0.015625)"/>
        <path id="DejaVuSans-31" d="M 794 531 
L 1825 531 
L 1825 4091 
L 703 3866 
L 703 4441 
L 1819 4666 
L 2450 4666 
L 2450 531 
L 3481 531 
L 3481 0 
L 794 0 
L 794 531 
z
" transform="scale(0.015625)"/>
        <path id="DejaVuSans-2d" d="M 313 2009 
L 1997 2009 
L 1997 1497 
L 313 1497 
L 313 2009 
z
" transform="scale(0.015625)"/>
        <path id="DejaVuSans-39" d="M 703 97 
L 703 672 
Q 941 559 1184 500 
Q 1428 441 1663 441 
Q 2288 441 2617 861 
Q 2947 1281 2994 2138 
Q 2813 1869 2534 1725 
Q 2256 1581 1919 1581 
Q 1219 1581 811 2004 
Q 403 2428 403 3163 
Q 403 3881 828 4315 
Q 1253 4750 1959 4750 
Q 2769 4750 3195 4129 
Q 3622 3509 3622 2328 
Q 3622 1225 3098 567 
Q 2575 -91 1691 -91 
Q 1453 -91 1209 -44 
Q 966 3 703 97 
z
M 1959 2075 
Q 2384 2075 2632 2365 
Q 2881 2656 2881 3163 
Q 2881 3666 2632 3958 
Q 2384 4250 1959 4250 
Q 1534 4250 1286 3958 
Q 1038 3666 1038 3163 
Q 1038 2656 1286 2365 
Q 1534 2075 1959 2075 
z
" transform="scale(0.015625)"/>
       </defs>
       <use xlink:href="#DejaVuSans-32"/>
       <use xlink:href="#DejaVuSans-30" x="63.623047"/>
       <use xlink:href="#DejaVuSans-32" x="127.246094"/>
       <use xlink:href="#DejaVuSans-31" x="190.869141"/>
       <use xlink:href="#DejaVuSans-2d" x="254.492188"/>
       <use xlink:href="#DejaVuSans-30" x="290.576172"/>
       <use xlink:href="#DejaVuSans-39" x="354.199219"/>
      </g>
     </g>
    </g>
    <g id="xtick_2">
     <g id="line2d_3">
      <path d="M 219.633622 320.4 
L 219.633622 43.2 
" clip-path="url(#pe0b69e1b01)" style="fill: none; stroke-dasharray: 5.12,1.28,0.8,1.28; stroke-dashoffset: 0; stroke: #b0b0b0; stroke-width: 0.8"/>
     </g>
     <g id="line2d_4">
      <g>
       <use xlink:href="#m3df82ba9f1" x="219.633622" y="320.4" style="fill: #a9a9a9; stroke: #a9a9a9; stroke-width: 0.8"/>
      </g>
     </g>
     <g id="text_2">
      <!-- 2022-01 -->
      <g style="fill: #a9a9a9" transform="translate(198.742216 334.998438) scale(0.1 -0.1)">
       <use xlink:href="#DejaVuSans-32"/>
       <use xlink:href="#DejaVuSans-30" x="63.623047"/>
       <use xlink:href="#DejaVuSans-32" x="127.246094"/>
       <use xlink:href="#DejaVuSans-32" x="190.869141"/>
       <use xlink:href="#DejaVuSans-2d" x="254.492188"/>
       <use xlink:href="#DejaVuSans-30" x="290.576172"/>
       <use xlink:href="#DejaVuSans-31" x="354.199219"/>
      </g>
     </g>
    </g>
    <g id="xtick_3">
     <g id="line2d_5">
      <path d="M 280.153318 320.4 
L 280.153318 43.2 
" clip-path="url(#pe0b69e1b01)" style="fill: none; stroke-dasharray: 5.12,1.28,0.8,1.28; stroke-dashoffset: 0; stroke: #b0b0b0; stroke-width: 0.8"/>
     </g>
     <g id="line2d_6">
      <g>
       <use xlink:href="#m3df82ba9f1" x="280.153318" y="320.4" style="fill: #a9a9a9; stroke: #a9a9a9; stroke-width: 0.8"/>
      </g>
     </g>
     <g id="text_3">
      <!-- 2022-05 -->
      <g style="fill: #a9a9a9" transform="translate(259.261912 334.998438) scale(0.1 -0.1)">
       <defs>
        <path id="DejaVuSans-35" d="M 691 4666 
L 3169 4666 
L 3169 4134 
L 1269 4134 
L 1269 2991 
Q 1406 3038 1543 3061 
Q 1681 3084 1819 3084 
Q 2600 3084 3056 2656 
Q 3513 2228 3513 1497 
Q 3513 744 3044 326 
Q 2575 -91 1722 -91 
Q 1428 -91 1123 -41 
Q 819 9 494 109 
L 494 744 
Q 775 591 1075 516 
Q 1375 441 1709 441 
Q 2250 441 2565 725 
Q 2881 1009 2881 1497 
Q 2881 1984 2565 2268 
Q 2250 2553 1709 2553 
Q 1456 2553 1204 2497 
Q 953 2441 691 2322 
L 691 4666 
z
" transform="scale(0.015625)"/>
       </defs>
       <use xlink:href="#DejaVuSans-32"/>
       <use xlink:href="#DejaVuSans-30" x="63.623047"/>
       <use xlink:href="#DejaVuSans-32" x="127.246094"/>
       <use xlink:href="#DejaVuSans-32" x="190.869141"/>
       <use xlink:href="#DejaVuSans-2d" x="254.492188"/>
       <use xlink:href="#DejaVuSans-30" x="290.576172"/>
       <use xlink:href="#DejaVuSans-35" x="354.199219"/>
      </g>
     </g>
    </g>
    <g id="xtick_4">
     <g id="line2d_7">
      <path d="M 342.186006 320.4 
L 342.186006 43.2 
" clip-path="url(#pe0b69e1b01)" style="fill: none; stroke-dasharray: 5.12,1.28,0.8,1.28; stroke-dashoffset: 0; stroke: #b0b0b0; stroke-width: 0.8"/>
     </g>
     <g id="line2d_8">
      <g>
       <use xlink:href="#m3df82ba9f1" x="342.186006" y="320.4" style="fill: #a9a9a9; stroke: #a9a9a9; stroke-width: 0.8"/>
      </g>
     </g>
     <g id="text_4">
      <!-- 2022-09 -->
      <g style="fill: #a9a9a9" transform="translate(321.2946 334.998438) scale(0.1 -0.1)">
       <use xlink:href="#DejaVuSans-32"/>
       <use xlink:href="#DejaVuSans-30" x="63.623047"/>
       <use xlink:href="#DejaVuSans-32" x="127.246094"/>
       <use xlink:href="#DejaVuSans-32" x="190.869141"/>
       <use xlink:href="#DejaVuSans-2d" x="254.492188"/>
       <use xlink:href="#DejaVuSans-30" x="290.576172"/>
       <use xlink:href="#DejaVuSans-39" x="354.199219"/>
      </g>
     </g>
    </g>
    <g id="xtick_5">
     <g id="line2d_9">
      <path d="M 403.714363 320.4 
L 403.714363 43.2 
" clip-path="url(#pe0b69e1b01)" style="fill: none; stroke-dasharray: 5.12,1.28,0.8,1.28; stroke-dashoffset: 0; stroke: #b0b0b0; stroke-width: 0.8"/>
     </g>
     <g id="line2d_10">
      <g>
       <use xlink:href="#m3df82ba9f1" x="403.714363" y="320.4" style="fill: #a9a9a9; stroke: #a9a9a9; stroke-width: 0.8"/>
      </g>
     </g>
     <g id="text_5">
      <!-- 2023-01 -->
      <g style="fill: #a9a9a9" transform="translate(382.822957 334.998438) scale(0.1 -0.1)">
       <defs>
        <path id="DejaVuSans-33" d="M 2597 2516 
Q 3050 2419 3304 2112 
Q 3559 1806 3559 1356 
Q 3559 666 3084 287 
Q 2609 -91 1734 -91 
Q 1441 -91 1130 -33 
Q 819 25 488 141 
L 488 750 
Q 750 597 1062 519 
Q 1375 441 1716 441 
Q 2309 441 2620 675 
Q 2931 909 2931 1356 
Q 2931 1769 2642 2001 
Q 2353 2234 1838 2234 
L 1294 2234 
L 1294 2753 
L 1863 2753 
Q 2328 2753 2575 2939 
Q 2822 3125 2822 3475 
Q 2822 3834 2567 4026 
Q 2313 4219 1838 4219 
Q 1578 4219 1281 4162 
Q 984 4106 628 3988 
L 628 4550 
Q 988 4650 1302 4700 
Q 1616 4750 1894 4750 
Q 2613 4750 3031 4423 
Q 3450 4097 3450 3541 
Q 3450 3153 3228 2886 
Q 3006 2619 2597 2516 
z
" transform="scale(0.015625)"/>
       </defs>
       <use xlink:href="#DejaVuSans-32"/>
       <use xlink:href="#DejaVuSans-30" x="63.623047"/>
       <use xlink:href="#DejaVuSans-32" x="127.246094"/>
       <use xlink:href="#DejaVuSans-33" x="190.869141"/>
       <use xlink:href="#DejaVuSans-2d" x="254.492188"/>
       <use xlink:href="#DejaVuSans-30" x="290.576172"/>
       <use xlink:href="#DejaVuSans-31" x="354.199219"/>
      </g>
     </g>
    </g>
    <g id="xtick_6">
     <g id="line2d_11">
      <path d="M 464.234059 320.4 
L 464.234059 43.2 
" clip-path="url(#pe0b69e1b01)" style="fill: none; stroke-dasharray: 5.12,1.28,0.8,1.28; stroke-dashoffset: 0; stroke: #b0b0b0; stroke-width: 0.8"/>
     </g>
     <g id="line2d_12">
      <g>
       <use xlink:href="#m3df82ba9f1" x="464.234059" y="320.4" style="fill: #a9a9a9; stroke: #a9a9a9; stroke-width: 0.8"/>
      </g>
     </g>
     <g id="text_6">
      <!-- 2023-05 -->
      <g style="fill: #a9a9a9" transform="translate(443.342653 334.998438) scale(0.1 -0.1)">
       <use xlink:href="#DejaVuSans-32"/>
       <use xlink:href="#DejaVuSans-30" x="63.623047"/>
       <use xlink:href="#DejaVuSans-32" x="127.246094"/>
       <use xlink:href="#DejaVuSans-33" x="190.869141"/>
       <use xlink:href="#DejaVuSans-2d" x="254.492188"/>
       <use xlink:href="#DejaVuSans-30" x="290.576172"/>
       <use xlink:href="#DejaVuSans-35" x="354.199219"/>
      </g>
     </g>
    </g>
    <g id="xtick_7">
     <g id="line2d_13">
      <path d="M 526.266747 320.4 
L 526.266747 43.2 
" clip-path="url(#pe0b69e1b01)" style="fill: none; stroke-dasharray: 5.12,1.28,0.8,1.28; stroke-dashoffset: 0; stroke: #b0b0b0; stroke-width: 0.8"/>
     </g>
     <g id="line2d_14">
      <g>
       <use xlink:href="#m3df82ba9f1" x="526.266747" y="320.4" style="fill: #a9a9a9; stroke: #a9a9a9; stroke-width: 0.8"/>
      </g>
     </g>
     <g id="text_7">
      <!-- 2023-09 -->
      <g style="fill: #a9a9a9" transform="translate(505.375341 334.998438) scale(0.1 -0.1)">
       <use xlink:href="#DejaVuSans-32"/>
       <use xlink:href="#DejaVuSans-30" x="63.623047"/>
       <use xlink:href="#DejaVuSans-32" x="127.246094"/>
       <use xlink:href="#DejaVuSans-33" x="190.869141"/>
       <use xlink:href="#DejaVuSans-2d" x="254.492188"/>
       <use xlink:href="#DejaVuSans-30" x="290.576172"/>
       <use xlink:href="#DejaVuSans-39" x="354.199219"/>
      </g>
     </g>
    </g>
    <g id="xtick_8">
     <g id="line2d_15">
      <path d="M 587.795104 320.4 
L 587.795104 43.2 
" clip-path="url(#pe0b69e1b01)" style="fill: none; stroke-dasharray: 5.12,1.28,0.8,1.28; stroke-dashoffset: 0; stroke: #b0b0b0; stroke-width: 0.8"/>
     </g>
     <g id="line2d_16">
      <g>
       <use xlink:href="#m3df82ba9f1" x="587.795104" y="320.4" style="fill: #a9a9a9; stroke: #a9a9a9; stroke-width: 0.8"/>
      </g>
     </g>
     <g id="text_8">
      <!-- 2024-01 -->
      <g style="fill: #a9a9a9" transform="translate(566.903698 334.998438) scale(0.1 -0.1)">
       <defs>
        <path id="DejaVuSans-34" d="M 2419 4116 
L 825 1625 
L 2419 1625 
L 2419 4116 
z
M 2253 4666 
L 3047 4666 
L 3047 1625 
L 3713 1625 
L 3713 1100 
L 3047 1100 
L 3047 0 
L 2419 0 
L 2419 1100 
L 313 1100 
L 313 1709 
L 2253 4666 
z
" transform="scale(0.015625)"/>
       </defs>
       <use xlink:href="#DejaVuSans-32"/>
       <use xlink:href="#DejaVuSans-30" x="63.623047"/>
       <use xlink:href="#DejaVuSans-32" x="127.246094"/>
       <use xlink:href="#DejaVuSans-34" x="190.869141"/>
       <use xlink:href="#DejaVuSans-2d" x="254.492188"/>
       <use xlink:href="#DejaVuSans-30" x="290.576172"/>
       <use xlink:href="#DejaVuSans-31" x="354.199219"/>
      </g>
     </g>
    </g>
    <g id="xtick_9">
     <g id="line2d_17">
      <path d="M 648.819131 320.4 
L 648.819131 43.2 
" clip-path="url(#pe0b69e1b01)" style="fill: none; stroke-dasharray: 5.12,1.28,0.8,1.28; stroke-dashoffset: 0; stroke: #b0b0b0; stroke-width: 0.8"/>
     </g>
     <g id="line2d_18">
      <g>
       <use xlink:href="#m3df82ba9f1" x="648.819131" y="320.4" style="fill: #a9a9a9; stroke: #a9a9a9; stroke-width: 0.8"/>
      </g>
     </g>
     <g id="text_9">
      <!-- 2024-05 -->
      <g style="fill: #a9a9a9" transform="translate(627.927725 334.998438) scale(0.1 -0.1)">
       <use xlink:href="#DejaVuSans-32"/>
       <use xlink:href="#DejaVuSans-30" x="63.623047"/>
       <use xlink:href="#DejaVuSans-32" x="127.246094"/>
       <use xlink:href="#DejaVuSans-34" x="190.869141"/>
       <use xlink:href="#DejaVuSans-2d" x="254.492188"/>
       <use xlink:href="#DejaVuSans-30" x="290.576172"/>
       <use xlink:href="#DejaVuSans-35" x="354.199219"/>
      </g>
     </g>
    </g>
    <g id="xtick_10">
     <g id="line2d_19">
      <path d="M 710.851819 320.4 
L 710.851819 43.2 
" clip-path="url(#pe0b69e1b01)" style="fill: none; stroke-dasharray: 5.12,1.28,0.8,1.28; stroke-dashoffset: 0; stroke: #b0b0b0; stroke-width: 0.8"/>
     </g>
     <g id="line2d_20">
      <g>
       <use xlink:href="#m3df82ba9f1" x="710.851819" y="320.4" style="fill: #a9a9a9; stroke: #a9a9a9; stroke-width: 0.8"/>
      </g>
     </g>
     <g id="text_10">
      <!-- 2024-09 -->
      <g style="fill: #a9a9a9" transform="translate(689.960413 334.998438) scale(0.1 -0.1)">
       <use xlink:href="#DejaVuSans-32"/>
       <use xlink:href="#DejaVuSans-30" x="63.623047"/>
       <use xlink:href="#DejaVuSans-32" x="127.246094"/>
       <use xlink:href="#DejaVuSans-34" x="190.869141"/>
       <use xlink:href="#DejaVuSans-2d" x="254.492188"/>
       <use xlink:href="#DejaVuSans-30" x="290.576172"/>
       <use xlink:href="#DejaVuSans-39" x="354.199219"/>
      </g>
     </g>
    </g>
    <g id="xtick_11">
     <g id="line2d_21">
      <path d="M 772.380176 320.4 
L 772.380176 43.2 
" clip-path="url(#pe0b69e1b01)" style="fill: none; stroke-dasharray: 5.12,1.28,0.8,1.28; stroke-dashoffset: 0; stroke: #b0b0b0; stroke-width: 0.8"/>
     </g>
     <g id="line2d_22">
      <g>
       <use xlink:href="#m3df82ba9f1" x="772.380176" y="320.4" style="fill: #a9a9a9; stroke: #a9a9a9; stroke-width: 0.8"/>
      </g>
     </g>
     <g id="text_11">
      <!-- 2025-01 -->
      <g style="fill: #a9a9a9" transform="translate(751.48877 334.998438) scale(0.1 -0.1)">
       <use xlink:href="#DejaVuSans-32"/>
       <use xlink:href="#DejaVuSans-30" x="63.623047"/>
       <use xlink:href="#DejaVuSans-32" x="127.246094"/>
       <use xlink:href="#DejaVuSans-35" x="190.869141"/>
       <use xlink:href="#DejaVuSans-2d" x="254.492188"/>
       <use xlink:href="#DejaVuSans-30" x="290.576172"/>
       <use xlink:href="#DejaVuSans-31" x="354.199219"/>
      </g>
     </g>
    </g>
   </g>
   <g id="matplotlib.axis_2">
    <g id="ytick_1">
     <g id="line2d_23">
      <path d="M 108 307.836306 
L 777.6 307.836306 
" clip-path="url(#pe0b69e1b01)" style="fill: none; stroke-dasharray: 5.12,1.28,0.8,1.28; stroke-dashoffset: 0; stroke: #b0b0b0; stroke-width: 0.8"/>
     </g>
     <g id="line2d_24">
      <defs>
       <path id="mfbe2ba522a" d="M 0 0 
L -3.5 0 
" style="stroke: #a9a9a9; stroke-width: 0.8"/>
      </defs>
      <g>
       <use xlink:href="#mfbe2ba522a" x="108" y="307.836306" style="fill: #a9a9a9; stroke: #a9a9a9; stroke-width: 0.8"/>
      </g>
     </g>
     <g id="text_12">
      <!-- 0 -->
      <g style="fill: #a9a9a9" transform="translate(94.6375 311.635525) scale(0.1 -0.1)">
       <use xlink:href="#DejaVuSans-30"/>
      </g>
     </g>
    </g>
    <g id="ytick_2">
     <g id="line2d_25">
      <path d="M 108 278.7915 
L 777.6 278.7915 
" clip-path="url(#pe0b69e1b01)" style="fill: none; stroke-dasharray: 5.12,1.28,0.8,1.28; stroke-dashoffset: 0; stroke: #b0b0b0; stroke-width: 0.8"/>
     </g>
     <g id="line2d_26">
      <g>
       <use xlink:href="#mfbe2ba522a" x="108" y="278.7915" style="fill: #a9a9a9; stroke: #a9a9a9; stroke-width: 0.8"/>
      </g>
     </g>
     <g id="text_13">
      <!-- 800 -->
      <g style="fill: #a9a9a9" transform="translate(81.9125 282.590719) scale(0.1 -0.1)">
       <defs>
        <path id="DejaVuSans-38" d="M 2034 2216 
Q 1584 2216 1326 1975 
Q 1069 1734 1069 1313 
Q 1069 891 1326 650 
Q 1584 409 2034 409 
Q 2484 409 2743 651 
Q 3003 894 3003 1313 
Q 3003 1734 2745 1975 
Q 2488 2216 2034 2216 
z
M 1403 2484 
Q 997 2584 770 2862 
Q 544 3141 544 3541 
Q 544 4100 942 4425 
Q 1341 4750 2034 4750 
Q 2731 4750 3128 4425 
Q 3525 4100 3525 3541 
Q 3525 3141 3298 2862 
Q 3072 2584 2669 2484 
Q 3125 2378 3379 2068 
Q 3634 1759 3634 1313 
Q 3634 634 3220 271 
Q 2806 -91 2034 -91 
Q 1263 -91 848 271 
Q 434 634 434 1313 
Q 434 1759 690 2068 
Q 947 2378 1403 2484 
z
M 1172 3481 
Q 1172 3119 1398 2916 
Q 1625 2713 2034 2713 
Q 2441 2713 2670 2916 
Q 2900 3119 2900 3481 
Q 2900 3844 2670 4047 
Q 2441 4250 2034 4250 
Q 1625 4250 1398 4047 
Q 1172 3844 1172 3481 
z
" transform="scale(0.015625)"/>
       </defs>
       <use xlink:href="#DejaVuSans-38"/>
       <use xlink:href="#DejaVuSans-30" x="63.623047"/>
       <use xlink:href="#DejaVuSans-30" x="127.246094"/>
      </g>
     </g>
    </g>
    <g id="ytick_3">
     <g id="line2d_27">
      <path d="M 108 249.746694 
L 777.6 249.746694 
" clip-path="url(#pe0b69e1b01)" style="fill: none; stroke-dasharray: 5.12,1.28,0.8,1.28; stroke-dashoffset: 0; stroke: #b0b0b0; stroke-width: 0.8"/>
     </g>
     <g id="line2d_28">
      <g>
       <use xlink:href="#mfbe2ba522a" x="108" y="249.746694" style="fill: #a9a9a9; stroke: #a9a9a9; stroke-width: 0.8"/>
      </g>
     </g>
     <g id="text_14">
      <!-- 1600 -->
      <g style="fill: #a9a9a9" transform="translate(75.55 253.545912) scale(0.1 -0.1)">
       <defs>
        <path id="DejaVuSans-36" d="M 2113 2584 
Q 1688 2584 1439 2293 
Q 1191 2003 1191 1497 
Q 1191 994 1439 701 
Q 1688 409 2113 409 
Q 2538 409 2786 701 
Q 3034 994 3034 1497 
Q 3034 2003 2786 2293 
Q 2538 2584 2113 2584 
z
M 3366 4563 
L 3366 3988 
Q 3128 4100 2886 4159 
Q 2644 4219 2406 4219 
Q 1781 4219 1451 3797 
Q 1122 3375 1075 2522 
Q 1259 2794 1537 2939 
Q 1816 3084 2150 3084 
Q 2853 3084 3261 2657 
Q 3669 2231 3669 1497 
Q 3669 778 3244 343 
Q 2819 -91 2113 -91 
Q 1303 -91 875 529 
Q 447 1150 447 2328 
Q 447 3434 972 4092 
Q 1497 4750 2381 4750 
Q 2619 4750 2861 4703 
Q 3103 4656 3366 4563 
z
" transform="scale(0.015625)"/>
       </defs>
       <use xlink:href="#DejaVuSans-31"/>
       <use xlink:href="#DejaVuSans-36" x="63.623047"/>
       <use xlink:href="#DejaVuSans-30" x="127.246094"/>
       <use xlink:href="#DejaVuSans-30" x="190.869141"/>
      </g>
     </g>
    </g>
    <g id="ytick_4">
     <g id="line2d_29">
      <path d="M 108 220.701887 
L 777.6 220.701887 
" clip-path="url(#pe0b69e1b01)" style="fill: none; stroke-dasharray: 5.12,1.28,0.8,1.28; stroke-dashoffset: 0; stroke: #b0b0b0; stroke-width: 0.8"/>
     </g>
     <g id="line2d_30">
      <g>
       <use xlink:href="#mfbe2ba522a" x="108" y="220.701887" style="fill: #a9a9a9; stroke: #a9a9a9; stroke-width: 0.8"/>
      </g>
     </g>
     <g id="text_15">
      <!-- 2400 -->
      <g style="fill: #a9a9a9" transform="translate(75.55 224.501106) scale(0.1 -0.1)">
       <use xlink:href="#DejaVuSans-32"/>
       <use xlink:href="#DejaVuSans-34" x="63.623047"/>
       <use xlink:href="#DejaVuSans-30" x="127.246094"/>
       <use xlink:href="#DejaVuSans-30" x="190.869141"/>
      </g>
     </g>
    </g>
    <g id="ytick_5">
     <g id="line2d_31">
      <path d="M 108 191.657081 
L 777.6 191.657081 
" clip-path="url(#pe0b69e1b01)" style="fill: none; stroke-dasharray: 5.12,1.28,0.8,1.28; stroke-dashoffset: 0; stroke: #b0b0b0; stroke-width: 0.8"/>
     </g>
     <g id="line2d_32">
      <g>
       <use xlink:href="#mfbe2ba522a" x="108" y="191.657081" style="fill: #a9a9a9; stroke: #a9a9a9; stroke-width: 0.8"/>
      </g>
     </g>
     <g id="text_16">
      <!-- 3200 -->
      <g style="fill: #a9a9a9" transform="translate(75.55 195.4563) scale(0.1 -0.1)">
       <use xlink:href="#DejaVuSans-33"/>
       <use xlink:href="#DejaVuSans-32" x="63.623047"/>
       <use xlink:href="#DejaVuSans-30" x="127.246094"/>
       <use xlink:href="#DejaVuSans-30" x="190.869141"/>
      </g>
     </g>
    </g>
    <g id="ytick_6">
     <g id="line2d_33">
      <path d="M 108 162.612275 
L 777.6 162.612275 
" clip-path="url(#pe0b69e1b01)" style="fill: none; stroke-dasharray: 5.12,1.28,0.8,1.28; stroke-dashoffset: 0; stroke: #b0b0b0; stroke-width: 0.8"/>
     </g>
     <g id="line2d_34">
      <g>
       <use xlink:href="#mfbe2ba522a" x="108" y="162.612275" style="fill: #a9a9a9; stroke: #a9a9a9; stroke-width: 0.8"/>
      </g>
     </g>
     <g id="text_17">
      <!-- 4000 -->
      <g style="fill: #a9a9a9" transform="translate(75.55 166.411494) scale(0.1 -0.1)">
       <use xlink:href="#DejaVuSans-34"/>
       <use xlink:href="#DejaVuSans-30" x="63.623047"/>
       <use xlink:href="#DejaVuSans-30" x="127.246094"/>
       <use xlink:href="#DejaVuSans-30" x="190.869141"/>
      </g>
     </g>
    </g>
    <g id="ytick_7">
     <g id="line2d_35">
      <path d="M 108 133.567469 
L 777.6 133.567469 
" clip-path="url(#pe0b69e1b01)" style="fill: none; stroke-dasharray: 5.12,1.28,0.8,1.28; stroke-dashoffset: 0; stroke: #b0b0b0; stroke-width: 0.8"/>
     </g>
     <g id="line2d_36">
      <g>
       <use xlink:href="#mfbe2ba522a" x="108" y="133.567469" style="fill: #a9a9a9; stroke: #a9a9a9; stroke-width: 0.8"/>
      </g>
     </g>
     <g id="text_18">
      <!-- 4800 -->
      <g style="fill: #a9a9a9" transform="translate(75.55 137.366687) scale(0.1 -0.1)">
       <use xlink:href="#DejaVuSans-34"/>
       <use xlink:href="#DejaVuSans-38" x="63.623047"/>
       <use xlink:href="#DejaVuSans-30" x="127.246094"/>
       <use xlink:href="#DejaVuSans-30" x="190.869141"/>
      </g>
     </g>
    </g>
    <g id="ytick_8">
     <g id="line2d_37">
      <path d="M 108 104.522662 
L 777.6 104.522662 
" clip-path="url(#pe0b69e1b01)" style="fill: none; stroke-dasharray: 5.12,1.28,0.8,1.28; stroke-dashoffset: 0; stroke: #b0b0b0; stroke-width: 0.8"/>
     </g>
     <g id="line2d_38">
      <g>
       <use xlink:href="#mfbe2ba522a" x="108" y="104.522662" style="fill: #a9a9a9; stroke: #a9a9a9; stroke-width: 0.8"/>
      </g>
     </g>
     <g id="text_19">
      <!-- 5600 -->
      <g style="fill: #a9a9a9" transform="translate(75.55 108.321881) scale(0.1 -0.1)">
       <use xlink:href="#DejaVuSans-35"/>
       <use xlink:href="#DejaVuSans-36" x="63.623047"/>
       <use xlink:href="#DejaVuSans-30" x="127.246094"/>
       <use xlink:href="#DejaVuSans-30" x="190.869141"/>
      </g>
     </g>
    </g>
    <g id="ytick_9">
     <g id="line2d_39">
      <path d="M 108 75.477856 
L 777.6 75.477856 
" clip-path="url(#pe0b69e1b01)" style="fill: none; stroke-dasharray: 5.12,1.28,0.8,1.28; stroke-dashoffset: 0; stroke: #b0b0b0; stroke-width: 0.8"/>
     </g>
     <g id="line2d_40">
      <g>
       <use xlink:href="#mfbe2ba522a" x="108" y="75.477856" style="fill: #a9a9a9; stroke: #a9a9a9; stroke-width: 0.8"/>
      </g>
     </g>
     <g id="text_20">
      <!-- 6400 -->
      <g style="fill: #a9a9a9" transform="translate(75.55 79.277075) scale(0.1 -0.1)">
       <use xlink:href="#DejaVuSans-36"/>
       <use xlink:href="#DejaVuSans-34" x="63.623047"/>
       <use xlink:href="#DejaVuSans-30" x="127.246094"/>
       <use xlink:href="#DejaVuSans-30" x="190.869141"/>
      </g>
     </g>
    </g>
    <g id="ytick_10">
     <g id="line2d_41">
      <path d="M 108 46.43305 
L 777.6 46.43305 
" clip-path="url(#pe0b69e1b01)" style="fill: none; stroke-dasharray: 5.12,1.28,0.8,1.28; stroke-dashoffset: 0; stroke: #b0b0b0; stroke-width: 0.8"/>
     </g>
     <g id="line2d_42">
      <g>
       <use xlink:href="#mfbe2ba522a" x="108" y="46.43305" style="fill: #a9a9a9; stroke: #a9a9a9; stroke-width: 0.8"/>
      </g>
     </g>
     <g id="text_21">
      <!-- 7200 -->
      <g style="fill: #a9a9a9" transform="translate(75.55 50.232269) scale(0.1 -0.1)">
       <defs>
        <path id="DejaVuSans-37" d="M 525 4666 
L 3525 4666 
L 3525 4397 
L 1831 0 
L 1172 0 
L 2766 4134 
L 525 4134 
L 525 4666 
z
" transform="scale(0.015625)"/>
       </defs>
       <use xlink:href="#DejaVuSans-37"/>
       <use xlink:href="#DejaVuSans-32" x="63.623047"/>
       <use xlink:href="#DejaVuSans-30" x="127.246094"/>
       <use xlink:href="#DejaVuSans-30" x="190.869141"/>
      </g>
     </g>
    </g>
   </g>
   <g id="line2d_43">
    <path d="M 138.436364 307.727388 
L 141.462348 307.473246 
L 141.966679 307.25541 
L 143.984002 307.001268 
L 146.001326 306.601902 
L 147.009987 306.456678 
L 149.531641 306.238842 
L 150.540303 305.839476 
L 151.044634 305.185967 
L 151.548964 304.822907 
L 152.053295 303.697421 
L 152.557626 303.624809 
L 153.061957 303.225443 
L 154.070618 302.717159 
L 156.087942 301.119695 
L 158.105265 300.139432 
L 159.618257 299.449618 
L 160.122588 298.650886 
L 161.13125 297.924766 
L 161.63558 297.70693 
L 166.678888 296.98081 
L 167.183219 296.762974 
L 170.713535 296.472526 
L 172.730858 296.000547 
L 176.765504 295.455957 
L 177.269835 295.201815 
L 177.774166 295.129203 
L 178.782827 294.802449 
L 182.313143 294.221553 
L 183.321805 293.931105 
L 187.860782 293.168679 
L 188.869443 292.950843 
L 189.878105 292.914537 
L 191.895428 292.442559 
L 192.399759 291.752745 
L 193.912751 291.171848 
L 195.425744 290.772482 
L 195.930075 290.51834 
L 196.938736 290.33681 
L 198.956059 289.755914 
L 199.964721 289.683302 
L 200.973383 289.42916 
L 202.990706 288.920876 
L 203.495037 288.88457 
L 204.503698 288.412592 
L 205.008029 288.33998 
L 205.51236 288.085838 
L 211.059998 287.178188 
L 213.077322 286.597291 
L 213.581652 286.270537 
L 216.103306 285.435499 
L 217.111968 284.745685 
L 218.62496 284.455237 
L 231.737561 280.78833 
L 232.241892 280.78833 
L 232.746223 280.570494 
L 233.754884 280.461576 
L 234.259215 280.280046 
L 236.276538 280.171128 
L 237.2852 279.989598 
L 238.293862 279.481314 
L 239.806854 278.936724 
L 240.311185 278.60997 
L 241.319846 278.174298 
L 241.824177 277.920156 
L 242.832839 277.593402 
L 243.33717 277.411871 
L 244.345831 276.794669 
L 244.850162 276.250079 
L 245.858824 274.725227 
L 246.363154 274.580003 
L 246.867485 274.580003 
L 248.380478 273.708659 
L 248.884808 273.454517 
L 249.389139 273.345599 
L 249.89347 272.873621 
L 250.902132 272.474254 
L 251.910793 272.002276 
L 254.432447 268.807348 
L 257.458432 267.209883 
L 258.467093 266.411151 
L 258.971424 266.084397 
L 259.475755 265.321971 
L 259.980086 264.196485 
L 260.484417 263.434058 
L 260.988747 263.034692 
L 261.493078 262.816856 
L 265.023394 259.839764 
L 266.032055 258.641665 
L 267.040717 257.915545 
L 268.553709 256.898977 
L 269.05804 256.463305 
L 270.066702 256.136551 
L 271.579694 255.265207 
L 273.092687 254.284945 
L 275.11001 252.50595 
L 276.118671 252.106584 
L 277.127333 251.41677 
L 277.631664 251.126322 
L 278.135995 251.05371 
L 279.648987 250.218672 
L 280.153318 249.674082 
L 282.674972 248.330759 
L 283.179303 248.149229 
L 284.692295 247.132661 
L 292.257257 244.482322 
L 293.265919 243.574672 
L 294.27458 243.102694 
L 295.283242 242.558104 
L 295.787572 242.267656 
L 296.796234 241.977208 
L 297.300565 241.650454 
L 297.804896 241.50523 
L 299.317888 240.524968 
L 301.839542 239.944071 
L 303.352534 239.072727 
L 304.865527 238.745973 
L 305.369858 238.600749 
L 306.88285 237.475263 
L 308.900173 236.930673 
L 309.404504 236.531307 
L 312.430489 235.514739 
L 313.43915 235.333208 
L 314.447812 234.933842 
L 317.978128 233.663132 
L 318.986789 233.517908 
L 320.499782 233.009624 
L 323.021436 231.811526 
L 325.038759 230.722345 
L 329.073405 229.088575 
L 329.577736 229.015963 
L 330.586398 228.398761 
L 331.090728 228.326149 
L 333.108052 227.491111 
L 335.125375 227.200663 
L 336.134036 226.692379 
L 336.638367 226.256707 
L 337.142698 225.349056 
L 339.160021 224.804466 
L 340.673013 224.04204 
L 341.177344 223.933122 
L 345.211991 222.008904 
L 346.724983 221.718456 
L 347.733645 221.210171 
L 348.237975 220.992335 
L 348.742306 220.919723 
L 350.759629 220.012073 
L 352.272622 219.068117 
L 353.785614 218.777669 
L 356.307268 218.160467 
L 356.811599 217.761101 
L 358.324591 217.216511 
L 360.341915 216.417778 
L 360.846245 216.054718 
L 361.350576 215.873188 
L 362.359238 215.328598 
L 364.880892 214.49356 
L 366.393884 213.295462 
L 366.898215 213.186544 
L 367.906877 212.387812 
L 368.411207 212.3152 
L 368.915538 211.516467 
L 369.419869 211.298631 
L 369.9242 210.899265 
L 370.428531 210.826653 
L 371.437192 210.209451 
L 372.445854 209.882697 
L 372.950185 209.519637 
L 373.454515 209.338107 
L 374.967508 208.285233 
L 376.984831 207.232358 
L 377.489162 207.159746 
L 379.002154 206.39732 
L 379.506485 205.562282 
L 380.515146 204.836162 
L 381.019477 204.727244 
L 382.028139 204.110042 
L 382.53247 204.001124 
L 383.541131 203.49284 
L 385.558454 202.512577 
L 386.062785 202.149517 
L 387.071447 201.169255 
L 388.080108 200.552053 
L 388.584439 200.225299 
L 389.08877 199.680709 
L 391.106093 198.301081 
L 391.610424 197.720184 
L 392.114755 197.320818 
L 393.123416 196.957758 
L 394.132078 196.267944 
L 395.64507 195.505518 
L 396.149401 195.432906 
L 397.662394 194.634174 
L 398.671055 194.016972 
L 403.714363 192.201671 
L 404.218694 191.802305 
L 406.236017 191.039879 
L 406.740348 190.894655 
L 407.244679 190.495289 
L 409.766333 189.115661 
L 410.774994 187.11883 
L 411.783656 185.957038 
L 412.792318 185.339836 
L 414.30531 184.722634 
L 414.809641 184.650022 
L 415.313972 184.359574 
L 417.835626 183.560841 
L 418.339956 183.343005 
L 419.348618 182.653191 
L 420.86161 181.999683 
L 421.870272 181.455093 
L 422.374603 181.092033 
L 422.878933 180.874197 
L 423.383264 180.511137 
L 423.887595 179.966547 
L 424.896257 179.421956 
L 427.417911 178.078634 
L 430.443895 176.590088 
L 431.452557 176.263334 
L 432.965549 175.791356 
L 434.982873 174.883706 
L 435.991534 174.484339 
L 436.495865 174.084973 
L 438.513188 173.395159 
L 439.52185 172.669039 
L 440.530511 172.233367 
L 441.539173 171.434635 
L 442.547835 171.071575 
L 443.052165 170.635903 
L 443.556496 170.563291 
L 444.565158 169.800864 
L 445.573819 169.29258 
L 446.07815 169.074744 
L 446.582481 168.56646 
L 450.112797 167.186832 
L 451.121458 166.75116 
L 452.634451 166.279182 
L 453.643112 166.133958 
L 454.147443 165.916122 
L 454.651774 165.84351 
L 455.660435 165.407837 
L 456.164766 165.371531 
L 458.182089 164.609105 
L 459.695082 163.556231 
L 460.199413 163.374701 
L 461.208074 162.830111 
L 461.712405 162.684887 
L 464.73839 161.014811 
L 465.24272 160.905893 
L 466.755713 160.034548 
L 468.268705 159.526264 
L 469.277367 159.19951 
L 471.29469 158.546002 
L 472.303352 158.219248 
L 474.320675 157.819882 
L 474.825006 157.602046 
L 475.329336 157.529434 
L 476.337998 157.093762 
L 476.842329 157.02115 
L 477.34666 156.767008 
L 478.355321 156.585478 
L 479.868314 156.040887 
L 480.876975 155.931969 
L 482.389968 155.605215 
L 484.911622 155.169543 
L 498.024222 151.393718 
L 498.528553 150.885434 
L 499.537215 150.486068 
L 502.5632 149.396888 
L 503.06753 149.070134 
L 503.571861 148.961216 
L 504.076192 148.670768 
L 505.589184 148.235096 
L 506.597846 147.980954 
L 507.102177 147.6542 
L 507.606507 147.545282 
L 508.110838 147.10961 
L 509.623831 146.819162 
L 510.632492 146.347183 
L 511.136823 145.766287 
L 513.154146 145.294309 
L 516.684462 144.568189 
L 517.188793 144.568189 
L 517.693123 144.350353 
L 519.710447 143.987293 
L 520.214777 143.769457 
L 522.232101 143.406397 
L 523.240762 142.970725 
L 524.249424 142.789195 
L 526.771078 142.171993 
L 528.788401 141.55479 
L 529.292732 141.445872 
L 529.797063 141.19173 
L 530.805724 140.937588 
L 531.310055 140.64714 
L 532.823047 140.138856 
L 533.327378 139.812102 
L 534.33604 139.521654 
L 535.344701 139.1949 
L 536.353363 138.795534 
L 537.866355 138.142026 
L 539.883679 137.887884 
L 543.918325 136.471949 
L 544.422656 136.108889 
L 544.926987 135.999971 
L 545.431317 135.745829 
L 545.935648 135.709523 
L 551.483287 133.785305 
L 554.004941 133.131797 
L 555.013602 132.659818 
L 556.526595 132.333064 
L 557.030926 131.933698 
L 557.535256 131.679556 
L 558.039587 131.062354 
L 558.543918 130.699294 
L 559.55258 130.408846 
L 560.05691 130.00948 
L 563.082895 128.883994 
L 563.587226 128.55724 
L 564.595888 128.266792 
L 565.100218 127.940037 
L 567.621872 127.141305 
L 569.134865 126.269961 
L 569.639196 126.161043 
L 572.16085 124.817721 
L 573.673842 124.164213 
L 574.178173 123.801153 
L 575.186834 123.474399 
L 576.195496 122.893502 
L 576.699827 122.711972 
L 577.204158 122.348912 
L 583.760458 120.061634 
L 584.264789 119.952716 
L 584.76912 119.625962 
L 586.786443 119.226596 
L 587.795104 118.82723 
L 588.299435 118.536781 
L 588.803766 118.391557 
L 590.821089 117.338683 
L 591.32542 117.266071 
L 592.838412 116.431033 
L 594.351405 115.922749 
L 597.88172 114.470509 
L 598.386051 114.325285 
L 598.890382 113.99853 
L 599.899043 113.889612 
L 600.403374 113.562858 
L 601.412036 113.381328 
L 602.420697 112.90935 
L 602.925028 112.691514 
L 603.429359 112.618902 
L 605.951013 111.63864 
L 607.464005 111.239274 
L 608.472667 110.985132 
L 609.985659 110.54946 
L 610.994321 110.150094 
L 613.011644 109.060913 
L 614.020306 108.661547 
L 614.524637 108.334793 
L 615.533298 108.116957 
L 616.037629 107.826509 
L 616.54196 107.717591 
L 618.054952 106.882553 
L 619.063614 106.483187 
L 621.080937 105.720761 
L 623.602591 104.885723 
L 624.611253 104.377438 
L 627.132907 103.5424 
L 628.645899 102.99781 
L 629.15023 102.852586 
L 630.158891 102.307996 
L 632.176215 101.400346 
L 637.219522 99.476127 
L 637.723853 99.149373 
L 639.741176 98.459559 
L 640.245507 98.459559 
L 641.254169 98.023887 
L 642.26283 97.116237 
L 642.767161 96.680565 
L 644.280154 95.954445 
L 644.784484 95.845527 
L 645.288815 95.591385 
L 645.793146 95.518773 
L 646.297477 95.155712 
L 646.801808 95.046794 
L 647.810469 94.429592 
L 649.323462 93.667166 
L 650.332123 93.2678 
L 650.836454 93.013658 
L 652.349446 92.686904 
L 654.8711 91.851866 
L 655.879762 91.525112 
L 657.392754 90.762685 
L 658.401416 90.290707 
L 659.410078 90.036565 
L 660.92307 89.346751 
L 665.462047 87.676675 
L 666.97504 86.769025 
L 667.47937 86.660107 
L 668.488032 86.151823 
L 669.496694 85.788762 
L 670.001024 85.35309 
L 671.009686 84.953724 
L 672.522678 84.336522 
L 673.027009 83.937156 
L 673.53134 83.90085 
L 674.540002 83.610402 
L 675.548663 83.283648 
L 676.052994 83.029506 
L 676.557325 82.956894 
L 678.070317 82.412304 
L 679.583309 81.867714 
L 680.591971 81.468348 
L 681.096302 81.068981 
L 682.609294 80.669615 
L 683.113625 80.379167 
L 684.122287 80.125025 
L 685.635279 79.289987 
L 686.13961 79.253681 
L 687.652602 78.781703 
L 688.661264 78.709091 
L 689.669925 78.309725 
L 692.69591 77.438381 
L 693.704572 77.402075 
L 696.730557 76.421812 
L 697.234887 76.3492 
L 698.74788 75.550468 
L 699.252211 75.114796 
L 700.765203 74.243452 
L 701.773865 73.62625 
L 703.791188 73.045354 
L 704.295519 72.754906 
L 704.799849 72.645988 
L 705.30418 72.246622 
L 708.330165 71.012217 
L 710.347488 70.467627 
L 711.35615 70.031955 
L 711.860481 69.777813 
L 712.869142 69.451059 
L 713.373473 69.124305 
L 714.382135 68.942775 
L 716.903789 67.780983 
L 717.408119 67.490535 
L 718.921112 67.127474 
L 720.434104 66.147212 
L 720.938435 66.0746 
L 723.460089 65.094338 
L 724.973081 64.731278 
L 725.477412 64.658666 
L 725.981743 64.44083 
L 726.486074 64.404524 
L 727.494735 64.07777 
L 727.999066 64.041464 
L 729.512058 63.460568 
L 731.529382 62.879672 
L 732.538043 62.117245 
L 734.555366 61.028065 
L 736.068359 60.519781 
L 739.094344 59.140153 
L 740.103005 58.595563 
L 740.607336 58.341421 
L 741.111667 57.869442 
L 743.633321 57.107016 
L 744.641982 56.52612 
L 746.659306 55.8 
L 747.163636 55.8 
L 747.163636 55.8 
" clip-path="url(#pe0b69e1b01)" style="fill: none; stroke: #1f77b4; stroke-width: 1.5; stroke-linecap: square"/>
   </g>
   <g id="line2d_44">
    <path d="M 138.940694 307.8 
L 143.479672 307.691082 
L 147.514318 307.509552 
L 149.531641 307.509552 
L 150.035972 307.364328 
L 152.557626 307.25541 
L 155.583611 306.928656 
L 158.609596 306.819738 
L 159.618257 306.71082 
L 163.148573 306.565596 
L 166.678888 306.456678 
L 169.200542 306.384066 
L 175.756843 306.275148 
L 178.278497 306.202536 
L 181.808812 306.093618 
L 184.330466 306.021006 
L 189.878105 305.912088 
L 191.895428 305.730558 
L 193.912751 305.694252 
L 196.938736 305.585334 
L 198.956059 305.549028 
L 201.477713 305.476416 
L 203.495037 305.294885 
L 208.034014 305.185967 
L 209.042675 305.113355 
L 211.059998 305.004437 
L 214.085983 304.895519 
L 216.103306 304.786601 
L 225.181261 304.242011 
L 228.711576 304.133093 
L 230.224569 303.987869 
L 232.746223 303.878951 
L 237.789531 303.624809 
L 242.832839 303.552197 
L 244.850162 303.334361 
L 246.867485 303.225443 
L 252.415124 302.717159 
L 255.945439 302.317793 
L 257.458432 302.245181 
L 261.997409 301.700591 
L 264.519063 301.627979 
L 266.032055 301.482755 
L 267.545048 301.373837 
L 281.66631 300.320962 
L 282.674972 300.139432 
L 285.700957 300.030514 
L 293.770249 299.558536 
L 297.300565 299.449618 
L 299.317888 299.231782 
L 301.839542 299.122864 
L 304.865527 299.013946 
L 307.387181 298.905028 
L 309.404504 298.868722 
L 311.926158 298.79611 
L 312.93482 298.650886 
L 319.995451 298.541968 
L 321.004112 298.43305 
L 327.056082 298.324132 
L 331.595059 298.106296 
L 335.125375 297.997378 
L 337.142698 297.779542 
L 340.673013 297.670624 
L 341.681675 297.489094 
L 344.203329 297.416482 
L 349.246637 297.34387 
L 351.768291 297.089728 
L 354.794276 296.98081 
L 356.811599 296.79928 
L 361.854907 296.545138 
L 366.898215 296.43622 
L 371.437192 296.218384 
L 372.950185 296.182078 
L 373.958846 296.036853 
L 376.4805 295.927935 
L 377.489162 295.855323 
L 378.497823 295.782711 
L 379.506485 295.710099 
L 384.045462 295.637487 
L 385.558454 295.528569 
L 399.175386 294.657225 
L 401.69704 294.548307 
L 404.218694 294.475695 
L 411.279325 294.366777 
L 412.287987 294.221553 
L 419.348618 294.112635 
L 424.391926 293.858493 
L 425.400587 293.822187 
L 426.409249 293.713269 
L 428.930903 293.604351 
L 431.452557 293.531739 
L 433.974211 293.422821 
L 436.495865 293.350209 
L 441.034842 293.241291 
L 444.060827 293.132373 
L 451.121458 293.023455 
L 456.669097 292.733007 
L 458.68642 292.660395 
L 460.199413 292.551477 
L 467.260044 292.442559 
L 470.286028 292.333641 
L 479.363983 292.224723 
L 481.381306 292.188417 
L 487.433276 292.115805 
L 488.441937 292.043193 
L 495.502568 291.934275 
L 497.519892 291.897969 
L 510.632492 291.789051 
L 512.145485 291.643827 
L 534.840371 291.534909 
L 537.362025 291.462296 
L 550.474625 291.353378 
L 551.483287 291.280766 
L 554.004941 291.208154 
L 555.517933 291.06293 
L 558.543918 290.954012 
L 562.074234 290.808788 
L 566.613211 290.69987 
L 569.134865 290.627258 
L 572.66518 290.51834 
L 576.699827 290.33681 
L 579.221481 290.227892 
L 581.238804 290.191586 
L 585.777781 290.082668 
L 587.795104 290.046362 
L 594.351405 289.937444 
L 596.368728 289.901138 
L 598.890382 289.79222 
L 601.916367 289.683302 
L 605.446682 289.61069 
L 606.455344 289.538078 
L 618.559283 289.42916 
L 625.115583 289.0661 
L 627.637237 288.993488 
L 628.645899 288.88457 
L 629.654561 288.811958 
L 633.689207 288.70304 
L 636.715192 288.594122 
L 641.7585 288.485204 
L 644.280154 288.231062 
L 649.323462 288.122144 
L 650.332123 288.013226 
L 655.375431 287.904308 
L 657.897085 287.831696 
L 663.444724 287.79539 
L 664.453386 287.686472 
L 670.001024 287.577554 
L 671.009686 287.504942 
L 682.104963 287.396024 
L 685.130948 287.287106 
L 692.69591 287.178188 
L 694.713233 287.141882 
L 699.252211 287.06927 
L 700.260872 286.960352 
L 706.312842 286.851434 
L 709.338827 286.742515 
L 718.416781 286.633597 
L 719.929773 286.524679 
L 721.442766 286.415761 
L 722.955758 286.306843 
L 730.52072 286.197925 
L 734.051036 286.052701 
L 745.146313 285.943783 
L 747.163636 285.907477 
L 747.163636 285.907477 
" clip-path="url(#pe0b69e1b01)" style="fill: none; stroke: #ff7f0e; stroke-width: 1.5; stroke-linecap: square"/>
   </g>
   <g id="patch_3">
    <path d="M 108 320.4 
L 108 43.2 
" style="fill: none; stroke: #a9a9a9; stroke-width: 0.8; stroke-linejoin: miter; stroke-linecap: square"/>
   </g>
   <g id="patch_4">
    <path d="M 777.6 320.4 
L 777.6 43.2 
" style="fill: none"/>
   </g>
   <g id="patch_5">
    <path d="M 108 320.4 
L 777.6 320.4 
" style="fill: none; stroke: #a9a9a9; stroke-width: 0.8; stroke-linejoin: miter; stroke-linecap: square"/>
   </g>
   <g id="patch_6">
    <path d="M 108 43.2 
L 777.6 43.2 
" style="fill: none"/>
   </g>
   <g id="text_22">
    <!-- get_subscribe history -->
    <g style="fill: #a9a9a9" transform="translate(378.6075 37.2) scale(0.12 -0.12)">
     <defs>
      <path id="DejaVuSans-67" d="M 2906 1791 
Q 2906 2416 2648 2759 
Q 2391 3103 1925 3103 
Q 1463 3103 1205 2759 
Q 947 2416 947 1791 
Q 947 1169 1205 825 
Q 1463 481 1925 481 
Q 2391 481 2648 825 
Q 2906 1169 2906 1791 
z
M 3481 434 
Q 3481 -459 3084 -895 
Q 2688 -1331 1869 -1331 
Q 1566 -1331 1297 -1286 
Q 1028 -1241 775 -1147 
L 775 -588 
Q 1028 -725 1275 -790 
Q 1522 -856 1778 -856 
Q 2344 -856 2625 -561 
Q 2906 -266 2906 331 
L 2906 616 
Q 2728 306 2450 153 
Q 2172 0 1784 0 
Q 1141 0 747 490 
Q 353 981 353 1791 
Q 353 2603 747 3093 
Q 1141 3584 1784 3584 
Q 2172 3584 2450 3431 
Q 2728 3278 2906 2969 
L 2906 3500 
L 3481 3500 
L 3481 434 
z
" transform="scale(0.015625)"/>
      <path id="DejaVuSans-65" d="M 3597 1894 
L 3597 1613 
L 953 1613 
Q 991 1019 1311 708 
Q 1631 397 2203 397 
Q 2534 397 2845 478 
Q 3156 559 3463 722 
L 3463 178 
Q 3153 47 2828 -22 
Q 2503 -91 2169 -91 
Q 1331 -91 842 396 
Q 353 884 353 1716 
Q 353 2575 817 3079 
Q 1281 3584 2069 3584 
Q 2775 3584 3186 3129 
Q 3597 2675 3597 1894 
z
M 3022 2063 
Q 3016 2534 2758 2815 
Q 2500 3097 2075 3097 
Q 1594 3097 1305 2825 
Q 1016 2553 972 2059 
L 3022 2063 
z
" transform="scale(0.015625)"/>
      <path id="DejaVuSans-74" d="M 1172 4494 
L 1172 3500 
L 2356 3500 
L 2356 3053 
L 1172 3053 
L 1172 1153 
Q 1172 725 1289 603 
Q 1406 481 1766 481 
L 2356 481 
L 2356 0 
L 1766 0 
Q 1100 0 847 248 
Q 594 497 594 1153 
L 594 3053 
L 172 3053 
L 172 3500 
L 594 3500 
L 594 4494 
L 1172 4494 
z
" transform="scale(0.015625)"/>
      <path id="DejaVuSans-5f" d="M 3263 -1063 
L 3263 -1509 
L -63 -1509 
L -63 -1063 
L 3263 -1063 
z
" transform="scale(0.015625)"/>
      <path id="DejaVuSans-73" d="M 2834 3397 
L 2834 2853 
Q 2591 2978 2328 3040 
Q 2066 3103 1784 3103 
Q 1356 3103 1142 2972 
Q 928 2841 928 2578 
Q 928 2378 1081 2264 
Q 1234 2150 1697 2047 
L 1894 2003 
Q 2506 1872 2764 1633 
Q 3022 1394 3022 966 
Q 3022 478 2636 193 
Q 2250 -91 1575 -91 
Q 1294 -91 989 -36 
Q 684 19 347 128 
L 347 722 
Q 666 556 975 473 
Q 1284 391 1588 391 
Q 1994 391 2212 530 
Q 2431 669 2431 922 
Q 2431 1156 2273 1281 
Q 2116 1406 1581 1522 
L 1381 1569 
Q 847 1681 609 1914 
Q 372 2147 372 2553 
Q 372 3047 722 3315 
Q 1072 3584 1716 3584 
Q 2034 3584 2315 3537 
Q 2597 3491 2834 3397 
z
" transform="scale(0.015625)"/>
      <path id="DejaVuSans-75" d="M 544 1381 
L 544 3500 
L 1119 3500 
L 1119 1403 
Q 1119 906 1312 657 
Q 1506 409 1894 409 
Q 2359 409 2629 706 
Q 2900 1003 2900 1516 
L 2900 3500 
L 3475 3500 
L 3475 0 
L 2900 0 
L 2900 538 
Q 2691 219 2414 64 
Q 2138 -91 1772 -91 
Q 1169 -91 856 284 
Q 544 659 544 1381 
z
M 1991 3584 
L 1991 3584 
z
" transform="scale(0.015625)"/>
      <path id="DejaVuSans-62" d="M 3116 1747 
Q 3116 2381 2855 2742 
Q 2594 3103 2138 3103 
Q 1681 3103 1420 2742 
Q 1159 2381 1159 1747 
Q 1159 1113 1420 752 
Q 1681 391 2138 391 
Q 2594 391 2855 752 
Q 3116 1113 3116 1747 
z
M 1159 2969 
Q 1341 3281 1617 3432 
Q 1894 3584 2278 3584 
Q 2916 3584 3314 3078 
Q 3713 2572 3713 1747 
Q 3713 922 3314 415 
Q 2916 -91 2278 -91 
Q 1894 -91 1617 61 
Q 1341 213 1159 525 
L 1159 0 
L 581 0 
L 581 4863 
L 1159 4863 
L 1159 2969 
z
" transform="scale(0.015625)"/>
      <path id="DejaVuSans-63" d="M 3122 3366 
L 3122 2828 
Q 2878 2963 2633 3030 
Q 2388 3097 2138 3097 
Q 1578 3097 1268 2742 
Q 959 2388 959 1747 
Q 959 1106 1268 751 
Q 1578 397 2138 397 
Q 2388 397 2633 464 
Q 2878 531 3122 666 
L 3122 134 
Q 2881 22 2623 -34 
Q 2366 -91 2075 -91 
Q 1284 -91 818 406 
Q 353 903 353 1747 
Q 353 2603 823 3093 
Q 1294 3584 2113 3584 
Q 2378 3584 2631 3529 
Q 2884 3475 3122 3366 
z
" transform="scale(0.015625)"/>
      <path id="DejaVuSans-72" d="M 2631 2963 
Q 2534 3019 2420 3045 
Q 2306 3072 2169 3072 
Q 1681 3072 1420 2755 
Q 1159 2438 1159 1844 
L 1159 0 
L 581 0 
L 581 3500 
L 1159 3500 
L 1159 2956 
Q 1341 3275 1631 3429 
Q 1922 3584 2338 3584 
Q 2397 3584 2469 3576 
Q 2541 3569 2628 3553 
L 2631 2963 
z
" transform="scale(0.015625)"/>
      <path id="DejaVuSans-69" d="M 603 3500 
L 1178 3500 
L 1178 0 
L 603 0 
L 603 3500 
z
M 603 4863 
L 1178 4863 
L 1178 4134 
L 603 4134 
L 603 4863 
z
" transform="scale(0.015625)"/>
      <path id="DejaVuSans-20" transform="scale(0.015625)"/>
      <path id="DejaVuSans-68" d="M 3513 2113 
L 3513 0 
L 2938 0 
L 2938 2094 
Q 2938 2591 2744 2837 
Q 2550 3084 2163 3084 
Q 1697 3084 1428 2787 
Q 1159 2491 1159 1978 
L 1159 0 
L 581 0 
L 581 4863 
L 1159 4863 
L 1159 2956 
Q 1366 3272 1645 3428 
Q 1925 3584 2291 3584 
Q 2894 3584 3203 3211 
Q 3513 2838 3513 2113 
z
" transform="scale(0.015625)"/>
      <path id="DejaVuSans-6f" d="M 1959 3097 
Q 1497 3097 1228 2736 
Q 959 2375 959 1747 
Q 959 1119 1226 758 
Q 1494 397 1959 397 
Q 2419 397 2687 759 
Q 2956 1122 2956 1747 
Q 2956 2369 2687 2733 
Q 2419 3097 1959 3097 
z
M 1959 3584 
Q 2709 3584 3137 3096 
Q 3566 2609 3566 1747 
Q 3566 888 3137 398 
Q 2709 -91 1959 -91 
Q 1206 -91 779 398 
Q 353 888 353 1747 
Q 353 2609 779 3096 
Q 1206 3584 1959 3584 
z
" transform="scale(0.015625)"/>
      <path id="DejaVuSans-79" d="M 2059 -325 
Q 1816 -950 1584 -1140 
Q 1353 -1331 966 -1331 
L 506 -1331 
L 506 -850 
L 844 -850 
Q 1081 -850 1212 -737 
Q 1344 -625 1503 -206 
L 1606 56 
L 191 3500 
L 800 3500 
L 1894 763 
L 2988 3500 
L 3597 3500 
L 2059 -325 
z
" transform="scale(0.015625)"/>
     </defs>
     <use xlink:href="#DejaVuSans-67"/>
     <use xlink:href="#DejaVuSans-65" x="63.476562"/>
     <use xlink:href="#DejaVuSans-74" x="125"/>
     <use xlink:href="#DejaVuSans-5f" x="164.208984"/>
     <use xlink:href="#DejaVuSans-73" x="214.208984"/>
     <use xlink:href="#DejaVuSans-75" x="266.308594"/>
     <use xlink:href="#DejaVuSans-62" x="329.6875"/>
     <use xlink:href="#DejaVuSans-73" x="393.164062"/>
     <use xlink:href="#DejaVuSans-63" x="445.263672"/>
     <use xlink:href="#DejaVuSans-72" x="500.244141"/>
     <use xlink:href="#DejaVuSans-69" x="541.357422"/>
     <use xlink:href="#DejaVuSans-62" x="569.140625"/>
     <use xlink:href="#DejaVuSans-65" x="632.617188"/>
     <use xlink:href="#DejaVuSans-20" x="694.140625"/>
     <use xlink:href="#DejaVuSans-68" x="725.927734"/>
     <use xlink:href="#DejaVuSans-69" x="789.306641"/>
     <use xlink:href="#DejaVuSans-73" x="817.089844"/>
     <use xlink:href="#DejaVuSans-74" x="869.189453"/>
     <use xlink:href="#DejaVuSans-6f" x="908.398438"/>
     <use xlink:href="#DejaVuSans-72" x="969.580078"/>
     <use xlink:href="#DejaVuSans-79" x="1010.693359"/>
    </g>
   </g>
   <g id="legend_1">
    <g id="line2d_45">
     <path d="M 815.08 328.498438 
L 825.08 328.498438 
L 835.08 328.498438 
" style="fill: none; stroke: #1f77b4; stroke-width: 1.5; stroke-linecap: square"/>
    </g>
    <g id="text_23">
     <!-- star -->
     <g style="fill: #a9a9a9" transform="translate(843.08 331.998438) scale(0.1 -0.1)">
      <defs>
       <path id="DejaVuSans-61" d="M 2194 1759 
Q 1497 1759 1228 1600 
Q 959 1441 959 1056 
Q 959 750 1161 570 
Q 1363 391 1709 391 
Q 2188 391 2477 730 
Q 2766 1069 2766 1631 
L 2766 1759 
L 2194 1759 
z
M 3341 1997 
L 3341 0 
L 2766 0 
L 2766 531 
Q 2569 213 2275 61 
Q 1981 -91 1556 -91 
Q 1019 -91 701 211 
Q 384 513 384 1019 
Q 384 1609 779 1909 
Q 1175 2209 1959 2209 
L 2766 2209 
L 2766 2266 
Q 2766 2663 2505 2880 
Q 2244 3097 1772 3097 
Q 1472 3097 1187 3025 
Q 903 2953 641 2809 
L 641 3341 
Q 956 3463 1253 3523 
Q 1550 3584 1831 3584 
Q 2591 3584 2966 3190 
Q 3341 2797 3341 1997 
z
" transform="scale(0.015625)"/>
      </defs>
      <use xlink:href="#DejaVuSans-73"/>
      <use xlink:href="#DejaVuSans-74" x="52.099609"/>
      <use xlink:href="#DejaVuSans-61" x="91.308594"/>
      <use xlink:href="#DejaVuSans-72" x="152.587891"/>
     </g>
    </g>
    <g id="line2d_46">
     <path d="M 815.08 343.176562 
L 825.08 343.176562 
L 835.08 343.176562 
" style="fill: none; stroke: #ff7f0e; stroke-width: 1.5; stroke-linecap: square"/>
    </g>
    <g id="text_24">
     <!-- fork -->
     <g style="fill: #a9a9a9" transform="translate(843.08 346.676562) scale(0.1 -0.1)">
      <defs>
       <path id="DejaVuSans-66" d="M 2375 4863 
L 2375 4384 
L 1825 4384 
Q 1516 4384 1395 4259 
Q 1275 4134 1275 3809 
L 1275 3500 
L 2222 3500 
L 2222 3053 
L 1275 3053 
L 1275 0 
L 697 0 
L 697 3053 
L 147 3053 
L 147 3500 
L 697 3500 
L 697 3744 
Q 697 4328 969 4595 
Q 1241 4863 1831 4863 
L 2375 4863 
z
" transform="scale(0.015625)"/>
       <path id="DejaVuSans-6b" d="M 581 4863 
L 1159 4863 
L 1159 1991 
L 2875 3500 
L 3609 3500 
L 1753 1863 
L 3688 0 
L 2938 0 
L 1159 1709 
L 1159 0 
L 581 0 
L 581 4863 
z
" transform="scale(0.015625)"/>
      </defs>
      <use xlink:href="#DejaVuSans-66"/>
      <use xlink:href="#DejaVuSans-6f" x="35.205078"/>
      <use xlink:href="#DejaVuSans-72" x="96.386719"/>
      <use xlink:href="#DejaVuSans-6b" x="137.5"/>
     </g>
    </g>
   </g>
  </g>
 </g>
 <defs>
  <clipPath id="pe0b69e1b01">
   <rect x="108" y="43.2" width="669.6" height="277.2"/>
  </clipPath>
 </defs>
</svg>
