<?xml version="1.0" encoding="utf-8" standalone="no"?>
<!DOCTYPE svg PUBLIC "-//W3C//DTD SVG 1.1//EN"
  "http://www.w3.org/Graphics/SVG/1.1/DTD/svg11.dtd">
<svg xmlns:xlink="http://www.w3.org/1999/xlink" width="864pt" height="360pt" viewBox="0 0 864 360" xmlns="http://www.w3.org/2000/svg" version="1.1">
 <metadata>
  <rdf:RDF xmlns:dc="http://purl.org/dc/elements/1.1/" xmlns:cc="http://creativecommons.org/ns#" xmlns:rdf="http://www.w3.org/1999/02/22-rdf-syntax-ns#">
   <cc:Work>
    <dc:type rdf:resource="http://purl.org/dc/dcmitype/StillImage"/>
    <dc:date>2024-11-16T08:14:05.153288</dc:date>
    <dc:format>image/svg+xml</dc:format>
    <dc:creator>
     <cc:Agent>
      <dc:title>Matplotlib v3.9.2, https://matplotlib.org/</dc:title>
     </cc:Agent>
    </dc:creator>
   </cc:Work>
  </rdf:RDF>
 </metadata>
 <defs>
  <style type="text/css">*{stroke-linejoin: round; stroke-linecap: butt}</style>
 </defs>
 <g id="figure_1">
  <g id="patch_1">
   <path d="M 0 360 
L 864 360 
L 864 0 
L 0 0 
L 0 360 
z
" style="fill: none; opacity: 0"/>
  </g>
  <g id="axes_1">
   <g id="patch_2">
    <path d="M 108 320.4 
L 777.6 320.4 
L 777.6 43.2 
L 108 43.2 
L 108 320.4 
z
" style="fill: none; opacity: 0"/>
   </g>
   <g id="matplotlib.axis_1">
    <g id="xtick_1">
     <g id="line2d_1">
      <path d="M 158.040297 320.4 
L 158.040297 43.2 
" clip-path="url(#p8efa776ec4)" style="fill: none; stroke-dasharray: 5.12,1.28,0.8,1.28; stroke-dashoffset: 0; stroke: #b0b0b0; stroke-width: 0.8"/>
     </g>
     <g id="line2d_2">
      <defs>
       <path id="m461cb77ff2" d="M 0 0 
L 0 3.5 
" style="stroke: #a9a9a9; stroke-width: 0.8"/>
      </defs>
      <g>
       <use xlink:href="#m461cb77ff2" x="158.040297" y="320.4" style="fill: #a9a9a9; stroke: #a9a9a9; stroke-width: 0.8"/>
      </g>
     </g>
     <g id="text_1">
      <!-- 2021-09 -->
      <g style="fill: #a9a9a9" transform="translate(137.148891 334.998438) scale(0.1 -0.1)">
       <defs>
        <path id="DejaVuSans-32" d="M 1228 531 
L 3431 531 
L 3431 0 
L 469 0 
L 469 531 
Q 828 903 1448 1529 
Q 2069 2156 2228 2338 
Q 2531 2678 2651 2914 
Q 2772 3150 2772 3378 
Q 2772 3750 2511 3984 
Q 2250 4219 1831 4219 
Q 1534 4219 1204 4116 
Q 875 4013 500 3803 
L 500 4441 
Q 881 4594 1212 4672 
Q 1544 4750 1819 4750 
Q 2544 4750 2975 4387 
Q 3406 4025 3406 3419 
Q 3406 3131 3298 2873 
Q 3191 2616 2906 2266 
Q 2828 2175 2409 1742 
Q 1991 1309 1228 531 
z
" transform="scale(0.015625)"/>
        <path id="DejaVuSans-30" d="M 2034 4250 
Q 1547 4250 1301 3770 
Q 1056 3291 1056 2328 
Q 1056 1369 1301 889 
Q 1547 409 2034 409 
Q 2525 409 2770 889 
Q 3016 1369 3016 2328 
Q 3016 3291 2770 3770 
Q 2525 4250 2034 4250 
z
M 2034 4750 
Q 2819 4750 3233 4129 
Q 3647 3509 3647 2328 
Q 3647 1150 3233 529 
Q 2819 -91 2034 -91 
Q 1250 -91 836 529 
Q 422 1150 422 2328 
Q 422 3509 836 4129 
Q 1250 4750 2034 4750 
z
" transform="scale(0.015625)"/>
        <path id="DejaVuSans-31" d="M 794 531 
L 1825 531 
L 1825 4091 
L 703 3866 
L 703 4441 
L 1819 4666 
L 2450 4666 
L 2450 531 
L 3481 531 
L 3481 0 
L 794 0 
L 794 531 
z
" transform="scale(0.015625)"/>
        <path id="DejaVuSans-2d" d="M 313 2009 
L 1997 2009 
L 1997 1497 
L 313 1497 
L 313 2009 
z
" transform="scale(0.015625)"/>
        <path id="DejaVuSans-39" d="M 703 97 
L 703 672 
Q 941 559 1184 500 
Q 1428 441 1663 441 
Q 2288 441 2617 861 
Q 2947 1281 2994 2138 
Q 2813 1869 2534 1725 
Q 2256 1581 1919 1581 
Q 1219 1581 811 2004 
Q 403 2428 403 3163 
Q 403 3881 828 4315 
Q 1253 4750 1959 4750 
Q 2769 4750 3195 4129 
Q 3622 3509 3622 2328 
Q 3622 1225 3098 567 
Q 2575 -91 1691 -91 
Q 1453 -91 1209 -44 
Q 966 3 703 97 
z
M 1959 2075 
Q 2384 2075 2632 2365 
Q 2881 2656 2881 3163 
Q 2881 3666 2632 3958 
Q 2384 4250 1959 4250 
Q 1534 4250 1286 3958 
Q 1038 3666 1038 3163 
Q 1038 2656 1286 2365 
Q 1534 2075 1959 2075 
z
" transform="scale(0.015625)"/>
       </defs>
       <use xlink:href="#DejaVuSans-32"/>
       <use xlink:href="#DejaVuSans-30" x="63.623047"/>
       <use xlink:href="#DejaVuSans-32" x="127.246094"/>
       <use xlink:href="#DejaVuSans-31" x="190.869141"/>
       <use xlink:href="#DejaVuSans-2d" x="254.492188"/>
       <use xlink:href="#DejaVuSans-30" x="290.576172"/>
       <use xlink:href="#DejaVuSans-39" x="354.199219"/>
      </g>
     </g>
    </g>
    <g id="xtick_2">
     <g id="line2d_3">
      <path d="M 219.365423 320.4 
L 219.365423 43.2 
" clip-path="url(#p8efa776ec4)" style="fill: none; stroke-dasharray: 5.12,1.28,0.8,1.28; stroke-dashoffset: 0; stroke: #b0b0b0; stroke-width: 0.8"/>
     </g>
     <g id="line2d_4">
      <g>
       <use xlink:href="#m461cb77ff2" x="219.365423" y="320.4" style="fill: #a9a9a9; stroke: #a9a9a9; stroke-width: 0.8"/>
      </g>
     </g>
     <g id="text_2">
      <!-- 2022-01 -->
      <g style="fill: #a9a9a9" transform="translate(198.474017 334.998438) scale(0.1 -0.1)">
       <use xlink:href="#DejaVuSans-32"/>
       <use xlink:href="#DejaVuSans-30" x="63.623047"/>
       <use xlink:href="#DejaVuSans-32" x="127.246094"/>
       <use xlink:href="#DejaVuSans-32" x="190.869141"/>
       <use xlink:href="#DejaVuSans-2d" x="254.492188"/>
       <use xlink:href="#DejaVuSans-30" x="290.576172"/>
       <use xlink:href="#DejaVuSans-31" x="354.199219"/>
      </g>
     </g>
    </g>
    <g id="xtick_3">
     <g id="line2d_5">
      <path d="M 279.685219 320.4 
L 279.685219 43.2 
" clip-path="url(#p8efa776ec4)" style="fill: none; stroke-dasharray: 5.12,1.28,0.8,1.28; stroke-dashoffset: 0; stroke: #b0b0b0; stroke-width: 0.8"/>
     </g>
     <g id="line2d_6">
      <g>
       <use xlink:href="#m461cb77ff2" x="279.685219" y="320.4" style="fill: #a9a9a9; stroke: #a9a9a9; stroke-width: 0.8"/>
      </g>
     </g>
     <g id="text_3">
      <!-- 2022-05 -->
      <g style="fill: #a9a9a9" transform="translate(258.793813 334.998438) scale(0.1 -0.1)">
       <defs>
        <path id="DejaVuSans-35" d="M 691 4666 
L 3169 4666 
L 3169 4134 
L 1269 4134 
L 1269 2991 
Q 1406 3038 1543 3061 
Q 1681 3084 1819 3084 
Q 2600 3084 3056 2656 
Q 3513 2228 3513 1497 
Q 3513 744 3044 326 
Q 2575 -91 1722 -91 
Q 1428 -91 1123 -41 
Q 819 9 494 109 
L 494 744 
Q 775 591 1075 516 
Q 1375 441 1709 441 
Q 2250 441 2565 725 
Q 2881 1009 2881 1497 
Q 2881 1984 2565 2268 
Q 2250 2553 1709 2553 
Q 1456 2553 1204 2497 
Q 953 2441 691 2322 
L 691 4666 
z
" transform="scale(0.015625)"/>
       </defs>
       <use xlink:href="#DejaVuSans-32"/>
       <use xlink:href="#DejaVuSans-30" x="63.623047"/>
       <use xlink:href="#DejaVuSans-32" x="127.246094"/>
       <use xlink:href="#DejaVuSans-32" x="190.869141"/>
       <use xlink:href="#DejaVuSans-2d" x="254.492188"/>
       <use xlink:href="#DejaVuSans-30" x="290.576172"/>
       <use xlink:href="#DejaVuSans-35" x="354.199219"/>
      </g>
     </g>
    </g>
    <g id="xtick_4">
     <g id="line2d_7">
      <path d="M 341.51301 320.4 
L 341.51301 43.2 
" clip-path="url(#p8efa776ec4)" style="fill: none; stroke-dasharray: 5.12,1.28,0.8,1.28; stroke-dashoffset: 0; stroke: #b0b0b0; stroke-width: 0.8"/>
     </g>
     <g id="line2d_8">
      <g>
       <use xlink:href="#m461cb77ff2" x="341.51301" y="320.4" style="fill: #a9a9a9; stroke: #a9a9a9; stroke-width: 0.8"/>
      </g>
     </g>
     <g id="text_4">
      <!-- 2022-09 -->
      <g style="fill: #a9a9a9" transform="translate(320.621603 334.998438) scale(0.1 -0.1)">
       <use xlink:href="#DejaVuSans-32"/>
       <use xlink:href="#DejaVuSans-30" x="63.623047"/>
       <use xlink:href="#DejaVuSans-32" x="127.246094"/>
       <use xlink:href="#DejaVuSans-32" x="190.869141"/>
       <use xlink:href="#DejaVuSans-2d" x="254.492188"/>
       <use xlink:href="#DejaVuSans-30" x="290.576172"/>
       <use xlink:href="#DejaVuSans-39" x="354.199219"/>
      </g>
     </g>
    </g>
    <g id="xtick_5">
     <g id="line2d_9">
      <path d="M 402.838135 320.4 
L 402.838135 43.2 
" clip-path="url(#p8efa776ec4)" style="fill: none; stroke-dasharray: 5.12,1.28,0.8,1.28; stroke-dashoffset: 0; stroke: #b0b0b0; stroke-width: 0.8"/>
     </g>
     <g id="line2d_10">
      <g>
       <use xlink:href="#m461cb77ff2" x="402.838135" y="320.4" style="fill: #a9a9a9; stroke: #a9a9a9; stroke-width: 0.8"/>
      </g>
     </g>
     <g id="text_5">
      <!-- 2023-01 -->
      <g style="fill: #a9a9a9" transform="translate(381.946729 334.998438) scale(0.1 -0.1)">
       <defs>
        <path id="DejaVuSans-33" d="M 2597 2516 
Q 3050 2419 3304 2112 
Q 3559 1806 3559 1356 
Q 3559 666 3084 287 
Q 2609 -91 1734 -91 
Q 1441 -91 1130 -33 
Q 819 25 488 141 
L 488 750 
Q 750 597 1062 519 
Q 1375 441 1716 441 
Q 2309 441 2620 675 
Q 2931 909 2931 1356 
Q 2931 1769 2642 2001 
Q 2353 2234 1838 2234 
L 1294 2234 
L 1294 2753 
L 1863 2753 
Q 2328 2753 2575 2939 
Q 2822 3125 2822 3475 
Q 2822 3834 2567 4026 
Q 2313 4219 1838 4219 
Q 1578 4219 1281 4162 
Q 984 4106 628 3988 
L 628 4550 
Q 988 4650 1302 4700 
Q 1616 4750 1894 4750 
Q 2613 4750 3031 4423 
Q 3450 4097 3450 3541 
Q 3450 3153 3228 2886 
Q 3006 2619 2597 2516 
z
" transform="scale(0.015625)"/>
       </defs>
       <use xlink:href="#DejaVuSans-32"/>
       <use xlink:href="#DejaVuSans-30" x="63.623047"/>
       <use xlink:href="#DejaVuSans-32" x="127.246094"/>
       <use xlink:href="#DejaVuSans-33" x="190.869141"/>
       <use xlink:href="#DejaVuSans-2d" x="254.492188"/>
       <use xlink:href="#DejaVuSans-30" x="290.576172"/>
       <use xlink:href="#DejaVuSans-31" x="354.199219"/>
      </g>
     </g>
    </g>
    <g id="xtick_6">
     <g id="line2d_11">
      <path d="M 463.157931 320.4 
L 463.157931 43.2 
" clip-path="url(#p8efa776ec4)" style="fill: none; stroke-dasharray: 5.12,1.28,0.8,1.28; stroke-dashoffset: 0; stroke: #b0b0b0; stroke-width: 0.8"/>
     </g>
     <g id="line2d_12">
      <g>
       <use xlink:href="#m461cb77ff2" x="463.157931" y="320.4" style="fill: #a9a9a9; stroke: #a9a9a9; stroke-width: 0.8"/>
      </g>
     </g>
     <g id="text_6">
      <!-- 2023-05 -->
      <g style="fill: #a9a9a9" transform="translate(442.266525 334.998438) scale(0.1 -0.1)">
       <use xlink:href="#DejaVuSans-32"/>
       <use xlink:href="#DejaVuSans-30" x="63.623047"/>
       <use xlink:href="#DejaVuSans-32" x="127.246094"/>
       <use xlink:href="#DejaVuSans-33" x="190.869141"/>
       <use xlink:href="#DejaVuSans-2d" x="254.492188"/>
       <use xlink:href="#DejaVuSans-30" x="290.576172"/>
       <use xlink:href="#DejaVuSans-35" x="354.199219"/>
      </g>
     </g>
    </g>
    <g id="xtick_7">
     <g id="line2d_13">
      <path d="M 524.985722 320.4 
L 524.985722 43.2 
" clip-path="url(#p8efa776ec4)" style="fill: none; stroke-dasharray: 5.12,1.28,0.8,1.28; stroke-dashoffset: 0; stroke: #b0b0b0; stroke-width: 0.8"/>
     </g>
     <g id="line2d_14">
      <g>
       <use xlink:href="#m461cb77ff2" x="524.985722" y="320.4" style="fill: #a9a9a9; stroke: #a9a9a9; stroke-width: 0.8"/>
      </g>
     </g>
     <g id="text_7">
      <!-- 2023-09 -->
      <g style="fill: #a9a9a9" transform="translate(504.094316 334.998438) scale(0.1 -0.1)">
       <use xlink:href="#DejaVuSans-32"/>
       <use xlink:href="#DejaVuSans-30" x="63.623047"/>
       <use xlink:href="#DejaVuSans-32" x="127.246094"/>
       <use xlink:href="#DejaVuSans-33" x="190.869141"/>
       <use xlink:href="#DejaVuSans-2d" x="254.492188"/>
       <use xlink:href="#DejaVuSans-30" x="290.576172"/>
       <use xlink:href="#DejaVuSans-39" x="354.199219"/>
      </g>
     </g>
    </g>
    <g id="xtick_8">
     <g id="line2d_15">
      <path d="M 586.310848 320.4 
L 586.310848 43.2 
" clip-path="url(#p8efa776ec4)" style="fill: none; stroke-dasharray: 5.12,1.28,0.8,1.28; stroke-dashoffset: 0; stroke: #b0b0b0; stroke-width: 0.8"/>
     </g>
     <g id="line2d_16">
      <g>
       <use xlink:href="#m461cb77ff2" x="586.310848" y="320.4" style="fill: #a9a9a9; stroke: #a9a9a9; stroke-width: 0.8"/>
      </g>
     </g>
     <g id="text_8">
      <!-- 2024-01 -->
      <g style="fill: #a9a9a9" transform="translate(565.419441 334.998438) scale(0.1 -0.1)">
       <defs>
        <path id="DejaVuSans-34" d="M 2419 4116 
L 825 1625 
L 2419 1625 
L 2419 4116 
z
M 2253 4666 
L 3047 4666 
L 3047 1625 
L 3713 1625 
L 3713 1100 
L 3047 1100 
L 3047 0 
L 2419 0 
L 2419 1100 
L 313 1100 
L 313 1709 
L 2253 4666 
z
" transform="scale(0.015625)"/>
       </defs>
       <use xlink:href="#DejaVuSans-32"/>
       <use xlink:href="#DejaVuSans-30" x="63.623047"/>
       <use xlink:href="#DejaVuSans-32" x="127.246094"/>
       <use xlink:href="#DejaVuSans-34" x="190.869141"/>
       <use xlink:href="#DejaVuSans-2d" x="254.492188"/>
       <use xlink:href="#DejaVuSans-30" x="290.576172"/>
       <use xlink:href="#DejaVuSans-31" x="354.199219"/>
      </g>
     </g>
    </g>
    <g id="xtick_9">
     <g id="line2d_17">
      <path d="M 647.133308 320.4 
L 647.133308 43.2 
" clip-path="url(#p8efa776ec4)" style="fill: none; stroke-dasharray: 5.12,1.28,0.8,1.28; stroke-dashoffset: 0; stroke: #b0b0b0; stroke-width: 0.8"/>
     </g>
     <g id="line2d_18">
      <g>
       <use xlink:href="#m461cb77ff2" x="647.133308" y="320.4" style="fill: #a9a9a9; stroke: #a9a9a9; stroke-width: 0.8"/>
      </g>
     </g>
     <g id="text_9">
      <!-- 2024-05 -->
      <g style="fill: #a9a9a9" transform="translate(626.241902 334.998438) scale(0.1 -0.1)">
       <use xlink:href="#DejaVuSans-32"/>
       <use xlink:href="#DejaVuSans-30" x="63.623047"/>
       <use xlink:href="#DejaVuSans-32" x="127.246094"/>
       <use xlink:href="#DejaVuSans-34" x="190.869141"/>
       <use xlink:href="#DejaVuSans-2d" x="254.492188"/>
       <use xlink:href="#DejaVuSans-30" x="290.576172"/>
       <use xlink:href="#DejaVuSans-35" x="354.199219"/>
      </g>
     </g>
    </g>
    <g id="xtick_10">
     <g id="line2d_19">
      <path d="M 708.961099 320.4 
L 708.961099 43.2 
" clip-path="url(#p8efa776ec4)" style="fill: none; stroke-dasharray: 5.12,1.28,0.8,1.28; stroke-dashoffset: 0; stroke: #b0b0b0; stroke-width: 0.8"/>
     </g>
     <g id="line2d_20">
      <g>
       <use xlink:href="#m461cb77ff2" x="708.961099" y="320.4" style="fill: #a9a9a9; stroke: #a9a9a9; stroke-width: 0.8"/>
      </g>
     </g>
     <g id="text_10">
      <!-- 2024-09 -->
      <g style="fill: #a9a9a9" transform="translate(688.069693 334.998438) scale(0.1 -0.1)">
       <use xlink:href="#DejaVuSans-32"/>
       <use xlink:href="#DejaVuSans-30" x="63.623047"/>
       <use xlink:href="#DejaVuSans-32" x="127.246094"/>
       <use xlink:href="#DejaVuSans-34" x="190.869141"/>
       <use xlink:href="#DejaVuSans-2d" x="254.492188"/>
       <use xlink:href="#DejaVuSans-30" x="290.576172"/>
       <use xlink:href="#DejaVuSans-39" x="354.199219"/>
      </g>
     </g>
    </g>
    <g id="xtick_11">
     <g id="line2d_21">
      <path d="M 770.286225 320.4 
L 770.286225 43.2 
" clip-path="url(#p8efa776ec4)" style="fill: none; stroke-dasharray: 5.12,1.28,0.8,1.28; stroke-dashoffset: 0; stroke: #b0b0b0; stroke-width: 0.8"/>
     </g>
     <g id="line2d_22">
      <g>
       <use xlink:href="#m461cb77ff2" x="770.286225" y="320.4" style="fill: #a9a9a9; stroke: #a9a9a9; stroke-width: 0.8"/>
      </g>
     </g>
     <g id="text_11">
      <!-- 2025-01 -->
      <g style="fill: #a9a9a9" transform="translate(749.394819 334.998438) scale(0.1 -0.1)">
       <use xlink:href="#DejaVuSans-32"/>
       <use xlink:href="#DejaVuSans-30" x="63.623047"/>
       <use xlink:href="#DejaVuSans-32" x="127.246094"/>
       <use xlink:href="#DejaVuSans-35" x="190.869141"/>
       <use xlink:href="#DejaVuSans-2d" x="254.492188"/>
       <use xlink:href="#DejaVuSans-30" x="290.576172"/>
       <use xlink:href="#DejaVuSans-31" x="354.199219"/>
      </g>
     </g>
    </g>
   </g>
   <g id="matplotlib.axis_2">
    <g id="ytick_1">
     <g id="line2d_23">
      <path d="M 108 307.836191 
L 777.6 307.836191 
" clip-path="url(#p8efa776ec4)" style="fill: none; stroke-dasharray: 5.12,1.28,0.8,1.28; stroke-dashoffset: 0; stroke: #b0b0b0; stroke-width: 0.8"/>
     </g>
     <g id="line2d_24">
      <defs>
       <path id="m4e000bbcef" d="M 0 0 
L -3.5 0 
" style="stroke: #a9a9a9; stroke-width: 0.8"/>
      </defs>
      <g>
       <use xlink:href="#m4e000bbcef" x="108" y="307.836191" style="fill: #a9a9a9; stroke: #a9a9a9; stroke-width: 0.8"/>
      </g>
     </g>
     <g id="text_12">
      <!-- 0 -->
      <g style="fill: #a9a9a9" transform="translate(94.6375 311.63541) scale(0.1 -0.1)">
       <use xlink:href="#DejaVuSans-30"/>
      </g>
     </g>
    </g>
    <g id="ytick_2">
     <g id="line2d_25">
      <path d="M 108 278.883154 
L 777.6 278.883154 
" clip-path="url(#p8efa776ec4)" style="fill: none; stroke-dasharray: 5.12,1.28,0.8,1.28; stroke-dashoffset: 0; stroke: #b0b0b0; stroke-width: 0.8"/>
     </g>
     <g id="line2d_26">
      <g>
       <use xlink:href="#m4e000bbcef" x="108" y="278.883154" style="fill: #a9a9a9; stroke: #a9a9a9; stroke-width: 0.8"/>
      </g>
     </g>
     <g id="text_13">
      <!-- 800 -->
      <g style="fill: #a9a9a9" transform="translate(81.9125 282.682373) scale(0.1 -0.1)">
       <defs>
        <path id="DejaVuSans-38" d="M 2034 2216 
Q 1584 2216 1326 1975 
Q 1069 1734 1069 1313 
Q 1069 891 1326 650 
Q 1584 409 2034 409 
Q 2484 409 2743 651 
Q 3003 894 3003 1313 
Q 3003 1734 2745 1975 
Q 2488 2216 2034 2216 
z
M 1403 2484 
Q 997 2584 770 2862 
Q 544 3141 544 3541 
Q 544 4100 942 4425 
Q 1341 4750 2034 4750 
Q 2731 4750 3128 4425 
Q 3525 4100 3525 3541 
Q 3525 3141 3298 2862 
Q 3072 2584 2669 2484 
Q 3125 2378 3379 2068 
Q 3634 1759 3634 1313 
Q 3634 634 3220 271 
Q 2806 -91 2034 -91 
Q 1263 -91 848 271 
Q 434 634 434 1313 
Q 434 1759 690 2068 
Q 947 2378 1403 2484 
z
M 1172 3481 
Q 1172 3119 1398 2916 
Q 1625 2713 2034 2713 
Q 2441 2713 2670 2916 
Q 2900 3119 2900 3481 
Q 2900 3844 2670 4047 
Q 2441 4250 2034 4250 
Q 1625 4250 1398 4047 
Q 1172 3844 1172 3481 
z
" transform="scale(0.015625)"/>
       </defs>
       <use xlink:href="#DejaVuSans-38"/>
       <use xlink:href="#DejaVuSans-30" x="63.623047"/>
       <use xlink:href="#DejaVuSans-30" x="127.246094"/>
      </g>
     </g>
    </g>
    <g id="ytick_3">
     <g id="line2d_27">
      <path d="M 108 249.930116 
L 777.6 249.930116 
" clip-path="url(#p8efa776ec4)" style="fill: none; stroke-dasharray: 5.12,1.28,0.8,1.28; stroke-dashoffset: 0; stroke: #b0b0b0; stroke-width: 0.8"/>
     </g>
     <g id="line2d_28">
      <g>
       <use xlink:href="#m4e000bbcef" x="108" y="249.930116" style="fill: #a9a9a9; stroke: #a9a9a9; stroke-width: 0.8"/>
      </g>
     </g>
     <g id="text_14">
      <!-- 1600 -->
      <g style="fill: #a9a9a9" transform="translate(75.55 253.729335) scale(0.1 -0.1)">
       <defs>
        <path id="DejaVuSans-36" d="M 2113 2584 
Q 1688 2584 1439 2293 
Q 1191 2003 1191 1497 
Q 1191 994 1439 701 
Q 1688 409 2113 409 
Q 2538 409 2786 701 
Q 3034 994 3034 1497 
Q 3034 2003 2786 2293 
Q 2538 2584 2113 2584 
z
M 3366 4563 
L 3366 3988 
Q 3128 4100 2886 4159 
Q 2644 4219 2406 4219 
Q 1781 4219 1451 3797 
Q 1122 3375 1075 2522 
Q 1259 2794 1537 2939 
Q 1816 3084 2150 3084 
Q 2853 3084 3261 2657 
Q 3669 2231 3669 1497 
Q 3669 778 3244 343 
Q 2819 -91 2113 -91 
Q 1303 -91 875 529 
Q 447 1150 447 2328 
Q 447 3434 972 4092 
Q 1497 4750 2381 4750 
Q 2619 4750 2861 4703 
Q 3103 4656 3366 4563 
z
" transform="scale(0.015625)"/>
       </defs>
       <use xlink:href="#DejaVuSans-31"/>
       <use xlink:href="#DejaVuSans-36" x="63.623047"/>
       <use xlink:href="#DejaVuSans-30" x="127.246094"/>
       <use xlink:href="#DejaVuSans-30" x="190.869141"/>
      </g>
     </g>
    </g>
    <g id="ytick_4">
     <g id="line2d_29">
      <path d="M 108 220.977079 
L 777.6 220.977079 
" clip-path="url(#p8efa776ec4)" style="fill: none; stroke-dasharray: 5.12,1.28,0.8,1.28; stroke-dashoffset: 0; stroke: #b0b0b0; stroke-width: 0.8"/>
     </g>
     <g id="line2d_30">
      <g>
       <use xlink:href="#m4e000bbcef" x="108" y="220.977079" style="fill: #a9a9a9; stroke: #a9a9a9; stroke-width: 0.8"/>
      </g>
     </g>
     <g id="text_15">
      <!-- 2400 -->
      <g style="fill: #a9a9a9" transform="translate(75.55 224.776298) scale(0.1 -0.1)">
       <use xlink:href="#DejaVuSans-32"/>
       <use xlink:href="#DejaVuSans-34" x="63.623047"/>
       <use xlink:href="#DejaVuSans-30" x="127.246094"/>
       <use xlink:href="#DejaVuSans-30" x="190.869141"/>
      </g>
     </g>
    </g>
    <g id="ytick_5">
     <g id="line2d_31">
      <path d="M 108 192.024041 
L 777.6 192.024041 
" clip-path="url(#p8efa776ec4)" style="fill: none; stroke-dasharray: 5.12,1.28,0.8,1.28; stroke-dashoffset: 0; stroke: #b0b0b0; stroke-width: 0.8"/>
     </g>
     <g id="line2d_32">
      <g>
       <use xlink:href="#m4e000bbcef" x="108" y="192.024041" style="fill: #a9a9a9; stroke: #a9a9a9; stroke-width: 0.8"/>
      </g>
     </g>
     <g id="text_16">
      <!-- 3200 -->
      <g style="fill: #a9a9a9" transform="translate(75.55 195.82326) scale(0.1 -0.1)">
       <use xlink:href="#DejaVuSans-33"/>
       <use xlink:href="#DejaVuSans-32" x="63.623047"/>
       <use xlink:href="#DejaVuSans-30" x="127.246094"/>
       <use xlink:href="#DejaVuSans-30" x="190.869141"/>
      </g>
     </g>
    </g>
    <g id="ytick_6">
     <g id="line2d_33">
      <path d="M 108 163.071004 
L 777.6 163.071004 
" clip-path="url(#p8efa776ec4)" style="fill: none; stroke-dasharray: 5.12,1.28,0.8,1.28; stroke-dashoffset: 0; stroke: #b0b0b0; stroke-width: 0.8"/>
     </g>
     <g id="line2d_34">
      <g>
       <use xlink:href="#m4e000bbcef" x="108" y="163.071004" style="fill: #a9a9a9; stroke: #a9a9a9; stroke-width: 0.8"/>
      </g>
     </g>
     <g id="text_17">
      <!-- 4000 -->
      <g style="fill: #a9a9a9" transform="translate(75.55 166.870223) scale(0.1 -0.1)">
       <use xlink:href="#DejaVuSans-34"/>
       <use xlink:href="#DejaVuSans-30" x="63.623047"/>
       <use xlink:href="#DejaVuSans-30" x="127.246094"/>
       <use xlink:href="#DejaVuSans-30" x="190.869141"/>
      </g>
     </g>
    </g>
    <g id="ytick_7">
     <g id="line2d_35">
      <path d="M 108 134.117966 
L 777.6 134.117966 
" clip-path="url(#p8efa776ec4)" style="fill: none; stroke-dasharray: 5.12,1.28,0.8,1.28; stroke-dashoffset: 0; stroke: #b0b0b0; stroke-width: 0.8"/>
     </g>
     <g id="line2d_36">
      <g>
       <use xlink:href="#m4e000bbcef" x="108" y="134.117966" style="fill: #a9a9a9; stroke: #a9a9a9; stroke-width: 0.8"/>
      </g>
     </g>
     <g id="text_18">
      <!-- 4800 -->
      <g style="fill: #a9a9a9" transform="translate(75.55 137.917185) scale(0.1 -0.1)">
       <use xlink:href="#DejaVuSans-34"/>
       <use xlink:href="#DejaVuSans-38" x="63.623047"/>
       <use xlink:href="#DejaVuSans-30" x="127.246094"/>
       <use xlink:href="#DejaVuSans-30" x="190.869141"/>
      </g>
     </g>
    </g>
    <g id="ytick_8">
     <g id="line2d_37">
      <path d="M 108 105.164929 
L 777.6 105.164929 
" clip-path="url(#p8efa776ec4)" style="fill: none; stroke-dasharray: 5.12,1.28,0.8,1.28; stroke-dashoffset: 0; stroke: #b0b0b0; stroke-width: 0.8"/>
     </g>
     <g id="line2d_38">
      <g>
       <use xlink:href="#m4e000bbcef" x="108" y="105.164929" style="fill: #a9a9a9; stroke: #a9a9a9; stroke-width: 0.8"/>
      </g>
     </g>
     <g id="text_19">
      <!-- 5600 -->
      <g style="fill: #a9a9a9" transform="translate(75.55 108.964148) scale(0.1 -0.1)">
       <use xlink:href="#DejaVuSans-35"/>
       <use xlink:href="#DejaVuSans-36" x="63.623047"/>
       <use xlink:href="#DejaVuSans-30" x="127.246094"/>
       <use xlink:href="#DejaVuSans-30" x="190.869141"/>
      </g>
     </g>
    </g>
    <g id="ytick_9">
     <g id="line2d_39">
      <path d="M 108 76.211891 
L 777.6 76.211891 
" clip-path="url(#p8efa776ec4)" style="fill: none; stroke-dasharray: 5.12,1.28,0.8,1.28; stroke-dashoffset: 0; stroke: #b0b0b0; stroke-width: 0.8"/>
     </g>
     <g id="line2d_40">
      <g>
       <use xlink:href="#m4e000bbcef" x="108" y="76.211891" style="fill: #a9a9a9; stroke: #a9a9a9; stroke-width: 0.8"/>
      </g>
     </g>
     <g id="text_20">
      <!-- 6400 -->
      <g style="fill: #a9a9a9" transform="translate(75.55 80.01111) scale(0.1 -0.1)">
       <use xlink:href="#DejaVuSans-36"/>
       <use xlink:href="#DejaVuSans-34" x="63.623047"/>
       <use xlink:href="#DejaVuSans-30" x="127.246094"/>
       <use xlink:href="#DejaVuSans-30" x="190.869141"/>
      </g>
     </g>
    </g>
    <g id="ytick_10">
     <g id="line2d_41">
      <path d="M 108 47.258854 
L 777.6 47.258854 
" clip-path="url(#p8efa776ec4)" style="fill: none; stroke-dasharray: 5.12,1.28,0.8,1.28; stroke-dashoffset: 0; stroke: #b0b0b0; stroke-width: 0.8"/>
     </g>
     <g id="line2d_42">
      <g>
       <use xlink:href="#m4e000bbcef" x="108" y="47.258854" style="fill: #a9a9a9; stroke: #a9a9a9; stroke-width: 0.8"/>
      </g>
     </g>
     <g id="text_21">
      <!-- 7200 -->
      <g style="fill: #a9a9a9" transform="translate(75.55 51.058073) scale(0.1 -0.1)">
       <defs>
        <path id="DejaVuSans-37" d="M 525 4666 
L 3525 4666 
L 3525 4397 
L 1831 0 
L 1172 0 
L 2766 4134 
L 525 4134 
L 525 4666 
z
" transform="scale(0.015625)"/>
       </defs>
       <use xlink:href="#DejaVuSans-37"/>
       <use xlink:href="#DejaVuSans-32" x="63.623047"/>
       <use xlink:href="#DejaVuSans-30" x="127.246094"/>
       <use xlink:href="#DejaVuSans-30" x="190.869141"/>
      </g>
     </g>
    </g>
   </g>
   <g id="line2d_43">
    <path d="M 138.436364 307.727617 
L 141.452353 307.474278 
L 141.955018 307.257131 
L 143.965678 307.003791 
L 145.976338 306.605687 
L 146.981668 306.460922 
L 149.494993 306.243774 
L 150.500323 305.84567 
L 151.002988 305.194227 
L 151.505653 304.832314 
L 152.008318 303.710383 
L 152.510983 303.638001 
L 153.013648 303.239897 
L 154.018978 302.733218 
L 156.029637 301.140801 
L 158.040297 300.163636 
L 159.548292 299.476002 
L 160.050957 298.679793 
L 161.056287 297.955967 
L 161.558952 297.738819 
L 166.585602 297.014994 
L 167.088267 296.797846 
L 170.606921 296.508315 
L 172.617581 296.037829 
L 176.638901 295.494959 
L 177.141566 295.24162 
L 177.644231 295.169237 
L 178.649561 294.843516 
L 182.168216 294.264455 
L 183.173546 293.974925 
L 187.69753 293.214907 
L 188.70286 292.99776 
L 189.70819 292.961568 
L 191.71885 292.491081 
L 192.221515 291.803447 
L 193.72951 291.224386 
L 195.237505 290.826282 
L 195.74017 290.572943 
L 196.7455 290.391986 
L 198.756159 289.812925 
L 199.761489 289.740543 
L 200.766819 289.487204 
L 202.777479 288.980526 
L 203.280144 288.944334 
L 204.285474 288.473847 
L 204.788139 288.401465 
L 205.290804 288.148126 
L 210.820119 287.243343 
L 212.830778 286.664283 
L 213.333443 286.338561 
L 215.846768 285.506161 
L 216.852098 284.818526 
L 218.360093 284.528996 
L 231.429382 280.873675 
L 231.932047 280.873675 
L 232.434712 280.656527 
L 233.440042 280.547953 
L 233.942707 280.366997 
L 235.953367 280.258423 
L 236.958697 280.077467 
L 237.964027 279.570788 
L 239.472022 279.027919 
L 239.974687 278.702197 
L 240.980017 278.267902 
L 241.482681 278.014563 
L 242.488011 277.688841 
L 242.990676 277.544076 
L 243.996006 276.928824 
L 244.498671 276.385954 
L 245.504001 274.86592 
L 246.006666 274.721155 
L 246.509331 274.721155 
L 248.017326 273.852564 
L 248.519991 273.599224 
L 249.022656 273.490651 
L 249.525321 273.020164 
L 250.530651 272.622059 
L 251.535981 272.151573 
L 254.049306 268.966738 
L 257.065295 267.374321 
L 258.070625 266.578113 
L 258.57329 266.252391 
L 259.075955 265.492374 
L 259.57862 264.370444 
L 260.081285 263.610427 
L 260.58395 263.212322 
L 261.086615 262.995174 
L 264.60527 260.027488 
L 265.6106 258.833175 
L 266.61593 258.109349 
L 268.123925 257.095993 
L 268.62659 256.661698 
L 269.63192 256.335976 
L 271.139914 255.467385 
L 272.647909 254.49022 
L 274.658569 252.716846 
L 275.663899 252.318742 
L 276.669229 251.631107 
L 277.171894 251.341577 
L 277.674559 251.269194 
L 279.182554 250.436794 
L 279.685219 249.893925 
L 282.198544 248.554847 
L 282.701209 248.373891 
L 284.209204 247.360534 
L 291.749178 244.71857 
L 292.754508 243.813787 
L 293.759838 243.3433 
L 294.765168 242.800431 
L 295.267833 242.5109 
L 296.273163 242.22137 
L 296.775828 241.895648 
L 297.278493 241.750883 
L 298.786488 240.773718 
L 301.299812 240.194657 
L 302.807807 239.326066 
L 304.315802 239.000345 
L 304.818467 238.855579 
L 306.326462 237.733649 
L 308.337122 237.19078 
L 308.839787 236.792676 
L 311.855777 235.779319 
L 312.861107 235.598363 
L 313.866436 235.200259 
L 317.385091 233.933563 
L 318.390421 233.788798 
L 319.898416 233.28212 
L 322.411741 232.087807 
L 324.422401 231.002068 
L 328.44372 229.37346 
L 328.946385 229.301077 
L 329.951715 228.685825 
L 330.45438 228.613442 
L 332.46504 227.781043 
L 334.4757 227.491512 
L 335.48103 226.984834 
L 335.983695 226.550539 
L 336.48636 225.645756 
L 338.49702 225.102887 
L 340.005015 224.342869 
L 340.50768 224.234296 
L 344.528999 222.316157 
L 346.036994 222.026626 
L 347.042324 221.519948 
L 347.544989 221.302801 
L 348.047654 221.230418 
L 350.058314 220.325636 
L 351.566309 219.384662 
L 353.074304 219.095131 
L 355.587629 218.479879 
L 356.090294 218.081775 
L 357.598288 217.538906 
L 359.608948 216.742697 
L 360.111613 216.380784 
L 360.614278 216.199828 
L 361.619608 215.656958 
L 364.132933 214.824558 
L 365.640928 213.630246 
L 366.143593 213.521672 
L 367.148923 212.725463 
L 367.651588 212.653081 
L 368.154253 211.856872 
L 368.656918 211.639724 
L 369.159583 211.24162 
L 369.662248 211.169237 
L 370.667578 210.553985 
L 371.672907 210.228264 
L 372.175572 209.866351 
L 372.678237 209.685394 
L 374.186232 208.635847 
L 376.196892 207.586299 
L 376.699557 207.513916 
L 378.207552 206.753899 
L 378.710217 205.921499 
L 379.715547 205.197673 
L 380.218212 205.0891 
L 381.223542 204.473847 
L 381.726207 204.365274 
L 382.731537 203.858595 
L 384.742197 202.88143 
L 385.244861 202.519517 
L 386.250191 201.542352 
L 387.255521 200.9271 
L 387.758186 200.601379 
L 388.260851 200.058509 
L 390.271511 198.68324 
L 390.774176 198.104179 
L 391.276841 197.706075 
L 392.282171 197.344162 
L 393.287501 196.656527 
L 394.795496 195.89651 
L 395.298161 195.824128 
L 396.806156 195.027919 
L 397.811486 194.412667 
L 402.838135 192.603102 
L 403.3408 192.204998 
L 405.35146 191.444981 
L 405.854125 191.300215 
L 406.35679 190.902111 
L 408.870115 189.526842 
L 409.875445 187.536321 
L 410.880775 186.378199 
L 411.886105 185.799138 
L 413.3941 185.183886 
L 413.896765 185.111504 
L 414.399429 184.821973 
L 416.912754 184.025765 
L 417.415419 183.808617 
L 418.420749 183.120982 
L 419.928744 182.469539 
L 420.934074 181.92667 
L 421.436739 181.564757 
L 421.939404 181.347609 
L 422.442069 180.985696 
L 422.944734 180.442826 
L 423.950064 179.899957 
L 426.463389 178.560879 
L 429.479378 177.077036 
L 430.484708 176.751314 
L 431.992703 176.280827 
L 434.003363 175.376045 
L 435.008693 174.977941 
L 435.511358 174.579836 
L 437.522018 173.892202 
L 438.527348 173.168376 
L 439.532678 172.73408 
L 440.538008 171.937872 
L 441.543338 171.575959 
L 442.046003 171.141663 
L 442.548668 171.06928 
L 443.553997 170.309263 
L 444.559327 169.802585 
L 445.061992 169.585437 
L 445.564657 169.078759 
L 449.083312 167.70349 
L 450.088642 167.269194 
L 451.596637 166.798707 
L 452.601967 166.653942 
L 453.104632 166.436794 
L 453.607297 166.364412 
L 454.612627 165.930116 
L 455.115292 165.893925 
L 457.125952 165.133908 
L 458.633946 164.08436 
L 459.136611 163.903404 
L 460.141941 163.360534 
L 460.644606 163.215769 
L 463.660596 161.550969 
L 464.163261 161.442396 
L 465.671256 160.573804 
L 467.179251 160.067126 
L 468.184581 159.741405 
L 470.195241 159.089961 
L 471.200571 158.76424 
L 473.21123 158.366135 
L 473.713895 158.148988 
L 474.21656 158.076605 
L 475.22189 157.642309 
L 475.724555 157.569927 
L 476.22722 157.316588 
L 477.23255 157.135631 
L 478.740545 156.592762 
L 479.745875 156.484188 
L 481.25387 156.158466 
L 483.767195 155.724171 
L 496.836484 151.960276 
L 497.339149 151.453598 
L 498.344479 151.055493 
L 501.360468 149.969754 
L 501.863133 149.644033 
L 502.365798 149.535459 
L 502.868463 149.245928 
L 504.376458 148.811633 
L 505.381788 148.558294 
L 505.884453 148.232572 
L 506.387118 148.123998 
L 506.889783 147.689703 
L 508.397778 147.400172 
L 509.403108 146.929685 
L 509.905773 146.350625 
L 511.916433 145.880138 
L 515.435087 145.156312 
L 515.937752 145.156312 
L 516.440417 144.939164 
L 518.451077 144.577251 
L 518.953742 144.360103 
L 520.964402 143.99819 
L 521.969732 143.563895 
L 522.975062 143.382938 
L 525.488387 142.767686 
L 527.499047 142.152434 
L 528.001712 142.04386 
L 528.504377 141.790521 
L 529.509706 141.537182 
L 530.012371 141.247652 
L 531.520366 140.740974 
L 532.023031 140.415252 
L 533.028361 140.125722 
L 534.033691 139.8 
L 535.039021 139.401896 
L 536.547016 138.750452 
L 538.557676 138.497113 
L 542.578996 137.085653 
L 543.081661 136.72374 
L 543.584326 136.615166 
L 544.08699 136.361827 
L 544.589655 136.325636 
L 550.11897 134.407497 
L 552.632295 133.756053 
L 553.637625 133.285567 
L 555.14562 132.959845 
L 555.648285 132.561741 
L 556.15095 132.308402 
L 556.653615 131.69315 
L 557.15628 131.331237 
L 558.161609 131.041706 
L 558.664274 130.643602 
L 561.680264 129.521672 
L 562.182929 129.19595 
L 563.188259 128.90642 
L 563.690924 128.580698 
L 566.204249 127.784489 
L 567.712244 126.915898 
L 568.214909 126.807324 
L 570.728234 125.468246 
L 572.236229 124.816803 
L 572.738893 124.45489 
L 573.744223 124.129168 
L 574.749553 123.550108 
L 575.252218 123.369151 
L 575.754883 123.007238 
L 582.289528 120.727187 
L 582.792193 120.618613 
L 583.294858 120.292891 
L 585.305518 119.894787 
L 586.310848 119.496682 
L 586.813512 119.207152 
L 587.316177 119.062387 
L 589.326837 118.012839 
L 589.829502 117.940457 
L 591.337497 117.108057 
L 592.845492 116.601379 
L 596.364147 115.189918 
L 596.866812 115.045153 
L 597.369477 114.719431 
L 598.374807 114.610857 
L 598.877472 114.285136 
L 599.882802 114.104179 
L 600.888132 113.633692 
L 601.390796 113.416545 
L 601.893461 113.344162 
L 604.406786 112.366997 
L 605.914781 111.968893 
L 606.920111 111.715554 
L 608.428106 111.281258 
L 609.433436 110.883154 
L 611.444096 109.797415 
L 612.449426 109.399311 
L 612.952091 109.073589 
L 613.957421 108.856441 
L 614.460086 108.566911 
L 614.962751 108.458337 
L 616.470745 107.625937 
L 617.476075 107.227833 
L 619.486735 106.467816 
L 622.00006 105.635416 
L 623.00539 105.128738 
L 625.518715 104.296338 
L 627.02671 103.753468 
L 627.529375 103.608703 
L 628.534705 103.065834 
L 630.545364 102.161051 
L 635.572014 100.242913 
L 636.074679 99.917191 
L 638.085339 99.229556 
L 638.588004 99.229556 
L 639.593334 98.795261 
L 640.598664 97.890478 
L 641.101329 97.456183 
L 642.609324 96.732357 
L 643.111989 96.623783 
L 643.614654 96.370444 
L 644.117319 96.298061 
L 644.619983 95.936148 
L 645.122648 95.827574 
L 646.127978 95.212322 
L 647.635973 94.452305 
L 648.641303 94.054201 
L 649.143968 93.800862 
L 650.651963 93.47514 
L 653.165288 92.64274 
L 654.170618 92.317019 
L 655.678613 91.557001 
L 656.683943 91.086514 
L 657.689273 90.833175 
L 659.197267 90.145541 
L 663.721252 88.480741 
L 665.229247 87.575959 
L 665.731912 87.467385 
L 666.737242 86.960707 
L 667.742572 86.598794 
L 668.245237 86.164498 
L 669.250567 85.766394 
L 670.758562 85.151142 
L 671.261227 84.753037 
L 671.763892 84.716846 
L 672.769222 84.427316 
L 673.774551 84.101594 
L 674.277216 83.848255 
L 674.779881 83.775872 
L 676.287876 83.233003 
L 677.795871 82.690134 
L 678.801201 82.292029 
L 679.303866 81.893925 
L 680.811861 81.495821 
L 681.314526 81.20629 
L 682.319856 80.952951 
L 683.827851 80.120551 
L 684.330516 80.08436 
L 685.838511 79.613873 
L 686.843841 79.541491 
L 687.84917 79.143386 
L 690.86516 78.274795 
L 691.87049 78.238604 
L 695.89181 76.971909 
L 696.89714 76.429039 
L 697.399805 75.994744 
L 698.9078 75.126153 
L 699.91313 74.5109 
L 701.92379 73.93184 
L 702.426454 73.642309 
L 702.929119 73.533735 
L 703.431784 73.135631 
L 706.447774 71.905127 
L 708.458434 71.362258 
L 709.463764 70.927962 
L 709.966429 70.674623 
L 710.971759 70.348901 
L 711.474424 70.02318 
L 712.479754 69.842223 
L 714.993079 68.684102 
L 715.495744 68.394571 
L 717.003738 68.032658 
L 718.511733 67.055493 
L 719.014398 66.983111 
L 721.527723 66.005946 
L 723.035718 65.644033 
L 723.538383 65.57165 
L 724.041048 65.354502 
L 724.543713 65.318311 
L 725.549043 64.992589 
L 726.051708 64.956398 
L 727.559703 64.377337 
L 729.570363 63.798277 
L 730.575693 63.038259 
L 732.586352 61.95252 
L 734.094347 61.445842 
L 737.110337 60.070573 
L 738.115667 59.527704 
L 738.618332 59.274364 
L 739.120997 58.803878 
L 741.634322 58.04386 
L 742.639652 57.4648 
L 744.650312 56.740974 
L 745.152977 56.270487 
L 747.163636 55.8 
L 747.163636 55.8 
" clip-path="url(#p8efa776ec4)" style="fill: none; stroke: #1f77b4; stroke-width: 1.5; stroke-linecap: square"/>
   </g>
   <g id="line2d_44">
    <path d="M 138.939029 307.8 
L 143.463013 307.691426 
L 147.484333 307.51047 
L 149.494993 307.51047 
L 149.997658 307.365704 
L 152.510983 307.257131 
L 155.526972 306.931409 
L 158.542962 306.822835 
L 159.548292 306.714261 
L 163.066947 306.569496 
L 166.585602 306.460922 
L 169.098927 306.388539 
L 175.633571 306.279966 
L 178.146896 306.207583 
L 181.665551 306.099009 
L 184.178875 306.026626 
L 189.70819 305.918053 
L 191.71885 305.737096 
L 193.72951 305.700905 
L 196.7455 305.592331 
L 198.756159 305.55614 
L 201.269484 305.483757 
L 203.280144 305.302801 
L 207.804129 305.194227 
L 208.809459 305.121844 
L 210.820119 305.01327 
L 213.836108 304.904696 
L 215.846768 304.796122 
L 224.894738 304.253253 
L 228.413392 304.144679 
L 229.921387 303.999914 
L 232.434712 303.89134 
L 237.461362 303.638001 
L 242.488011 303.565618 
L 244.498671 303.34847 
L 246.509331 303.239897 
L 252.038646 302.733218 
L 255.557301 302.335114 
L 257.065295 302.262732 
L 261.58928 301.719862 
L 264.102605 301.64748 
L 265.6106 301.502714 
L 267.118595 301.39414 
L 281.193214 300.344593 
L 282.198544 300.163636 
L 285.214533 300.055062 
L 293.257173 299.584576 
L 296.775828 299.476002 
L 298.786488 299.258854 
L 301.299812 299.15028 
L 304.315802 299.041706 
L 306.829127 298.933132 
L 308.839787 298.896941 
L 311.353112 298.824558 
L 312.358442 298.679793 
L 319.395751 298.571219 
L 320.401081 298.462645 
L 326.433061 298.354072 
L 330.957045 298.136924 
L 334.4757 298.02835 
L 336.48636 297.811202 
L 340.005015 297.702628 
L 341.010345 297.521672 
L 343.523669 297.449289 
L 348.550319 297.376907 
L 351.063644 297.123567 
L 354.079634 297.014994 
L 356.090294 296.834037 
L 361.116943 296.580698 
L 366.143593 296.472124 
L 370.667578 296.254976 
L 372.175572 296.218785 
L 373.180902 296.07402 
L 375.694227 295.965446 
L 376.699557 295.893063 
L 377.704887 295.820681 
L 378.710217 295.748298 
L 383.234202 295.675916 
L 384.742197 295.567342 
L 398.314151 294.698751 
L 400.827475 294.590177 
L 403.3408 294.517794 
L 410.37811 294.40922 
L 411.38344 294.264455 
L 418.420749 294.155881 
L 423.447399 293.902542 
L 424.452729 293.866351 
L 425.458059 293.757777 
L 427.971384 293.649203 
L 430.484708 293.57682 
L 432.998033 293.468246 
L 435.511358 293.395864 
L 440.035343 293.28729 
L 443.051332 293.178716 
L 450.088642 293.070142 
L 455.617957 292.780612 
L 457.628616 292.708229 
L 459.136611 292.599655 
L 466.173921 292.491081 
L 469.189911 292.382508 
L 478.23788 292.273934 
L 480.24854 292.237742 
L 486.280519 292.16536 
L 487.285849 292.092977 
L 494.323159 291.984403 
L 496.333819 291.948212 
L 509.403108 291.839638 
L 510.911103 291.694873 
L 533.531026 291.586299 
L 536.044351 291.513916 
L 549.11364 291.405343 
L 550.11897 291.33296 
L 552.632295 291.260577 
L 554.14029 291.115812 
L 557.15628 291.007238 
L 560.674934 290.862473 
L 565.198919 290.753899 
L 567.712244 290.681517 
L 571.230899 290.572943 
L 575.252218 290.391986 
L 577.765543 290.283412 
L 579.776203 290.247221 
L 584.300188 290.138647 
L 586.310848 290.102456 
L 592.845492 289.993882 
L 594.856152 289.957691 
L 597.369477 289.849117 
L 600.385467 289.740543 
L 603.904121 289.66816 
L 604.909451 289.595778 
L 616.97341 289.487204 
L 623.508055 289.125291 
L 626.02138 289.052908 
L 627.02671 288.944334 
L 628.03204 288.871952 
L 632.053359 288.763378 
L 635.069349 288.654804 
L 640.095999 288.54623 
L 642.609324 288.292891 
L 647.635973 288.184317 
L 648.641303 288.075743 
L 653.667953 287.967169 
L 656.181278 287.894787 
L 661.710592 287.858595 
L 662.715922 287.750022 
L 668.245237 287.641448 
L 669.250567 287.569065 
L 680.309196 287.460491 
L 683.325186 287.351917 
L 690.86516 287.243343 
L 692.87582 287.207152 
L 697.399805 287.134769 
L 698.405135 287.026196 
L 704.437114 286.917622 
L 707.453104 286.809048 
L 716.501073 286.700474 
L 718.009068 286.5919 
L 719.517063 286.483326 
L 721.025058 286.374752 
L 728.565033 286.266178 
L 732.083687 286.121413 
L 745.152977 286.012839 
L 747.163636 285.940457 
L 747.163636 285.940457 
" clip-path="url(#p8efa776ec4)" style="fill: none; stroke: #ff7f0e; stroke-width: 1.5; stroke-linecap: square"/>
   </g>
   <g id="patch_3">
    <path d="M 108 320.4 
L 108 43.2 
" style="fill: none; stroke: #a9a9a9; stroke-width: 0.8; stroke-linejoin: miter; stroke-linecap: square"/>
   </g>
   <g id="patch_4">
    <path d="M 777.6 320.4 
L 777.6 43.2 
" style="fill: none"/>
   </g>
   <g id="patch_5">
    <path d="M 108 320.4 
L 777.6 320.4 
" style="fill: none; stroke: #a9a9a9; stroke-width: 0.8; stroke-linejoin: miter; stroke-linecap: square"/>
   </g>
   <g id="patch_6">
    <path d="M 108 43.2 
L 777.6 43.2 
" style="fill: none"/>
   </g>
   <g id="text_22">
    <!-- get_subscribe history -->
    <g style="fill: #a9a9a9" transform="translate(378.6075 37.2) scale(0.12 -0.12)">
     <defs>
      <path id="DejaVuSans-67" d="M 2906 1791 
Q 2906 2416 2648 2759 
Q 2391 3103 1925 3103 
Q 1463 3103 1205 2759 
Q 947 2416 947 1791 
Q 947 1169 1205 825 
Q 1463 481 1925 481 
Q 2391 481 2648 825 
Q 2906 1169 2906 1791 
z
M 3481 434 
Q 3481 -459 3084 -895 
Q 2688 -1331 1869 -1331 
Q 1566 -1331 1297 -1286 
Q 1028 -1241 775 -1147 
L 775 -588 
Q 1028 -725 1275 -790 
Q 1522 -856 1778 -856 
Q 2344 -856 2625 -561 
Q 2906 -266 2906 331 
L 2906 616 
Q 2728 306 2450 153 
Q 2172 0 1784 0 
Q 1141 0 747 490 
Q 353 981 353 1791 
Q 353 2603 747 3093 
Q 1141 3584 1784 3584 
Q 2172 3584 2450 3431 
Q 2728 3278 2906 2969 
L 2906 3500 
L 3481 3500 
L 3481 434 
z
" transform="scale(0.015625)"/>
      <path id="DejaVuSans-65" d="M 3597 1894 
L 3597 1613 
L 953 1613 
Q 991 1019 1311 708 
Q 1631 397 2203 397 
Q 2534 397 2845 478 
Q 3156 559 3463 722 
L 3463 178 
Q 3153 47 2828 -22 
Q 2503 -91 2169 -91 
Q 1331 -91 842 396 
Q 353 884 353 1716 
Q 353 2575 817 3079 
Q 1281 3584 2069 3584 
Q 2775 3584 3186 3129 
Q 3597 2675 3597 1894 
z
M 3022 2063 
Q 3016 2534 2758 2815 
Q 2500 3097 2075 3097 
Q 1594 3097 1305 2825 
Q 1016 2553 972 2059 
L 3022 2063 
z
" transform="scale(0.015625)"/>
      <path id="DejaVuSans-74" d="M 1172 4494 
L 1172 3500 
L 2356 3500 
L 2356 3053 
L 1172 3053 
L 1172 1153 
Q 1172 725 1289 603 
Q 1406 481 1766 481 
L 2356 481 
L 2356 0 
L 1766 0 
Q 1100 0 847 248 
Q 594 497 594 1153 
L 594 3053 
L 172 3053 
L 172 3500 
L 594 3500 
L 594 4494 
L 1172 4494 
z
" transform="scale(0.015625)"/>
      <path id="DejaVuSans-5f" d="M 3263 -1063 
L 3263 -1509 
L -63 -1509 
L -63 -1063 
L 3263 -1063 
z
" transform="scale(0.015625)"/>
      <path id="DejaVuSans-73" d="M 2834 3397 
L 2834 2853 
Q 2591 2978 2328 3040 
Q 2066 3103 1784 3103 
Q 1356 3103 1142 2972 
Q 928 2841 928 2578 
Q 928 2378 1081 2264 
Q 1234 2150 1697 2047 
L 1894 2003 
Q 2506 1872 2764 1633 
Q 3022 1394 3022 966 
Q 3022 478 2636 193 
Q 2250 -91 1575 -91 
Q 1294 -91 989 -36 
Q 684 19 347 128 
L 347 722 
Q 666 556 975 473 
Q 1284 391 1588 391 
Q 1994 391 2212 530 
Q 2431 669 2431 922 
Q 2431 1156 2273 1281 
Q 2116 1406 1581 1522 
L 1381 1569 
Q 847 1681 609 1914 
Q 372 2147 372 2553 
Q 372 3047 722 3315 
Q 1072 3584 1716 3584 
Q 2034 3584 2315 3537 
Q 2597 3491 2834 3397 
z
" transform="scale(0.015625)"/>
      <path id="DejaVuSans-75" d="M 544 1381 
L 544 3500 
L 1119 3500 
L 1119 1403 
Q 1119 906 1312 657 
Q 1506 409 1894 409 
Q 2359 409 2629 706 
Q 2900 1003 2900 1516 
L 2900 3500 
L 3475 3500 
L 3475 0 
L 2900 0 
L 2900 538 
Q 2691 219 2414 64 
Q 2138 -91 1772 -91 
Q 1169 -91 856 284 
Q 544 659 544 1381 
z
M 1991 3584 
L 1991 3584 
z
" transform="scale(0.015625)"/>
      <path id="DejaVuSans-62" d="M 3116 1747 
Q 3116 2381 2855 2742 
Q 2594 3103 2138 3103 
Q 1681 3103 1420 2742 
Q 1159 2381 1159 1747 
Q 1159 1113 1420 752 
Q 1681 391 2138 391 
Q 2594 391 2855 752 
Q 3116 1113 3116 1747 
z
M 1159 2969 
Q 1341 3281 1617 3432 
Q 1894 3584 2278 3584 
Q 2916 3584 3314 3078 
Q 3713 2572 3713 1747 
Q 3713 922 3314 415 
Q 2916 -91 2278 -91 
Q 1894 -91 1617 61 
Q 1341 213 1159 525 
L 1159 0 
L 581 0 
L 581 4863 
L 1159 4863 
L 1159 2969 
z
" transform="scale(0.015625)"/>
      <path id="DejaVuSans-63" d="M 3122 3366 
L 3122 2828 
Q 2878 2963 2633 3030 
Q 2388 3097 2138 3097 
Q 1578 3097 1268 2742 
Q 959 2388 959 1747 
Q 959 1106 1268 751 
Q 1578 397 2138 397 
Q 2388 397 2633 464 
Q 2878 531 3122 666 
L 3122 134 
Q 2881 22 2623 -34 
Q 2366 -91 2075 -91 
Q 1284 -91 818 406 
Q 353 903 353 1747 
Q 353 2603 823 3093 
Q 1294 3584 2113 3584 
Q 2378 3584 2631 3529 
Q 2884 3475 3122 3366 
z
" transform="scale(0.015625)"/>
      <path id="DejaVuSans-72" d="M 2631 2963 
Q 2534 3019 2420 3045 
Q 2306 3072 2169 3072 
Q 1681 3072 1420 2755 
Q 1159 2438 1159 1844 
L 1159 0 
L 581 0 
L 581 3500 
L 1159 3500 
L 1159 2956 
Q 1341 3275 1631 3429 
Q 1922 3584 2338 3584 
Q 2397 3584 2469 3576 
Q 2541 3569 2628 3553 
L 2631 2963 
z
" transform="scale(0.015625)"/>
      <path id="DejaVuSans-69" d="M 603 3500 
L 1178 3500 
L 1178 0 
L 603 0 
L 603 3500 
z
M 603 4863 
L 1178 4863 
L 1178 4134 
L 603 4134 
L 603 4863 
z
" transform="scale(0.015625)"/>
      <path id="DejaVuSans-20" transform="scale(0.015625)"/>
      <path id="DejaVuSans-68" d="M 3513 2113 
L 3513 0 
L 2938 0 
L 2938 2094 
Q 2938 2591 2744 2837 
Q 2550 3084 2163 3084 
Q 1697 3084 1428 2787 
Q 1159 2491 1159 1978 
L 1159 0 
L 581 0 
L 581 4863 
L 1159 4863 
L 1159 2956 
Q 1366 3272 1645 3428 
Q 1925 3584 2291 3584 
Q 2894 3584 3203 3211 
Q 3513 2838 3513 2113 
z
" transform="scale(0.015625)"/>
      <path id="DejaVuSans-6f" d="M 1959 3097 
Q 1497 3097 1228 2736 
Q 959 2375 959 1747 
Q 959 1119 1226 758 
Q 1494 397 1959 397 
Q 2419 397 2687 759 
Q 2956 1122 2956 1747 
Q 2956 2369 2687 2733 
Q 2419 3097 1959 3097 
z
M 1959 3584 
Q 2709 3584 3137 3096 
Q 3566 2609 3566 1747 
Q 3566 888 3137 398 
Q 2709 -91 1959 -91 
Q 1206 -91 779 398 
Q 353 888 353 1747 
Q 353 2609 779 3096 
Q 1206 3584 1959 3584 
z
" transform="scale(0.015625)"/>
      <path id="DejaVuSans-79" d="M 2059 -325 
Q 1816 -950 1584 -1140 
Q 1353 -1331 966 -1331 
L 506 -1331 
L 506 -850 
L 844 -850 
Q 1081 -850 1212 -737 
Q 1344 -625 1503 -206 
L 1606 56 
L 191 3500 
L 800 3500 
L 1894 763 
L 2988 3500 
L 3597 3500 
L 2059 -325 
z
" transform="scale(0.015625)"/>
     </defs>
     <use xlink:href="#DejaVuSans-67"/>
     <use xlink:href="#DejaVuSans-65" x="63.476562"/>
     <use xlink:href="#DejaVuSans-74" x="125"/>
     <use xlink:href="#DejaVuSans-5f" x="164.208984"/>
     <use xlink:href="#DejaVuSans-73" x="214.208984"/>
     <use xlink:href="#DejaVuSans-75" x="266.308594"/>
     <use xlink:href="#DejaVuSans-62" x="329.6875"/>
     <use xlink:href="#DejaVuSans-73" x="393.164062"/>
     <use xlink:href="#DejaVuSans-63" x="445.263672"/>
     <use xlink:href="#DejaVuSans-72" x="500.244141"/>
     <use xlink:href="#DejaVuSans-69" x="541.357422"/>
     <use xlink:href="#DejaVuSans-62" x="569.140625"/>
     <use xlink:href="#DejaVuSans-65" x="632.617188"/>
     <use xlink:href="#DejaVuSans-20" x="694.140625"/>
     <use xlink:href="#DejaVuSans-68" x="725.927734"/>
     <use xlink:href="#DejaVuSans-69" x="789.306641"/>
     <use xlink:href="#DejaVuSans-73" x="817.089844"/>
     <use xlink:href="#DejaVuSans-74" x="869.189453"/>
     <use xlink:href="#DejaVuSans-6f" x="908.398438"/>
     <use xlink:href="#DejaVuSans-72" x="969.580078"/>
     <use xlink:href="#DejaVuSans-79" x="1010.693359"/>
    </g>
   </g>
   <g id="legend_1">
    <g id="line2d_45">
     <path d="M 815.08 328.498438 
L 825.08 328.498438 
L 835.08 328.498438 
" style="fill: none; stroke: #1f77b4; stroke-width: 1.5; stroke-linecap: square"/>
    </g>
    <g id="text_23">
     <!-- star -->
     <g style="fill: #a9a9a9" transform="translate(843.08 331.998438) scale(0.1 -0.1)">
      <defs>
       <path id="DejaVuSans-61" d="M 2194 1759 
Q 1497 1759 1228 1600 
Q 959 1441 959 1056 
Q 959 750 1161 570 
Q 1363 391 1709 391 
Q 2188 391 2477 730 
Q 2766 1069 2766 1631 
L 2766 1759 
L 2194 1759 
z
M 3341 1997 
L 3341 0 
L 2766 0 
L 2766 531 
Q 2569 213 2275 61 
Q 1981 -91 1556 -91 
Q 1019 -91 701 211 
Q 384 513 384 1019 
Q 384 1609 779 1909 
Q 1175 2209 1959 2209 
L 2766 2209 
L 2766 2266 
Q 2766 2663 2505 2880 
Q 2244 3097 1772 3097 
Q 1472 3097 1187 3025 
Q 903 2953 641 2809 
L 641 3341 
Q 956 3463 1253 3523 
Q 1550 3584 1831 3584 
Q 2591 3584 2966 3190 
Q 3341 2797 3341 1997 
z
" transform="scale(0.015625)"/>
      </defs>
      <use xlink:href="#DejaVuSans-73"/>
      <use xlink:href="#DejaVuSans-74" x="52.099609"/>
      <use xlink:href="#DejaVuSans-61" x="91.308594"/>
      <use xlink:href="#DejaVuSans-72" x="152.587891"/>
     </g>
    </g>
    <g id="line2d_46">
     <path d="M 815.08 343.176562 
L 825.08 343.176562 
L 835.08 343.176562 
" style="fill: none; stroke: #ff7f0e; stroke-width: 1.5; stroke-linecap: square"/>
    </g>
    <g id="text_24">
     <!-- fork -->
     <g style="fill: #a9a9a9" transform="translate(843.08 346.676562) scale(0.1 -0.1)">
      <defs>
       <path id="DejaVuSans-66" d="M 2375 4863 
L 2375 4384 
L 1825 4384 
Q 1516 4384 1395 4259 
Q 1275 4134 1275 3809 
L 1275 3500 
L 2222 3500 
L 2222 3053 
L 1275 3053 
L 1275 0 
L 697 0 
L 697 3053 
L 147 3053 
L 147 3500 
L 697 3500 
L 697 3744 
Q 697 4328 969 4595 
Q 1241 4863 1831 4863 
L 2375 4863 
z
" transform="scale(0.015625)"/>
       <path id="DejaVuSans-6b" d="M 581 4863 
L 1159 4863 
L 1159 1991 
L 2875 3500 
L 3609 3500 
L 1753 1863 
L 3688 0 
L 2938 0 
L 1159 1709 
L 1159 0 
L 581 0 
L 581 4863 
z
" transform="scale(0.015625)"/>
      </defs>
      <use xlink:href="#DejaVuSans-66"/>
      <use xlink:href="#DejaVuSans-6f" x="35.205078"/>
      <use xlink:href="#DejaVuSans-72" x="96.386719"/>
      <use xlink:href="#DejaVuSans-6b" x="137.5"/>
     </g>
    </g>
   </g>
  </g>
 </g>
 <defs>
  <clipPath id="p8efa776ec4">
   <rect x="108" y="43.2" width="669.6" height="277.2"/>
  </clipPath>
 </defs>
</svg>
