<?xml version="1.0" encoding="utf-8" standalone="no"?>
<!DOCTYPE svg PUBLIC "-//W3C//DTD SVG 1.1//EN"
  "http://www.w3.org/Graphics/SVG/1.1/DTD/svg11.dtd">
<svg xmlns:xlink="http://www.w3.org/1999/xlink" width="864pt" height="360pt" viewBox="0 0 864 360" xmlns="http://www.w3.org/2000/svg" version="1.1">
 <metadata>
  <rdf:RDF xmlns:dc="http://purl.org/dc/elements/1.1/" xmlns:cc="http://creativecommons.org/ns#" xmlns:rdf="http://www.w3.org/1999/02/22-rdf-syntax-ns#">
   <cc:Work>
    <dc:type rdf:resource="http://purl.org/dc/dcmitype/StillImage"/>
    <dc:date>2024-11-11T20:05:53.756590</dc:date>
    <dc:format>image/svg+xml</dc:format>
    <dc:creator>
     <cc:Agent>
      <dc:title>Matplotlib v3.9.2, https://matplotlib.org/</dc:title>
     </cc:Agent>
    </dc:creator>
   </cc:Work>
  </rdf:RDF>
 </metadata>
 <defs>
  <style type="text/css">*{stroke-linejoin: round; stroke-linecap: butt}</style>
 </defs>
 <g id="figure_1">
  <g id="patch_1">
   <path d="M 0 360 
L 864 360 
L 864 0 
L 0 0 
L 0 360 
z
" style="fill: none; opacity: 0"/>
  </g>
  <g id="axes_1">
   <g id="patch_2">
    <path d="M 108 320.4 
L 777.6 320.4 
L 777.6 43.2 
L 108 43.2 
L 108 320.4 
z
" style="fill: none; opacity: 0"/>
   </g>
   <g id="matplotlib.axis_1">
    <g id="xtick_1">
     <g id="line2d_1">
      <path d="M 158.121574 320.4 
L 158.121574 43.2 
" clip-path="url(#p2f9534ecf4)" style="fill: none; stroke-dasharray: 5.12,1.28,0.8,1.28; stroke-dashoffset: 0; stroke: #b0b0b0; stroke-width: 0.8"/>
     </g>
     <g id="line2d_2">
      <defs>
       <path id="m6d5e396626" d="M 0 0 
L 0 3.5 
" style="stroke: #a9a9a9; stroke-width: 0.8"/>
      </defs>
      <g>
       <use xlink:href="#m6d5e396626" x="158.121574" y="320.4" style="fill: #a9a9a9; stroke: #a9a9a9; stroke-width: 0.8"/>
      </g>
     </g>
     <g id="text_1">
      <!-- 2021-09 -->
      <g style="fill: #a9a9a9" transform="translate(137.230168 334.998438) scale(0.1 -0.1)">
       <defs>
        <path id="DejaVuSans-32" d="M 1228 531 
L 3431 531 
L 3431 0 
L 469 0 
L 469 531 
Q 828 903 1448 1529 
Q 2069 2156 2228 2338 
Q 2531 2678 2651 2914 
Q 2772 3150 2772 3378 
Q 2772 3750 2511 3984 
Q 2250 4219 1831 4219 
Q 1534 4219 1204 4116 
Q 875 4013 500 3803 
L 500 4441 
Q 881 4594 1212 4672 
Q 1544 4750 1819 4750 
Q 2544 4750 2975 4387 
Q 3406 4025 3406 3419 
Q 3406 3131 3298 2873 
Q 3191 2616 2906 2266 
Q 2828 2175 2409 1742 
Q 1991 1309 1228 531 
z
" transform="scale(0.015625)"/>
        <path id="DejaVuSans-30" d="M 2034 4250 
Q 1547 4250 1301 3770 
Q 1056 3291 1056 2328 
Q 1056 1369 1301 889 
Q 1547 409 2034 409 
Q 2525 409 2770 889 
Q 3016 1369 3016 2328 
Q 3016 3291 2770 3770 
Q 2525 4250 2034 4250 
z
M 2034 4750 
Q 2819 4750 3233 4129 
Q 3647 3509 3647 2328 
Q 3647 1150 3233 529 
Q 2819 -91 2034 -91 
Q 1250 -91 836 529 
Q 422 1150 422 2328 
Q 422 3509 836 4129 
Q 1250 4750 2034 4750 
z
" transform="scale(0.015625)"/>
        <path id="DejaVuSans-31" d="M 794 531 
L 1825 531 
L 1825 4091 
L 703 3866 
L 703 4441 
L 1819 4666 
L 2450 4666 
L 2450 531 
L 3481 531 
L 3481 0 
L 794 0 
L 794 531 
z
" transform="scale(0.015625)"/>
        <path id="DejaVuSans-2d" d="M 313 2009 
L 1997 2009 
L 1997 1497 
L 313 1497 
L 313 2009 
z
" transform="scale(0.015625)"/>
        <path id="DejaVuSans-39" d="M 703 97 
L 703 672 
Q 941 559 1184 500 
Q 1428 441 1663 441 
Q 2288 441 2617 861 
Q 2947 1281 2994 2138 
Q 2813 1869 2534 1725 
Q 2256 1581 1919 1581 
Q 1219 1581 811 2004 
Q 403 2428 403 3163 
Q 403 3881 828 4315 
Q 1253 4750 1959 4750 
Q 2769 4750 3195 4129 
Q 3622 3509 3622 2328 
Q 3622 1225 3098 567 
Q 2575 -91 1691 -91 
Q 1453 -91 1209 -44 
Q 966 3 703 97 
z
M 1959 2075 
Q 2384 2075 2632 2365 
Q 2881 2656 2881 3163 
Q 2881 3666 2632 3958 
Q 2384 4250 1959 4250 
Q 1534 4250 1286 3958 
Q 1038 3666 1038 3163 
Q 1038 2656 1286 2365 
Q 1534 2075 1959 2075 
z
" transform="scale(0.015625)"/>
       </defs>
       <use xlink:href="#DejaVuSans-32"/>
       <use xlink:href="#DejaVuSans-30" x="63.623047"/>
       <use xlink:href="#DejaVuSans-32" x="127.246094"/>
       <use xlink:href="#DejaVuSans-31" x="190.869141"/>
       <use xlink:href="#DejaVuSans-2d" x="254.492188"/>
       <use xlink:href="#DejaVuSans-30" x="290.576172"/>
       <use xlink:href="#DejaVuSans-39" x="354.199219"/>
      </g>
     </g>
    </g>
    <g id="xtick_2">
     <g id="line2d_3">
      <path d="M 219.70095 320.4 
L 219.70095 43.2 
" clip-path="url(#p2f9534ecf4)" style="fill: none; stroke-dasharray: 5.12,1.28,0.8,1.28; stroke-dashoffset: 0; stroke: #b0b0b0; stroke-width: 0.8"/>
     </g>
     <g id="line2d_4">
      <g>
       <use xlink:href="#m6d5e396626" x="219.70095" y="320.4" style="fill: #a9a9a9; stroke: #a9a9a9; stroke-width: 0.8"/>
      </g>
     </g>
     <g id="text_2">
      <!-- 2022-01 -->
      <g style="fill: #a9a9a9" transform="translate(198.809544 334.998438) scale(0.1 -0.1)">
       <use xlink:href="#DejaVuSans-32"/>
       <use xlink:href="#DejaVuSans-30" x="63.623047"/>
       <use xlink:href="#DejaVuSans-32" x="127.246094"/>
       <use xlink:href="#DejaVuSans-32" x="190.869141"/>
       <use xlink:href="#DejaVuSans-2d" x="254.492188"/>
       <use xlink:href="#DejaVuSans-30" x="290.576172"/>
       <use xlink:href="#DejaVuSans-31" x="354.199219"/>
      </g>
     </g>
    </g>
    <g id="xtick_3">
     <g id="line2d_5">
      <path d="M 280.270828 320.4 
L 280.270828 43.2 
" clip-path="url(#p2f9534ecf4)" style="fill: none; stroke-dasharray: 5.12,1.28,0.8,1.28; stroke-dashoffset: 0; stroke: #b0b0b0; stroke-width: 0.8"/>
     </g>
     <g id="line2d_6">
      <g>
       <use xlink:href="#m6d5e396626" x="280.270828" y="320.4" style="fill: #a9a9a9; stroke: #a9a9a9; stroke-width: 0.8"/>
      </g>
     </g>
     <g id="text_3">
      <!-- 2022-05 -->
      <g style="fill: #a9a9a9" transform="translate(259.379421 334.998438) scale(0.1 -0.1)">
       <defs>
        <path id="DejaVuSans-35" d="M 691 4666 
L 3169 4666 
L 3169 4134 
L 1269 4134 
L 1269 2991 
Q 1406 3038 1543 3061 
Q 1681 3084 1819 3084 
Q 2600 3084 3056 2656 
Q 3513 2228 3513 1497 
Q 3513 744 3044 326 
Q 2575 -91 1722 -91 
Q 1428 -91 1123 -41 
Q 819 9 494 109 
L 494 744 
Q 775 591 1075 516 
Q 1375 441 1709 441 
Q 2250 441 2565 725 
Q 2881 1009 2881 1497 
Q 2881 1984 2565 2268 
Q 2250 2553 1709 2553 
Q 1456 2553 1204 2497 
Q 953 2441 691 2322 
L 691 4666 
z
" transform="scale(0.015625)"/>
       </defs>
       <use xlink:href="#DejaVuSans-32"/>
       <use xlink:href="#DejaVuSans-30" x="63.623047"/>
       <use xlink:href="#DejaVuSans-32" x="127.246094"/>
       <use xlink:href="#DejaVuSans-32" x="190.869141"/>
       <use xlink:href="#DejaVuSans-2d" x="254.492188"/>
       <use xlink:href="#DejaVuSans-30" x="290.576172"/>
       <use xlink:href="#DejaVuSans-35" x="354.199219"/>
      </g>
     </g>
    </g>
    <g id="xtick_4">
     <g id="line2d_7">
      <path d="M 342.354953 320.4 
L 342.354953 43.2 
" clip-path="url(#p2f9534ecf4)" style="fill: none; stroke-dasharray: 5.12,1.28,0.8,1.28; stroke-dashoffset: 0; stroke: #b0b0b0; stroke-width: 0.8"/>
     </g>
     <g id="line2d_8">
      <g>
       <use xlink:href="#m6d5e396626" x="342.354953" y="320.4" style="fill: #a9a9a9; stroke: #a9a9a9; stroke-width: 0.8"/>
      </g>
     </g>
     <g id="text_4">
      <!-- 2022-09 -->
      <g style="fill: #a9a9a9" transform="translate(321.463546 334.998438) scale(0.1 -0.1)">
       <use xlink:href="#DejaVuSans-32"/>
       <use xlink:href="#DejaVuSans-30" x="63.623047"/>
       <use xlink:href="#DejaVuSans-32" x="127.246094"/>
       <use xlink:href="#DejaVuSans-32" x="190.869141"/>
       <use xlink:href="#DejaVuSans-2d" x="254.492188"/>
       <use xlink:href="#DejaVuSans-30" x="290.576172"/>
       <use xlink:href="#DejaVuSans-39" x="354.199219"/>
      </g>
     </g>
    </g>
    <g id="xtick_5">
     <g id="line2d_9">
      <path d="M 403.934328 320.4 
L 403.934328 43.2 
" clip-path="url(#p2f9534ecf4)" style="fill: none; stroke-dasharray: 5.12,1.28,0.8,1.28; stroke-dashoffset: 0; stroke: #b0b0b0; stroke-width: 0.8"/>
     </g>
     <g id="line2d_10">
      <g>
       <use xlink:href="#m6d5e396626" x="403.934328" y="320.4" style="fill: #a9a9a9; stroke: #a9a9a9; stroke-width: 0.8"/>
      </g>
     </g>
     <g id="text_5">
      <!-- 2023-01 -->
      <g style="fill: #a9a9a9" transform="translate(383.042922 334.998438) scale(0.1 -0.1)">
       <defs>
        <path id="DejaVuSans-33" d="M 2597 2516 
Q 3050 2419 3304 2112 
Q 3559 1806 3559 1356 
Q 3559 666 3084 287 
Q 2609 -91 1734 -91 
Q 1441 -91 1130 -33 
Q 819 25 488 141 
L 488 750 
Q 750 597 1062 519 
Q 1375 441 1716 441 
Q 2309 441 2620 675 
Q 2931 909 2931 1356 
Q 2931 1769 2642 2001 
Q 2353 2234 1838 2234 
L 1294 2234 
L 1294 2753 
L 1863 2753 
Q 2328 2753 2575 2939 
Q 2822 3125 2822 3475 
Q 2822 3834 2567 4026 
Q 2313 4219 1838 4219 
Q 1578 4219 1281 4162 
Q 984 4106 628 3988 
L 628 4550 
Q 988 4650 1302 4700 
Q 1616 4750 1894 4750 
Q 2613 4750 3031 4423 
Q 3450 4097 3450 3541 
Q 3450 3153 3228 2886 
Q 3006 2619 2597 2516 
z
" transform="scale(0.015625)"/>
       </defs>
       <use xlink:href="#DejaVuSans-32"/>
       <use xlink:href="#DejaVuSans-30" x="63.623047"/>
       <use xlink:href="#DejaVuSans-32" x="127.246094"/>
       <use xlink:href="#DejaVuSans-33" x="190.869141"/>
       <use xlink:href="#DejaVuSans-2d" x="254.492188"/>
       <use xlink:href="#DejaVuSans-30" x="290.576172"/>
       <use xlink:href="#DejaVuSans-31" x="354.199219"/>
      </g>
     </g>
    </g>
    <g id="xtick_6">
     <g id="line2d_11">
      <path d="M 464.504206 320.4 
L 464.504206 43.2 
" clip-path="url(#p2f9534ecf4)" style="fill: none; stroke-dasharray: 5.12,1.28,0.8,1.28; stroke-dashoffset: 0; stroke: #b0b0b0; stroke-width: 0.8"/>
     </g>
     <g id="line2d_12">
      <g>
       <use xlink:href="#m6d5e396626" x="464.504206" y="320.4" style="fill: #a9a9a9; stroke: #a9a9a9; stroke-width: 0.8"/>
      </g>
     </g>
     <g id="text_6">
      <!-- 2023-05 -->
      <g style="fill: #a9a9a9" transform="translate(443.6128 334.998438) scale(0.1 -0.1)">
       <use xlink:href="#DejaVuSans-32"/>
       <use xlink:href="#DejaVuSans-30" x="63.623047"/>
       <use xlink:href="#DejaVuSans-32" x="127.246094"/>
       <use xlink:href="#DejaVuSans-33" x="190.869141"/>
       <use xlink:href="#DejaVuSans-2d" x="254.492188"/>
       <use xlink:href="#DejaVuSans-30" x="290.576172"/>
       <use xlink:href="#DejaVuSans-35" x="354.199219"/>
      </g>
     </g>
    </g>
    <g id="xtick_7">
     <g id="line2d_13">
      <path d="M 526.588331 320.4 
L 526.588331 43.2 
" clip-path="url(#p2f9534ecf4)" style="fill: none; stroke-dasharray: 5.12,1.28,0.8,1.28; stroke-dashoffset: 0; stroke: #b0b0b0; stroke-width: 0.8"/>
     </g>
     <g id="line2d_14">
      <g>
       <use xlink:href="#m6d5e396626" x="526.588331" y="320.4" style="fill: #a9a9a9; stroke: #a9a9a9; stroke-width: 0.8"/>
      </g>
     </g>
     <g id="text_7">
      <!-- 2023-09 -->
      <g style="fill: #a9a9a9" transform="translate(505.696925 334.998438) scale(0.1 -0.1)">
       <use xlink:href="#DejaVuSans-32"/>
       <use xlink:href="#DejaVuSans-30" x="63.623047"/>
       <use xlink:href="#DejaVuSans-32" x="127.246094"/>
       <use xlink:href="#DejaVuSans-33" x="190.869141"/>
       <use xlink:href="#DejaVuSans-2d" x="254.492188"/>
       <use xlink:href="#DejaVuSans-30" x="290.576172"/>
       <use xlink:href="#DejaVuSans-39" x="354.199219"/>
      </g>
     </g>
    </g>
    <g id="xtick_8">
     <g id="line2d_15">
      <path d="M 588.167707 320.4 
L 588.167707 43.2 
" clip-path="url(#p2f9534ecf4)" style="fill: none; stroke-dasharray: 5.12,1.28,0.8,1.28; stroke-dashoffset: 0; stroke: #b0b0b0; stroke-width: 0.8"/>
     </g>
     <g id="line2d_16">
      <g>
       <use xlink:href="#m6d5e396626" x="588.167707" y="320.4" style="fill: #a9a9a9; stroke: #a9a9a9; stroke-width: 0.8"/>
      </g>
     </g>
     <g id="text_8">
      <!-- 2024-01 -->
      <g style="fill: #a9a9a9" transform="translate(567.276301 334.998438) scale(0.1 -0.1)">
       <defs>
        <path id="DejaVuSans-34" d="M 2419 4116 
L 825 1625 
L 2419 1625 
L 2419 4116 
z
M 2253 4666 
L 3047 4666 
L 3047 1625 
L 3713 1625 
L 3713 1100 
L 3047 1100 
L 3047 0 
L 2419 0 
L 2419 1100 
L 313 1100 
L 313 1709 
L 2253 4666 
z
" transform="scale(0.015625)"/>
       </defs>
       <use xlink:href="#DejaVuSans-32"/>
       <use xlink:href="#DejaVuSans-30" x="63.623047"/>
       <use xlink:href="#DejaVuSans-32" x="127.246094"/>
       <use xlink:href="#DejaVuSans-34" x="190.869141"/>
       <use xlink:href="#DejaVuSans-2d" x="254.492188"/>
       <use xlink:href="#DejaVuSans-30" x="290.576172"/>
       <use xlink:href="#DejaVuSans-31" x="354.199219"/>
      </g>
     </g>
    </g>
    <g id="xtick_9">
     <g id="line2d_17">
      <path d="M 649.242334 320.4 
L 649.242334 43.2 
" clip-path="url(#p2f9534ecf4)" style="fill: none; stroke-dasharray: 5.12,1.28,0.8,1.28; stroke-dashoffset: 0; stroke: #b0b0b0; stroke-width: 0.8"/>
     </g>
     <g id="line2d_18">
      <g>
       <use xlink:href="#m6d5e396626" x="649.242334" y="320.4" style="fill: #a9a9a9; stroke: #a9a9a9; stroke-width: 0.8"/>
      </g>
     </g>
     <g id="text_9">
      <!-- 2024-05 -->
      <g style="fill: #a9a9a9" transform="translate(628.350928 334.998438) scale(0.1 -0.1)">
       <use xlink:href="#DejaVuSans-32"/>
       <use xlink:href="#DejaVuSans-30" x="63.623047"/>
       <use xlink:href="#DejaVuSans-32" x="127.246094"/>
       <use xlink:href="#DejaVuSans-34" x="190.869141"/>
       <use xlink:href="#DejaVuSans-2d" x="254.492188"/>
       <use xlink:href="#DejaVuSans-30" x="290.576172"/>
       <use xlink:href="#DejaVuSans-35" x="354.199219"/>
      </g>
     </g>
    </g>
    <g id="xtick_10">
     <g id="line2d_19">
      <path d="M 711.326459 320.4 
L 711.326459 43.2 
" clip-path="url(#p2f9534ecf4)" style="fill: none; stroke-dasharray: 5.12,1.28,0.8,1.28; stroke-dashoffset: 0; stroke: #b0b0b0; stroke-width: 0.8"/>
     </g>
     <g id="line2d_20">
      <g>
       <use xlink:href="#m6d5e396626" x="711.326459" y="320.4" style="fill: #a9a9a9; stroke: #a9a9a9; stroke-width: 0.8"/>
      </g>
     </g>
     <g id="text_10">
      <!-- 2024-09 -->
      <g style="fill: #a9a9a9" transform="translate(690.435052 334.998438) scale(0.1 -0.1)">
       <use xlink:href="#DejaVuSans-32"/>
       <use xlink:href="#DejaVuSans-30" x="63.623047"/>
       <use xlink:href="#DejaVuSans-32" x="127.246094"/>
       <use xlink:href="#DejaVuSans-34" x="190.869141"/>
       <use xlink:href="#DejaVuSans-2d" x="254.492188"/>
       <use xlink:href="#DejaVuSans-30" x="290.576172"/>
       <use xlink:href="#DejaVuSans-39" x="354.199219"/>
      </g>
     </g>
    </g>
    <g id="xtick_11">
     <g id="line2d_21">
      <path d="M 772.905834 320.4 
L 772.905834 43.2 
" clip-path="url(#p2f9534ecf4)" style="fill: none; stroke-dasharray: 5.12,1.28,0.8,1.28; stroke-dashoffset: 0; stroke: #b0b0b0; stroke-width: 0.8"/>
     </g>
     <g id="line2d_22">
      <g>
       <use xlink:href="#m6d5e396626" x="772.905834" y="320.4" style="fill: #a9a9a9; stroke: #a9a9a9; stroke-width: 0.8"/>
      </g>
     </g>
     <g id="text_11">
      <!-- 2025-01 -->
      <g style="fill: #a9a9a9" transform="translate(752.014428 334.998438) scale(0.1 -0.1)">
       <use xlink:href="#DejaVuSans-32"/>
       <use xlink:href="#DejaVuSans-30" x="63.623047"/>
       <use xlink:href="#DejaVuSans-32" x="127.246094"/>
       <use xlink:href="#DejaVuSans-35" x="190.869141"/>
       <use xlink:href="#DejaVuSans-2d" x="254.492188"/>
       <use xlink:href="#DejaVuSans-30" x="290.576172"/>
       <use xlink:href="#DejaVuSans-31" x="354.199219"/>
      </g>
     </g>
    </g>
   </g>
   <g id="matplotlib.axis_2">
    <g id="ytick_1">
     <g id="line2d_23">
      <path d="M 108 307.836316 
L 777.6 307.836316 
" clip-path="url(#p2f9534ecf4)" style="fill: none; stroke-dasharray: 5.12,1.28,0.8,1.28; stroke-dashoffset: 0; stroke: #b0b0b0; stroke-width: 0.8"/>
     </g>
     <g id="line2d_24">
      <defs>
       <path id="mc3d535de2a" d="M 0 0 
L -3.5 0 
" style="stroke: #a9a9a9; stroke-width: 0.8"/>
      </defs>
      <g>
       <use xlink:href="#mc3d535de2a" x="108" y="307.836316" style="fill: #a9a9a9; stroke: #a9a9a9; stroke-width: 0.8"/>
      </g>
     </g>
     <g id="text_12">
      <!-- 0 -->
      <g style="fill: #a9a9a9" transform="translate(94.6375 311.635535) scale(0.1 -0.1)">
       <use xlink:href="#DejaVuSans-30"/>
      </g>
     </g>
    </g>
    <g id="ytick_2">
     <g id="line2d_25">
      <path d="M 108 278.783139 
L 777.6 278.783139 
" clip-path="url(#p2f9534ecf4)" style="fill: none; stroke-dasharray: 5.12,1.28,0.8,1.28; stroke-dashoffset: 0; stroke: #b0b0b0; stroke-width: 0.8"/>
     </g>
     <g id="line2d_26">
      <g>
       <use xlink:href="#mc3d535de2a" x="108" y="278.783139" style="fill: #a9a9a9; stroke: #a9a9a9; stroke-width: 0.8"/>
      </g>
     </g>
     <g id="text_13">
      <!-- 800 -->
      <g style="fill: #a9a9a9" transform="translate(81.9125 282.582358) scale(0.1 -0.1)">
       <defs>
        <path id="DejaVuSans-38" d="M 2034 2216 
Q 1584 2216 1326 1975 
Q 1069 1734 1069 1313 
Q 1069 891 1326 650 
Q 1584 409 2034 409 
Q 2484 409 2743 651 
Q 3003 894 3003 1313 
Q 3003 1734 2745 1975 
Q 2488 2216 2034 2216 
z
M 1403 2484 
Q 997 2584 770 2862 
Q 544 3141 544 3541 
Q 544 4100 942 4425 
Q 1341 4750 2034 4750 
Q 2731 4750 3128 4425 
Q 3525 4100 3525 3541 
Q 3525 3141 3298 2862 
Q 3072 2584 2669 2484 
Q 3125 2378 3379 2068 
Q 3634 1759 3634 1313 
Q 3634 634 3220 271 
Q 2806 -91 2034 -91 
Q 1263 -91 848 271 
Q 434 634 434 1313 
Q 434 1759 690 2068 
Q 947 2378 1403 2484 
z
M 1172 3481 
Q 1172 3119 1398 2916 
Q 1625 2713 2034 2713 
Q 2441 2713 2670 2916 
Q 2900 3119 2900 3481 
Q 2900 3844 2670 4047 
Q 2441 4250 2034 4250 
Q 1625 4250 1398 4047 
Q 1172 3844 1172 3481 
z
" transform="scale(0.015625)"/>
       </defs>
       <use xlink:href="#DejaVuSans-38"/>
       <use xlink:href="#DejaVuSans-30" x="63.623047"/>
       <use xlink:href="#DejaVuSans-30" x="127.246094"/>
      </g>
     </g>
    </g>
    <g id="ytick_3">
     <g id="line2d_27">
      <path d="M 108 249.729961 
L 777.6 249.729961 
" clip-path="url(#p2f9534ecf4)" style="fill: none; stroke-dasharray: 5.12,1.28,0.8,1.28; stroke-dashoffset: 0; stroke: #b0b0b0; stroke-width: 0.8"/>
     </g>
     <g id="line2d_28">
      <g>
       <use xlink:href="#mc3d535de2a" x="108" y="249.729961" style="fill: #a9a9a9; stroke: #a9a9a9; stroke-width: 0.8"/>
      </g>
     </g>
     <g id="text_14">
      <!-- 1600 -->
      <g style="fill: #a9a9a9" transform="translate(75.55 253.52918) scale(0.1 -0.1)">
       <defs>
        <path id="DejaVuSans-36" d="M 2113 2584 
Q 1688 2584 1439 2293 
Q 1191 2003 1191 1497 
Q 1191 994 1439 701 
Q 1688 409 2113 409 
Q 2538 409 2786 701 
Q 3034 994 3034 1497 
Q 3034 2003 2786 2293 
Q 2538 2584 2113 2584 
z
M 3366 4563 
L 3366 3988 
Q 3128 4100 2886 4159 
Q 2644 4219 2406 4219 
Q 1781 4219 1451 3797 
Q 1122 3375 1075 2522 
Q 1259 2794 1537 2939 
Q 1816 3084 2150 3084 
Q 2853 3084 3261 2657 
Q 3669 2231 3669 1497 
Q 3669 778 3244 343 
Q 2819 -91 2113 -91 
Q 1303 -91 875 529 
Q 447 1150 447 2328 
Q 447 3434 972 4092 
Q 1497 4750 2381 4750 
Q 2619 4750 2861 4703 
Q 3103 4656 3366 4563 
z
" transform="scale(0.015625)"/>
       </defs>
       <use xlink:href="#DejaVuSans-31"/>
       <use xlink:href="#DejaVuSans-36" x="63.623047"/>
       <use xlink:href="#DejaVuSans-30" x="127.246094"/>
       <use xlink:href="#DejaVuSans-30" x="190.869141"/>
      </g>
     </g>
    </g>
    <g id="ytick_4">
     <g id="line2d_29">
      <path d="M 108 220.676783 
L 777.6 220.676783 
" clip-path="url(#p2f9534ecf4)" style="fill: none; stroke-dasharray: 5.12,1.28,0.8,1.28; stroke-dashoffset: 0; stroke: #b0b0b0; stroke-width: 0.8"/>
     </g>
     <g id="line2d_30">
      <g>
       <use xlink:href="#mc3d535de2a" x="108" y="220.676783" style="fill: #a9a9a9; stroke: #a9a9a9; stroke-width: 0.8"/>
      </g>
     </g>
     <g id="text_15">
      <!-- 2400 -->
      <g style="fill: #a9a9a9" transform="translate(75.55 224.476002) scale(0.1 -0.1)">
       <use xlink:href="#DejaVuSans-32"/>
       <use xlink:href="#DejaVuSans-34" x="63.623047"/>
       <use xlink:href="#DejaVuSans-30" x="127.246094"/>
       <use xlink:href="#DejaVuSans-30" x="190.869141"/>
      </g>
     </g>
    </g>
    <g id="ytick_5">
     <g id="line2d_31">
      <path d="M 108 191.623606 
L 777.6 191.623606 
" clip-path="url(#p2f9534ecf4)" style="fill: none; stroke-dasharray: 5.12,1.28,0.8,1.28; stroke-dashoffset: 0; stroke: #b0b0b0; stroke-width: 0.8"/>
     </g>
     <g id="line2d_32">
      <g>
       <use xlink:href="#mc3d535de2a" x="108" y="191.623606" style="fill: #a9a9a9; stroke: #a9a9a9; stroke-width: 0.8"/>
      </g>
     </g>
     <g id="text_16">
      <!-- 3200 -->
      <g style="fill: #a9a9a9" transform="translate(75.55 195.422824) scale(0.1 -0.1)">
       <use xlink:href="#DejaVuSans-33"/>
       <use xlink:href="#DejaVuSans-32" x="63.623047"/>
       <use xlink:href="#DejaVuSans-30" x="127.246094"/>
       <use xlink:href="#DejaVuSans-30" x="190.869141"/>
      </g>
     </g>
    </g>
    <g id="ytick_6">
     <g id="line2d_33">
      <path d="M 108 162.570428 
L 777.6 162.570428 
" clip-path="url(#p2f9534ecf4)" style="fill: none; stroke-dasharray: 5.12,1.28,0.8,1.28; stroke-dashoffset: 0; stroke: #b0b0b0; stroke-width: 0.8"/>
     </g>
     <g id="line2d_34">
      <g>
       <use xlink:href="#mc3d535de2a" x="108" y="162.570428" style="fill: #a9a9a9; stroke: #a9a9a9; stroke-width: 0.8"/>
      </g>
     </g>
     <g id="text_17">
      <!-- 4000 -->
      <g style="fill: #a9a9a9" transform="translate(75.55 166.369647) scale(0.1 -0.1)">
       <use xlink:href="#DejaVuSans-34"/>
       <use xlink:href="#DejaVuSans-30" x="63.623047"/>
       <use xlink:href="#DejaVuSans-30" x="127.246094"/>
       <use xlink:href="#DejaVuSans-30" x="190.869141"/>
      </g>
     </g>
    </g>
    <g id="ytick_7">
     <g id="line2d_35">
      <path d="M 108 133.51725 
L 777.6 133.51725 
" clip-path="url(#p2f9534ecf4)" style="fill: none; stroke-dasharray: 5.12,1.28,0.8,1.28; stroke-dashoffset: 0; stroke: #b0b0b0; stroke-width: 0.8"/>
     </g>
     <g id="line2d_36">
      <g>
       <use xlink:href="#mc3d535de2a" x="108" y="133.51725" style="fill: #a9a9a9; stroke: #a9a9a9; stroke-width: 0.8"/>
      </g>
     </g>
     <g id="text_18">
      <!-- 4800 -->
      <g style="fill: #a9a9a9" transform="translate(75.55 137.316469) scale(0.1 -0.1)">
       <use xlink:href="#DejaVuSans-34"/>
       <use xlink:href="#DejaVuSans-38" x="63.623047"/>
       <use xlink:href="#DejaVuSans-30" x="127.246094"/>
       <use xlink:href="#DejaVuSans-30" x="190.869141"/>
      </g>
     </g>
    </g>
    <g id="ytick_8">
     <g id="line2d_37">
      <path d="M 108 104.464073 
L 777.6 104.464073 
" clip-path="url(#p2f9534ecf4)" style="fill: none; stroke-dasharray: 5.12,1.28,0.8,1.28; stroke-dashoffset: 0; stroke: #b0b0b0; stroke-width: 0.8"/>
     </g>
     <g id="line2d_38">
      <g>
       <use xlink:href="#mc3d535de2a" x="108" y="104.464073" style="fill: #a9a9a9; stroke: #a9a9a9; stroke-width: 0.8"/>
      </g>
     </g>
     <g id="text_19">
      <!-- 5600 -->
      <g style="fill: #a9a9a9" transform="translate(75.55 108.263291) scale(0.1 -0.1)">
       <use xlink:href="#DejaVuSans-35"/>
       <use xlink:href="#DejaVuSans-36" x="63.623047"/>
       <use xlink:href="#DejaVuSans-30" x="127.246094"/>
       <use xlink:href="#DejaVuSans-30" x="190.869141"/>
      </g>
     </g>
    </g>
    <g id="ytick_9">
     <g id="line2d_39">
      <path d="M 108 75.410895 
L 777.6 75.410895 
" clip-path="url(#p2f9534ecf4)" style="fill: none; stroke-dasharray: 5.12,1.28,0.8,1.28; stroke-dashoffset: 0; stroke: #b0b0b0; stroke-width: 0.8"/>
     </g>
     <g id="line2d_40">
      <g>
       <use xlink:href="#mc3d535de2a" x="108" y="75.410895" style="fill: #a9a9a9; stroke: #a9a9a9; stroke-width: 0.8"/>
      </g>
     </g>
     <g id="text_20">
      <!-- 6400 -->
      <g style="fill: #a9a9a9" transform="translate(75.55 79.210114) scale(0.1 -0.1)">
       <use xlink:href="#DejaVuSans-36"/>
       <use xlink:href="#DejaVuSans-34" x="63.623047"/>
       <use xlink:href="#DejaVuSans-30" x="127.246094"/>
       <use xlink:href="#DejaVuSans-30" x="190.869141"/>
      </g>
     </g>
    </g>
    <g id="ytick_10">
     <g id="line2d_41">
      <path d="M 108 46.357717 
L 777.6 46.357717 
" clip-path="url(#p2f9534ecf4)" style="fill: none; stroke-dasharray: 5.12,1.28,0.8,1.28; stroke-dashoffset: 0; stroke: #b0b0b0; stroke-width: 0.8"/>
     </g>
     <g id="line2d_42">
      <g>
       <use xlink:href="#mc3d535de2a" x="108" y="46.357717" style="fill: #a9a9a9; stroke: #a9a9a9; stroke-width: 0.8"/>
      </g>
     </g>
     <g id="text_21">
      <!-- 7200 -->
      <g style="fill: #a9a9a9" transform="translate(75.55 50.156936) scale(0.1 -0.1)">
       <defs>
        <path id="DejaVuSans-37" d="M 525 4666 
L 3525 4666 
L 3525 4397 
L 1831 0 
L 1172 0 
L 2766 4134 
L 525 4134 
L 525 4666 
z
" transform="scale(0.015625)"/>
       </defs>
       <use xlink:href="#DejaVuSans-37"/>
       <use xlink:href="#DejaVuSans-32" x="63.623047"/>
       <use xlink:href="#DejaVuSans-30" x="127.246094"/>
       <use xlink:href="#DejaVuSans-30" x="190.869141"/>
      </g>
     </g>
    </g>
   </g>
   <g id="line2d_43">
    <path d="M 138.436364 307.727367 
L 141.464858 307.473152 
L 141.969607 307.255253 
L 143.988602 307.001038 
L 146.007598 306.601556 
L 147.017096 306.456291 
L 149.540841 306.238392 
L 150.550339 305.838911 
L 151.055088 305.185214 
L 151.559837 304.822049 
L 152.064586 303.696239 
L 152.569335 303.623606 
L 153.074084 303.224125 
L 154.083582 302.715694 
L 156.102578 301.117769 
L 158.121574 300.137224 
L 159.635821 299.447211 
L 160.14057 298.648249 
L 161.150068 297.92192 
L 161.654817 297.704021 
L 166.702307 296.977691 
L 167.207056 296.759792 
L 170.740299 296.469261 
L 172.759294 295.997147 
L 176.797286 295.452399 
L 177.302035 295.198184 
L 177.806784 295.125551 
L 178.816282 294.798703 
L 182.349525 294.217639 
L 183.359023 293.927108 
L 187.901764 293.164462 
L 188.911262 292.946563 
L 189.92076 292.910246 
L 191.939756 292.438132 
L 192.444505 291.748119 
L 193.958752 291.167056 
L 195.472999 290.767575 
L 195.977748 290.513359 
L 196.987246 290.331777 
L 199.006242 289.750713 
L 200.015739 289.67808 
L 201.025237 289.423865 
L 203.044233 288.915435 
L 203.548982 288.879118 
L 204.55848 288.407004 
L 205.063229 288.334371 
L 205.567978 288.080156 
L 211.120217 287.172244 
L 213.139213 286.59118 
L 213.643962 286.264332 
L 216.167707 285.429053 
L 217.177205 284.73904 
L 218.691452 284.448508 
L 231.814925 280.780545 
L 232.319674 280.780545 
L 232.824423 280.562646 
L 233.833921 280.453696 
L 234.33867 280.272114 
L 236.357666 280.163165 
L 237.367164 279.981582 
L 238.376662 279.473152 
L 239.890909 278.928405 
L 240.395658 278.601556 
L 241.405156 278.165759 
L 241.909905 277.911543 
L 242.919403 277.584695 
L 243.424152 277.403113 
L 244.43365 276.785733 
L 244.938399 276.240986 
L 245.947897 274.715694 
L 246.452646 274.570428 
L 246.957395 274.570428 
L 248.471642 273.698833 
L 248.976391 273.444617 
L 249.48114 273.335668 
L 249.985889 272.863554 
L 250.995387 272.464073 
L 252.004885 271.991958 
L 254.52863 268.796109 
L 257.557123 267.198184 
L 258.566621 266.399222 
L 259.07137 266.072374 
L 259.576119 265.309728 
L 260.080868 264.183917 
L 260.585617 263.421271 
L 261.090366 263.02179 
L 261.595115 262.803891 
L 265.128358 259.82594 
L 266.137856 258.627497 
L 267.147354 257.901167 
L 268.661601 256.884306 
L 269.16635 256.448508 
L 270.175848 256.12166 
L 271.690095 255.250065 
L 273.204342 254.26952 
L 275.223338 252.490013 
L 276.232836 252.090532 
L 277.242334 251.400519 
L 277.747083 251.109987 
L 278.251832 251.037354 
L 279.766079 250.202075 
L 280.270828 249.657328 
L 282.794573 248.313619 
L 283.299322 248.132036 
L 284.813569 247.115175 
L 292.384803 244.464073 
L 293.394301 243.556161 
L 294.403799 243.084047 
L 295.413297 242.5393 
L 295.918046 242.248768 
L 296.927544 241.958236 
L 297.432293 241.631388 
L 297.937042 241.486122 
L 299.451289 240.505577 
L 301.975034 239.924514 
L 303.489281 239.052918 
L 305.003528 238.72607 
L 305.508277 238.580804 
L 307.022524 237.454994 
L 309.04152 236.910246 
L 309.546269 236.510765 
L 312.574763 235.493904 
L 313.584261 235.312322 
L 314.593758 234.91284 
L 318.127001 233.641764 
L 319.136499 233.496498 
L 320.650746 232.988067 
L 323.174491 231.789624 
L 325.193487 230.70013 
L 329.231479 229.065888 
L 329.736228 228.993256 
L 330.745726 228.375875 
L 331.250475 228.303243 
L 333.269471 227.467964 
L 335.288467 227.177432 
L 336.297965 226.669001 
L 336.802714 226.233204 
L 337.307463 225.325292 
L 339.326459 224.780545 
L 340.840706 224.017899 
L 341.345455 223.908949 
L 345.383446 221.984176 
L 346.897693 221.693645 
L 347.907191 221.185214 
L 348.41194 220.967315 
L 348.916689 220.894682 
L 350.935685 219.98677 
L 352.449932 219.042542 
L 353.964179 218.75201 
L 356.487924 218.13463 
L 356.992673 217.735149 
L 358.50692 217.190402 
L 360.525916 216.39144 
L 361.030665 216.028275 
L 361.535414 215.846693 
L 362.544912 215.301946 
L 365.068657 214.466667 
L 366.582904 213.268223 
L 367.087653 213.159274 
L 368.097151 212.360311 
L 368.6019 212.287678 
L 369.106649 211.488716 
L 369.611398 211.270817 
L 370.116147 210.871336 
L 370.620896 210.798703 
L 371.630393 210.181323 
L 372.639891 209.854475 
L 373.14464 209.49131 
L 373.649389 209.309728 
L 375.163636 208.25655 
L 377.182632 207.203372 
L 377.687381 207.130739 
L 379.201628 206.368093 
L 379.706377 205.532815 
L 380.715875 204.806485 
L 381.220624 204.697536 
L 382.230122 204.080156 
L 382.734871 203.971206 
L 383.744369 203.462776 
L 385.763365 202.482231 
L 386.268114 202.119066 
L 387.277612 201.138521 
L 388.28711 200.521141 
L 388.791859 200.194293 
L 389.296608 199.649546 
L 391.315604 198.26952 
L 391.820353 197.688457 
L 392.325102 197.288975 
L 393.3346 196.925811 
L 394.344098 196.235798 
L 395.858345 195.473152 
L 396.363094 195.400519 
L 397.877341 194.601556 
L 398.886839 193.984176 
L 403.934328 192.168353 
L 404.439077 191.768872 
L 406.458073 191.006226 
L 406.962822 190.86096 
L 407.467571 190.461479 
L 409.991316 189.081453 
L 411.000814 187.084047 
L 412.010312 185.92192 
L 413.01981 185.30454 
L 414.534057 184.68716 
L 415.038806 184.614527 
L 415.543555 184.323995 
L 418.0673 183.525032 
L 418.572049 183.307134 
L 419.581547 182.617121 
L 421.095794 181.963424 
L 422.105292 181.418677 
L 422.610041 181.055512 
L 423.11479 180.837613 
L 423.619539 180.474449 
L 424.124288 179.929702 
L 425.133786 179.384955 
L 427.657531 178.041245 
L 430.686024 176.55227 
L 431.695522 176.225422 
L 433.209769 175.753307 
L 435.228765 174.845396 
L 436.238263 174.445914 
L 436.743012 174.046433 
L 438.762008 173.35642 
L 439.771506 172.630091 
L 440.781004 172.194293 
L 441.790502 171.395331 
L 442.8 171.032166 
L 443.304749 170.596368 
L 443.809498 170.523735 
L 444.818996 169.761089 
L 445.828494 169.252659 
L 446.333243 169.03476 
L 446.837992 168.526329 
L 450.371235 167.146304 
L 451.380733 166.710506 
L 452.89498 166.238392 
L 453.904478 166.093126 
L 454.409227 165.875227 
L 454.913976 165.802594 
L 455.923474 165.366796 
L 456.428223 165.33048 
L 458.447218 164.567834 
L 459.961465 163.514656 
L 460.466214 163.333074 
L 461.475712 162.788327 
L 461.980461 162.643061 
L 465.008955 160.972503 
L 465.513704 160.863554 
L 467.027951 159.991958 
L 468.542198 159.483528 
L 469.551696 159.15668 
L 471.570692 158.502983 
L 472.58019 158.176135 
L 474.599186 157.776654 
L 475.103935 157.558755 
L 475.608684 157.486122 
L 476.618182 157.050324 
L 477.122931 156.977691 
L 477.62768 156.723476 
L 478.637178 156.541894 
L 480.151425 155.997147 
L 481.160923 155.888197 
L 482.67517 155.561349 
L 485.198915 155.125551 
L 498.322388 151.348638 
L 498.827137 150.840208 
L 499.836635 150.440726 
L 502.865129 149.351232 
L 503.369878 149.024384 
L 503.874627 148.915435 
L 504.379376 148.624903 
L 505.893623 148.189105 
L 506.903121 147.93489 
L 507.40787 147.608042 
L 507.912619 147.499092 
L 508.417368 147.063294 
L 509.931615 146.772763 
L 510.941113 146.300649 
L 511.445862 145.719585 
L 513.464858 145.247471 
L 516.9981 144.521141 
L 517.502849 144.521141 
L 518.007598 144.303243 
L 520.026594 143.940078 
L 520.531343 143.722179 
L 522.550339 143.359014 
L 523.559837 142.923217 
L 524.569335 142.741634 
L 527.09308 142.124254 
L 529.112076 141.506874 
L 529.616825 141.397925 
L 530.121574 141.143709 
L 531.131072 140.889494 
L 531.635821 140.598962 
L 533.150068 140.090532 
L 533.654817 139.763684 
L 534.664315 139.473152 
L 535.673813 139.146304 
L 536.683311 138.746822 
L 538.197558 138.093126 
L 540.216554 137.838911 
L 544.254545 136.422568 
L 544.759294 136.059403 
L 545.264043 135.950454 
L 545.768792 135.696239 
L 546.273541 135.659922 
L 551.82578 133.735149 
L 554.349525 133.081453 
L 555.359023 132.609339 
L 556.87327 132.28249 
L 557.378019 131.883009 
L 557.882768 131.628794 
L 558.387517 131.011414 
L 558.892266 130.648249 
L 559.901764 130.357717 
L 560.406513 129.958236 
L 563.435007 128.832425 
L 563.939756 128.505577 
L 564.949254 128.215045 
L 565.454003 127.888197 
L 567.977748 127.089235 
L 569.491995 126.217639 
L 569.996744 126.10869 
L 572.520488 124.764981 
L 574.034735 124.111284 
L 574.539484 123.748119 
L 575.548982 123.421271 
L 576.55848 122.840208 
L 577.063229 122.658625 
L 577.567978 122.29546 
L 584.129715 120.007523 
L 584.634464 119.898573 
L 585.139213 119.571725 
L 587.158209 119.172244 
L 588.167707 118.772763 
L 588.672456 118.482231 
L 589.177205 118.336965 
L 591.196201 117.283787 
L 591.70095 117.211154 
L 593.215197 116.375875 
L 594.729444 115.867445 
L 598.262687 114.414786 
L 598.767436 114.26952 
L 599.272185 113.942672 
L 600.281682 113.833722 
L 600.786431 113.506874 
L 601.795929 113.325292 
L 602.805427 112.853178 
L 603.310176 112.635279 
L 603.814925 112.562646 
L 606.33867 111.582101 
L 607.852917 111.18262 
L 608.862415 110.928405 
L 610.376662 110.492607 
L 611.38616 110.093126 
L 613.405156 109.003632 
L 614.414654 108.60415 
L 614.919403 108.277302 
L 615.928901 108.059403 
L 616.43365 107.768872 
L 616.938399 107.659922 
L 618.452646 106.824643 
L 619.462144 106.425162 
L 621.48114 105.662516 
L 624.004885 104.827237 
L 625.014383 104.318807 
L 627.538128 103.483528 
L 629.052374 102.938781 
L 629.557123 102.793515 
L 630.566621 102.248768 
L 632.585617 101.340856 
L 637.633107 99.416083 
L 638.137856 99.089235 
L 640.156852 98.399222 
L 640.661601 98.399222 
L 641.671099 97.963424 
L 642.680597 97.055512 
L 643.185346 96.619715 
L 644.699593 95.893385 
L 645.204342 95.784436 
L 645.709091 95.53022 
L 646.21384 95.457588 
L 646.718589 95.094423 
L 647.223338 94.985473 
L 648.232836 94.368093 
L 649.747083 93.605447 
L 650.756581 93.205966 
L 651.26133 92.951751 
L 652.775577 92.624903 
L 655.299322 91.789624 
L 656.30882 91.462776 
L 657.823066 90.70013 
L 658.832564 90.228016 
L 659.842062 89.9738 
L 661.356309 89.283787 
L 665.89905 87.61323 
L 667.413297 86.705318 
L 667.918046 86.596368 
L 668.927544 86.087938 
L 669.937042 85.724773 
L 670.441791 85.288975 
L 671.451289 84.889494 
L 672.965536 84.272114 
L 673.470285 83.872633 
L 673.975034 83.836316 
L 674.984532 83.545785 
L 675.99403 83.218936 
L 676.498779 82.964721 
L 677.003528 82.892088 
L 678.517775 82.347341 
L 680.032022 81.802594 
L 681.04152 81.403113 
L 681.546269 81.003632 
L 683.060516 80.60415 
L 683.565265 80.313619 
L 684.574763 80.059403 
L 686.089009 79.224125 
L 686.593758 79.187808 
L 688.108005 78.715694 
L 689.117503 78.643061 
L 690.127001 78.24358 
L 693.155495 77.371984 
L 694.164993 77.335668 
L 697.193487 76.355123 
L 697.698236 76.28249 
L 699.212483 75.483528 
L 699.717232 75.04773 
L 701.231479 74.176135 
L 702.240977 73.558755 
L 704.259973 72.977691 
L 704.764722 72.68716 
L 705.269471 72.57821 
L 705.77422 72.178729 
L 708.802714 70.943969 
L 710.82171 70.399222 
L 711.831208 69.963424 
L 712.335957 69.709209 
L 713.345455 69.382361 
L 713.850204 69.055512 
L 714.859701 68.87393 
L 717.383446 67.711803 
L 717.888195 67.421271 
L 719.402442 67.02179 
L 720.916689 66.041245 
L 721.421438 65.968612 
L 723.945183 64.988067 
L 725.45943 64.624903 
L 725.964179 64.55227 
L 726.468928 64.334371 
L 726.973677 64.298054 
L 727.983175 63.971206 
L 728.487924 63.93489 
L 730.002171 63.353826 
L 732.021167 62.772763 
L 733.030665 62.010117 
L 735.049661 60.920623 
L 736.563908 60.412192 
L 739.592402 59.032166 
L 740.6019 58.487419 
L 741.106649 58.233204 
L 741.611398 57.761089 
L 744.135142 56.998444 
L 745.14464 56.41738 
L 747.163636 55.8 
L 747.163636 55.8 
" clip-path="url(#p2f9534ecf4)" style="fill: none; stroke: #1f77b4; stroke-width: 1.5; stroke-linecap: square"/>
   </g>
   <g id="line2d_44">
    <path d="M 138.941113 307.8 
L 143.483853 307.691051 
L 147.521845 307.509468 
L 149.540841 307.509468 
L 150.04559 307.364202 
L 152.569335 307.255253 
L 155.597829 306.928405 
L 158.626323 306.819455 
L 159.635821 306.710506 
L 163.169064 306.56524 
L 166.702307 306.456291 
L 169.226052 306.383658 
L 175.787788 306.274708 
L 178.311533 306.202075 
L 181.844776 306.093126 
L 184.368521 306.020493 
L 189.92076 305.911543 
L 191.939756 305.729961 
L 193.958752 305.693645 
L 196.987246 305.584695 
L 199.006242 305.548379 
L 201.529986 305.475746 
L 203.548982 305.294163 
L 208.091723 305.185214 
L 209.101221 305.112581 
L 211.120217 305.003632 
L 214.148711 304.894682 
L 216.167707 304.785733 
L 225.253189 304.240986 
L 228.786431 304.132036 
L 230.300678 303.98677 
L 232.824423 303.877821 
L 237.871913 303.623606 
L 242.919403 303.550973 
L 244.938399 303.333074 
L 246.957395 303.224125 
L 252.509634 302.715694 
L 256.042877 302.316213 
L 257.557123 302.24358 
L 262.099864 301.698833 
L 264.623609 301.6262 
L 266.137856 301.480934 
L 267.652103 301.371984 
L 281.785075 300.318807 
L 282.794573 300.137224 
L 285.823066 300.028275 
L 293.89905 299.556161 
L 297.432293 299.447211 
L 299.451289 299.229313 
L 301.975034 299.120363 
L 305.003528 299.011414 
L 307.527273 298.902464 
L 309.546269 298.866148 
L 312.070014 298.793515 
L 313.079512 298.648249 
L 320.145997 298.5393 
L 321.155495 298.43035 
L 327.212483 298.321401 
L 331.755224 298.103502 
L 335.288467 297.994553 
L 337.307463 297.776654 
L 340.840706 297.667704 
L 341.850204 297.486122 
L 344.373948 297.413489 
L 349.421438 297.340856 
L 351.945183 297.086641 
L 354.973677 296.977691 
L 356.992673 296.796109 
L 362.040163 296.541894 
L 367.087653 296.432944 
L 371.630393 296.215045 
L 373.14464 296.178729 
L 374.154138 296.033463 
L 376.677883 295.924514 
L 377.687381 295.851881 
L 378.696879 295.779248 
L 379.706377 295.706615 
L 384.249118 295.633982 
L 385.763365 295.525032 
L 399.391588 294.653437 
L 401.915332 294.544488 
L 404.439077 294.471855 
L 411.505563 294.362905 
L 412.515061 294.217639 
L 419.581547 294.10869 
L 424.629037 293.854475 
L 425.638535 293.818158 
L 426.648033 293.709209 
L 429.171777 293.600259 
L 431.695522 293.527626 
L 434.219267 293.418677 
L 436.743012 293.346044 
L 441.285753 293.237095 
L 444.314247 293.128145 
L 451.380733 293.019196 
L 456.932972 292.728664 
L 458.951967 292.656031 
L 460.466214 292.547082 
L 467.5327 292.438132 
L 470.561194 292.329183 
L 479.646676 292.220233 
L 481.665672 292.183917 
L 487.722659 292.111284 
L 488.732157 292.038651 
L 495.798643 291.929702 
L 497.817639 291.893385 
L 510.941113 291.784436 
L 512.45536 291.63917 
L 535.169064 291.53022 
L 537.692809 291.457588 
L 550.816282 291.348638 
L 551.82578 291.276005 
L 554.349525 291.203372 
L 555.863772 291.058106 
L 558.892266 290.949157 
L 562.425509 290.803891 
L 566.96825 290.694942 
L 569.491995 290.622309 
L 573.025237 290.513359 
L 577.063229 290.331777 
L 579.586974 290.222827 
L 581.60597 290.186511 
L 586.148711 290.077562 
L 588.167707 290.041245 
L 594.729444 289.932296 
L 596.74844 289.895979 
L 599.272185 289.78703 
L 602.300678 289.67808 
L 605.833921 289.605447 
L 606.843419 289.532815 
L 618.957395 289.423865 
L 625.519132 289.0607 
L 628.042877 288.988067 
L 629.052374 288.879118 
L 630.061872 288.806485 
L 634.099864 288.697536 
L 637.128358 288.588586 
L 642.175848 288.479637 
L 644.699593 288.225422 
L 649.747083 288.116472 
L 650.756581 288.007523 
L 655.804071 287.898573 
L 658.327815 287.82594 
L 663.880054 287.789624 
L 664.889552 287.680674 
L 670.441791 287.571725 
L 671.451289 287.499092 
L 682.555767 287.390143 
L 685.584261 287.281193 
L 693.155495 287.172244 
L 695.174491 287.135927 
L 699.717232 287.063294 
L 700.72673 286.954345 
L 706.783718 286.845396 
L 709.812212 286.736446 
L 718.897693 286.627497 
L 720.41194 286.518547 
L 721.926187 286.409598 
L 723.440434 286.300649 
L 731.011669 286.191699 
L 734.544912 286.046433 
L 745.649389 285.937484 
L 747.163636 285.901167 
L 747.163636 285.901167 
" clip-path="url(#p2f9534ecf4)" style="fill: none; stroke: #ff7f0e; stroke-width: 1.5; stroke-linecap: square"/>
   </g>
   <g id="patch_3">
    <path d="M 108 320.4 
L 108 43.2 
" style="fill: none; stroke: #a9a9a9; stroke-width: 0.8; stroke-linejoin: miter; stroke-linecap: square"/>
   </g>
   <g id="patch_4">
    <path d="M 777.6 320.4 
L 777.6 43.2 
" style="fill: none"/>
   </g>
   <g id="patch_5">
    <path d="M 108 320.4 
L 777.6 320.4 
" style="fill: none; stroke: #a9a9a9; stroke-width: 0.8; stroke-linejoin: miter; stroke-linecap: square"/>
   </g>
   <g id="patch_6">
    <path d="M 108 43.2 
L 777.6 43.2 
" style="fill: none"/>
   </g>
   <g id="text_22">
    <!-- get_subscribe history -->
    <g style="fill: #a9a9a9" transform="translate(378.6075 37.2) scale(0.12 -0.12)">
     <defs>
      <path id="DejaVuSans-67" d="M 2906 1791 
Q 2906 2416 2648 2759 
Q 2391 3103 1925 3103 
Q 1463 3103 1205 2759 
Q 947 2416 947 1791 
Q 947 1169 1205 825 
Q 1463 481 1925 481 
Q 2391 481 2648 825 
Q 2906 1169 2906 1791 
z
M 3481 434 
Q 3481 -459 3084 -895 
Q 2688 -1331 1869 -1331 
Q 1566 -1331 1297 -1286 
Q 1028 -1241 775 -1147 
L 775 -588 
Q 1028 -725 1275 -790 
Q 1522 -856 1778 -856 
Q 2344 -856 2625 -561 
Q 2906 -266 2906 331 
L 2906 616 
Q 2728 306 2450 153 
Q 2172 0 1784 0 
Q 1141 0 747 490 
Q 353 981 353 1791 
Q 353 2603 747 3093 
Q 1141 3584 1784 3584 
Q 2172 3584 2450 3431 
Q 2728 3278 2906 2969 
L 2906 3500 
L 3481 3500 
L 3481 434 
z
" transform="scale(0.015625)"/>
      <path id="DejaVuSans-65" d="M 3597 1894 
L 3597 1613 
L 953 1613 
Q 991 1019 1311 708 
Q 1631 397 2203 397 
Q 2534 397 2845 478 
Q 3156 559 3463 722 
L 3463 178 
Q 3153 47 2828 -22 
Q 2503 -91 2169 -91 
Q 1331 -91 842 396 
Q 353 884 353 1716 
Q 353 2575 817 3079 
Q 1281 3584 2069 3584 
Q 2775 3584 3186 3129 
Q 3597 2675 3597 1894 
z
M 3022 2063 
Q 3016 2534 2758 2815 
Q 2500 3097 2075 3097 
Q 1594 3097 1305 2825 
Q 1016 2553 972 2059 
L 3022 2063 
z
" transform="scale(0.015625)"/>
      <path id="DejaVuSans-74" d="M 1172 4494 
L 1172 3500 
L 2356 3500 
L 2356 3053 
L 1172 3053 
L 1172 1153 
Q 1172 725 1289 603 
Q 1406 481 1766 481 
L 2356 481 
L 2356 0 
L 1766 0 
Q 1100 0 847 248 
Q 594 497 594 1153 
L 594 3053 
L 172 3053 
L 172 3500 
L 594 3500 
L 594 4494 
L 1172 4494 
z
" transform="scale(0.015625)"/>
      <path id="DejaVuSans-5f" d="M 3263 -1063 
L 3263 -1509 
L -63 -1509 
L -63 -1063 
L 3263 -1063 
z
" transform="scale(0.015625)"/>
      <path id="DejaVuSans-73" d="M 2834 3397 
L 2834 2853 
Q 2591 2978 2328 3040 
Q 2066 3103 1784 3103 
Q 1356 3103 1142 2972 
Q 928 2841 928 2578 
Q 928 2378 1081 2264 
Q 1234 2150 1697 2047 
L 1894 2003 
Q 2506 1872 2764 1633 
Q 3022 1394 3022 966 
Q 3022 478 2636 193 
Q 2250 -91 1575 -91 
Q 1294 -91 989 -36 
Q 684 19 347 128 
L 347 722 
Q 666 556 975 473 
Q 1284 391 1588 391 
Q 1994 391 2212 530 
Q 2431 669 2431 922 
Q 2431 1156 2273 1281 
Q 2116 1406 1581 1522 
L 1381 1569 
Q 847 1681 609 1914 
Q 372 2147 372 2553 
Q 372 3047 722 3315 
Q 1072 3584 1716 3584 
Q 2034 3584 2315 3537 
Q 2597 3491 2834 3397 
z
" transform="scale(0.015625)"/>
      <path id="DejaVuSans-75" d="M 544 1381 
L 544 3500 
L 1119 3500 
L 1119 1403 
Q 1119 906 1312 657 
Q 1506 409 1894 409 
Q 2359 409 2629 706 
Q 2900 1003 2900 1516 
L 2900 3500 
L 3475 3500 
L 3475 0 
L 2900 0 
L 2900 538 
Q 2691 219 2414 64 
Q 2138 -91 1772 -91 
Q 1169 -91 856 284 
Q 544 659 544 1381 
z
M 1991 3584 
L 1991 3584 
z
" transform="scale(0.015625)"/>
      <path id="DejaVuSans-62" d="M 3116 1747 
Q 3116 2381 2855 2742 
Q 2594 3103 2138 3103 
Q 1681 3103 1420 2742 
Q 1159 2381 1159 1747 
Q 1159 1113 1420 752 
Q 1681 391 2138 391 
Q 2594 391 2855 752 
Q 3116 1113 3116 1747 
z
M 1159 2969 
Q 1341 3281 1617 3432 
Q 1894 3584 2278 3584 
Q 2916 3584 3314 3078 
Q 3713 2572 3713 1747 
Q 3713 922 3314 415 
Q 2916 -91 2278 -91 
Q 1894 -91 1617 61 
Q 1341 213 1159 525 
L 1159 0 
L 581 0 
L 581 4863 
L 1159 4863 
L 1159 2969 
z
" transform="scale(0.015625)"/>
      <path id="DejaVuSans-63" d="M 3122 3366 
L 3122 2828 
Q 2878 2963 2633 3030 
Q 2388 3097 2138 3097 
Q 1578 3097 1268 2742 
Q 959 2388 959 1747 
Q 959 1106 1268 751 
Q 1578 397 2138 397 
Q 2388 397 2633 464 
Q 2878 531 3122 666 
L 3122 134 
Q 2881 22 2623 -34 
Q 2366 -91 2075 -91 
Q 1284 -91 818 406 
Q 353 903 353 1747 
Q 353 2603 823 3093 
Q 1294 3584 2113 3584 
Q 2378 3584 2631 3529 
Q 2884 3475 3122 3366 
z
" transform="scale(0.015625)"/>
      <path id="DejaVuSans-72" d="M 2631 2963 
Q 2534 3019 2420 3045 
Q 2306 3072 2169 3072 
Q 1681 3072 1420 2755 
Q 1159 2438 1159 1844 
L 1159 0 
L 581 0 
L 581 3500 
L 1159 3500 
L 1159 2956 
Q 1341 3275 1631 3429 
Q 1922 3584 2338 3584 
Q 2397 3584 2469 3576 
Q 2541 3569 2628 3553 
L 2631 2963 
z
" transform="scale(0.015625)"/>
      <path id="DejaVuSans-69" d="M 603 3500 
L 1178 3500 
L 1178 0 
L 603 0 
L 603 3500 
z
M 603 4863 
L 1178 4863 
L 1178 4134 
L 603 4134 
L 603 4863 
z
" transform="scale(0.015625)"/>
      <path id="DejaVuSans-20" transform="scale(0.015625)"/>
      <path id="DejaVuSans-68" d="M 3513 2113 
L 3513 0 
L 2938 0 
L 2938 2094 
Q 2938 2591 2744 2837 
Q 2550 3084 2163 3084 
Q 1697 3084 1428 2787 
Q 1159 2491 1159 1978 
L 1159 0 
L 581 0 
L 581 4863 
L 1159 4863 
L 1159 2956 
Q 1366 3272 1645 3428 
Q 1925 3584 2291 3584 
Q 2894 3584 3203 3211 
Q 3513 2838 3513 2113 
z
" transform="scale(0.015625)"/>
      <path id="DejaVuSans-6f" d="M 1959 3097 
Q 1497 3097 1228 2736 
Q 959 2375 959 1747 
Q 959 1119 1226 758 
Q 1494 397 1959 397 
Q 2419 397 2687 759 
Q 2956 1122 2956 1747 
Q 2956 2369 2687 2733 
Q 2419 3097 1959 3097 
z
M 1959 3584 
Q 2709 3584 3137 3096 
Q 3566 2609 3566 1747 
Q 3566 888 3137 398 
Q 2709 -91 1959 -91 
Q 1206 -91 779 398 
Q 353 888 353 1747 
Q 353 2609 779 3096 
Q 1206 3584 1959 3584 
z
" transform="scale(0.015625)"/>
      <path id="DejaVuSans-79" d="M 2059 -325 
Q 1816 -950 1584 -1140 
Q 1353 -1331 966 -1331 
L 506 -1331 
L 506 -850 
L 844 -850 
Q 1081 -850 1212 -737 
Q 1344 -625 1503 -206 
L 1606 56 
L 191 3500 
L 800 3500 
L 1894 763 
L 2988 3500 
L 3597 3500 
L 2059 -325 
z
" transform="scale(0.015625)"/>
     </defs>
     <use xlink:href="#DejaVuSans-67"/>
     <use xlink:href="#DejaVuSans-65" x="63.476562"/>
     <use xlink:href="#DejaVuSans-74" x="125"/>
     <use xlink:href="#DejaVuSans-5f" x="164.208984"/>
     <use xlink:href="#DejaVuSans-73" x="214.208984"/>
     <use xlink:href="#DejaVuSans-75" x="266.308594"/>
     <use xlink:href="#DejaVuSans-62" x="329.6875"/>
     <use xlink:href="#DejaVuSans-73" x="393.164062"/>
     <use xlink:href="#DejaVuSans-63" x="445.263672"/>
     <use xlink:href="#DejaVuSans-72" x="500.244141"/>
     <use xlink:href="#DejaVuSans-69" x="541.357422"/>
     <use xlink:href="#DejaVuSans-62" x="569.140625"/>
     <use xlink:href="#DejaVuSans-65" x="632.617188"/>
     <use xlink:href="#DejaVuSans-20" x="694.140625"/>
     <use xlink:href="#DejaVuSans-68" x="725.927734"/>
     <use xlink:href="#DejaVuSans-69" x="789.306641"/>
     <use xlink:href="#DejaVuSans-73" x="817.089844"/>
     <use xlink:href="#DejaVuSans-74" x="869.189453"/>
     <use xlink:href="#DejaVuSans-6f" x="908.398438"/>
     <use xlink:href="#DejaVuSans-72" x="969.580078"/>
     <use xlink:href="#DejaVuSans-79" x="1010.693359"/>
    </g>
   </g>
   <g id="legend_1">
    <g id="line2d_45">
     <path d="M 815.08 328.498438 
L 825.08 328.498438 
L 835.08 328.498438 
" style="fill: none; stroke: #1f77b4; stroke-width: 1.5; stroke-linecap: square"/>
    </g>
    <g id="text_23">
     <!-- star -->
     <g style="fill: #a9a9a9" transform="translate(843.08 331.998438) scale(0.1 -0.1)">
      <defs>
       <path id="DejaVuSans-61" d="M 2194 1759 
Q 1497 1759 1228 1600 
Q 959 1441 959 1056 
Q 959 750 1161 570 
Q 1363 391 1709 391 
Q 2188 391 2477 730 
Q 2766 1069 2766 1631 
L 2766 1759 
L 2194 1759 
z
M 3341 1997 
L 3341 0 
L 2766 0 
L 2766 531 
Q 2569 213 2275 61 
Q 1981 -91 1556 -91 
Q 1019 -91 701 211 
Q 384 513 384 1019 
Q 384 1609 779 1909 
Q 1175 2209 1959 2209 
L 2766 2209 
L 2766 2266 
Q 2766 2663 2505 2880 
Q 2244 3097 1772 3097 
Q 1472 3097 1187 3025 
Q 903 2953 641 2809 
L 641 3341 
Q 956 3463 1253 3523 
Q 1550 3584 1831 3584 
Q 2591 3584 2966 3190 
Q 3341 2797 3341 1997 
z
" transform="scale(0.015625)"/>
      </defs>
      <use xlink:href="#DejaVuSans-73"/>
      <use xlink:href="#DejaVuSans-74" x="52.099609"/>
      <use xlink:href="#DejaVuSans-61" x="91.308594"/>
      <use xlink:href="#DejaVuSans-72" x="152.587891"/>
     </g>
    </g>
    <g id="line2d_46">
     <path d="M 815.08 343.176562 
L 825.08 343.176562 
L 835.08 343.176562 
" style="fill: none; stroke: #ff7f0e; stroke-width: 1.5; stroke-linecap: square"/>
    </g>
    <g id="text_24">
     <!-- fork -->
     <g style="fill: #a9a9a9" transform="translate(843.08 346.676562) scale(0.1 -0.1)">
      <defs>
       <path id="DejaVuSans-66" d="M 2375 4863 
L 2375 4384 
L 1825 4384 
Q 1516 4384 1395 4259 
Q 1275 4134 1275 3809 
L 1275 3500 
L 2222 3500 
L 2222 3053 
L 1275 3053 
L 1275 0 
L 697 0 
L 697 3053 
L 147 3053 
L 147 3500 
L 697 3500 
L 697 3744 
Q 697 4328 969 4595 
Q 1241 4863 1831 4863 
L 2375 4863 
z
" transform="scale(0.015625)"/>
       <path id="DejaVuSans-6b" d="M 581 4863 
L 1159 4863 
L 1159 1991 
L 2875 3500 
L 3609 3500 
L 1753 1863 
L 3688 0 
L 2938 0 
L 1159 1709 
L 1159 0 
L 581 0 
L 581 4863 
z
" transform="scale(0.015625)"/>
      </defs>
      <use xlink:href="#DejaVuSans-66"/>
      <use xlink:href="#DejaVuSans-6f" x="35.205078"/>
      <use xlink:href="#DejaVuSans-72" x="96.386719"/>
      <use xlink:href="#DejaVuSans-6b" x="137.5"/>
     </g>
    </g>
   </g>
  </g>
 </g>
 <defs>
  <clipPath id="p2f9534ecf4">
   <rect x="108" y="43.2" width="669.6" height="277.2"/>
  </clipPath>
 </defs>
</svg>
