<?xml version="1.0" encoding="utf-8" standalone="no"?>
<!DOCTYPE svg PUBLIC "-//W3C//DTD SVG 1.1//EN"
  "http://www.w3.org/Graphics/SVG/1.1/DTD/svg11.dtd">
<svg xmlns:xlink="http://www.w3.org/1999/xlink" width="864pt" height="360pt" viewBox="0 0 864 360" xmlns="http://www.w3.org/2000/svg" version="1.1">
 <metadata>
  <rdf:RDF xmlns:dc="http://purl.org/dc/elements/1.1/" xmlns:cc="http://creativecommons.org/ns#" xmlns:rdf="http://www.w3.org/1999/02/22-rdf-syntax-ns#">
   <cc:Work>
    <dc:type rdf:resource="http://purl.org/dc/dcmitype/StillImage"/>
    <dc:date>2024-11-29T08:14:18.737465</dc:date>
    <dc:format>image/svg+xml</dc:format>
    <dc:creator>
     <cc:Agent>
      <dc:title>Matplotlib v3.9.2, https://matplotlib.org/</dc:title>
     </cc:Agent>
    </dc:creator>
   </cc:Work>
  </rdf:RDF>
 </metadata>
 <defs>
  <style type="text/css">*{stroke-linejoin: round; stroke-linecap: butt}</style>
 </defs>
 <g id="figure_1">
  <g id="patch_1">
   <path d="M 0 360 
L 864 360 
L 864 0 
L 0 0 
L 0 360 
z
" style="fill: none; opacity: 0"/>
  </g>
  <g id="axes_1">
   <g id="patch_2">
    <path d="M 108 320.4 
L 777.6 320.4 
L 777.6 43.2 
L 108 43.2 
L 108 320.4 
z
" style="fill: none; opacity: 0"/>
   </g>
   <g id="matplotlib.axis_1">
    <g id="xtick_1">
     <g id="line2d_1">
      <path d="M 157.832086 320.4 
L 157.832086 43.2 
" clip-path="url(#p3f634e8c67)" style="fill: none; stroke-dasharray: 5.12,1.28,0.8,1.28; stroke-dashoffset: 0; stroke: #b0b0b0; stroke-width: 0.8"/>
     </g>
     <g id="line2d_2">
      <defs>
       <path id="m378e028c26" d="M 0 0 
L 0 3.5 
" style="stroke: #a9a9a9; stroke-width: 0.8"/>
      </defs>
      <g>
       <use xlink:href="#m378e028c26" x="157.832086" y="320.4" style="fill: #a9a9a9; stroke: #a9a9a9; stroke-width: 0.8"/>
      </g>
     </g>
     <g id="text_1">
      <!-- 2021-09 -->
      <g style="fill: #a9a9a9" transform="translate(136.940679 334.998438) scale(0.1 -0.1)">
       <defs>
        <path id="DejaVuSans-32" d="M 1228 531 
L 3431 531 
L 3431 0 
L 469 0 
L 469 531 
Q 828 903 1448 1529 
Q 2069 2156 2228 2338 
Q 2531 2678 2651 2914 
Q 2772 3150 2772 3378 
Q 2772 3750 2511 3984 
Q 2250 4219 1831 4219 
Q 1534 4219 1204 4116 
Q 875 4013 500 3803 
L 500 4441 
Q 881 4594 1212 4672 
Q 1544 4750 1819 4750 
Q 2544 4750 2975 4387 
Q 3406 4025 3406 3419 
Q 3406 3131 3298 2873 
Q 3191 2616 2906 2266 
Q 2828 2175 2409 1742 
Q 1991 1309 1228 531 
z
" transform="scale(0.015625)"/>
        <path id="DejaVuSans-30" d="M 2034 4250 
Q 1547 4250 1301 3770 
Q 1056 3291 1056 2328 
Q 1056 1369 1301 889 
Q 1547 409 2034 409 
Q 2525 409 2770 889 
Q 3016 1369 3016 2328 
Q 3016 3291 2770 3770 
Q 2525 4250 2034 4250 
z
M 2034 4750 
Q 2819 4750 3233 4129 
Q 3647 3509 3647 2328 
Q 3647 1150 3233 529 
Q 2819 -91 2034 -91 
Q 1250 -91 836 529 
Q 422 1150 422 2328 
Q 422 3509 836 4129 
Q 1250 4750 2034 4750 
z
" transform="scale(0.015625)"/>
        <path id="DejaVuSans-31" d="M 794 531 
L 1825 531 
L 1825 4091 
L 703 3866 
L 703 4441 
L 1819 4666 
L 2450 4666 
L 2450 531 
L 3481 531 
L 3481 0 
L 794 0 
L 794 531 
z
" transform="scale(0.015625)"/>
        <path id="DejaVuSans-2d" d="M 313 2009 
L 1997 2009 
L 1997 1497 
L 313 1497 
L 313 2009 
z
" transform="scale(0.015625)"/>
        <path id="DejaVuSans-39" d="M 703 97 
L 703 672 
Q 941 559 1184 500 
Q 1428 441 1663 441 
Q 2288 441 2617 861 
Q 2947 1281 2994 2138 
Q 2813 1869 2534 1725 
Q 2256 1581 1919 1581 
Q 1219 1581 811 2004 
Q 403 2428 403 3163 
Q 403 3881 828 4315 
Q 1253 4750 1959 4750 
Q 2769 4750 3195 4129 
Q 3622 3509 3622 2328 
Q 3622 1225 3098 567 
Q 2575 -91 1691 -91 
Q 1453 -91 1209 -44 
Q 966 3 703 97 
z
M 1959 2075 
Q 2384 2075 2632 2365 
Q 2881 2656 2881 3163 
Q 2881 3666 2632 3958 
Q 2384 4250 1959 4250 
Q 1534 4250 1286 3958 
Q 1038 3666 1038 3163 
Q 1038 2656 1286 2365 
Q 1534 2075 1959 2075 
z
" transform="scale(0.015625)"/>
       </defs>
       <use xlink:href="#DejaVuSans-32"/>
       <use xlink:href="#DejaVuSans-30" x="63.623047"/>
       <use xlink:href="#DejaVuSans-32" x="127.246094"/>
       <use xlink:href="#DejaVuSans-31" x="190.869141"/>
       <use xlink:href="#DejaVuSans-2d" x="254.492188"/>
       <use xlink:href="#DejaVuSans-30" x="290.576172"/>
       <use xlink:href="#DejaVuSans-39" x="354.199219"/>
      </g>
     </g>
    </g>
    <g id="xtick_2">
     <g id="line2d_3">
      <path d="M 218.505882 320.4 
L 218.505882 43.2 
" clip-path="url(#p3f634e8c67)" style="fill: none; stroke-dasharray: 5.12,1.28,0.8,1.28; stroke-dashoffset: 0; stroke: #b0b0b0; stroke-width: 0.8"/>
     </g>
     <g id="line2d_4">
      <g>
       <use xlink:href="#m378e028c26" x="218.505882" y="320.4" style="fill: #a9a9a9; stroke: #a9a9a9; stroke-width: 0.8"/>
      </g>
     </g>
     <g id="text_2">
      <!-- 2022-01 -->
      <g style="fill: #a9a9a9" transform="translate(197.614476 334.998438) scale(0.1 -0.1)">
       <use xlink:href="#DejaVuSans-32"/>
       <use xlink:href="#DejaVuSans-30" x="63.623047"/>
       <use xlink:href="#DejaVuSans-32" x="127.246094"/>
       <use xlink:href="#DejaVuSans-32" x="190.869141"/>
       <use xlink:href="#DejaVuSans-2d" x="254.492188"/>
       <use xlink:href="#DejaVuSans-30" x="290.576172"/>
       <use xlink:href="#DejaVuSans-31" x="354.199219"/>
      </g>
     </g>
    </g>
    <g id="xtick_3">
     <g id="line2d_5">
      <path d="M 278.185027 320.4 
L 278.185027 43.2 
" clip-path="url(#p3f634e8c67)" style="fill: none; stroke-dasharray: 5.12,1.28,0.8,1.28; stroke-dashoffset: 0; stroke: #b0b0b0; stroke-width: 0.8"/>
     </g>
     <g id="line2d_6">
      <g>
       <use xlink:href="#m378e028c26" x="278.185027" y="320.4" style="fill: #a9a9a9; stroke: #a9a9a9; stroke-width: 0.8"/>
      </g>
     </g>
     <g id="text_3">
      <!-- 2022-05 -->
      <g style="fill: #a9a9a9" transform="translate(257.29362 334.998438) scale(0.1 -0.1)">
       <defs>
        <path id="DejaVuSans-35" d="M 691 4666 
L 3169 4666 
L 3169 4134 
L 1269 4134 
L 1269 2991 
Q 1406 3038 1543 3061 
Q 1681 3084 1819 3084 
Q 2600 3084 3056 2656 
Q 3513 2228 3513 1497 
Q 3513 744 3044 326 
Q 2575 -91 1722 -91 
Q 1428 -91 1123 -41 
Q 819 9 494 109 
L 494 744 
Q 775 591 1075 516 
Q 1375 441 1709 441 
Q 2250 441 2565 725 
Q 2881 1009 2881 1497 
Q 2881 1984 2565 2268 
Q 2250 2553 1709 2553 
Q 1456 2553 1204 2497 
Q 953 2441 691 2322 
L 691 4666 
z
" transform="scale(0.015625)"/>
       </defs>
       <use xlink:href="#DejaVuSans-32"/>
       <use xlink:href="#DejaVuSans-30" x="63.623047"/>
       <use xlink:href="#DejaVuSans-32" x="127.246094"/>
       <use xlink:href="#DejaVuSans-32" x="190.869141"/>
       <use xlink:href="#DejaVuSans-2d" x="254.492188"/>
       <use xlink:href="#DejaVuSans-30" x="290.576172"/>
       <use xlink:href="#DejaVuSans-35" x="354.199219"/>
      </g>
     </g>
    </g>
    <g id="xtick_4">
     <g id="line2d_7">
      <path d="M 339.35615 320.4 
L 339.35615 43.2 
" clip-path="url(#p3f634e8c67)" style="fill: none; stroke-dasharray: 5.12,1.28,0.8,1.28; stroke-dashoffset: 0; stroke: #b0b0b0; stroke-width: 0.8"/>
     </g>
     <g id="line2d_8">
      <g>
       <use xlink:href="#m378e028c26" x="339.35615" y="320.4" style="fill: #a9a9a9; stroke: #a9a9a9; stroke-width: 0.8"/>
      </g>
     </g>
     <g id="text_4">
      <!-- 2022-09 -->
      <g style="fill: #a9a9a9" transform="translate(318.464743 334.998438) scale(0.1 -0.1)">
       <use xlink:href="#DejaVuSans-32"/>
       <use xlink:href="#DejaVuSans-30" x="63.623047"/>
       <use xlink:href="#DejaVuSans-32" x="127.246094"/>
       <use xlink:href="#DejaVuSans-32" x="190.869141"/>
       <use xlink:href="#DejaVuSans-2d" x="254.492188"/>
       <use xlink:href="#DejaVuSans-30" x="290.576172"/>
       <use xlink:href="#DejaVuSans-39" x="354.199219"/>
      </g>
     </g>
    </g>
    <g id="xtick_5">
     <g id="line2d_9">
      <path d="M 400.029947 320.4 
L 400.029947 43.2 
" clip-path="url(#p3f634e8c67)" style="fill: none; stroke-dasharray: 5.12,1.28,0.8,1.28; stroke-dashoffset: 0; stroke: #b0b0b0; stroke-width: 0.8"/>
     </g>
     <g id="line2d_10">
      <g>
       <use xlink:href="#m378e028c26" x="400.029947" y="320.4" style="fill: #a9a9a9; stroke: #a9a9a9; stroke-width: 0.8"/>
      </g>
     </g>
     <g id="text_5">
      <!-- 2023-01 -->
      <g style="fill: #a9a9a9" transform="translate(379.13854 334.998438) scale(0.1 -0.1)">
       <defs>
        <path id="DejaVuSans-33" d="M 2597 2516 
Q 3050 2419 3304 2112 
Q 3559 1806 3559 1356 
Q 3559 666 3084 287 
Q 2609 -91 1734 -91 
Q 1441 -91 1130 -33 
Q 819 25 488 141 
L 488 750 
Q 750 597 1062 519 
Q 1375 441 1716 441 
Q 2309 441 2620 675 
Q 2931 909 2931 1356 
Q 2931 1769 2642 2001 
Q 2353 2234 1838 2234 
L 1294 2234 
L 1294 2753 
L 1863 2753 
Q 2328 2753 2575 2939 
Q 2822 3125 2822 3475 
Q 2822 3834 2567 4026 
Q 2313 4219 1838 4219 
Q 1578 4219 1281 4162 
Q 984 4106 628 3988 
L 628 4550 
Q 988 4650 1302 4700 
Q 1616 4750 1894 4750 
Q 2613 4750 3031 4423 
Q 3450 4097 3450 3541 
Q 3450 3153 3228 2886 
Q 3006 2619 2597 2516 
z
" transform="scale(0.015625)"/>
       </defs>
       <use xlink:href="#DejaVuSans-32"/>
       <use xlink:href="#DejaVuSans-30" x="63.623047"/>
       <use xlink:href="#DejaVuSans-32" x="127.246094"/>
       <use xlink:href="#DejaVuSans-33" x="190.869141"/>
       <use xlink:href="#DejaVuSans-2d" x="254.492188"/>
       <use xlink:href="#DejaVuSans-30" x="290.576172"/>
       <use xlink:href="#DejaVuSans-31" x="354.199219"/>
      </g>
     </g>
    </g>
    <g id="xtick_6">
     <g id="line2d_11">
      <path d="M 459.709091 320.4 
L 459.709091 43.2 
" clip-path="url(#p3f634e8c67)" style="fill: none; stroke-dasharray: 5.12,1.28,0.8,1.28; stroke-dashoffset: 0; stroke: #b0b0b0; stroke-width: 0.8"/>
     </g>
     <g id="line2d_12">
      <g>
       <use xlink:href="#m378e028c26" x="459.709091" y="320.4" style="fill: #a9a9a9; stroke: #a9a9a9; stroke-width: 0.8"/>
      </g>
     </g>
     <g id="text_6">
      <!-- 2023-05 -->
      <g style="fill: #a9a9a9" transform="translate(438.817685 334.998438) scale(0.1 -0.1)">
       <use xlink:href="#DejaVuSans-32"/>
       <use xlink:href="#DejaVuSans-30" x="63.623047"/>
       <use xlink:href="#DejaVuSans-32" x="127.246094"/>
       <use xlink:href="#DejaVuSans-33" x="190.869141"/>
       <use xlink:href="#DejaVuSans-2d" x="254.492188"/>
       <use xlink:href="#DejaVuSans-30" x="290.576172"/>
       <use xlink:href="#DejaVuSans-35" x="354.199219"/>
      </g>
     </g>
    </g>
    <g id="xtick_7">
     <g id="line2d_13">
      <path d="M 520.880214 320.4 
L 520.880214 43.2 
" clip-path="url(#p3f634e8c67)" style="fill: none; stroke-dasharray: 5.12,1.28,0.8,1.28; stroke-dashoffset: 0; stroke: #b0b0b0; stroke-width: 0.8"/>
     </g>
     <g id="line2d_14">
      <g>
       <use xlink:href="#m378e028c26" x="520.880214" y="320.4" style="fill: #a9a9a9; stroke: #a9a9a9; stroke-width: 0.8"/>
      </g>
     </g>
     <g id="text_7">
      <!-- 2023-09 -->
      <g style="fill: #a9a9a9" transform="translate(499.988808 334.998438) scale(0.1 -0.1)">
       <use xlink:href="#DejaVuSans-32"/>
       <use xlink:href="#DejaVuSans-30" x="63.623047"/>
       <use xlink:href="#DejaVuSans-32" x="127.246094"/>
       <use xlink:href="#DejaVuSans-33" x="190.869141"/>
       <use xlink:href="#DejaVuSans-2d" x="254.492188"/>
       <use xlink:href="#DejaVuSans-30" x="290.576172"/>
       <use xlink:href="#DejaVuSans-39" x="354.199219"/>
      </g>
     </g>
    </g>
    <g id="xtick_8">
     <g id="line2d_15">
      <path d="M 581.554011 320.4 
L 581.554011 43.2 
" clip-path="url(#p3f634e8c67)" style="fill: none; stroke-dasharray: 5.12,1.28,0.8,1.28; stroke-dashoffset: 0; stroke: #b0b0b0; stroke-width: 0.8"/>
     </g>
     <g id="line2d_16">
      <g>
       <use xlink:href="#m378e028c26" x="581.554011" y="320.4" style="fill: #a9a9a9; stroke: #a9a9a9; stroke-width: 0.8"/>
      </g>
     </g>
     <g id="text_8">
      <!-- 2024-01 -->
      <g style="fill: #a9a9a9" transform="translate(560.662604 334.998438) scale(0.1 -0.1)">
       <defs>
        <path id="DejaVuSans-34" d="M 2419 4116 
L 825 1625 
L 2419 1625 
L 2419 4116 
z
M 2253 4666 
L 3047 4666 
L 3047 1625 
L 3713 1625 
L 3713 1100 
L 3047 1100 
L 3047 0 
L 2419 0 
L 2419 1100 
L 313 1100 
L 313 1709 
L 2253 4666 
z
" transform="scale(0.015625)"/>
       </defs>
       <use xlink:href="#DejaVuSans-32"/>
       <use xlink:href="#DejaVuSans-30" x="63.623047"/>
       <use xlink:href="#DejaVuSans-32" x="127.246094"/>
       <use xlink:href="#DejaVuSans-34" x="190.869141"/>
       <use xlink:href="#DejaVuSans-2d" x="254.492188"/>
       <use xlink:href="#DejaVuSans-30" x="290.576172"/>
       <use xlink:href="#DejaVuSans-31" x="354.199219"/>
      </g>
     </g>
    </g>
    <g id="xtick_9">
     <g id="line2d_17">
      <path d="M 641.730481 320.4 
L 641.730481 43.2 
" clip-path="url(#p3f634e8c67)" style="fill: none; stroke-dasharray: 5.12,1.28,0.8,1.28; stroke-dashoffset: 0; stroke: #b0b0b0; stroke-width: 0.8"/>
     </g>
     <g id="line2d_18">
      <g>
       <use xlink:href="#m378e028c26" x="641.730481" y="320.4" style="fill: #a9a9a9; stroke: #a9a9a9; stroke-width: 0.8"/>
      </g>
     </g>
     <g id="text_9">
      <!-- 2024-05 -->
      <g style="fill: #a9a9a9" transform="translate(620.839075 334.998438) scale(0.1 -0.1)">
       <use xlink:href="#DejaVuSans-32"/>
       <use xlink:href="#DejaVuSans-30" x="63.623047"/>
       <use xlink:href="#DejaVuSans-32" x="127.246094"/>
       <use xlink:href="#DejaVuSans-34" x="190.869141"/>
       <use xlink:href="#DejaVuSans-2d" x="254.492188"/>
       <use xlink:href="#DejaVuSans-30" x="290.576172"/>
       <use xlink:href="#DejaVuSans-35" x="354.199219"/>
      </g>
     </g>
    </g>
    <g id="xtick_10">
     <g id="line2d_19">
      <path d="M 702.901604 320.4 
L 702.901604 43.2 
" clip-path="url(#p3f634e8c67)" style="fill: none; stroke-dasharray: 5.12,1.28,0.8,1.28; stroke-dashoffset: 0; stroke: #b0b0b0; stroke-width: 0.8"/>
     </g>
     <g id="line2d_20">
      <g>
       <use xlink:href="#m378e028c26" x="702.901604" y="320.4" style="fill: #a9a9a9; stroke: #a9a9a9; stroke-width: 0.8"/>
      </g>
     </g>
     <g id="text_10">
      <!-- 2024-09 -->
      <g style="fill: #a9a9a9" transform="translate(682.010198 334.998438) scale(0.1 -0.1)">
       <use xlink:href="#DejaVuSans-32"/>
       <use xlink:href="#DejaVuSans-30" x="63.623047"/>
       <use xlink:href="#DejaVuSans-32" x="127.246094"/>
       <use xlink:href="#DejaVuSans-34" x="190.869141"/>
       <use xlink:href="#DejaVuSans-2d" x="254.492188"/>
       <use xlink:href="#DejaVuSans-30" x="290.576172"/>
       <use xlink:href="#DejaVuSans-39" x="354.199219"/>
      </g>
     </g>
    </g>
    <g id="xtick_11">
     <g id="line2d_21">
      <path d="M 763.575401 320.4 
L 763.575401 43.2 
" clip-path="url(#p3f634e8c67)" style="fill: none; stroke-dasharray: 5.12,1.28,0.8,1.28; stroke-dashoffset: 0; stroke: #b0b0b0; stroke-width: 0.8"/>
     </g>
     <g id="line2d_22">
      <g>
       <use xlink:href="#m378e028c26" x="763.575401" y="320.4" style="fill: #a9a9a9; stroke: #a9a9a9; stroke-width: 0.8"/>
      </g>
     </g>
     <g id="text_11">
      <!-- 2025-01 -->
      <g style="fill: #a9a9a9" transform="translate(742.683995 334.998438) scale(0.1 -0.1)">
       <use xlink:href="#DejaVuSans-32"/>
       <use xlink:href="#DejaVuSans-30" x="63.623047"/>
       <use xlink:href="#DejaVuSans-32" x="127.246094"/>
       <use xlink:href="#DejaVuSans-35" x="190.869141"/>
       <use xlink:href="#DejaVuSans-2d" x="254.492188"/>
       <use xlink:href="#DejaVuSans-30" x="290.576172"/>
       <use xlink:href="#DejaVuSans-31" x="354.199219"/>
      </g>
     </g>
    </g>
   </g>
   <g id="matplotlib.axis_2">
    <g id="ytick_1">
     <g id="line2d_23">
      <path d="M 108 307.835903 
L 777.6 307.835903 
" clip-path="url(#p3f634e8c67)" style="fill: none; stroke-dasharray: 5.12,1.28,0.8,1.28; stroke-dashoffset: 0; stroke: #b0b0b0; stroke-width: 0.8"/>
     </g>
     <g id="line2d_24">
      <defs>
       <path id="ma6e2baa43b" d="M 0 0 
L -3.5 0 
" style="stroke: #a9a9a9; stroke-width: 0.8"/>
      </defs>
      <g>
       <use xlink:href="#ma6e2baa43b" x="108" y="307.835903" style="fill: #a9a9a9; stroke: #a9a9a9; stroke-width: 0.8"/>
      </g>
     </g>
     <g id="text_12">
      <!-- 0 -->
      <g style="fill: #a9a9a9" transform="translate(94.6375 311.635121) scale(0.1 -0.1)">
       <use xlink:href="#DejaVuSans-30"/>
      </g>
     </g>
    </g>
    <g id="ytick_2">
     <g id="line2d_25">
      <path d="M 108 279.113862 
L 777.6 279.113862 
" clip-path="url(#p3f634e8c67)" style="fill: none; stroke-dasharray: 5.12,1.28,0.8,1.28; stroke-dashoffset: 0; stroke: #b0b0b0; stroke-width: 0.8"/>
     </g>
     <g id="line2d_26">
      <g>
       <use xlink:href="#ma6e2baa43b" x="108" y="279.113862" style="fill: #a9a9a9; stroke: #a9a9a9; stroke-width: 0.8"/>
      </g>
     </g>
     <g id="text_13">
      <!-- 800 -->
      <g style="fill: #a9a9a9" transform="translate(81.9125 282.913081) scale(0.1 -0.1)">
       <defs>
        <path id="DejaVuSans-38" d="M 2034 2216 
Q 1584 2216 1326 1975 
Q 1069 1734 1069 1313 
Q 1069 891 1326 650 
Q 1584 409 2034 409 
Q 2484 409 2743 651 
Q 3003 894 3003 1313 
Q 3003 1734 2745 1975 
Q 2488 2216 2034 2216 
z
M 1403 2484 
Q 997 2584 770 2862 
Q 544 3141 544 3541 
Q 544 4100 942 4425 
Q 1341 4750 2034 4750 
Q 2731 4750 3128 4425 
Q 3525 4100 3525 3541 
Q 3525 3141 3298 2862 
Q 3072 2584 2669 2484 
Q 3125 2378 3379 2068 
Q 3634 1759 3634 1313 
Q 3634 634 3220 271 
Q 2806 -91 2034 -91 
Q 1263 -91 848 271 
Q 434 634 434 1313 
Q 434 1759 690 2068 
Q 947 2378 1403 2484 
z
M 1172 3481 
Q 1172 3119 1398 2916 
Q 1625 2713 2034 2713 
Q 2441 2713 2670 2916 
Q 2900 3119 2900 3481 
Q 2900 3844 2670 4047 
Q 2441 4250 2034 4250 
Q 1625 4250 1398 4047 
Q 1172 3844 1172 3481 
z
" transform="scale(0.015625)"/>
       </defs>
       <use xlink:href="#DejaVuSans-38"/>
       <use xlink:href="#DejaVuSans-30" x="63.623047"/>
       <use xlink:href="#DejaVuSans-30" x="127.246094"/>
      </g>
     </g>
    </g>
    <g id="ytick_3">
     <g id="line2d_27">
      <path d="M 108 250.391822 
L 777.6 250.391822 
" clip-path="url(#p3f634e8c67)" style="fill: none; stroke-dasharray: 5.12,1.28,0.8,1.28; stroke-dashoffset: 0; stroke: #b0b0b0; stroke-width: 0.8"/>
     </g>
     <g id="line2d_28">
      <g>
       <use xlink:href="#ma6e2baa43b" x="108" y="250.391822" style="fill: #a9a9a9; stroke: #a9a9a9; stroke-width: 0.8"/>
      </g>
     </g>
     <g id="text_14">
      <!-- 1600 -->
      <g style="fill: #a9a9a9" transform="translate(75.55 254.191041) scale(0.1 -0.1)">
       <defs>
        <path id="DejaVuSans-36" d="M 2113 2584 
Q 1688 2584 1439 2293 
Q 1191 2003 1191 1497 
Q 1191 994 1439 701 
Q 1688 409 2113 409 
Q 2538 409 2786 701 
Q 3034 994 3034 1497 
Q 3034 2003 2786 2293 
Q 2538 2584 2113 2584 
z
M 3366 4563 
L 3366 3988 
Q 3128 4100 2886 4159 
Q 2644 4219 2406 4219 
Q 1781 4219 1451 3797 
Q 1122 3375 1075 2522 
Q 1259 2794 1537 2939 
Q 1816 3084 2150 3084 
Q 2853 3084 3261 2657 
Q 3669 2231 3669 1497 
Q 3669 778 3244 343 
Q 2819 -91 2113 -91 
Q 1303 -91 875 529 
Q 447 1150 447 2328 
Q 447 3434 972 4092 
Q 1497 4750 2381 4750 
Q 2619 4750 2861 4703 
Q 3103 4656 3366 4563 
z
" transform="scale(0.015625)"/>
       </defs>
       <use xlink:href="#DejaVuSans-31"/>
       <use xlink:href="#DejaVuSans-36" x="63.623047"/>
       <use xlink:href="#DejaVuSans-30" x="127.246094"/>
       <use xlink:href="#DejaVuSans-30" x="190.869141"/>
      </g>
     </g>
    </g>
    <g id="ytick_4">
     <g id="line2d_29">
      <path d="M 108 221.669782 
L 777.6 221.669782 
" clip-path="url(#p3f634e8c67)" style="fill: none; stroke-dasharray: 5.12,1.28,0.8,1.28; stroke-dashoffset: 0; stroke: #b0b0b0; stroke-width: 0.8"/>
     </g>
     <g id="line2d_30">
      <g>
       <use xlink:href="#ma6e2baa43b" x="108" y="221.669782" style="fill: #a9a9a9; stroke: #a9a9a9; stroke-width: 0.8"/>
      </g>
     </g>
     <g id="text_15">
      <!-- 2400 -->
      <g style="fill: #a9a9a9" transform="translate(75.55 225.469001) scale(0.1 -0.1)">
       <use xlink:href="#DejaVuSans-32"/>
       <use xlink:href="#DejaVuSans-34" x="63.623047"/>
       <use xlink:href="#DejaVuSans-30" x="127.246094"/>
       <use xlink:href="#DejaVuSans-30" x="190.869141"/>
      </g>
     </g>
    </g>
    <g id="ytick_5">
     <g id="line2d_31">
      <path d="M 108 192.947742 
L 777.6 192.947742 
" clip-path="url(#p3f634e8c67)" style="fill: none; stroke-dasharray: 5.12,1.28,0.8,1.28; stroke-dashoffset: 0; stroke: #b0b0b0; stroke-width: 0.8"/>
     </g>
     <g id="line2d_32">
      <g>
       <use xlink:href="#ma6e2baa43b" x="108" y="192.947742" style="fill: #a9a9a9; stroke: #a9a9a9; stroke-width: 0.8"/>
      </g>
     </g>
     <g id="text_16">
      <!-- 3200 -->
      <g style="fill: #a9a9a9" transform="translate(75.55 196.746961) scale(0.1 -0.1)">
       <use xlink:href="#DejaVuSans-33"/>
       <use xlink:href="#DejaVuSans-32" x="63.623047"/>
       <use xlink:href="#DejaVuSans-30" x="127.246094"/>
       <use xlink:href="#DejaVuSans-30" x="190.869141"/>
      </g>
     </g>
    </g>
    <g id="ytick_6">
     <g id="line2d_33">
      <path d="M 108 164.225702 
L 777.6 164.225702 
" clip-path="url(#p3f634e8c67)" style="fill: none; stroke-dasharray: 5.12,1.28,0.8,1.28; stroke-dashoffset: 0; stroke: #b0b0b0; stroke-width: 0.8"/>
     </g>
     <g id="line2d_34">
      <g>
       <use xlink:href="#ma6e2baa43b" x="108" y="164.225702" style="fill: #a9a9a9; stroke: #a9a9a9; stroke-width: 0.8"/>
      </g>
     </g>
     <g id="text_17">
      <!-- 4000 -->
      <g style="fill: #a9a9a9" transform="translate(75.55 168.02492) scale(0.1 -0.1)">
       <use xlink:href="#DejaVuSans-34"/>
       <use xlink:href="#DejaVuSans-30" x="63.623047"/>
       <use xlink:href="#DejaVuSans-30" x="127.246094"/>
       <use xlink:href="#DejaVuSans-30" x="190.869141"/>
      </g>
     </g>
    </g>
    <g id="ytick_7">
     <g id="line2d_35">
      <path d="M 108 135.503661 
L 777.6 135.503661 
" clip-path="url(#p3f634e8c67)" style="fill: none; stroke-dasharray: 5.12,1.28,0.8,1.28; stroke-dashoffset: 0; stroke: #b0b0b0; stroke-width: 0.8"/>
     </g>
     <g id="line2d_36">
      <g>
       <use xlink:href="#ma6e2baa43b" x="108" y="135.503661" style="fill: #a9a9a9; stroke: #a9a9a9; stroke-width: 0.8"/>
      </g>
     </g>
     <g id="text_18">
      <!-- 4800 -->
      <g style="fill: #a9a9a9" transform="translate(75.55 139.30288) scale(0.1 -0.1)">
       <use xlink:href="#DejaVuSans-34"/>
       <use xlink:href="#DejaVuSans-38" x="63.623047"/>
       <use xlink:href="#DejaVuSans-30" x="127.246094"/>
       <use xlink:href="#DejaVuSans-30" x="190.869141"/>
      </g>
     </g>
    </g>
    <g id="ytick_8">
     <g id="line2d_37">
      <path d="M 108 106.781621 
L 777.6 106.781621 
" clip-path="url(#p3f634e8c67)" style="fill: none; stroke-dasharray: 5.12,1.28,0.8,1.28; stroke-dashoffset: 0; stroke: #b0b0b0; stroke-width: 0.8"/>
     </g>
     <g id="line2d_38">
      <g>
       <use xlink:href="#ma6e2baa43b" x="108" y="106.781621" style="fill: #a9a9a9; stroke: #a9a9a9; stroke-width: 0.8"/>
      </g>
     </g>
     <g id="text_19">
      <!-- 5600 -->
      <g style="fill: #a9a9a9" transform="translate(75.55 110.58084) scale(0.1 -0.1)">
       <use xlink:href="#DejaVuSans-35"/>
       <use xlink:href="#DejaVuSans-36" x="63.623047"/>
       <use xlink:href="#DejaVuSans-30" x="127.246094"/>
       <use xlink:href="#DejaVuSans-30" x="190.869141"/>
      </g>
     </g>
    </g>
    <g id="ytick_9">
     <g id="line2d_39">
      <path d="M 108 78.059581 
L 777.6 78.059581 
" clip-path="url(#p3f634e8c67)" style="fill: none; stroke-dasharray: 5.12,1.28,0.8,1.28; stroke-dashoffset: 0; stroke: #b0b0b0; stroke-width: 0.8"/>
     </g>
     <g id="line2d_40">
      <g>
       <use xlink:href="#ma6e2baa43b" x="108" y="78.059581" style="fill: #a9a9a9; stroke: #a9a9a9; stroke-width: 0.8"/>
      </g>
     </g>
     <g id="text_20">
      <!-- 6400 -->
      <g style="fill: #a9a9a9" transform="translate(75.55 81.8588) scale(0.1 -0.1)">
       <use xlink:href="#DejaVuSans-36"/>
       <use xlink:href="#DejaVuSans-34" x="63.623047"/>
       <use xlink:href="#DejaVuSans-30" x="127.246094"/>
       <use xlink:href="#DejaVuSans-30" x="190.869141"/>
      </g>
     </g>
    </g>
    <g id="ytick_10">
     <g id="line2d_41">
      <path d="M 108 49.337541 
L 777.6 49.337541 
" clip-path="url(#p3f634e8c67)" style="fill: none; stroke-dasharray: 5.12,1.28,0.8,1.28; stroke-dashoffset: 0; stroke: #b0b0b0; stroke-width: 0.8"/>
     </g>
     <g id="line2d_42">
      <g>
       <use xlink:href="#ma6e2baa43b" x="108" y="49.337541" style="fill: #a9a9a9; stroke: #a9a9a9; stroke-width: 0.8"/>
      </g>
     </g>
     <g id="text_21">
      <!-- 7200 -->
      <g style="fill: #a9a9a9" transform="translate(75.55 53.13676) scale(0.1 -0.1)">
       <defs>
        <path id="DejaVuSans-37" d="M 525 4666 
L 3525 4666 
L 3525 4397 
L 1831 0 
L 1172 0 
L 2766 4134 
L 525 4134 
L 525 4666 
z
" transform="scale(0.015625)"/>
       </defs>
       <use xlink:href="#DejaVuSans-37"/>
       <use xlink:href="#DejaVuSans-32" x="63.623047"/>
       <use xlink:href="#DejaVuSans-30" x="127.246094"/>
       <use xlink:href="#DejaVuSans-30" x="190.869141"/>
      </g>
     </g>
    </g>
   </g>
   <g id="line2d_43">
    <path d="M 138.436364 307.728195 
L 141.420321 307.476877 
L 141.917647 307.261462 
L 143.906952 307.010144 
L 145.896257 306.615216 
L 146.890909 306.471606 
L 149.37754 306.25619 
L 150.372193 305.861262 
L 150.869519 305.215016 
L 151.366845 304.855991 
L 151.864171 303.743012 
L 152.361497 303.671207 
L 152.858824 303.276279 
L 153.853476 302.773643 
L 155.842781 301.193931 
L 157.832086 300.224562 
L 159.324064 299.542413 
L 159.82139 298.752557 
L 160.816043 298.034506 
L 161.313369 297.819091 
L 166.286631 297.10104 
L 166.783957 296.885625 
L 170.265241 296.598404 
L 172.254545 296.131671 
L 176.233155 295.593133 
L 176.730481 295.341815 
L 177.227807 295.27001 
L 178.22246 294.946887 
L 181.703743 294.372446 
L 182.698396 294.085226 
L 187.174332 293.331272 
L 188.168984 293.115857 
L 189.163636 293.079954 
L 191.152941 292.613221 
L 191.650267 291.931073 
L 193.142246 291.356632 
L 194.634225 290.961704 
L 195.131551 290.710386 
L 196.126203 290.530873 
L 198.115508 289.956433 
L 199.11016 289.884627 
L 200.104813 289.63331 
L 202.094118 289.130674 
L 202.591444 289.094771 
L 203.586096 288.628038 
L 204.083422 288.556233 
L 204.580749 288.304915 
L 210.051337 287.407351 
L 212.040642 286.832911 
L 212.537968 286.509788 
L 215.024599 285.684029 
L 216.019251 285.001881 
L 217.51123 284.71466 
L 230.441711 281.088503 
L 230.939037 281.088503 
L 231.436364 280.873087 
L 232.431016 280.76538 
L 232.928342 280.585867 
L 234.917647 280.478159 
L 235.912299 280.298647 
L 236.906952 279.796011 
L 238.39893 279.257473 
L 238.896257 278.93435 
L 239.890909 278.503519 
L 240.388235 278.252201 
L 241.382888 277.929078 
L 241.880214 277.785468 
L 242.874866 277.175125 
L 243.372193 276.636586 
L 244.366845 275.128679 
L 244.864171 274.985069 
L 245.361497 274.985069 
L 246.853476 274.123408 
L 247.350802 273.87209 
L 247.848128 273.764382 
L 248.345455 273.297649 
L 249.340107 272.902721 
L 250.334759 272.435988 
L 250.832086 271.825645 
L 251.329412 271.035789 
L 251.826738 270.712666 
L 252.324064 269.851004 
L 252.82139 269.312466 
L 255.805348 267.732754 
L 256.8 266.942898 
L 257.297326 266.619775 
L 257.794652 265.865821 
L 258.291979 264.752842 
L 258.789305 263.998889 
L 259.286631 263.603961 
L 259.783957 263.388545 
L 263.265241 260.444536 
L 264.259893 259.259752 
L 265.254545 258.541701 
L 267.741176 257.033794 
L 268.735829 256.495256 
L 270.725134 255.454082 
L 273.211765 253.228124 
L 274.206417 252.833196 
L 275.20107 252.151047 
L 275.698396 251.863827 
L 276.195722 251.792022 
L 277.687701 250.966263 
L 278.185027 250.427725 
L 280.671658 249.09933 
L 281.168984 248.919818 
L 282.660963 247.914546 
L 290.120856 245.29366 
L 291.115508 244.396096 
L 292.11016 243.929363 
L 293.104813 243.390825 
L 293.602139 243.103605 
L 294.596791 242.816384 
L 295.094118 242.493261 
L 295.591444 242.349651 
L 297.083422 241.380282 
L 299.570053 240.805841 
L 301.062032 239.94418 
L 302.554011 239.621057 
L 303.051337 239.477447 
L 304.543316 238.364468 
L 306.53262 237.82593 
L 307.029947 237.431002 
L 310.013904 236.42573 
L 311.008556 236.246217 
L 312.003209 235.851289 
L 315.484492 234.5947 
L 316.479144 234.45109 
L 317.971123 233.948454 
L 320.457754 232.76367 
L 322.447059 231.686594 
L 326.425668 230.070979 
L 326.922995 229.999174 
L 327.917647 229.38883 
L 328.414973 229.317025 
L 330.404278 228.491267 
L 332.393583 228.204046 
L 333.388235 227.70141 
L 333.885561 227.27058 
L 334.382888 226.373016 
L 336.372193 225.834478 
L 337.864171 225.080524 
L 338.361497 224.972817 
L 342.340107 223.069981 
L 343.832086 222.782761 
L 344.826738 222.280125 
L 345.324064 222.06471 
L 345.82139 221.992905 
L 347.810695 221.095341 
L 349.302674 220.161875 
L 350.794652 219.874655 
L 353.281283 219.264311 
L 353.77861 218.869383 
L 355.270588 218.330845 
L 357.259893 217.540989 
L 357.757219 217.181963 
L 358.254545 217.00245 
L 359.249198 216.463912 
L 361.735829 215.638154 
L 363.227807 214.453369 
L 363.725134 214.345662 
L 364.719786 213.555806 
L 365.217112 213.484001 
L 365.714439 212.694144 
L 366.211765 212.478729 
L 366.709091 212.083801 
L 367.206417 212.011996 
L 368.20107 211.401653 
L 369.195722 211.07853 
L 369.693048 210.719504 
L 370.190374 210.539991 
L 371.682353 209.498817 
L 373.671658 208.457644 
L 374.168984 208.385838 
L 375.660963 207.631885 
L 376.158289 206.806126 
L 377.152941 206.088075 
L 377.650267 205.980368 
L 378.64492 205.370024 
L 379.142246 205.262317 
L 380.136898 204.759681 
L 382.126203 203.790312 
L 382.623529 203.431287 
L 383.618182 202.461918 
L 384.612834 201.851574 
L 385.11016 201.528451 
L 385.607487 200.989913 
L 387.596791 199.625616 
L 388.094118 199.051175 
L 388.591444 198.656247 
L 389.586096 198.297222 
L 390.580749 197.615073 
L 392.072727 196.86112 
L 392.570053 196.789315 
L 394.062032 195.999459 
L 395.056684 195.389115 
L 400.029947 193.593988 
L 400.527273 193.19906 
L 402.516578 192.445106 
L 403.013904 192.301496 
L 403.51123 191.906568 
L 405.997861 190.542271 
L 406.992513 188.567631 
L 407.987166 187.418749 
L 409.479144 186.664796 
L 410.473797 186.269868 
L 410.971123 186.198062 
L 411.468449 185.910842 
L 413.95508 185.120986 
L 414.452406 184.905571 
L 415.447059 184.223422 
L 416.939037 183.577176 
L 417.93369 183.038638 
L 418.431016 182.679612 
L 418.928342 182.464197 
L 419.425668 182.105172 
L 419.922995 181.566633 
L 420.917647 181.028095 
L 423.404278 179.699701 
L 426.388235 178.227696 
L 427.880214 177.796866 
L 429.372193 177.222425 
L 429.869519 176.863399 
L 430.864171 176.576179 
L 431.858824 176.181251 
L 432.35615 175.786323 
L 434.345455 175.104174 
L 435.340107 174.386123 
L 436.334759 173.955293 
L 437.329412 173.165437 
L 438.324064 172.806411 
L 438.82139 172.375581 
L 439.318717 172.303775 
L 440.313369 171.549822 
L 441.308021 171.047186 
L 441.805348 170.831771 
L 442.302674 170.329135 
L 445.783957 168.964838 
L 446.77861 168.534008 
L 448.270588 168.067275 
L 449.265241 167.923664 
L 449.762567 167.708249 
L 450.259893 167.636444 
L 451.254545 167.205613 
L 451.751872 167.169711 
L 453.741176 166.415757 
L 455.233155 165.374583 
L 455.730481 165.195071 
L 456.725134 164.656532 
L 457.22246 164.512922 
L 460.206417 162.861405 
L 460.703743 162.753697 
L 462.195722 161.892036 
L 463.687701 161.3894 
L 464.682353 161.066277 
L 466.671658 160.420031 
L 467.66631 160.096908 
L 469.655615 159.70198 
L 470.152941 159.486565 
L 470.650267 159.41476 
L 471.64492 158.983929 
L 472.142246 158.912124 
L 472.639572 158.660806 
L 473.634225 158.481294 
L 475.126203 157.942755 
L 476.120856 157.835048 
L 477.612834 157.511925 
L 480.099465 157.081094 
L 493.029947 153.347229 
L 493.527273 152.844593 
L 494.521925 152.449665 
L 497.505882 151.372589 
L 498.003209 151.049466 
L 498.500535 150.941758 
L 498.997861 150.654538 
L 500.48984 150.223707 
L 501.484492 149.972389 
L 501.981818 149.649266 
L 502.479144 149.541559 
L 502.976471 149.110728 
L 504.468449 148.823508 
L 505.463102 148.356774 
L 505.960428 147.782334 
L 507.949733 147.315601 
L 511.431016 146.59755 
L 511.928342 146.59755 
L 512.425668 146.382134 
L 514.414973 146.023109 
L 514.912299 145.807693 
L 516.901604 145.448668 
L 517.896257 145.017837 
L 518.890909 144.838325 
L 521.37754 144.227981 
L 523.366845 143.617638 
L 523.864171 143.50993 
L 524.361497 143.258612 
L 525.35615 143.007294 
L 525.853476 142.720074 
L 527.345455 142.217438 
L 527.842781 141.894315 
L 528.837433 141.607095 
L 529.832086 141.283972 
L 530.826738 140.889044 
L 532.318717 140.242798 
L 534.308021 139.99148 
L 538.286631 138.591281 
L 538.783957 138.232255 
L 539.281283 138.124548 
L 539.77861 137.87323 
L 540.275936 137.837327 
L 545.746524 135.934492 
L 548.233155 135.288246 
L 549.227807 134.821513 
L 550.719786 134.49839 
L 551.217112 134.103462 
L 551.714439 133.852144 
L 552.211765 133.241801 
L 552.709091 132.882775 
L 553.703743 132.595555 
L 554.20107 132.200627 
L 557.185027 131.087648 
L 557.682353 130.764525 
L 558.677005 130.477304 
L 559.174332 130.154182 
L 561.660963 129.364325 
L 563.152941 128.502664 
L 563.650267 128.394957 
L 566.136898 127.066562 
L 567.628877 126.420316 
L 568.126203 126.061291 
L 569.120856 125.738168 
L 570.115508 125.163727 
L 570.612834 124.984214 
L 571.11016 124.625189 
L 577.575401 122.363328 
L 578.072727 122.25562 
L 578.570053 121.932498 
L 580.559358 121.537569 
L 581.554011 121.142641 
L 582.051337 120.855421 
L 582.548663 120.711811 
L 584.537968 119.670637 
L 585.035294 119.598832 
L 586.527273 118.773073 
L 588.019251 118.270437 
L 591.500535 116.870238 
L 591.997861 116.726628 
L 592.495187 116.403505 
L 593.48984 116.295797 
L 593.987166 115.972674 
L 594.981818 115.793161 
L 595.976471 115.326428 
L 596.473797 115.111013 
L 596.971123 115.039208 
L 599.457754 114.069839 
L 600.949733 113.674911 
L 601.944385 113.423593 
L 603.436364 112.992763 
L 604.431016 112.597834 
L 606.420321 111.520758 
L 607.414973 111.12583 
L 607.912299 110.802707 
L 608.906952 110.587292 
L 609.404278 110.300071 
L 609.901604 110.192364 
L 611.393583 109.366605 
L 612.388235 108.971677 
L 614.37754 108.217723 
L 616.864171 107.391965 
L 617.858824 106.889329 
L 620.345455 106.06357 
L 623.329412 104.878786 
L 625.318717 103.981222 
L 630.291979 102.078387 
L 630.789305 101.755264 
L 632.77861 101.073116 
L 633.275936 101.073116 
L 634.270588 100.642285 
L 635.265241 99.744721 
L 635.762567 99.313891 
L 637.254545 98.59584 
L 637.751872 98.488132 
L 638.249198 98.236814 
L 638.746524 98.165009 
L 639.24385 97.805984 
L 639.741176 97.698276 
L 640.735829 97.087933 
L 642.227807 96.333979 
L 643.22246 95.939051 
L 643.719786 95.687733 
L 645.211765 95.36461 
L 647.698396 94.538852 
L 648.693048 94.215729 
L 650.185027 93.461775 
L 651.179679 92.995042 
L 652.174332 92.743724 
L 653.66631 92.061576 
L 658.142246 90.410058 
L 659.634225 89.512495 
L 660.131551 89.404787 
L 661.126203 88.902151 
L 662.120856 88.543126 
L 662.618182 88.112295 
L 663.612834 87.717367 
L 665.104813 87.107024 
L 665.602139 86.712096 
L 666.099465 86.676193 
L 667.094118 86.388973 
L 668.08877 86.06585 
L 668.586096 85.814532 
L 669.083422 85.742727 
L 670.575401 85.204189 
L 672.06738 84.66565 
L 673.062032 84.270722 
L 673.559358 83.875794 
L 675.051337 83.480866 
L 675.548663 83.193646 
L 676.543316 82.942328 
L 678.035294 82.116569 
L 678.53262 82.080667 
L 680.024599 81.613934 
L 681.019251 81.542129 
L 682.013904 81.1472 
L 684.997861 80.285539 
L 685.992513 80.249637 
L 689.971123 78.993047 
L 690.965775 78.454509 
L 691.463102 78.023679 
L 692.95508 77.162017 
L 693.949733 76.551674 
L 696.93369 75.618208 
L 697.431016 75.22328 
L 700.414973 74.002593 
L 702.404278 73.464055 
L 703.39893 73.033224 
L 703.896257 72.781906 
L 704.890909 72.494686 
L 705.388235 72.171563 
L 706.382888 71.99205 
L 708.869519 70.843169 
L 709.366845 70.555948 
L 710.858824 70.196923 
L 711.35615 69.8738 
L 711.853476 69.694287 
L 712.350802 69.263456 
L 712.848128 69.191651 
L 715.334759 68.222282 
L 716.826738 67.863257 
L 717.324064 67.791452 
L 717.82139 67.576036 
L 718.318717 67.540134 
L 719.313369 67.217011 
L 719.810695 67.181108 
L 721.302674 66.606668 
L 723.291979 66.032227 
L 724.286631 65.278273 
L 726.275936 64.201197 
L 727.767914 63.698561 
L 730.751872 62.370167 
L 731.746524 61.831628 
L 732.24385 61.580311 
L 732.741176 61.113577 
L 735.227807 60.395526 
L 736.22246 59.892891 
L 738.211765 59.17484 
L 738.709091 58.708107 
L 740.698396 58.205471 
L 741.195722 57.846445 
L 747.163636 55.8 
L 747.163636 55.8 
" clip-path="url(#p3f634e8c67)" style="fill: none; stroke: #1f77b4; stroke-width: 1.5; stroke-linecap: square"/>
   </g>
   <g id="line2d_44">
    <path d="M 138.93369 307.8 
L 143.409626 307.692292 
L 147.388235 307.51278 
L 149.37754 307.51278 
L 149.874866 307.369169 
L 152.361497 307.261462 
L 155.345455 306.938339 
L 158.329412 306.830631 
L 159.324064 306.722923 
L 162.805348 306.579313 
L 166.286631 306.471606 
L 168.773262 306.399801 
L 175.238503 306.292093 
L 177.725134 306.220288 
L 181.206417 306.11258 
L 183.693048 306.040775 
L 189.163636 305.933067 
L 191.152941 305.753555 
L 193.142246 305.717652 
L 196.126203 305.609944 
L 198.115508 305.574042 
L 200.602139 305.502237 
L 202.591444 305.322724 
L 207.06738 305.215016 
L 208.062032 305.143211 
L 210.051337 305.035504 
L 213.035294 304.927796 
L 215.024599 304.820088 
L 223.976471 304.28155 
L 227.457754 304.173842 
L 228.949733 304.030232 
L 231.436364 303.922525 
L 236.409626 303.671207 
L 241.382888 303.599402 
L 243.372193 303.383986 
L 245.361497 303.276279 
L 250.832086 302.773643 
L 254.313369 302.378715 
L 255.805348 302.30691 
L 260.281283 301.768372 
L 262.767914 301.696566 
L 264.259893 301.552956 
L 265.751872 301.445249 
L 279.677005 300.404075 
L 280.671658 300.224562 
L 283.655615 300.116854 
L 291.612834 299.650121 
L 295.094118 299.542413 
L 297.083422 299.326998 
L 299.570053 299.21929 
L 302.554011 299.111583 
L 305.040642 299.003875 
L 307.029947 298.967973 
L 309.516578 298.896168 
L 310.51123 298.752557 
L 317.473797 298.64485 
L 318.468449 298.537142 
L 324.436364 298.429434 
L 328.912299 298.214019 
L 332.393583 298.106311 
L 334.382888 297.890896 
L 337.864171 297.783188 
L 338.858824 297.603676 
L 341.345455 297.531871 
L 346.318717 297.460066 
L 348.805348 297.208748 
L 351.789305 297.10104 
L 353.77861 296.921527 
L 358.751872 296.670209 
L 363.725134 296.562502 
L 368.20107 296.347086 
L 369.693048 296.311184 
L 370.687701 296.167574 
L 373.174332 296.059866 
L 374.168984 295.988061 
L 375.163636 295.916256 
L 376.158289 295.844451 
L 380.634225 295.772646 
L 382.126203 295.664938 
L 395.554011 294.803277 
L 398.040642 294.695569 
L 400.527273 294.623764 
L 407.48984 294.516056 
L 408.484492 294.372446 
L 415.447059 294.264739 
L 420.420321 294.013421 
L 421.414973 293.977518 
L 422.409626 293.869811 
L 424.896257 293.762103 
L 427.382888 293.690298 
L 429.869519 293.58259 
L 432.35615 293.510785 
L 436.832086 293.403077 
L 439.816043 293.29537 
L 446.77861 293.187662 
L 452.249198 292.900442 
L 454.238503 292.828637 
L 455.730481 292.720929 
L 462.693048 292.613221 
L 465.677005 292.505514 
L 474.628877 292.397806 
L 476.618182 292.361903 
L 482.586096 292.290098 
L 483.580749 292.218293 
L 490.543316 292.110586 
L 492.53262 292.074683 
L 505.463102 291.966975 
L 506.95508 291.823365 
L 529.334759 291.715658 
L 531.82139 291.643852 
L 544.751872 291.536145 
L 545.746524 291.46434 
L 548.233155 291.392535 
L 549.725134 291.248924 
L 552.709091 291.141217 
L 556.190374 290.997606 
L 560.66631 290.889899 
L 563.152941 290.818094 
L 566.634225 290.710386 
L 570.612834 290.530873 
L 573.099465 290.423166 
L 575.08877 290.387263 
L 579.564706 290.279555 
L 581.554011 290.243653 
L 588.019251 290.135945 
L 590.008556 290.100043 
L 592.495187 289.992335 
L 595.479144 289.884627 
L 598.960428 289.812822 
L 599.95508 289.741017 
L 611.890909 289.63331 
L 618.35615 289.274284 
L 620.842781 289.202479 
L 621.837433 289.094771 
L 622.832086 289.022966 
L 626.810695 288.915259 
L 629.794652 288.807551 
L 634.767914 288.699843 
L 637.254545 288.448525 
L 642.227807 288.340818 
L 643.22246 288.23311 
L 648.195722 288.125402 
L 650.682353 288.053597 
L 656.152941 288.017695 
L 657.147594 287.909987 
L 662.618182 287.80228 
L 663.612834 287.730474 
L 674.554011 287.622767 
L 677.537968 287.515059 
L 684.997861 287.407351 
L 686.987166 287.371449 
L 691.463102 287.299644 
L 692.457754 287.191936 
L 698.425668 287.084229 
L 701.409626 286.976521 
L 710.361497 286.868813 
L 711.853476 286.761106 
L 713.345455 286.653398 
L 714.837433 286.54569 
L 722.297326 286.437983 
L 725.77861 286.294372 
L 738.709091 286.186665 
L 743.185027 285.971249 
L 747.163636 285.863542 
L 747.163636 285.863542 
" clip-path="url(#p3f634e8c67)" style="fill: none; stroke: #ff7f0e; stroke-width: 1.5; stroke-linecap: square"/>
   </g>
   <g id="patch_3">
    <path d="M 108 320.4 
L 108 43.2 
" style="fill: none; stroke: #a9a9a9; stroke-width: 0.8; stroke-linejoin: miter; stroke-linecap: square"/>
   </g>
   <g id="patch_4">
    <path d="M 777.6 320.4 
L 777.6 43.2 
" style="fill: none"/>
   </g>
   <g id="patch_5">
    <path d="M 108 320.4 
L 777.6 320.4 
" style="fill: none; stroke: #a9a9a9; stroke-width: 0.8; stroke-linejoin: miter; stroke-linecap: square"/>
   </g>
   <g id="patch_6">
    <path d="M 108 43.2 
L 777.6 43.2 
" style="fill: none"/>
   </g>
   <g id="text_22">
    <!-- get_subscribe history -->
    <g style="fill: #a9a9a9" transform="translate(378.6075 37.2) scale(0.12 -0.12)">
     <defs>
      <path id="DejaVuSans-67" d="M 2906 1791 
Q 2906 2416 2648 2759 
Q 2391 3103 1925 3103 
Q 1463 3103 1205 2759 
Q 947 2416 947 1791 
Q 947 1169 1205 825 
Q 1463 481 1925 481 
Q 2391 481 2648 825 
Q 2906 1169 2906 1791 
z
M 3481 434 
Q 3481 -459 3084 -895 
Q 2688 -1331 1869 -1331 
Q 1566 -1331 1297 -1286 
Q 1028 -1241 775 -1147 
L 775 -588 
Q 1028 -725 1275 -790 
Q 1522 -856 1778 -856 
Q 2344 -856 2625 -561 
Q 2906 -266 2906 331 
L 2906 616 
Q 2728 306 2450 153 
Q 2172 0 1784 0 
Q 1141 0 747 490 
Q 353 981 353 1791 
Q 353 2603 747 3093 
Q 1141 3584 1784 3584 
Q 2172 3584 2450 3431 
Q 2728 3278 2906 2969 
L 2906 3500 
L 3481 3500 
L 3481 434 
z
" transform="scale(0.015625)"/>
      <path id="DejaVuSans-65" d="M 3597 1894 
L 3597 1613 
L 953 1613 
Q 991 1019 1311 708 
Q 1631 397 2203 397 
Q 2534 397 2845 478 
Q 3156 559 3463 722 
L 3463 178 
Q 3153 47 2828 -22 
Q 2503 -91 2169 -91 
Q 1331 -91 842 396 
Q 353 884 353 1716 
Q 353 2575 817 3079 
Q 1281 3584 2069 3584 
Q 2775 3584 3186 3129 
Q 3597 2675 3597 1894 
z
M 3022 2063 
Q 3016 2534 2758 2815 
Q 2500 3097 2075 3097 
Q 1594 3097 1305 2825 
Q 1016 2553 972 2059 
L 3022 2063 
z
" transform="scale(0.015625)"/>
      <path id="DejaVuSans-74" d="M 1172 4494 
L 1172 3500 
L 2356 3500 
L 2356 3053 
L 1172 3053 
L 1172 1153 
Q 1172 725 1289 603 
Q 1406 481 1766 481 
L 2356 481 
L 2356 0 
L 1766 0 
Q 1100 0 847 248 
Q 594 497 594 1153 
L 594 3053 
L 172 3053 
L 172 3500 
L 594 3500 
L 594 4494 
L 1172 4494 
z
" transform="scale(0.015625)"/>
      <path id="DejaVuSans-5f" d="M 3263 -1063 
L 3263 -1509 
L -63 -1509 
L -63 -1063 
L 3263 -1063 
z
" transform="scale(0.015625)"/>
      <path id="DejaVuSans-73" d="M 2834 3397 
L 2834 2853 
Q 2591 2978 2328 3040 
Q 2066 3103 1784 3103 
Q 1356 3103 1142 2972 
Q 928 2841 928 2578 
Q 928 2378 1081 2264 
Q 1234 2150 1697 2047 
L 1894 2003 
Q 2506 1872 2764 1633 
Q 3022 1394 3022 966 
Q 3022 478 2636 193 
Q 2250 -91 1575 -91 
Q 1294 -91 989 -36 
Q 684 19 347 128 
L 347 722 
Q 666 556 975 473 
Q 1284 391 1588 391 
Q 1994 391 2212 530 
Q 2431 669 2431 922 
Q 2431 1156 2273 1281 
Q 2116 1406 1581 1522 
L 1381 1569 
Q 847 1681 609 1914 
Q 372 2147 372 2553 
Q 372 3047 722 3315 
Q 1072 3584 1716 3584 
Q 2034 3584 2315 3537 
Q 2597 3491 2834 3397 
z
" transform="scale(0.015625)"/>
      <path id="DejaVuSans-75" d="M 544 1381 
L 544 3500 
L 1119 3500 
L 1119 1403 
Q 1119 906 1312 657 
Q 1506 409 1894 409 
Q 2359 409 2629 706 
Q 2900 1003 2900 1516 
L 2900 3500 
L 3475 3500 
L 3475 0 
L 2900 0 
L 2900 538 
Q 2691 219 2414 64 
Q 2138 -91 1772 -91 
Q 1169 -91 856 284 
Q 544 659 544 1381 
z
M 1991 3584 
L 1991 3584 
z
" transform="scale(0.015625)"/>
      <path id="DejaVuSans-62" d="M 3116 1747 
Q 3116 2381 2855 2742 
Q 2594 3103 2138 3103 
Q 1681 3103 1420 2742 
Q 1159 2381 1159 1747 
Q 1159 1113 1420 752 
Q 1681 391 2138 391 
Q 2594 391 2855 752 
Q 3116 1113 3116 1747 
z
M 1159 2969 
Q 1341 3281 1617 3432 
Q 1894 3584 2278 3584 
Q 2916 3584 3314 3078 
Q 3713 2572 3713 1747 
Q 3713 922 3314 415 
Q 2916 -91 2278 -91 
Q 1894 -91 1617 61 
Q 1341 213 1159 525 
L 1159 0 
L 581 0 
L 581 4863 
L 1159 4863 
L 1159 2969 
z
" transform="scale(0.015625)"/>
      <path id="DejaVuSans-63" d="M 3122 3366 
L 3122 2828 
Q 2878 2963 2633 3030 
Q 2388 3097 2138 3097 
Q 1578 3097 1268 2742 
Q 959 2388 959 1747 
Q 959 1106 1268 751 
Q 1578 397 2138 397 
Q 2388 397 2633 464 
Q 2878 531 3122 666 
L 3122 134 
Q 2881 22 2623 -34 
Q 2366 -91 2075 -91 
Q 1284 -91 818 406 
Q 353 903 353 1747 
Q 353 2603 823 3093 
Q 1294 3584 2113 3584 
Q 2378 3584 2631 3529 
Q 2884 3475 3122 3366 
z
" transform="scale(0.015625)"/>
      <path id="DejaVuSans-72" d="M 2631 2963 
Q 2534 3019 2420 3045 
Q 2306 3072 2169 3072 
Q 1681 3072 1420 2755 
Q 1159 2438 1159 1844 
L 1159 0 
L 581 0 
L 581 3500 
L 1159 3500 
L 1159 2956 
Q 1341 3275 1631 3429 
Q 1922 3584 2338 3584 
Q 2397 3584 2469 3576 
Q 2541 3569 2628 3553 
L 2631 2963 
z
" transform="scale(0.015625)"/>
      <path id="DejaVuSans-69" d="M 603 3500 
L 1178 3500 
L 1178 0 
L 603 0 
L 603 3500 
z
M 603 4863 
L 1178 4863 
L 1178 4134 
L 603 4134 
L 603 4863 
z
" transform="scale(0.015625)"/>
      <path id="DejaVuSans-20" transform="scale(0.015625)"/>
      <path id="DejaVuSans-68" d="M 3513 2113 
L 3513 0 
L 2938 0 
L 2938 2094 
Q 2938 2591 2744 2837 
Q 2550 3084 2163 3084 
Q 1697 3084 1428 2787 
Q 1159 2491 1159 1978 
L 1159 0 
L 581 0 
L 581 4863 
L 1159 4863 
L 1159 2956 
Q 1366 3272 1645 3428 
Q 1925 3584 2291 3584 
Q 2894 3584 3203 3211 
Q 3513 2838 3513 2113 
z
" transform="scale(0.015625)"/>
      <path id="DejaVuSans-6f" d="M 1959 3097 
Q 1497 3097 1228 2736 
Q 959 2375 959 1747 
Q 959 1119 1226 758 
Q 1494 397 1959 397 
Q 2419 397 2687 759 
Q 2956 1122 2956 1747 
Q 2956 2369 2687 2733 
Q 2419 3097 1959 3097 
z
M 1959 3584 
Q 2709 3584 3137 3096 
Q 3566 2609 3566 1747 
Q 3566 888 3137 398 
Q 2709 -91 1959 -91 
Q 1206 -91 779 398 
Q 353 888 353 1747 
Q 353 2609 779 3096 
Q 1206 3584 1959 3584 
z
" transform="scale(0.015625)"/>
      <path id="DejaVuSans-79" d="M 2059 -325 
Q 1816 -950 1584 -1140 
Q 1353 -1331 966 -1331 
L 506 -1331 
L 506 -850 
L 844 -850 
Q 1081 -850 1212 -737 
Q 1344 -625 1503 -206 
L 1606 56 
L 191 3500 
L 800 3500 
L 1894 763 
L 2988 3500 
L 3597 3500 
L 2059 -325 
z
" transform="scale(0.015625)"/>
     </defs>
     <use xlink:href="#DejaVuSans-67"/>
     <use xlink:href="#DejaVuSans-65" x="63.476562"/>
     <use xlink:href="#DejaVuSans-74" x="125"/>
     <use xlink:href="#DejaVuSans-5f" x="164.208984"/>
     <use xlink:href="#DejaVuSans-73" x="214.208984"/>
     <use xlink:href="#DejaVuSans-75" x="266.308594"/>
     <use xlink:href="#DejaVuSans-62" x="329.6875"/>
     <use xlink:href="#DejaVuSans-73" x="393.164062"/>
     <use xlink:href="#DejaVuSans-63" x="445.263672"/>
     <use xlink:href="#DejaVuSans-72" x="500.244141"/>
     <use xlink:href="#DejaVuSans-69" x="541.357422"/>
     <use xlink:href="#DejaVuSans-62" x="569.140625"/>
     <use xlink:href="#DejaVuSans-65" x="632.617188"/>
     <use xlink:href="#DejaVuSans-20" x="694.140625"/>
     <use xlink:href="#DejaVuSans-68" x="725.927734"/>
     <use xlink:href="#DejaVuSans-69" x="789.306641"/>
     <use xlink:href="#DejaVuSans-73" x="817.089844"/>
     <use xlink:href="#DejaVuSans-74" x="869.189453"/>
     <use xlink:href="#DejaVuSans-6f" x="908.398438"/>
     <use xlink:href="#DejaVuSans-72" x="969.580078"/>
     <use xlink:href="#DejaVuSans-79" x="1010.693359"/>
    </g>
   </g>
   <g id="legend_1">
    <g id="line2d_45">
     <path d="M 815.08 328.498438 
L 825.08 328.498438 
L 835.08 328.498438 
" style="fill: none; stroke: #1f77b4; stroke-width: 1.5; stroke-linecap: square"/>
    </g>
    <g id="text_23">
     <!-- star -->
     <g style="fill: #a9a9a9" transform="translate(843.08 331.998438) scale(0.1 -0.1)">
      <defs>
       <path id="DejaVuSans-61" d="M 2194 1759 
Q 1497 1759 1228 1600 
Q 959 1441 959 1056 
Q 959 750 1161 570 
Q 1363 391 1709 391 
Q 2188 391 2477 730 
Q 2766 1069 2766 1631 
L 2766 1759 
L 2194 1759 
z
M 3341 1997 
L 3341 0 
L 2766 0 
L 2766 531 
Q 2569 213 2275 61 
Q 1981 -91 1556 -91 
Q 1019 -91 701 211 
Q 384 513 384 1019 
Q 384 1609 779 1909 
Q 1175 2209 1959 2209 
L 2766 2209 
L 2766 2266 
Q 2766 2663 2505 2880 
Q 2244 3097 1772 3097 
Q 1472 3097 1187 3025 
Q 903 2953 641 2809 
L 641 3341 
Q 956 3463 1253 3523 
Q 1550 3584 1831 3584 
Q 2591 3584 2966 3190 
Q 3341 2797 3341 1997 
z
" transform="scale(0.015625)"/>
      </defs>
      <use xlink:href="#DejaVuSans-73"/>
      <use xlink:href="#DejaVuSans-74" x="52.099609"/>
      <use xlink:href="#DejaVuSans-61" x="91.308594"/>
      <use xlink:href="#DejaVuSans-72" x="152.587891"/>
     </g>
    </g>
    <g id="line2d_46">
     <path d="M 815.08 343.176562 
L 825.08 343.176562 
L 835.08 343.176562 
" style="fill: none; stroke: #ff7f0e; stroke-width: 1.5; stroke-linecap: square"/>
    </g>
    <g id="text_24">
     <!-- fork -->
     <g style="fill: #a9a9a9" transform="translate(843.08 346.676562) scale(0.1 -0.1)">
      <defs>
       <path id="DejaVuSans-66" d="M 2375 4863 
L 2375 4384 
L 1825 4384 
Q 1516 4384 1395 4259 
Q 1275 4134 1275 3809 
L 1275 3500 
L 2222 3500 
L 2222 3053 
L 1275 3053 
L 1275 0 
L 697 0 
L 697 3053 
L 147 3053 
L 147 3500 
L 697 3500 
L 697 3744 
Q 697 4328 969 4595 
Q 1241 4863 1831 4863 
L 2375 4863 
z
" transform="scale(0.015625)"/>
       <path id="DejaVuSans-6b" d="M 581 4863 
L 1159 4863 
L 1159 1991 
L 2875 3500 
L 3609 3500 
L 1753 1863 
L 3688 0 
L 2938 0 
L 1159 1709 
L 1159 0 
L 581 0 
L 581 4863 
z
" transform="scale(0.015625)"/>
      </defs>
      <use xlink:href="#DejaVuSans-66"/>
      <use xlink:href="#DejaVuSans-6f" x="35.205078"/>
      <use xlink:href="#DejaVuSans-72" x="96.386719"/>
      <use xlink:href="#DejaVuSans-6b" x="137.5"/>
     </g>
    </g>
   </g>
  </g>
 </g>
 <defs>
  <clipPath id="p3f634e8c67">
   <rect x="108" y="43.2" width="669.6" height="277.2"/>
  </clipPath>
 </defs>
</svg>
